<svg xmlns="http://www.w3.org/2000/svg" width="1300" height="814" viewBox="0 0 1300 814" fill="none"><path opacity="0.05" d="M1655.31 616C1655.31 616 1519.31 462 1365.31 462C1211.31 462 1117.31 628 945.314 616C773.314 604 666.314 452 521.314 494C376.314 536 323.314 628 225.314 616C127.314 604 81.3137 494 -150.686 494C-382.686 494 -344.686 616 -344.686 616V716C-344.686 716 -336.686 634 -182.686 634C-28.6863 634 -18.6863 750 163.314 762C345.314 774 495.314 576 595.314 576C695.314 576 783.314 736 971.314 736C1159.31 736 1245.31 636 1365.31 646C1485.31 656 1655.31 814 1655.31 814V616Z" fill="#939598"></path><path opacity="0.05" d="M-310 198C-310 198 -174 239 -20 239C134 239 228 186 400 198C572 210 650 342 798 342C946 342 980 216 1120 198C1260 180 1394 326 1626 326C1858 326 1852 292 1852 292V78C1852 78 1728 226 1574 226C1420 226 1364 64 1182 52C1000 40 888 278 788 278C688 278 562 78 374 78C186 78 100 178 -20 168C-140 158 -310 0 -310 0V198Z" fill="#939598"></path><path d="M1160.96 281.181C1158.71 281.915 1156.47 282.644 1154.22 283.369V283.371C1154.31 283.634 1154.16 283.915 1153.9 284C1152.3 284.518 1150.69 285.035 1149.09 285.548C1148.83 285.632 1148.54 285.487 1148.46 285.225V285.222C1146.2 285.943 1143.95 286.661 1141.69 287.372V287.374C1141.77 287.637 1141.63 287.918 1141.36 288.001C1139.76 288.508 1138.15 289.013 1136.54 289.514C1136.28 289.596 1136 289.449 1135.92 289.186V289.184C1133.66 289.886 1131.41 290.584 1129.16 291.274V291.275C1129.24 291.539 1129.09 291.819 1128.83 291.9C1127.21 292.397 1125.59 292.889 1123.97 293.379C1123.71 293.459 1123.43 293.31 1123.35 293.046V293.043C1121.08 293.729 1118.82 294.408 1116.56 295.08V295.083C1116.64 295.348 1116.49 295.626 1116.22 295.705C1114.61 296.184 1113 296.66 1111.39 297.132C1111.12 297.209 1110.85 297.058 1110.77 296.793V296.79C1108.49 297.457 1106.22 298.118 1103.94 298.77V298.771C1104.02 299.036 1103.87 299.314 1103.6 299.39C1101.98 299.855 1100.35 300.317 1098.73 300.774C1098.46 300.849 1098.19 300.695 1098.11 300.43V300.428C1095.84 301.068 1093.57 301.699 1091.31 302.323C1091.31 302.324 1091.31 302.325 1091.31 302.326C1091.38 302.592 1091.22 302.868 1090.96 302.941C1089.33 303.39 1087.7 303.833 1086.08 304.272C1085.81 304.344 1085.53 304.186 1085.46 303.92V303.917C1083.17 304.537 1080.88 305.149 1078.59 305.75V305.752C1078.66 306.019 1078.5 306.292 1078.23 306.362C1076.6 306.79 1074.97 307.214 1073.35 307.632C1073.08 307.701 1072.81 307.54 1072.74 307.272V307.271C1070.45 307.859 1068.16 308.436 1065.88 309.004C1065.88 309.005 1065.88 309.006 1065.88 309.007C1065.95 309.275 1065.78 309.547 1065.52 309.613C1063.87 310.023 1062.22 310.427 1060.58 310.826C1060.31 310.891 1060.04 310.727 1059.98 310.459C1059.98 310.458 1059.98 310.455 1059.98 310.454C1057.68 311.012 1055.38 311.561 1053.09 312.097V312.098C1053.16 312.367 1052.99 312.635 1052.72 312.698C1051.09 313.08 1049.46 313.456 1047.83 313.825C1047.56 313.886 1047.29 313.717 1047.23 313.448V313.446C1044.9 313.975 1042.57 314.492 1040.25 314.995V314.996C1040.31 315.266 1040.14 315.531 1039.87 315.59C1038.22 315.947 1036.57 316.299 1034.93 316.644C1034.66 316.7 1034.39 316.527 1034.34 316.257V316.255C1032.03 316.738 1029.73 317.208 1027.43 317.664V317.665C1027.49 317.936 1027.31 318.199 1027.04 318.253C1025.37 318.584 1023.7 318.909 1022.03 319.226C1021.76 319.277 1021.5 319.098 1021.45 318.827V318.826C1019.12 319.268 1016.79 319.695 1014.48 320.107V320.109C1014.53 320.381 1014.35 320.64 1014.08 320.688C1012.43 320.981 1010.78 321.267 1009.14 321.544C1008.87 321.59 1008.61 321.407 1008.57 321.135V321.133C1006.2 321.531 1003.85 321.913 1001.5 322.277V322.278C1001.55 322.551 1001.36 322.806 1001.09 322.849C999.415 323.107 997.749 323.357 996.089 323.598C995.816 323.637 995.561 323.448 995.521 323.175V323.173C993.182 323.51 990.854 323.83 988.538 324.132V324.134C988.573 324.408 988.38 324.658 988.106 324.693C986.411 324.912 984.722 325.122 983.04 325.321C982.766 325.354 982.517 325.158 982.484 324.884V324.882C980.131 325.158 977.79 325.415 975.464 325.651V325.755C975.44 325.986 975.257 326.177 975.017 326.201C973.338 326.37 971.666 326.528 970.002 326.676C969.727 326.7 969.484 326.497 969.46 326.222L969.461 326.221C967.071 326.43 964.697 326.616 962.338 326.78V326.781C962.357 327.057 962.148 327.296 961.873 327.314C960.192 327.429 958.519 327.531 956.854 327.622C956.579 327.637 956.343 327.426 956.328 327.15L956.329 327.148C953.944 327.275 951.577 327.379 949.228 327.456V327.457C949.236 327.733 949.019 327.964 948.743 327.973C947.042 328.026 945.35 328.066 943.668 328.093C943.392 328.097 943.165 327.877 943.16 327.601L943.161 327.599C940.801 327.632 938.461 327.639 936.14 327.618V327.62C936.137 327.896 935.91 328.118 935.634 328.115C933.915 328.097 932.207 328.063 930.51 328.014C930.234 328.006 930.016 327.775 930.024 327.499C927.653 327.426 925.304 327.321 922.978 327.187C922.977 327.188 922.978 327.189 922.978 327.19C922.961 327.466 922.724 327.676 922.448 327.659L919.965 327.499C919.11 327.439 918.257 327.377 917.405 327.312C917.13 327.292 916.924 327.052 916.944 326.776L916.945 326.774C914.56 326.591 912.19 326.39 909.834 326.17V326.171C909.808 326.446 909.564 326.648 909.289 326.622C908.449 326.543 907.611 326.461 906.775 326.377L904.273 326.119C903.999 326.09 903.8 325.843 903.829 325.568L903.83 325.567C901.444 325.311 899.073 325.037 896.717 324.744L896.716 324.745C896.686 324.985 896.491 325.164 896.259 325.182L896.158 325.18C895.318 325.074 894.48 324.967 893.644 324.857L891.14 324.521C890.866 324.484 890.674 324.232 890.712 323.958L890.713 323.957C888.347 323.63 885.995 323.284 883.657 322.922L883.656 322.924C883.614 323.197 883.358 323.383 883.085 323.341C882.246 323.21 881.409 323.077 880.573 322.941L878.072 322.529C877.8 322.484 877.616 322.225 877.662 321.953L877.663 321.951C875.315 321.554 872.981 321.14 870.661 320.709L870.66 320.711C870.616 320.948 870.41 321.115 870.178 321.119L870.077 321.111C868.404 320.799 866.738 320.477 865.079 320.147C864.808 320.094 864.632 319.831 864.686 319.561L864.687 319.559C862.356 319.093 860.04 318.609 857.737 318.111C857.737 318.113 857.737 318.114 857.736 318.115C857.685 318.351 857.475 318.513 857.242 318.51L857.142 318.498C856.309 318.317 855.478 318.134 854.648 317.949L852.165 317.389C851.896 317.327 851.727 317.058 851.789 316.789L851.79 316.788C849.478 316.256 847.179 315.709 844.893 315.146L844.892 315.148C844.834 315.383 844.619 315.538 844.387 315.528L844.286 315.514C843.458 315.309 842.631 315.103 841.807 314.895L839.338 314.264C839.071 314.195 838.909 313.922 838.979 313.654C838.979 313.653 838.98 313.652 838.98 313.65C836.68 313.054 834.393 312.443 832.118 311.817C832.118 311.819 832.118 311.82 832.117 311.821C832.044 312.087 831.768 312.243 831.502 312.17C830.682 311.944 829.864 311.715 829.047 311.485L826.601 310.791C826.335 310.715 826.182 310.437 826.258 310.172C826.258 310.171 826.259 310.17 826.26 310.169C823.973 309.511 821.699 308.839 819.438 308.154L819.437 308.157C819.366 308.388 819.144 308.531 818.912 308.51L818.812 308.49C818 308.243 817.19 307.995 816.381 307.745L813.959 306.99C813.696 306.907 813.549 306.627 813.632 306.363L813.633 306.362C811.362 305.647 809.103 304.918 806.855 304.178L806.854 304.179C806.779 304.408 806.552 304.546 806.321 304.519L806.223 304.497C805.418 304.231 804.615 303.964 803.813 303.695L801.412 302.885C801.151 302.796 801.011 302.512 801.1 302.251L801.102 302.248C798.847 301.479 796.603 300.7 794.37 299.909L794.369 299.912C794.288 300.14 794.059 300.272 793.829 300.24L793.73 300.216C792.933 299.933 792.137 299.648 791.342 299.362L788.96 298.502C788.701 298.407 788.567 298.12 788.661 297.86C788.662 297.859 788.663 297.858 788.663 297.857C786.424 297.041 784.196 296.215 781.978 295.38C781.977 295.381 781.977 295.382 781.977 295.383C781.879 295.641 781.591 295.771 781.333 295.674C780.542 295.375 779.751 295.075 778.962 294.774L776.6 293.869C776.342 293.77 776.213 293.48 776.312 293.223L776.313 293.221C774.09 292.362 771.877 291.495 769.673 290.62L769.672 290.622C769.57 290.879 769.28 291.004 769.023 290.902C767.452 290.278 765.885 289.649 764.323 289.018C764.067 288.914 763.943 288.622 764.047 288.366L764.048 288.365C761.839 287.471 759.64 286.569 757.448 285.661L757.447 285.662C757.341 285.917 757.049 286.038 756.794 285.933L752.12 283.98C751.866 283.873 751.746 283.58 751.854 283.325L751.854 283.324C749.659 282.399 747.472 281.469 745.291 280.534L745.29 280.536C745.195 280.758 744.958 280.876 744.73 280.829L744.634 280.799L739.982 278.792C739.729 278.682 739.614 278.387 739.724 278.134C737.539 277.186 735.362 276.233 733.19 275.278L733.189 275.279C733.092 275.5 732.854 275.617 732.627 275.567L732.531 275.536L727.896 273.489C727.644 273.377 727.53 273.082 727.642 272.829C725.466 271.864 723.296 270.896 721.131 269.928L721.13 269.929C721.031 270.149 720.793 270.264 720.565 270.213L720.47 270.182L715.847 268.109C715.626 268.01 715.512 267.771 715.563 267.544L715.595 267.448C713.424 266.473 711.259 265.495 709.097 264.521L709.096 264.523C708.996 264.744 708.757 264.857 708.53 264.806L708.435 264.773L703.815 262.69C703.564 262.577 703.452 262.281 703.565 262.029C701.396 261.051 699.229 260.076 697.066 259.103C696.967 259.322 696.729 259.435 696.503 259.384L696.406 259.352C694.865 258.658 693.325 257.965 691.786 257.274C691.534 257.161 691.421 256.865 691.534 256.613L691.535 256.612C689.365 255.639 687.196 254.67 685.029 253.704C684.917 253.956 684.621 254.069 684.369 253.957L679.739 251.902C679.487 251.791 679.372 251.496 679.483 251.243C677.308 250.281 675.134 249.324 672.96 248.375C672.863 248.596 672.626 248.712 672.398 248.664L672.302 248.634L667.655 246.616C667.402 246.507 667.285 246.213 667.395 245.96C665.211 245.018 663.027 244.085 660.842 243.159C660.734 243.413 660.441 243.531 660.188 243.424L655.516 241.463C655.261 241.357 655.141 241.064 655.247 240.81C653.052 239.896 650.856 238.993 648.658 238.101C648.567 238.324 648.333 238.446 648.104 238.403L648.007 238.375C646.441 237.74 644.873 237.11 643.305 236.486C643.049 236.384 642.923 236.095 643.024 235.839C640.816 234.963 638.605 234.099 636.391 233.247C636.304 233.472 636.072 233.598 635.843 233.56L635.745 233.533C634.956 233.23 634.167 232.929 633.377 232.63L631.006 231.736C630.748 231.64 630.618 231.354 630.713 231.096C628.488 230.265 626.26 229.447 624.027 228.646C623.946 228.872 623.716 229.004 623.486 228.971L623.388 228.946C621.797 228.377 620.204 227.815 618.608 227.261C618.348 227.17 618.211 226.887 618.3 226.627C616.057 225.851 613.809 225.09 611.556 224.347C611.48 224.575 611.254 224.712 611.023 224.686L610.924 224.664C610.122 224.4 609.318 224.139 608.515 223.88L606.101 223.108C605.838 223.025 605.692 222.745 605.774 222.482C603.512 221.769 601.244 221.073 598.968 220.396C598.889 220.661 598.611 220.812 598.347 220.733C597.537 220.494 596.726 220.257 595.915 220.022L593.479 219.326C593.213 219.251 593.059 218.975 593.134 218.71C590.851 218.068 588.561 217.447 586.263 216.846C586.202 217.079 585.985 217.231 585.753 217.219L585.653 217.203C584.021 216.779 582.383 216.364 580.742 215.961C580.474 215.895 580.309 215.624 580.375 215.356C578.073 214.794 575.762 214.255 573.441 213.737C573.381 214.006 573.115 214.175 572.846 214.115C572.023 213.933 571.198 213.754 570.373 213.577L567.895 213.056C567.624 213 567.45 212.735 567.506 212.465C565.185 211.989 562.855 211.537 560.514 211.109C560.47 211.347 560.266 211.514 560.033 211.52L559.932 211.512C558.275 211.211 556.614 210.923 554.946 210.647C554.674 210.602 554.489 210.346 554.534 210.073C552.197 209.691 549.85 209.333 547.49 209.001C547.452 209.274 547.2 209.464 546.927 209.426C546.094 209.31 545.26 209.197 544.424 209.088L541.912 208.77C541.638 208.736 541.443 208.487 541.477 208.213C539.127 207.928 536.766 207.67 534.393 207.438C534.366 207.712 534.121 207.913 533.847 207.887C533.01 207.806 532.172 207.729 531.333 207.655L528.81 207.444C528.535 207.422 528.33 207.182 528.352 206.907C525.994 206.724 523.624 206.568 521.24 206.439C521.225 206.714 520.99 206.925 520.715 206.911C519.876 206.867 519.035 206.827 518.193 206.79L515.662 206.689C515.386 206.68 515.171 206.448 515.181 206.172C512.82 206.092 510.447 206.04 508.06 206.016C508.057 206.292 507.831 206.513 507.555 206.511C506.705 206.504 505.853 206.5 505 206.5C504.148 206.5 503.297 206.503 502.448 206.508C502.173 206.51 501.949 206.288 501.946 206.013C499.563 206.03 497.191 206.068 494.832 206.126C494.839 206.402 494.621 206.631 494.345 206.638C492.654 206.681 490.97 206.736 489.292 206.8C489.017 206.81 488.787 206.597 488.774 206.322C486.392 206.416 484.021 206.527 481.663 206.66C481.678 206.935 481.468 207.172 481.192 207.188C479.505 207.285 477.824 207.391 476.149 207.508C475.875 207.527 475.637 207.32 475.616 207.046C473.238 207.214 470.872 207.401 468.518 207.606C468.541 207.881 468.338 208.122 468.063 208.146C466.38 208.296 464.703 208.454 463.032 208.622C462.758 208.649 462.515 208.45 462.486 208.177C460.115 208.417 457.756 208.677 455.409 208.953C455.44 209.226 455.244 209.474 454.971 209.507C453.292 209.706 451.62 209.915 449.954 210.132C449.681 210.167 449.431 209.975 449.395 209.702C447.033 210.013 444.683 210.34 442.346 210.684C442.386 210.956 442.196 211.21 441.924 211.251C440.251 211.499 438.584 211.755 436.923 212.02C436.65 212.063 436.395 211.878 436.352 211.605C434.001 211.982 431.663 212.374 429.337 212.782C429.385 213.054 429.202 213.313 428.931 213.361C427.264 213.655 425.602 213.958 423.947 214.268C423.676 214.318 423.416 214.138 423.365 213.867C421.028 214.306 418.703 214.762 416.39 215.229C416.444 215.5 416.268 215.763 415.998 215.818C414.337 216.156 412.683 216.5 411.034 216.852C410.765 216.909 410.5 216.737 410.441 216.468C408.118 216.965 405.807 217.475 403.508 217.998C403.568 218.267 403.399 218.533 403.131 218.595C401.477 218.972 399.828 219.356 398.186 219.746C397.918 219.809 397.65 219.644 397.585 219.377C395.276 219.927 392.979 220.487 390.693 221.06C390.76 221.327 390.597 221.599 390.329 221.666C388.682 222.08 387.04 222.499 385.404 222.924C385.137 222.993 384.865 222.833 384.796 222.565C382.497 223.164 380.21 223.773 377.935 224.391C378.006 224.657 377.848 224.931 377.582 225.003C375.945 225.448 374.313 225.898 372.688 226.353C372.422 226.427 372.147 226.272 372.072 226.007C369.783 226.648 367.506 227.297 365.239 227.953C365.315 228.218 365.162 228.495 364.897 228.572C363.27 229.045 361.648 229.52 360.032 229.999C359.768 230.077 359.49 229.927 359.411 229.662C357.13 230.34 354.861 231.023 352.603 231.712C352.683 231.976 352.533 232.255 352.27 232.336C350.651 232.83 349.038 233.327 347.431 233.826C347.168 233.908 346.89 233.762 346.807 233.5C344.532 234.207 342.268 234.916 340.016 235.63C340.099 235.893 339.953 236.174 339.689 236.258C338.08 236.769 336.475 237.281 334.876 237.795C334.613 237.879 334.332 237.735 334.248 237.472C331.978 238.201 329.719 238.934 327.471 239.666C327.556 239.928 327.411 240.21 327.148 240.296C325.541 240.82 323.938 241.343 322.341 241.867C322.079 241.953 321.798 241.811 321.711 241.55C319.448 242.292 317.196 243.034 314.953 243.774C315.038 244.036 314.895 244.318 314.634 244.404C313.023 244.936 311.416 245.467 309.815 245.996C309.553 246.083 309.27 245.941 309.184 245.679V245.678C306.927 246.424 304.682 247.167 302.445 247.905C302.532 248.167 302.389 248.45 302.127 248.537C300.512 249.07 298.9 249.6 297.295 250.128C297.033 250.214 296.75 250.071 296.664 249.809V249.808C294.403 250.55 292.151 251.286 289.909 252.015V252.017C289.994 252.279 289.851 252.561 289.588 252.646C287.975 253.17 286.366 253.691 284.763 254.206C284.5 254.291 284.217 254.146 284.133 253.883V253.881C281.863 254.609 279.604 255.329 277.353 256.037V256.039C277.435 256.303 277.289 256.583 277.025 256.666C275.413 257.173 273.804 257.674 272.2 258.169C271.937 258.25 271.657 258.102 271.575 257.839V257.837C269.294 258.539 267.022 259.23 264.758 259.905V259.906C264.836 260.171 264.686 260.45 264.421 260.528C262.794 261.012 261.172 261.489 259.554 261.957C259.288 262.034 259.01 261.881 258.934 261.616V261.614C256.648 262.274 254.371 262.919 252.102 263.544V263.545C252.175 263.811 252.017 264.086 251.751 264.159C250.109 264.61 248.471 265.051 246.837 265.482C246.57 265.553 246.296 265.394 246.226 265.127V265.124C243.921 265.729 241.625 266.315 239.336 266.877V266.879C239.401 267.147 239.237 267.418 238.969 267.483C237.322 267.886 235.679 268.277 234.039 268.655C233.77 268.717 233.502 268.549 233.439 268.28V268.278C231.115 268.812 228.798 269.319 226.487 269.8V269.803C226.543 270.073 226.369 270.338 226.099 270.394C224.436 270.737 222.777 271.066 221.121 271.381C220.85 271.432 220.588 271.255 220.536 270.983V270.981C218.198 271.422 215.866 271.833 213.54 272.211V272.212C213.584 272.484 213.398 272.741 213.126 272.785C211.446 273.055 209.768 273.309 208.094 273.545C207.82 273.583 207.568 273.393 207.529 273.12C207.529 273.119 207.529 273.117 207.529 273.116C205.172 273.444 202.82 273.736 200.474 273.991V274.096C200.452 274.327 200.27 274.519 200.029 274.545C198.345 274.724 196.662 274.884 194.982 275.024C194.707 275.047 194.466 274.843 194.442 274.568C194.442 274.567 194.443 274.566 194.443 274.564C192.072 274.757 189.705 274.908 187.343 275.018C187.343 275.019 187.343 275.02 187.343 275.021C187.355 275.297 187.14 275.531 186.864 275.543C185.168 275.617 183.474 275.669 181.782 275.698C181.506 275.703 181.278 275.483 181.273 275.207L181.274 275.205C178.902 275.24 176.533 275.231 174.167 275.173V275.174C174.159 275.45 173.929 275.667 173.653 275.659C171.959 275.613 170.266 275.542 168.574 275.445C168.299 275.43 168.088 275.194 168.104 274.918L168.104 274.916C165.74 274.774 163.379 274.583 161.02 274.339L161.019 274.342C160.989 274.616 160.743 274.815 160.469 274.786C159.625 274.696 158.782 274.599 157.939 274.496C157.522 274.445 157.105 274.391 156.688 274.336L155.443 274.164C155.17 274.125 154.98 273.871 155.02 273.598L155.021 273.595C152.71 273.252 150.423 272.843 148.16 272.37L148.159 272.372C148.109 272.609 147.899 272.77 147.666 272.768L147.565 272.757C146.337 272.495 145.116 272.214 143.901 271.916L142.688 271.612C142.421 271.544 142.26 271.271 142.328 271.004L142.329 271.002C140.075 270.415 137.843 269.765 135.633 269.058L135.632 269.06C135.547 269.322 135.265 269.466 135.002 269.381C133.415 268.866 131.839 268.322 130.274 267.749C130.015 267.654 129.882 267.368 129.977 267.108L129.978 267.105C127.797 266.298 125.636 265.435 123.495 264.521L123.494 264.523C123.385 264.777 123.091 264.893 122.838 264.784C121.31 264.125 119.791 263.44 118.282 262.729C118.032 262.612 117.925 262.314 118.043 262.064L118.044 262.063C115.948 261.069 113.87 260.025 111.808 258.938L111.807 258.939C111.693 259.153 111.448 259.25 111.225 259.185L111.131 259.146C110.027 258.56 108.928 257.961 107.834 257.35L106.741 256.734C106.501 256.598 106.418 256.293 106.554 256.053L106.556 256.051C104.543 254.902 102.547 253.711 100.563 252.483C100.563 252.485 100.562 252.486 100.562 252.487C100.434 252.692 100.182 252.773 99.9639 252.692L99.873 252.647C99.1683 252.209 98.4649 251.766 97.7637 251.318L95.665 249.962C95.434 249.811 95.3694 249.501 95.5205 249.27C95.5211 249.269 95.5218 249.268 95.5225 249.267C93.5853 247.993 91.6605 246.686 89.7471 245.349L89.7451 245.351C89.5865 245.577 89.2748 245.631 89.0488 245.473C87.6891 244.518 86.335 243.548 84.9863 242.564C84.7632 242.402 84.7142 242.089 84.877 241.866C84.8776 241.865 84.8782 241.864 84.8789 241.863C83.009 240.494 81.1489 239.099 79.2979 237.679C79.2972 237.68 79.2965 237.681 79.2959 237.682C79.1486 237.873 78.8905 237.928 78.6816 237.826L78.5947 237.772C77.9362 237.266 77.2784 236.757 76.6221 236.244L74.6562 234.697C74.4399 234.526 74.4038 234.212 74.5752 233.995L74.5762 233.994C72.7584 232.551 70.9481 231.087 69.1445 229.605L69.0723 229.678C68.9173 229.803 68.7006 229.825 68.5244 229.731L68.4404 229.675C67.8003 229.148 67.1609 228.618 66.5225 228.087L64.6094 226.487C64.3981 226.31 64.3712 225.995 64.5488 225.783L64.5498 225.782C62.7739 224.287 61.0033 222.777 59.2373 221.255L59.2363 221.256C59.0784 221.439 58.8172 221.479 58.6143 221.365L58.5312 221.308C57.902 220.765 57.2736 220.22 56.6455 219.674L54.7637 218.033C54.5558 217.851 54.534 217.535 54.7158 217.327L54.7178 217.325C52.9706 215.795 51.2267 214.256 49.4854 212.711L49.4834 212.713C49.3229 212.893 49.0616 212.93 48.8604 212.813L48.7783 212.755L45.0537 209.436C44.8479 209.252 44.8299 208.935 45.0137 208.729L45.0156 208.728C43.2825 207.178 41.5495 205.625 39.8184 204.07C39.6339 204.276 39.3177 204.293 39.1123 204.108L35.4023 200.776C35.197 200.592 35.1801 200.276 35.3643 200.07C33.6325 198.515 31.9007 196.961 30.167 195.412C30.006 195.592 29.744 195.629 29.543 195.512L29.4609 195.452C28.2214 194.345 26.9816 193.24 25.7402 192.139C25.5337 191.955 25.514 191.639 25.6973 191.433C23.9539 189.887 22.2062 188.351 20.457 186.822C20.298 187.002 20.0374 187.041 19.8359 186.927L19.7539 186.868C19.1275 186.321 18.5004 185.776 17.873 185.231L15.9893 183.604C15.78 183.423 15.7564 183.108 15.9365 182.898C14.1698 181.379 12.3988 179.872 10.6221 178.381C10.4669 178.566 10.2065 178.61 10.002 178.5L9.91797 178.443C8.64128 177.374 7.36177 176.312 6.0791 175.26C5.86585 175.085 5.83528 174.771 6.00977 174.558C4.20419 173.08 2.3921 171.62 0.572266 170.182C0.401216 170.398 0.0877269 170.434 -0.128906 170.264C-0.781089 169.75 -1.43469 169.239 -2.08887 168.73L-4.05469 167.215C-4.24652 167.068 -4.30257 166.809 -4.20117 166.6L-4.14746 166.514C-6.00418 165.097 -7.86952 163.704 -9.74512 162.34C-9.90713 162.563 -10.2198 162.613 -10.4434 162.451C-11.7909 161.474 -13.1438 160.512 -14.502 159.565C-14.7278 159.408 -14.7839 159.098 -14.6279 158.872C-16.545 157.542 -18.4732 156.242 -20.4141 154.978C-20.5459 155.179 -20.798 155.253 -21.0137 155.169L-21.1035 155.123C-21.8012 154.671 -22.5012 154.223 -23.2021 153.779L-25.3096 152.464C-25.5441 152.319 -25.6171 152.012 -25.4736 151.777C-27.4641 150.558 -29.4688 149.378 -31.4883 148.238C-31.6239 148.477 -31.9269 148.562 -32.167 148.428C-33.2527 147.819 -34.3429 147.222 -35.4375 146.639L-36.5342 146.06C-36.7782 145.931 -36.8725 145.63 -36.7451 145.386C-38.8128 144.31 -40.8969 143.28 -42.999 142.299C-43.1151 142.549 -43.4117 142.658 -43.6621 142.542C-44.7919 142.019 -45.9272 141.511 -47.0674 141.018L-48.209 140.529C-48.4629 140.422 -48.5822 140.129 -48.4756 139.875C-50.6219 138.976 -52.7876 138.131 -54.9736 137.342C-55.0554 137.568 -55.2831 137.699 -55.5127 137.667L-55.6113 137.643C-56.7805 137.225 -57.9557 136.825 -59.1367 136.44L-60.3203 136.062C-60.5829 135.979 -60.7282 135.699 -60.6465 135.437C-62.8639 134.748 -65.1025 134.118 -67.3643 133.552C-67.4223 133.786 -67.637 133.941 -67.8691 133.932L-67.9697 133.917C-69.5695 133.523 -71.1807 133.161 -72.8037 132.832C-73.0739 132.777 -73.2484 132.514 -73.1943 132.244C-75.463 131.794 -77.7549 131.409 -80.0713 131.09C-80.1041 131.328 -80.2999 131.504 -80.5312 131.521L-80.6328 131.518C-81.8596 131.354 -83.0932 131.209 -84.334 131.084L-85.5771 130.966C-85.8516 130.941 -86.0532 130.699 -86.0293 130.425C-88.3225 130.229 -90.6398 130.1 -92.9824 130.04C-92.9896 130.315 -93.2179 130.532 -93.4932 130.526C-94.3255 130.509 -95.1611 130.5 -96 130.5C-96.8441 130.5 -97.6898 130.505 -98.5371 130.514C-98.8127 130.517 -99.0382 130.296 -99.042 130.021C-101.425 130.051 -103.821 130.116 -106.227 130.215C-106.216 130.49 -106.429 130.721 -106.704 130.733C-108.395 130.806 -110.091 130.895 -111.792 131C-112.067 131.017 -112.303 130.808 -112.321 130.533C-114.7 130.684 -117.088 130.865 -119.481 131.076C-119.458 131.35 -119.661 131.593 -119.936 131.617C-121.629 131.769 -123.327 131.936 -125.026 132.116C-125.301 132.145 -125.545 131.947 -125.575 131.673C-127.945 131.928 -130.321 132.21 -132.699 132.519C-132.663 132.792 -132.857 133.043 -133.131 133.079C-134.815 133.3 -136.5 133.533 -138.187 133.779C-138.459 133.819 -138.712 133.631 -138.753 133.359C-141.117 133.707 -143.483 134.078 -145.849 134.473C-145.804 134.744 -145.988 135.001 -146.26 135.047C-147.936 135.329 -149.613 135.621 -151.288 135.925C-151.559 135.974 -151.818 135.794 -151.868 135.523C-154.221 135.953 -156.573 136.404 -158.922 136.874C-158.869 137.144 -159.044 137.407 -159.314 137.461C-160.983 137.797 -162.65 138.143 -164.314 138.498C-164.584 138.556 -164.849 138.383 -164.907 138.113C-167.249 138.615 -169.586 139.136 -171.917 139.673C-171.855 139.942 -172.023 140.21 -172.292 140.272C-173.952 140.657 -175.61 141.05 -177.264 141.451C-177.532 141.516 -177.801 141.352 -177.866 141.084C-180.195 141.651 -182.515 142.234 -184.827 142.831C-184.759 143.098 -184.92 143.37 -185.187 143.439C-186.839 143.868 -188.487 144.304 -190.13 144.747C-190.396 144.819 -190.67 144.661 -190.742 144.396C-193.061 145.022 -195.368 145.662 -197.663 146.314C-197.588 146.58 -197.743 146.856 -198.008 146.932C-199.647 147.399 -201.279 147.872 -202.904 148.351C-203.169 148.429 -203.446 148.277 -203.524 148.012C-205.833 148.694 -208.128 149.387 -210.406 150.089C-210.325 150.353 -210.474 150.632 -210.737 150.714C-212.372 151.219 -213.999 151.729 -215.616 152.243C-215.879 152.327 -216.159 152.181 -216.243 151.919C-218.537 152.65 -220.812 153.389 -223.066 154.135C-222.98 154.397 -223.123 154.679 -223.385 154.766C-225.013 155.305 -226.63 155.849 -228.235 156.395C-228.497 156.483 -228.78 156.342 -228.869 156.081C-231.156 156.86 -233.42 157.646 -235.658 158.435C-235.567 158.695 -235.704 158.98 -235.964 159.072C-237.577 159.642 -239.177 160.213 -240.763 160.785C-241.021 160.878 -241.306 160.745 -241.4 160.487C-243.674 161.31 -245.919 162.131 -248.132 162.956C-248.035 163.215 -248.168 163.503 -248.427 163.6C-250.046 164.204 -251.648 164.809 -253.232 165.413C-253.49 165.511 -253.777 165.382 -253.876 165.126C-256.148 165.994 -258.382 166.857 -260.576 167.719C-260.476 167.976 -260.603 168.266 -260.859 168.367C-262.461 168.997 -264.041 169.624 -265.598 170.248C-265.853 170.35 -266.142 170.227 -266.246 169.973C-268.514 170.884 -270.734 171.786 -272.901 172.68C-272.797 172.934 -272.919 173.226 -273.174 173.331C-274.77 173.99 -276.337 174.643 -277.874 175.289C-278.128 175.396 -278.42 175.276 -278.527 175.022C-280.792 175.976 -282.991 176.914 -285.119 177.833H-285.12C-285.011 178.086 -285.128 178.381 -285.381 178.49C-286.994 179.188 -288.566 179.874 -290.096 180.547C-290.348 180.658 -290.642 180.544 -290.754 180.292C-293.029 181.295 -295.208 182.268 -297.284 183.206C-297.171 183.458 -297.284 183.753 -297.535 183.867C-299.149 184.598 -300.7 185.307 -302.184 185.991C-302.434 186.107 -302.73 185.997 -302.846 185.746C-305.208 186.837 -307.398 187.863 -309.401 188.813C-309.283 189.063 -309.39 189.362 -309.64 189.48C-311.306 190.272 -312.84 191.009 -314.232 191.685C-314.48 191.805 -314.777 191.702 -314.898 191.455C-317.653 192.794 -319.829 193.878 -321.361 194.651C-321.237 194.897 -321.336 195.198 -321.582 195.322C-322.3 195.686 -322.847 195.967 -323.214 196.156C-323.335 196.219 -323.438 196.271 -323.52 196.313L-323.674 198.512C-323.693 198.787 -323.932 198.995 -324.207 198.976L-324.689 205.903C-324.414 205.922 -324.207 206.161 -324.226 206.437L-324.57 211.391C-324.59 211.666 -324.828 211.874 -325.104 211.854L-325.586 218.783C-325.31 218.802 -325.103 219.041 -325.122 219.316L-325.467 224.27C-325.486 224.545 -325.725 224.753 -326 224.734L-326.482 231.662C-326.207 231.681 -326 231.92 -326.019 232.195L-326.363 237.149C-326.383 237.425 -326.621 237.632 -326.896 237.613L-327.379 244.541C-327.103 244.56 -326.896 244.8 -326.915 245.075L-327.26 250.028C-327.279 250.304 -327.518 250.511 -327.793 250.492L-328.275 257.421C-328 257.44 -327.792 257.679 -327.812 257.954L-328.156 262.908C-328.176 263.183 -328.414 263.391 -328.689 263.372L-329.172 270.3C-328.897 270.319 -328.689 270.559 -328.708 270.834L-329.053 275.787C-329.072 276.062 -329.311 276.269 -329.586 276.25L-330.068 283.18C-329.793 283.199 -329.585 283.438 -329.604 283.713L-329.949 288.667C-329.969 288.942 -330.208 289.15 -330.483 289.131L-330.965 296.059C-330.69 296.078 -330.482 296.317 -330.501 296.593L-330.846 301.546C-330.865 301.821 -331.104 302.029 -331.38 302.01L-331.862 308.938C-331.587 308.958 -331.378 309.196 -331.397 309.472L-331.742 314.425C-331.761 314.7 -332.001 314.909 -332.276 314.89L-332.759 321.817C-332.483 321.837 -332.275 322.075 -332.294 322.351L-332.639 327.305C-332.658 327.58 -332.897 327.788 -333.173 327.769L-333.655 334.696C-333.38 334.715 -333.171 334.955 -333.19 335.23L-333.536 340.184C-333.555 340.459 -333.794 340.667 -334.069 340.647L-334.552 347.576C-334.276 347.595 -334.069 347.834 -334.088 348.109L-334.433 353.063C-334.452 353.339 -334.69 353.547 -334.966 353.527L-335.448 360.455C-335.173 360.474 -334.965 360.714 -334.984 360.989L-335.329 365.942C-335.348 366.218 -335.587 366.425 -335.862 366.406L-336.345 373.335C-336.069 373.354 -335.862 373.593 -335.881 373.868L-336.226 378.822C-336.245 379.097 -336.484 379.305 -336.759 379.286L-337.241 386.214C-336.966 386.233 -336.758 386.472 -336.777 386.747L-337.122 391.701C-337.141 391.977 -337.38 392.184 -337.655 392.165L-338.138 399.094C-337.862 399.113 -337.655 399.351 -337.674 399.627L-338.019 404.58C-338.038 404.855 -338.276 405.064 -338.552 405.045L-339.034 411.973C-338.759 411.992 -338.551 412.231 -338.57 412.506L-338.915 417.46C-338.934 417.735 -339.173 417.943 -339.448 417.924L-339.931 424.852C-339.655 424.871 -339.448 425.11 -339.467 425.386L-339.812 430.339C-339.831 430.614 -340.069 430.822 -340.345 430.803L-340.827 437.731C-340.552 437.751 -340.344 437.989 -340.363 438.265L-340.708 443.219C-340.727 443.494 -340.966 443.702 -341.241 443.683L-341.724 450.61C-341.448 450.63 -341.241 450.869 -341.26 451.145L-341.604 456.098C-341.624 456.373 -341.862 456.58 -342.138 456.562L-342.62 463.49C-342.345 463.51 -342.137 463.748 -342.156 464.023L-342.501 468.977C-342.52 469.252 -342.76 469.461 -343.035 469.441L-343.517 476.369C-343.241 476.389 -343.034 476.627 -343.053 476.902L-343.397 481.856C-343.417 482.132 -343.656 482.339 -343.932 482.32L-344.413 489.249C-344.138 489.268 -343.93 489.507 -343.949 489.782L-344.294 494.735C-344.313 495.011 -344.553 495.219 -344.828 495.2L-345.311 502.128C-345.035 502.147 -344.827 502.386 -344.846 502.661L-345.19 507.615C-345.21 507.891 -345.449 508.098 -345.725 508.079L-346.207 515.007C-345.932 515.026 -345.723 515.266 -345.742 515.541L-346.088 520.494C-346.107 520.77 -346.346 520.977 -346.621 520.958L-347.104 527.887C-346.828 527.906 -346.62 528.144 -346.639 528.42L-346.984 533.374C-347.004 533.649 -347.242 533.857 -347.518 533.838L-348 540.766C-347.725 540.785 -347.517 541.024 -347.536 541.299L-347.881 546.253C-347.9 546.528 -348.139 546.736 -348.414 546.717L-348.896 553.646C-348.621 553.665 -348.413 553.903 -348.433 554.179L-348.777 559.132C-348.797 559.407 -349.035 559.616 -349.311 559.597L-349.793 566.524C-349.735 566.528 -349.68 566.544 -349.63 566.565C-349.585 566.562 -349.538 566.564 -349.492 566.573C-349.491 566.574 -349.49 566.574 -349.488 566.574C-349.124 564.903 -348.516 562.582 -347.523 559.78C-347.525 559.78 -347.527 559.78 -347.528 559.779C-347.788 559.685 -347.922 559.398 -347.828 559.139L-347.416 558.034C-346.985 556.907 -346.494 555.717 -345.938 554.472L-345.887 554.384C-345.751 554.195 -345.498 554.12 -345.277 554.219C-345.276 554.219 -345.274 554.219 -345.273 554.22C-344.376 552.248 -343.313 550.142 -342.051 547.939H-342.053C-342.291 547.801 -342.372 547.494 -342.233 547.256C-341.422 545.859 -340.531 544.425 -339.555 542.963L-339.49 542.885C-339.325 542.721 -339.062 542.69 -338.861 542.824L-338.858 542.825C-337.609 540.978 -336.222 539.086 -334.682 537.168H-334.684C-334.898 536.994 -334.931 536.678 -334.757 536.464L-333.972 535.511C-333.174 534.556 -332.337 533.596 -331.461 532.633L-331.386 532.564C-331.198 532.428 -330.934 532.436 -330.755 532.599C-330.754 532.599 -330.753 532.6 -330.752 532.601C-329.227 530.941 -327.583 529.273 -325.81 527.606L-325.812 527.605C-326 527.403 -325.988 527.087 -325.786 526.898C-324.582 525.778 -323.319 524.66 -321.996 523.546L-321.913 523.488C-321.709 523.377 -321.448 523.421 -321.292 523.605L-321.29 523.606C-319.551 522.156 -317.706 520.716 -315.752 519.29L-315.754 519.288C-315.916 519.064 -315.865 518.752 -315.642 518.59L-314.631 517.866C-313.61 517.145 -312.56 516.428 -311.48 515.717C-311.25 515.565 -310.94 515.629 -310.788 515.859C-310.787 515.86 -310.786 515.861 -310.785 515.862C-308.881 514.619 -306.885 513.393 -304.793 512.189C-304.794 512.188 -304.795 512.188 -304.796 512.187C-304.933 511.947 -304.848 511.641 -304.608 511.504C-303.169 510.683 -301.684 509.873 -300.153 509.075L-300.06 509.037C-299.836 508.973 -299.59 509.073 -299.479 509.287C-299.478 509.288 -299.477 509.289 -299.477 509.29C-297.45 508.243 -295.342 507.217 -293.15 506.217L-293.152 506.215C-293.266 505.963 -293.155 505.667 -292.903 505.553L-291.771 505.046C-290.631 504.542 -289.469 504.044 -288.285 503.554C-288.03 503.448 -287.738 503.57 -287.633 503.825C-287.632 503.826 -287.631 503.827 -287.631 503.828C-285.516 502.96 -283.329 502.116 -281.068 501.298C-281.069 501.297 -281.07 501.296 -281.07 501.295C-281.164 501.035 -281.028 500.749 -280.769 500.655C-279.215 500.098 -277.628 499.554 -276.005 499.022L-275.905 499C-275.674 498.974 -275.449 499.112 -275.374 499.342C-275.374 499.343 -275.373 499.344 -275.373 499.345C-273.186 498.635 -270.934 497.95 -268.617 497.291C-268.618 497.29 -268.619 497.288 -268.619 497.287C-268.694 497.022 -268.539 496.746 -268.273 496.671L-267.08 496.338C-265.882 496.008 -264.666 495.686 -263.434 495.37L-263.333 495.354C-263.101 495.343 -262.885 495.497 -262.825 495.73L-262.824 495.731C-260.601 495.168 -258.32 494.63 -255.982 494.115C-255.983 494.114 -255.984 494.113 -255.984 494.112C-256.043 493.843 -255.872 493.575 -255.603 493.517L-253.125 492.991C-252.293 492.819 -251.453 492.65 -250.606 492.484L-250.505 492.476C-250.273 492.478 -250.066 492.642 -250.02 492.879C-247.778 492.445 -245.486 492.038 -243.144 491.651C-243.144 491.65 -243.144 491.649 -243.145 491.648C-243.189 491.376 -243.004 491.119 -242.731 491.074L-240.246 490.681C-239.412 490.552 -238.571 490.427 -237.724 490.305L-237.622 490.3C-237.39 490.314 -237.192 490.489 -237.157 490.728L-237.156 490.73C-234.878 490.406 -232.554 490.102 -230.184 489.823L-230.185 489.822C-230.216 489.548 -230.019 489.299 -229.745 489.268C-228.104 489.077 -226.441 488.898 -224.755 488.73C-224.48 488.703 -224.235 488.903 -224.208 489.178V489.18C-221.902 488.954 -219.553 488.751 -217.162 488.568C-217.162 488.567 -217.163 488.566 -217.163 488.564C-217.183 488.289 -216.977 488.05 -216.702 488.029L-214.226 487.853C-213.395 487.796 -212.56 487.743 -211.72 487.692C-211.444 487.676 -211.207 487.886 -211.19 488.161V488.164C-208.872 488.027 -206.515 487.912 -204.119 487.816C-204.119 487.815 -204.12 487.814 -204.12 487.812C-204.131 487.537 -203.915 487.305 -203.64 487.294L-201.156 487.207C-200.324 487.18 -199.486 487.155 -198.645 487.134C-198.369 487.127 -198.139 487.345 -198.132 487.621V487.623C-195.815 487.567 -193.462 487.528 -191.074 487.511H-191.075C-191.077 487.235 -190.854 487.01 -190.578 487.008L-188 487L-185.448 487.011C-185.172 487.013 -184.95 487.239 -184.952 487.515V487.516C-182.592 487.539 -180.266 487.591 -177.974 487.669L-177.975 487.668C-177.965 487.392 -177.733 487.177 -177.457 487.187C-176.625 487.216 -175.797 487.249 -174.974 487.286L-172.517 487.407C-172.241 487.422 -172.029 487.657 -172.044 487.933V487.934C-169.68 488.065 -167.351 488.226 -165.057 488.414L-165.058 488.413C-165.034 488.138 -164.793 487.934 -164.518 487.957C-162.861 488.096 -161.222 488.25 -159.601 488.418C-159.326 488.447 -159.127 488.692 -159.155 488.967C-156.802 489.216 -154.485 489.497 -152.203 489.806V489.804C-152.17 489.565 -151.973 489.388 -151.741 489.373L-151.641 489.377C-150.815 489.49 -149.993 489.608 -149.177 489.729L-146.74 490.103C-146.468 490.146 -146.282 490.402 -146.325 490.675V490.676C-143.997 491.051 -141.706 491.457 -139.45 491.893V491.892C-139.404 491.655 -139.197 491.49 -138.965 491.488L-138.864 491.497C-137.221 491.818 -135.595 492.156 -133.987 492.508C-133.751 492.56 -133.591 492.77 -133.595 493.003L-133.606 493.104C-131.318 493.611 -129.066 494.149 -126.848 494.717V494.716C-126.787 494.482 -126.57 494.329 -126.338 494.341L-126.238 494.356C-125.423 494.567 -124.613 494.782 -123.807 495L-121.403 495.666C-121.138 495.741 -120.983 496.018 -121.058 496.283C-118.814 496.925 -116.605 497.599 -114.429 498.3L-114.389 498.207C-114.274 498.005 -114.029 497.904 -113.799 497.979C-112.998 498.239 -112.201 498.503 -111.408 498.771L-109.044 499.586C-108.783 499.677 -108.647 499.963 -108.738 500.224V500.225C-106.535 501.004 -104.365 501.813 -102.226 502.649V502.648C-102.137 502.424 -101.904 502.298 -101.675 502.338L-101.577 502.366C-100.799 502.672 -100.026 502.982 -99.2559 503.295L-96.957 504.245C-96.7343 504.339 -96.6151 504.575 -96.6602 504.803L-96.6895 504.9C-94.5372 505.81 -92.4154 506.749 -90.3193 507.712L-90.3184 507.709C-90.217 507.49 -89.9771 507.379 -89.751 507.432L-89.6553 507.465C-88.9007 507.813 -88.1492 508.166 -87.4014 508.521L-85.168 509.595C-84.9198 509.716 -84.8166 510.014 -84.9375 510.263V510.264C-82.8403 511.291 -80.7687 512.344 -78.7188 513.418V513.416C-78.6062 513.202 -78.3601 513.104 -78.1367 513.169L-78.043 513.207C-77.3062 513.595 -76.572 513.985 -75.8408 514.379L-73.6553 515.568C-73.4133 515.701 -73.3251 516.005 -73.458 516.247L-73.459 516.249C-71.4232 517.373 -69.4056 518.515 -67.4062 519.679C-67.2667 519.441 -66.9607 519.361 -66.7227 519.5C-66.0041 519.92 -65.2877 520.342 -64.5732 520.767L-62.4346 522.048C-62.1982 522.191 -62.1219 522.498 -62.2646 522.734L-62.2656 522.735C-60.2792 523.938 -58.3064 525.158 -56.3447 526.393L-56.2822 526.312C-56.1442 526.169 -55.9325 526.121 -55.7461 526.191L-55.6553 526.236C-54.9531 526.679 -54.2523 527.124 -53.5527 527.571L-51.457 528.917C-51.2252 529.067 -51.1581 529.376 -51.3076 529.608L-51.3086 529.609C-49.3614 530.869 -47.4219 532.142 -45.4873 533.426V533.425C-45.3534 533.224 -45.0992 533.151 -44.8838 533.238L-44.7949 533.285C-44.1041 533.744 -43.4135 534.205 -42.7236 534.667L-40.6562 536.056C-40.4273 536.21 -40.3664 536.52 -40.5205 536.749L-40.5225 536.751C-38.6004 538.047 -36.6794 539.35 -34.7578 540.661V540.66C-34.6216 540.461 -34.3668 540.391 -34.1523 540.48L-34.0635 540.529C-32.6973 541.462 -31.3298 542.397 -29.9609 543.335C-29.7332 543.491 -29.6751 543.802 -29.8311 544.03L-29.832 544.031C-27.9226 545.34 -26.0077 546.651 -24.0869 547.967C-23.9503 547.768 -23.6954 547.699 -23.4814 547.789L-23.3926 547.838L-19.2861 550.644C-19.0588 550.798 -18.9992 551.107 -19.1523 551.335C-17.2423 552.635 -15.3231 553.936 -13.3906 555.235C-13.2555 555.036 -13.0015 554.966 -12.7871 555.054L-12.6982 555.102C-11.322 556.026 -9.93906 556.948 -8.54883 557.869C-8.31894 558.021 -8.2555 558.331 -8.40723 558.562C-6.4843 559.834 -4.54627 561.102 -2.59082 562.365C-2.45963 562.163 -2.20743 562.087 -1.99121 562.171L-1.90137 562.217C-1.2074 562.664 -0.511052 563.112 0.1875 563.558L2.29004 564.893C2.52308 565.04 2.59362 565.348 2.44727 565.581C4.40297 566.813 6.3785 568.038 8.37598 569.255C8.50176 569.05 8.75155 568.967 8.96973 569.045L9.06152 569.089C9.76319 569.515 10.4675 569.94 11.1748 570.364L13.3047 571.632C13.5419 571.772 13.6215 572.078 13.4824 572.315C15.4716 573.488 17.4849 574.648 19.5234 575.799C19.6596 575.56 19.9625 575.476 20.2021 575.61C20.9183 576.013 21.6377 576.415 22.3604 576.814L24.5381 578.01C24.7796 578.141 24.8705 578.443 24.7412 578.685C26.7656 579.781 28.8157 580.867 30.8955 581.938C31.0062 581.724 31.2493 581.623 31.4727 581.686L31.5674 581.723C32.3007 582.099 33.0377 582.472 33.7783 582.845L36.0117 583.956C36.2585 584.078 36.3611 584.376 36.2412 584.623C38.3019 585.634 40.3921 586.629 42.5127 587.609C42.6148 587.393 42.8532 587.283 43.0781 587.336L43.1738 587.368C43.925 587.714 44.6804 588.058 45.4395 588.399L47.7285 589.418C47.9798 589.529 48.0946 589.821 47.9863 590.073C50.0825 590.991 52.2081 591.895 54.3672 592.779C54.4588 592.557 54.6929 592.435 54.9209 592.478L55.0176 592.507C56.5534 593.133 58.1064 593.75 59.6758 594.357C59.9327 594.457 60.0605 594.746 59.9619 595.003C62.0904 595.823 64.2504 596.626 66.4434 597.411C66.5366 597.152 66.8215 597.017 67.0811 597.109C68.647 597.667 70.2298 598.215 71.8301 598.754C72.091 598.842 72.232 599.124 72.1455 599.385C74.3028 600.106 76.4917 600.811 78.7139 601.496C78.7955 601.233 79.0737 601.086 79.3369 601.166C80.1323 601.41 80.9323 601.652 81.7363 601.891L84.1611 602.601C84.4255 602.677 84.5788 602.952 84.5039 603.217C86.6871 603.842 88.9018 604.448 91.1494 605.036C91.2111 604.804 91.4267 604.653 91.6582 604.665L91.7578 604.681C92.5621 604.89 93.3708 605.096 94.1836 605.3L96.6357 605.905C96.9035 605.97 97.069 606.24 97.0049 606.508C99.2126 607.039 101.451 607.553 103.723 608.048C103.782 607.779 104.047 607.608 104.316 607.666C105.936 608.016 107.572 608.357 109.225 608.688C109.495 608.742 109.671 609.004 109.618 609.274C111.852 609.718 114.117 610.144 116.413 610.551C116.462 610.28 116.719 610.099 116.99 610.146C118.613 610.432 120.253 610.707 121.908 610.974C122.18 611.017 122.366 611.273 122.323 611.545C124.587 611.906 126.881 612.249 129.206 612.573C129.245 612.301 129.496 612.111 129.769 612.148C131.388 612.372 133.023 612.587 134.673 612.793C134.946 612.827 135.141 613.075 135.108 613.349C137.409 613.632 139.739 613.899 142.1 614.146C142.129 613.873 142.373 613.674 142.647 613.702C143.452 613.785 144.26 613.866 145.072 613.945L147.519 614.177C147.793 614.202 147.995 614.444 147.971 614.718C150.272 614.925 152.601 615.115 154.96 615.287C154.981 615.013 155.219 614.806 155.494 614.826C156.337 614.887 157.183 614.945 158.033 615.001C158.876 615.057 159.716 615.109 160.554 615.158C160.829 615.174 161.039 615.409 161.024 615.684C163.372 615.817 165.702 615.925 168.014 616.007C168.024 615.732 168.255 615.517 168.53 615.526C170.177 615.582 171.815 615.626 173.444 615.656C173.719 615.661 173.938 615.888 173.935 616.163C176.29 616.204 178.626 616.219 180.944 616.208C180.943 615.933 181.165 615.708 181.44 615.706L183.926 615.68C184.752 615.668 185.575 615.653 186.396 615.635C186.672 615.629 186.9 615.847 186.907 616.122C189.241 616.066 191.556 615.982 193.853 615.875C193.841 615.6 194.051 615.368 194.326 615.354L196.823 615.223C197.653 615.176 198.481 615.126 199.306 615.072C199.58 615.054 199.818 615.262 199.837 615.536C202.152 615.382 204.448 615.203 206.726 614.998C206.701 614.724 206.903 614.481 207.178 614.456L209.678 614.216C210.509 614.133 211.337 614.046 212.163 613.956L212.265 613.955C212.495 613.977 212.688 614.158 212.715 614.396C215.026 614.141 217.318 613.862 219.591 613.557C219.554 613.283 219.745 613.031 220.019 612.994C221.673 612.769 223.318 612.53 224.952 612.279L225.054 612.274C225.285 612.286 225.485 612.458 225.522 612.696C227.83 612.338 230.117 611.954 232.386 611.546C232.337 611.275 232.517 611.015 232.788 610.966L235.229 610.512C236.039 610.357 236.847 610.199 237.653 610.038L237.755 610.028C237.987 610.03 238.194 610.193 238.242 610.429C240.537 609.967 242.813 609.481 245.068 608.971C245.008 608.702 245.175 608.434 245.444 608.373L247.853 607.813C248.653 607.624 249.451 607.431 250.246 607.235C250.513 607.17 250.784 607.333 250.851 607.6C253.126 607.036 255.382 606.448 257.619 605.838C257.547 605.572 257.703 605.299 257.969 605.226L260.352 604.561C261.143 604.336 261.933 604.108 262.72 603.878C262.984 603.801 263.262 603.952 263.34 604.216C265.586 603.554 267.813 602.871 270.021 602.165C269.937 601.903 270.081 601.621 270.344 601.537L272.699 600.77C273.482 600.511 274.263 600.25 275.041 599.986L275.14 599.963C275.37 599.934 275.597 600.069 275.675 600.297C277.888 599.542 280.081 598.767 282.256 597.971C282.162 597.712 282.294 597.426 282.553 597.331L284.877 596.466C285.649 596.175 286.42 595.882 287.188 595.586L287.285 595.559C287.514 595.52 287.747 595.646 287.834 595.871C290.012 595.028 292.17 594.166 294.311 593.285C294.206 593.03 294.327 592.739 294.582 592.634L296.873 591.678C297.634 591.357 298.393 591.033 299.149 590.708C299.403 590.599 299.697 590.716 299.807 590.97H299.808C301.95 590.045 304.072 589.098 306.178 588.14C306.066 587.889 306.176 587.595 306.426 587.48L308.681 586.441C309.43 586.093 310.177 585.742 310.922 585.39L311.018 585.355C311.242 585.3 311.483 585.408 311.587 585.624C313.694 584.623 315.784 583.607 317.856 582.577C317.736 582.331 317.836 582.033 318.082 581.91C319.566 581.17 321.041 580.423 322.507 579.67C322.752 579.544 323.052 579.64 323.179 579.884C325.252 578.815 327.309 577.733 329.349 576.64C329.22 576.397 329.311 576.095 329.554 575.965C331.014 575.18 332.466 574.39 333.909 573.594L334.002 573.554C334.223 573.485 334.47 573.577 334.587 573.787C336.629 572.658 338.656 571.52 340.666 570.371C340.53 570.132 340.612 569.827 340.852 569.69L343.003 568.452C343.718 568.038 344.431 567.623 345.142 567.207L345.234 567.165C345.454 567.091 345.703 567.177 345.825 567.384C347.839 566.203 349.839 565.016 351.822 563.821C351.68 563.585 351.755 563.279 351.991 563.136L354.113 561.85C354.819 561.42 355.522 560.99 356.224 560.56L356.314 560.516C356.533 560.436 356.786 560.518 356.912 560.724C358.902 559.5 360.877 558.27 362.839 557.038C362.693 556.805 362.762 556.497 362.995 556.351L367.181 553.701L367.271 553.655C367.488 553.572 367.741 553.65 367.871 553.854C369.842 552.597 371.798 551.336 373.742 550.077C373.594 549.846 373.66 549.539 373.891 549.39L378.051 546.683L378.141 546.636C378.356 546.551 378.609 546.625 378.741 546.825C380.695 545.548 382.637 544.272 384.567 543C384.417 542.77 384.479 542.461 384.709 542.31L388.86 539.566L388.95 539.52C389.165 539.433 389.419 539.505 389.553 539.705C391.496 538.419 393.428 537.139 395.349 535.865C395.197 535.635 395.26 535.326 395.489 535.174L399.651 532.417L399.741 532.37C399.957 532.283 400.211 532.356 400.345 532.558C402.286 531.273 404.218 529.999 406.141 528.736C405.989 528.506 406.052 528.196 406.283 528.044L410.468 525.307L410.559 525.26C410.775 525.175 411.029 525.251 411.161 525.453C413.117 524.181 415.064 522.923 417.003 521.682L417.001 521.681C416.852 521.448 416.921 521.139 417.153 520.99C418.56 520.091 419.962 519.2 421.361 518.319L421.452 518.274C421.67 518.192 421.922 518.271 422.051 518.476L422.052 518.477C424.032 517.232 426.005 516.008 427.972 514.805L427.97 514.804C427.826 514.568 427.9 514.261 428.136 514.117L430.264 512.826C430.972 512.399 431.68 511.974 432.387 511.553C432.624 511.412 432.93 511.49 433.071 511.727L433.072 511.729C435.087 510.531 437.097 509.36 439.103 508.217L439.101 508.216C438.964 507.976 439.048 507.67 439.288 507.533L441.46 506.311C442.183 505.907 442.906 505.506 443.628 505.11L443.722 505.071C443.944 505.003 444.19 505.097 444.307 505.309L444.309 505.311C446.36 504.19 448.408 503.103 450.454 502.051C450.454 502.05 450.452 502.049 450.451 502.048C450.325 501.802 450.423 501.501 450.669 501.375C452.162 500.61 453.655 499.864 455.146 499.139C455.395 499.018 455.694 499.122 455.814 499.37L455.815 499.371C457.918 498.354 460.021 497.378 462.123 496.444L462.121 496.442C462.01 496.19 462.124 495.895 462.377 495.783L463.524 495.281C464.672 494.784 465.82 494.3 466.969 493.829L467.065 493.8C467.294 493.757 467.528 493.878 467.62 494.102L467.621 494.104C469.786 493.223 471.953 492.391 474.124 491.612L474.123 491.611C474.031 491.351 474.167 491.065 474.427 490.973L475.604 490.56C476.783 490.151 477.963 489.758 479.145 489.382C479.408 489.298 479.689 489.444 479.772 489.707L479.773 489.708C481.998 489.008 484.226 488.365 486.462 487.784L486.461 487.783C486.393 487.516 486.554 487.243 486.821 487.175L488.036 486.87C489.252 486.572 490.47 486.291 491.69 486.03C491.96 485.973 492.225 486.145 492.283 486.415L492.284 486.417C494.557 485.94 496.838 485.53 499.129 485.189L499.128 485.188C499.089 484.914 499.279 484.66 499.552 484.621L500.789 484.45C502.028 484.286 503.27 484.142 504.515 484.02C504.789 483.993 505.033 484.193 505.061 484.468V484.47C507.363 484.253 509.676 484.11 512.002 484.044L512.001 484.042C511.994 483.766 512.213 483.537 512.489 483.53L513.743 483.508C514.162 483.503 514.581 483.5 515 483.5C515.423 483.5 515.845 483.503 516.267 483.51L517.53 483.54C517.806 483.549 518.023 483.78 518.015 484.056V484.059C520.355 484.147 522.681 484.337 524.994 484.624V484.621C525.03 484.347 525.281 484.155 525.555 484.19C526.802 484.353 528.046 484.544 529.286 484.762L530.525 484.988C530.797 485.04 530.975 485.302 530.923 485.573V485.575C533.204 486.024 535.474 486.564 537.734 487.191V487.189C537.8 486.957 538.02 486.81 538.252 486.827L538.352 486.845C539.56 487.187 540.766 487.553 541.97 487.944L543.172 488.344C543.433 488.432 543.574 488.716 543.485 488.978V488.979C545.675 489.731 547.857 490.564 550.034 491.471V491.469C550.128 491.246 550.365 491.127 550.593 491.173L550.689 491.202C551.835 491.685 552.978 492.187 554.12 492.71L555.261 493.239C555.511 493.357 555.618 493.654 555.501 493.904V493.905C557.593 494.897 559.682 495.955 561.768 497.074V497.072C561.883 496.86 562.129 496.765 562.352 496.832L562.444 496.871C563.903 497.66 565.362 498.479 566.818 499.326C567.057 499.465 567.138 499.771 566.999 500.01C568.991 501.176 570.981 502.397 572.973 503.667V503.666C573.103 503.463 573.356 503.386 573.573 503.47L573.663 503.516C574.367 503.967 575.071 504.423 575.774 504.887L577.886 506.295C578.086 506.43 578.157 506.685 578.068 506.899L578.02 506.989C579.925 508.282 581.83 509.619 583.739 510.994C583.74 510.993 583.741 510.992 583.741 510.991C583.903 510.768 584.216 510.717 584.439 510.879C585.115 511.367 585.79 511.861 586.466 512.358L588.493 513.865C588.714 514.031 588.759 514.344 588.594 514.565L588.593 514.566C590.441 515.957 592.293 517.383 594.149 518.841L594.15 518.839C594.321 518.622 594.636 518.584 594.853 518.755C595.503 519.267 596.154 519.784 596.806 520.304L598.763 521.874C598.978 522.047 599.011 522.362 598.838 522.577L598.837 522.579C600.645 524.043 602.459 525.534 604.278 527.051V527.05C604.433 526.864 604.694 526.819 604.898 526.93L604.982 526.986C605.615 527.515 606.249 528.046 606.884 528.581L608.789 530.194C608.999 530.373 609.024 530.688 608.846 530.898L608.845 530.899C610.618 532.409 612.399 533.94 614.187 535.491C614.368 535.283 614.683 535.26 614.892 535.441L618.642 538.719C618.849 538.901 618.869 539.216 618.688 539.424C620.437 540.962 622.193 542.518 623.958 544.087V544.086C624.141 543.88 624.458 543.861 624.664 544.044L628.386 547.364C628.591 547.548 628.61 547.864 628.426 548.07C630.162 549.623 631.906 551.189 633.66 552.765L633.735 552.697C633.896 552.579 634.113 552.566 634.285 552.667L634.366 552.728L638.079 556.064C638.284 556.249 638.301 556.564 638.117 556.77C639.851 558.328 641.594 559.894 643.347 561.467C643.531 561.262 643.847 561.246 644.052 561.43L647.771 564.761C647.977 564.944 647.994 565.259 647.812 565.465C649.551 567.019 651.301 568.576 653.062 570.138C653.222 569.959 653.483 569.922 653.684 570.038L653.766 570.098L657.508 573.403C657.714 573.585 657.735 573.9 657.554 574.107C659.306 575.648 661.07 577.19 662.846 578.732C663.004 578.551 663.265 578.512 663.467 578.626L663.549 578.684L667.328 581.945C667.537 582.125 667.561 582.44 667.383 582.649C669.155 584.169 670.94 585.688 672.737 587.203C672.893 587.019 673.154 586.976 673.357 587.087L673.44 587.144C674.71 588.212 675.986 589.28 677.269 590.345C677.481 590.521 677.51 590.835 677.335 591.048C679.134 592.539 680.945 594.026 682.771 595.507C682.923 595.32 683.182 595.272 683.388 595.379L683.473 595.435C684.117 595.957 684.764 596.478 685.412 596.999L687.361 598.558C687.576 598.729 687.613 599.042 687.443 599.258C689.272 600.712 691.115 602.159 692.972 603.598C693.12 603.408 693.378 603.354 693.586 603.456L693.672 603.51C694.329 604.017 694.987 604.524 695.647 605.029L697.634 606.542C697.853 606.708 697.896 607.018 697.732 607.238C699.596 608.646 701.473 610.044 703.366 611.432C703.53 611.212 703.84 611.165 704.062 611.327C705.403 612.308 706.753 613.284 708.11 614.253C708.334 614.413 708.386 614.723 708.229 614.947C710.129 616.301 712.043 617.645 713.975 618.974C714.131 618.747 714.442 618.689 714.669 618.845C715.355 619.315 716.043 619.785 716.733 620.252L718.811 621.648C719.04 621.802 719.102 622.111 718.949 622.341C720.89 623.633 722.846 624.91 724.819 626.172C724.949 625.969 725.201 625.892 725.418 625.975L725.509 626.021C726.211 626.469 726.916 626.915 727.623 627.358L729.75 628.684C729.984 628.829 730.057 629.136 729.913 629.37C731.896 630.592 733.895 631.797 735.911 632.984C736.034 632.777 736.282 632.69 736.502 632.765L736.594 632.808C737.313 633.23 738.036 633.65 738.76 634.067L740.939 635.313C741.179 635.449 741.264 635.753 741.129 635.993C743.154 637.137 745.196 638.262 747.256 639.366C747.37 639.154 747.615 639.057 747.838 639.123L747.931 639.162C749.401 639.948 750.882 640.723 752.371 641.487C752.616 641.613 752.712 641.913 752.588 642.158C754.659 643.217 756.747 644.256 758.854 645.272C758.975 645.025 759.273 644.921 759.521 645.04C760.272 645.4 761.024 645.759 761.779 646.113L764.052 647.169C764.302 647.284 764.412 647.579 764.299 647.829C766.416 648.797 768.551 649.743 770.705 650.664C770.8 650.443 771.036 650.326 771.263 650.372L771.359 650.401C772.124 650.727 772.891 651.05 773.66 651.369L775.976 652.317C776.231 652.421 776.355 652.711 776.253 652.967C778.415 653.837 780.596 654.683 782.796 655.503C782.881 655.278 783.111 655.149 783.34 655.185L783.438 655.21C784.992 655.786 786.556 656.349 788.129 656.899C788.389 656.99 788.526 657.274 788.437 657.534C790.644 658.301 792.87 659.043 795.115 659.757C795.189 659.527 795.412 659.387 795.643 659.411L795.741 659.433C797.316 659.93 798.9 660.413 800.494 660.884C800.758 660.962 800.91 661.239 800.833 661.503C803.073 662.159 805.332 662.789 807.61 663.39C807.681 663.124 807.953 662.964 808.22 663.034C809.02 663.244 809.823 663.45 810.628 663.652L813.051 664.249C813.319 664.314 813.484 664.583 813.421 664.851C815.68 665.391 817.959 665.902 820.257 666.386C820.314 666.117 820.577 665.945 820.847 666.001C822.481 666.342 824.126 666.668 825.78 666.979C826.05 667.03 826.228 667.29 826.18 667.56C828.449 667.982 830.736 668.379 833.043 668.744C833.086 668.472 833.341 668.286 833.613 668.328C835.261 668.586 836.918 668.829 838.585 669.057C838.858 669.094 839.051 669.346 839.014 669.619C841.306 669.928 843.618 670.206 845.948 670.457C845.979 670.184 846.223 669.986 846.497 670.015C848.145 670.189 849.802 670.349 851.469 670.493C851.743 670.517 851.946 670.757 851.924 671.031C854.249 671.228 856.592 671.395 858.955 671.533C858.972 671.259 859.207 671.05 859.481 671.065C861.121 671.158 862.77 671.237 864.429 671.3C864.704 671.31 864.918 671.541 864.909 671.815C867.24 671.9 869.589 671.955 871.957 671.98C871.961 671.706 872.186 671.486 872.461 671.488C873.305 671.496 874.151 671.5 875 671.5C875.834 671.5 876.668 671.496 877.502 671.489C877.777 671.487 878.002 671.707 878.006 671.981C880.345 671.957 882.682 671.906 885.018 671.827C885.009 671.552 885.223 671.321 885.498 671.312L887.994 671.213C888.826 671.176 889.658 671.136 890.489 671.093C890.764 671.079 890.999 671.289 891.015 671.563C893.348 671.438 895.679 671.286 898.009 671.107C897.989 670.833 898.192 670.595 898.467 670.573L900.957 670.368C901.787 670.297 902.617 670.222 903.446 670.145C903.721 670.119 903.964 670.32 903.991 670.594C906.317 670.372 908.64 670.123 910.962 669.852C910.931 669.579 911.126 669.331 911.399 669.299C913.052 669.103 914.705 668.895 916.355 668.674L916.457 668.67C916.688 668.686 916.884 668.863 916.917 669.102C919.232 668.788 921.545 668.45 923.855 668.09C923.814 667.818 924 667.564 924.271 667.521L926.739 667.124C927.561 666.989 928.383 666.85 929.205 666.709C929.477 666.662 929.735 666.845 929.782 667.116C932.082 666.718 934.378 666.298 936.673 665.855C936.621 665.585 936.798 665.323 937.068 665.271C938.704 664.953 940.339 664.625 941.973 664.285L942.074 664.274C942.306 664.274 942.515 664.436 942.564 664.672C944.849 664.194 947.13 663.695 949.409 663.176C949.349 662.907 949.517 662.64 949.785 662.578C951.408 662.206 953.03 661.825 954.65 661.433L954.751 661.419C954.983 661.411 955.197 661.566 955.254 661.8C957.525 661.247 959.794 660.676 962.06 660.085C961.99 659.818 962.149 659.546 962.416 659.476L964.829 658.836C965.633 658.621 966.436 658.403 967.238 658.183L967.339 658.166C967.57 658.151 967.789 658.299 967.854 658.53C970.104 657.91 972.353 657.274 974.598 656.618C974.521 656.354 974.672 656.077 974.937 655.999L977.337 655.289C978.136 655.05 978.936 654.809 979.734 654.565L979.834 654.546C980.065 654.524 980.287 654.666 980.358 654.896C982.588 654.214 984.815 653.515 987.039 652.801C986.956 652.539 987.099 652.258 987.361 652.174C988.948 651.662 990.533 651.144 992.116 650.616L992.215 650.594C992.445 650.566 992.672 650.702 992.749 650.931C994.964 650.191 997.175 649.435 999.384 648.665C999.294 648.405 999.43 648.121 999.69 648.03L1002.05 647.2C1002.83 646.922 1003.62 646.641 1004.4 646.358C1004.66 646.265 1004.95 646.4 1005.04 646.659C1007.24 645.866 1009.43 645.059 1011.63 644.238C1011.53 643.98 1011.66 643.693 1011.92 643.596C1013.48 643.011 1015.04 642.419 1016.59 641.82L1016.69 641.793C1016.92 641.755 1017.15 641.881 1017.24 642.106C1019.42 641.267 1021.59 640.414 1023.76 639.55C1023.66 639.293 1023.79 639.003 1024.04 638.9C1025.59 638.282 1027.14 637.658 1028.69 637.028L1028.78 636.999C1029.01 636.956 1029.24 637.078 1029.34 637.3C1031.5 636.417 1033.66 635.521 1035.81 634.616C1035.71 634.363 1035.82 634.072 1036.08 633.966L1038.38 632.991C1039.15 632.665 1039.92 632.338 1040.68 632.009L1040.78 631.979C1041.01 631.932 1041.24 632.048 1041.34 632.269C1043.49 631.346 1045.63 630.414 1047.77 629.472C1047.66 629.22 1047.77 628.927 1048.02 628.815L1050.31 627.802C1051.07 627.463 1051.83 627.123 1052.6 626.782C1052.85 626.67 1053.14 626.781 1053.26 627.031C1055.39 626.074 1057.52 625.109 1059.64 624.135C1059.53 623.884 1059.63 623.589 1059.88 623.474L1064.43 621.372C1064.68 621.256 1064.97 621.364 1065.09 621.612C1067.21 620.624 1069.32 619.629 1071.43 618.626C1071.32 618.377 1071.42 618.08 1071.67 617.961L1076.18 615.8L1076.28 615.766C1076.5 615.709 1076.74 615.815 1076.85 616.031C1078.96 615.015 1081.06 613.994 1083.16 612.966C1083.04 612.718 1083.14 612.419 1083.38 612.298L1087.88 610.084L1087.97 610.048C1088.19 609.989 1088.44 610.093 1088.54 610.308C1090.64 609.269 1092.72 608.226 1094.81 607.178C1094.69 606.931 1094.78 606.632 1095.03 606.508L1099.5 604.246L1099.6 604.21C1099.82 604.148 1100.07 604.25 1100.17 604.465C1102.26 603.405 1104.34 602.34 1106.42 601.272C1106.29 601.027 1106.39 600.727 1106.63 600.601L1111.07 598.309L1111.17 598.271C1111.39 598.208 1111.63 598.308 1111.75 598.521C1113.83 597.442 1115.9 596.36 1117.97 595.275C1117.85 595.031 1117.94 594.73 1118.19 594.603L1122.62 592.277L1122.71 592.239C1122.93 592.174 1123.18 592.273 1123.29 592.486C1125.36 591.396 1127.42 590.301 1129.48 589.208C1129.36 588.965 1129.45 588.664 1129.69 588.535C1131.17 587.751 1132.65 586.966 1134.12 586.181L1134.21 586.143C1134.44 586.077 1134.68 586.173 1134.8 586.386C1136.86 585.286 1138.91 584.186 1140.97 583.087C1140.84 582.844 1140.93 582.543 1141.17 582.413L1145.59 580.044L1145.68 580.005C1145.9 579.938 1146.15 580.033 1146.27 580.245C1148.33 579.135 1150.39 578.027 1152.45 576.921C1152.32 576.678 1152.41 576.376 1152.65 576.245C1154.12 575.455 1155.58 574.666 1157.04 573.879L1157.13 573.84C1157.36 573.773 1157.6 573.868 1157.72 574.081C1159.79 572.966 1161.85 571.854 1163.91 570.745L1163.91 570.744C1163.78 570.501 1163.87 570.197 1164.11 570.066C1165.58 569.273 1167.05 568.482 1168.51 567.692L1168.61 567.653C1168.83 567.586 1169.08 567.682 1169.19 567.895L1169.19 567.896C1171.25 566.786 1173.31 565.679 1175.36 564.578L1175.35 564.577C1175.22 564.334 1175.32 564.031 1175.56 563.9L1179.98 561.523L1180.08 561.485C1180.3 561.419 1180.55 561.515 1180.66 561.729H1180.66C1182.72 560.624 1184.78 559.527 1186.82 558.435L1186.82 558.434C1186.69 558.19 1186.78 557.888 1187.03 557.758L1191.46 555.399L1191.55 555.361C1191.78 555.296 1192.02 555.393 1192.14 555.606C1192.14 555.607 1192.14 555.608 1192.14 555.609C1194.21 554.508 1196.28 553.412 1198.34 552.327H1198.34C1198.21 552.083 1198.31 551.78 1198.55 551.651C1200.02 550.877 1201.49 550.107 1202.96 549.342L1203.05 549.305C1203.27 549.241 1203.52 549.34 1203.63 549.554H1203.63C1205.73 548.46 1207.81 547.377 1209.89 546.304L1209.89 546.303C1209.76 546.057 1209.86 545.756 1210.11 545.63L1214.55 543.349L1214.64 543.312C1214.87 543.249 1215.11 543.351 1215.22 543.565L1215.22 543.566C1217.31 542.497 1219.4 541.438 1221.48 540.393C1221.36 540.146 1221.46 539.846 1221.7 539.722L1226.19 537.479L1226.28 537.444C1226.51 537.385 1226.75 537.489 1226.86 537.705L1226.86 537.706C1228.96 536.667 1231.05 535.641 1233.13 534.63L1233.12 534.629C1233 534.381 1233.11 534.081 1233.36 533.961L1235.63 532.861C1236.39 532.497 1237.14 532.133 1237.9 531.772L1238 531.738C1238.22 531.682 1238.46 531.791 1238.57 532.009L1238.57 532.01C1240.68 531.003 1242.78 530.015 1244.87 529.041C1244.87 529.04 1244.87 529.039 1244.87 529.038C1244.76 528.788 1244.86 528.49 1245.12 528.374C1246.65 527.663 1248.17 526.962 1249.7 526.27L1249.79 526.237C1250.02 526.186 1250.26 526.298 1250.36 526.518L1250.36 526.52C1252.5 525.548 1254.63 524.594 1256.75 523.662H1256.75C1256.64 523.409 1256.76 523.114 1257.01 523.003L1259.31 522.003C1260.07 521.672 1260.84 521.343 1261.6 521.018L1261.69 520.988C1261.92 520.942 1262.16 521.059 1262.25 521.281C1262.25 521.282 1262.26 521.283 1262.26 521.284C1264.43 520.358 1266.6 519.456 1268.75 518.576C1268.75 518.575 1268.75 518.574 1268.75 518.573C1268.64 518.318 1268.77 518.026 1269.02 517.922L1271.33 516.99C1272.1 516.683 1272.86 516.378 1273.63 516.077C1273.89 515.976 1274.18 516.102 1274.28 516.359L1274.28 516.36C1276.49 515.493 1278.69 514.653 1280.88 513.841L1280.88 513.84C1280.78 513.581 1280.92 513.293 1281.17 513.197C1282.74 512.62 1284.29 512.057 1285.85 511.509C1286.11 511.417 1286.39 511.553 1286.48 511.813L1286.48 511.814C1288.73 511.026 1290.95 510.269 1293.17 509.545H1293.17C1293.08 509.282 1293.23 509.001 1293.49 508.915L1295.87 508.153C1296.66 507.904 1297.45 507.659 1298.23 507.418C1298.5 507.337 1298.78 507.486 1298.86 507.75L1298.86 507.751C1301.13 507.061 1303.39 506.409 1305.63 505.794L1305.63 505.792C1305.56 505.526 1305.71 505.251 1305.98 505.179L1308.4 504.536C1309.2 504.327 1310 504.122 1310.8 503.923C1311.07 503.856 1311.34 504.019 1311.41 504.287L1311.41 504.289C1313.71 503.721 1316 503.194 1318.27 502.714L1318.27 502.713C1318.22 502.443 1318.39 502.179 1318.66 502.122L1319.89 501.87C1321.11 501.623 1322.33 501.388 1323.55 501.167L1323.65 501.159C1323.88 501.165 1324.08 501.332 1324.13 501.569L1324.13 501.571C1326.47 501.154 1328.78 500.786 1331.09 500.471L1331.09 500.47C1331.05 500.196 1331.24 499.944 1331.52 499.907L1332.76 499.747C1333.99 499.591 1335.23 499.45 1336.46 499.325C1336.73 499.297 1336.98 499.498 1337 499.772V499.773C1339.37 499.542 1341.71 499.369 1344.03 499.257L1344.03 499.256C1344.02 498.98 1344.23 498.746 1344.51 498.733C1346.18 498.659 1347.85 498.617 1349.5 498.606C1349.78 498.605 1350 498.827 1350.01 499.103V499.104C1352.37 499.098 1354.71 499.161 1357.03 499.293L1357.03 499.291C1357.04 499.015 1357.28 498.805 1357.56 498.822C1357.97 498.848 1358.39 498.875 1358.8 498.905L1360.04 499.002C1360.45 499.036 1360.87 499.073 1361.28 499.11L1362.52 499.229C1362.76 499.252 1362.95 499.443 1362.97 499.675V499.776C1365.29 500.015 1367.62 500.306 1369.98 500.649V500.648C1370.02 500.376 1370.27 500.187 1370.54 500.228C1372.19 500.472 1373.83 500.741 1375.49 501.034C1375.76 501.082 1375.94 501.342 1375.9 501.614V501.615C1378.2 502.029 1380.51 502.489 1382.84 502.993V502.992C1382.89 502.756 1383.1 502.596 1383.33 502.6L1383.44 502.611C1384.24 502.789 1385.05 502.971 1385.87 503.159L1388.3 503.738C1388.57 503.804 1388.74 504.074 1388.67 504.342V504.343C1390.94 504.901 1393.22 505.5 1395.51 506.137V506.136C1395.58 505.903 1395.8 505.755 1396.03 505.771L1396.13 505.789C1396.93 506.013 1397.73 506.241 1398.53 506.475L1400.94 507.188C1401.17 507.257 1401.31 507.479 1401.29 507.711L1401.27 507.811C1403.51 508.49 1405.76 509.203 1408.01 509.95V509.949C1408.08 509.72 1408.31 509.583 1408.54 509.611L1408.64 509.634C1409.43 509.897 1410.22 510.163 1411.01 510.435L1413.38 511.26C1413.64 511.351 1413.78 511.637 1413.69 511.897V511.898C1415.89 512.679 1418.11 513.49 1420.32 514.33L1420.37 514.239C1420.49 514.043 1420.74 513.954 1420.97 514.04C1421.74 514.336 1422.52 514.636 1423.3 514.939L1425.64 515.86C1425.86 515.95 1425.99 516.183 1425.95 516.412L1425.92 516.51C1428.1 517.378 1430.27 518.276 1432.45 519.195C1432.45 519.194 1432.45 519.193 1432.45 519.191C1432.56 518.937 1432.86 518.818 1433.11 518.926C1433.88 519.251 1434.64 519.578 1435.41 519.909L1437.72 520.911C1437.97 521.022 1438.08 521.316 1437.97 521.569L1437.97 521.571C1440.12 522.515 1442.27 523.482 1444.41 524.47L1444.41 524.467C1444.52 524.248 1444.76 524.136 1444.98 524.189L1445.08 524.223C1445.83 524.572 1446.59 524.925 1447.35 525.279L1449.62 526.351C1449.87 526.469 1449.98 526.767 1449.86 527.017V527.018C1451.98 528.027 1454.09 529.056 1456.21 530.104V530.103C1456.32 529.886 1456.56 529.782 1456.78 529.842L1456.88 529.877C1458.37 530.619 1459.87 531.371 1461.36 532.131C1461.61 532.256 1461.71 532.558 1461.58 532.804V532.805C1463.67 533.871 1465.76 534.955 1467.85 536.055V536.054C1467.96 535.84 1468.21 535.742 1468.43 535.807L1468.52 535.845C1469.26 536.235 1470 536.628 1470.74 537.022L1472.95 538.211C1473.19 538.342 1473.29 538.646 1473.15 538.889L1473.15 538.89C1475.22 540.006 1477.28 541.139 1479.33 542.283L1479.33 542.281C1479.47 542.04 1479.77 541.953 1480.01 542.088C1480.75 542.496 1481.48 542.906 1482.21 543.317L1484.39 544.557C1484.63 544.693 1484.72 544.998 1484.58 545.238L1484.58 545.239C1486.62 546.401 1488.65 547.575 1490.68 548.761V548.759C1490.82 548.521 1491.13 548.441 1491.37 548.58C1492.82 549.428 1494.26 550.281 1495.7 551.14C1495.91 551.263 1495.99 551.514 1495.92 551.733L1495.88 551.825C1497.89 553.028 1499.9 554.242 1501.9 555.464L1501.96 555.383C1502.1 555.237 1502.31 555.186 1502.5 555.254L1502.59 555.298C1503.31 555.736 1504.02 556.174 1504.74 556.614L1506.88 557.938C1507.08 558.065 1507.16 558.317 1507.08 558.535L1507.04 558.626C1509.03 559.868 1511.02 561.117 1513 562.373L1513.07 562.293C1513.2 562.15 1513.42 562.102 1513.6 562.173L1513.69 562.219C1515.11 563.119 1516.52 564.022 1517.93 564.929C1518.16 565.078 1518.23 565.388 1518.08 565.62L1518.08 565.621C1520.06 566.899 1522.03 568.182 1523.98 569.47V569.469C1524.12 569.267 1524.37 569.193 1524.59 569.279L1524.68 569.326L1528.86 572.099C1529.09 572.252 1529.15 572.562 1529 572.792L1529 572.793C1530.96 574.104 1532.91 575.419 1534.85 576.736L1534.85 576.735C1535.01 576.507 1535.32 576.448 1535.55 576.604L1539.68 579.433C1539.91 579.589 1539.97 579.901 1539.81 580.128V580.129C1541.76 581.473 1543.7 582.817 1545.62 584.162V584.161C1545.75 583.963 1546.01 583.897 1546.22 583.989L1546.31 584.039L1550.4 586.919C1550.59 587.059 1550.66 587.315 1550.57 587.528L1550.52 587.616C1552.45 588.991 1554.37 590.365 1556.28 591.735V591.734C1556.42 591.538 1556.67 591.475 1556.89 591.57L1556.97 591.621L1561.01 594.551C1561.24 594.713 1561.29 595.026 1561.12 595.249C1563.05 596.653 1564.95 598.052 1566.83 599.445V599.444C1567 599.223 1567.31 599.176 1567.53 599.34L1571.54 602.32C1571.73 602.465 1571.79 602.723 1571.69 602.934L1571.64 603.021C1573.55 604.45 1575.43 605.871 1577.29 607.283L1577.36 607.209C1577.51 607.077 1577.73 607.048 1577.91 607.135L1577.99 607.188C1579.33 608.205 1580.66 609.217 1581.97 610.224C1582.16 610.371 1582.22 610.63 1582.12 610.839L1582.06 610.925C1583.96 612.376 1585.82 613.818 1587.65 615.243C1587.65 615.242 1587.65 615.241 1587.65 615.24C1587.82 615.022 1588.13 614.983 1588.35 615.152L1592.32 618.256C1592.54 618.426 1592.58 618.741 1592.41 618.958L1592.4 618.96C1594.27 620.427 1596.1 621.874 1597.9 623.303V623.302C1598.07 623.086 1598.38 623.05 1598.6 623.222L1602.58 626.406C1602.79 626.579 1602.83 626.893 1602.65 627.108C1604.52 628.607 1606.33 630.083 1608.11 631.527L1608.11 631.525C1608.26 631.338 1608.52 631.29 1608.73 631.398L1608.81 631.454L1612.72 634.65C1612.93 634.826 1612.96 635.141 1612.78 635.354L1612.78 635.355C1614.66 636.897 1616.47 638.399 1618.22 639.86C1618.38 639.676 1618.64 639.631 1618.84 639.741L1618.93 639.798L1622.74 642.996C1622.95 643.174 1622.98 643.49 1622.8 643.701L1622.8 643.702C1624.68 645.282 1626.47 646.8 1628.17 648.254L1628.24 648.184C1628.4 648.061 1628.62 648.044 1628.79 648.141L1628.88 648.199C1630.21 649.341 1631.49 650.44 1632.72 651.496C1632.9 651.654 1632.94 651.916 1632.83 652.119L1632.77 652.202C1634.66 653.839 1636.42 655.366 1638.02 656.773L1638.1 656.705C1638.28 656.564 1638.55 656.568 1638.73 656.728L1642.52 660.078C1642.7 660.239 1642.74 660.501 1642.62 660.702L1642.57 660.784C1644.8 662.769 1646.56 664.357 1647.8 665.489V665.488C1647.99 665.284 1648.31 665.269 1648.51 665.455C1649.08 665.97 1649.51 666.371 1649.82 666.652L1650.51 665.03L1650.56 664.941C1650.69 664.75 1650.95 664.672 1651.17 664.767L1653.89 658.413C1653.63 658.304 1653.52 658.011 1653.62 657.757L1655.57 653.211L1655.62 653.122C1655.75 652.931 1656 652.852 1656.23 652.947L1658.94 646.593C1658.69 646.484 1658.57 646.191 1658.68 645.938L1660.62 641.392L1660.67 641.303C1660.81 641.112 1661.06 641.032 1661.28 641.127L1664 634.773C1663.74 634.665 1663.63 634.372 1663.73 634.118L1665.68 629.572L1665.73 629.483C1665.86 629.292 1666.11 629.213 1666.34 629.308L1669.05 622.954C1668.8 622.846 1668.68 622.553 1668.79 622.299L1670.73 617.753L1670.78 617.664C1670.92 617.473 1671.17 617.393 1671.39 617.488L1674.11 611.135C1673.86 611.026 1673.74 610.733 1673.85 610.479L1675.79 605.933L1675.84 605.845C1675.97 605.653 1676.22 605.575 1676.45 605.67L1679.17 599.315H1679.16C1678.91 599.207 1678.79 598.913 1678.9 598.659L1680.85 594.113L1680.89 594.025C1681.03 593.834 1681.28 593.755 1681.5 593.851L1684.22 587.496H1684.22C1683.97 587.387 1683.85 587.094 1683.96 586.84L1685.9 582.294L1685.95 582.205C1686.08 582.014 1686.34 581.936 1686.56 582.031L1689.28 575.677C1689.02 575.568 1688.9 575.274 1689.01 575.021L1690.96 570.475C1691.07 570.221 1691.36 570.103 1691.61 570.211L1694.33 563.857C1694.08 563.749 1693.96 563.455 1694.07 563.201L1696.01 558.655C1696.12 558.402 1696.42 558.283 1696.67 558.392L1699.39 552.038C1699.13 551.929 1699.02 551.636 1699.12 551.382L1701.07 546.836L1701.12 546.747C1701.25 546.556 1701.5 546.477 1701.72 546.572L1704.44 540.218C1704.19 540.109 1704.07 539.816 1704.18 539.562L1706.12 535.017L1706.17 534.928C1706.31 534.737 1706.56 534.657 1706.78 534.752L1709.5 528.398C1709.24 528.29 1709.13 527.997 1709.23 527.743L1711.18 523.197L1711.23 523.108C1711.36 522.917 1711.61 522.838 1711.84 522.933L1714.55 516.579C1714.3 516.471 1714.18 516.178 1714.29 515.924L1716.23 511.378L1716.28 511.289C1716.42 511.098 1716.67 511.019 1716.89 511.114L1719.61 504.76C1719.36 504.651 1719.24 504.358 1719.35 504.104L1721.29 499.559L1721.34 499.47C1721.47 499.278 1721.72 499.2 1721.95 499.295L1724.67 492.941C1724.41 492.833 1724.29 492.539 1724.4 492.285L1726.35 487.738L1726.39 487.65C1726.53 487.459 1726.78 487.381 1727 487.476L1729.72 481.122C1729.47 481.013 1729.35 480.719 1729.46 480.465L1731.4 475.919L1731.45 475.831C1731.58 475.64 1731.84 475.561 1732.06 475.656L1734.78 469.302C1734.52 469.193 1734.4 468.899 1734.51 468.646L1736.46 464.1C1736.57 463.846 1736.86 463.728 1737.11 463.836L1739.83 457.482C1739.58 457.374 1739.46 457.08 1739.57 456.826L1741.51 452.28C1741.62 452.027 1741.92 451.908 1742.17 452.017L1744.89 445.663C1744.63 445.554 1744.52 445.261 1744.62 445.007L1746.57 440.461C1746.68 440.207 1746.97 440.089 1747.22 440.197L1749.94 433.843C1749.69 433.734 1749.57 433.441 1749.68 433.188L1751.62 428.642L1751.67 428.553C1751.81 428.362 1752.06 428.283 1752.28 428.378L1755 422.023C1754.74 421.915 1754.63 421.622 1754.73 421.368L1756.68 416.822L1756.73 416.733C1756.86 416.542 1757.11 416.463 1757.34 416.558L1760.05 410.204C1759.8 410.096 1759.68 409.803 1759.79 409.549L1761.73 405.003L1761.78 404.914C1761.92 404.723 1762.17 404.644 1762.39 404.739L1765.11 398.385C1764.86 398.276 1764.74 397.983 1764.85 397.729L1766.79 393.184L1766.84 393.095C1766.97 392.903 1767.22 392.825 1767.45 392.92L1770.17 386.566C1769.91 386.458 1769.79 386.164 1769.9 385.91L1771.85 381.363L1771.89 381.275C1772.03 381.084 1772.28 381.006 1772.5 381.101L1775.22 374.747C1774.97 374.638 1774.85 374.344 1774.96 374.09L1776.9 369.544L1776.95 369.456C1777.08 369.265 1777.34 369.186 1777.56 369.281L1780.28 362.927C1780.02 362.818 1779.9 362.524 1780.01 362.271L1781.96 357.725C1782.07 357.471 1782.36 357.353 1782.61 357.461L1785.33 351.107C1785.08 350.999 1784.96 350.705 1785.07 350.451L1787.01 345.905C1787.12 345.652 1787.42 345.533 1787.67 345.642L1790.39 339.288C1790.13 339.179 1790.02 338.886 1790.12 338.632L1792.07 334.086C1792.18 333.832 1792.47 333.714 1792.72 333.822L1795.44 327.468C1795.19 327.359 1795.07 327.066 1795.18 326.812L1797.12 322.267L1797.17 322.178C1797.31 321.987 1797.56 321.908 1797.78 322.003L1800.5 315.648C1800.24 315.54 1800.13 315.247 1800.23 314.993L1802.18 310.447L1802.23 310.358C1802.36 310.167 1802.61 310.088 1802.84 310.183L1805.55 303.829C1805.3 303.721 1805.18 303.428 1805.29 303.174L1807.23 298.628L1807.28 298.539C1807.42 298.348 1807.67 298.269 1807.89 298.364L1810.61 292.01C1810.36 291.901 1810.24 291.608 1810.35 291.354L1812.29 286.809L1812.34 286.72C1812.47 286.528 1812.72 286.45 1812.95 286.545L1815.67 280.191C1815.41 280.083 1815.29 279.788 1815.4 279.534L1817.35 274.988L1817.39 274.9C1817.53 274.709 1817.78 274.631 1818 274.726L1820.72 268.371H1820.72C1820.47 268.262 1820.35 267.969 1820.46 267.715L1822.4 263.169L1822.45 263.081C1822.58 262.89 1822.84 262.811 1823.06 262.906L1825.78 256.552C1825.52 256.443 1825.4 256.149 1825.51 255.896L1827.46 251.35C1827.57 251.096 1827.86 250.978 1828.11 251.086L1830.83 244.732C1830.58 244.624 1830.46 244.33 1830.57 244.076L1831.32 242.318C1831.3 242.312 1831.28 242.307 1831.26 242.301L1829.5 241.779C1829.23 241.701 1829.08 241.423 1829.16 241.158C1827.56 240.686 1825.3 240.024 1822.46 239.2L1822.46 239.201C1822.38 239.466 1822.1 239.619 1821.84 239.542L1817.01 238.151C1816.74 238.075 1816.59 237.798 1816.67 237.533C1814.63 236.95 1812.41 236.318 1810.02 235.642C1809.95 235.907 1809.67 236.06 1809.41 235.985L1804.57 234.623C1804.31 234.548 1804.15 234.273 1804.23 234.007C1802.09 233.407 1799.85 232.782 1797.5 232.132C1797.44 232.364 1797.22 232.512 1796.99 232.496L1796.89 232.479L1792.12 231.162C1791.86 231.089 1791.7 230.813 1791.78 230.547C1789.59 229.946 1787.34 229.33 1785.02 228.697C1784.95 228.93 1784.73 229.079 1784.5 229.064L1784.4 229.048L1779.57 227.738C1779.31 227.666 1779.15 227.392 1779.22 227.126C1777.03 226.535 1774.79 225.931 1772.5 225.318C1772.43 225.552 1772.22 225.702 1771.99 225.688L1771.88 225.672L1766.99 224.37C1766.73 224.299 1766.57 224.026 1766.64 223.759C1764.44 223.177 1762.2 222.588 1759.93 221.991C1759.87 222.225 1759.65 222.376 1759.42 222.363L1759.32 222.348L1754.47 221.083C1754.21 221.013 1754.05 220.741 1754.12 220.475C1751.89 219.896 1749.64 219.313 1747.35 218.725C1747.29 218.958 1747.07 219.11 1746.84 219.099L1746.74 219.083L1741.92 217.851C1741.65 217.783 1741.49 217.511 1741.56 217.244C1739.32 216.673 1737.05 216.098 1734.76 215.521C1734.7 215.755 1734.48 215.908 1734.25 215.897L1734.15 215.883C1732.56 215.482 1730.95 215.08 1729.34 214.677C1729.07 214.61 1728.91 214.34 1728.97 214.072C1726.72 213.511 1724.45 212.948 1722.16 212.384C1722.1 212.618 1721.89 212.772 1721.66 212.763L1721.56 212.749L1716.74 211.568C1716.47 211.503 1716.3 211.233 1716.37 210.965C1714.11 210.415 1711.84 209.865 1709.55 209.314C1709.5 209.549 1709.28 209.704 1709.05 209.696L1708.95 209.683L1704.12 208.526C1703.85 208.463 1703.68 208.194 1703.75 207.926C1701.49 207.388 1699.22 206.851 1696.93 206.315C1696.87 206.55 1696.66 206.706 1696.43 206.699L1696.33 206.687C1694.72 206.309 1693.1 205.932 1691.48 205.556C1691.21 205.493 1691.05 205.226 1691.11 204.958C1688.85 204.434 1686.57 203.911 1684.29 203.39C1684.24 203.624 1684.02 203.782 1683.79 203.776L1683.69 203.765C1682.08 203.396 1680.45 203.028 1678.83 202.661C1678.56 202.601 1678.39 202.334 1678.45 202.065C1676.18 201.555 1673.91 201.048 1671.63 200.543C1671.58 200.777 1671.37 200.936 1671.14 200.933L1671.04 200.921C1669.41 200.562 1667.79 200.204 1666.16 199.848C1665.89 199.789 1665.72 199.524 1665.78 199.255C1663.51 198.759 1661.23 198.268 1658.95 197.779C1658.9 198.014 1658.69 198.174 1658.46 198.172L1658.36 198.161L1653.47 197.122C1653.2 197.065 1653.03 196.802 1653.08 196.532C1650.81 196.052 1648.53 195.577 1646.25 195.106C1646.19 195.375 1645.93 195.548 1645.66 195.492L1640.77 194.492C1640.5 194.437 1640.32 194.174 1640.38 193.903C1638.09 193.44 1635.81 192.982 1633.52 192.529C1633.47 192.8 1633.21 192.976 1632.94 192.923L1628.04 191.965C1627.77 191.912 1627.6 191.65 1627.65 191.379C1625.36 190.935 1623.06 190.496 1620.78 190.064C1620.73 190.336 1620.46 190.514 1620.19 190.463L1615.29 189.55C1615.02 189.5 1614.84 189.24 1614.89 188.969C1612.59 188.545 1610.3 188.128 1608.01 187.72C1607.96 187.957 1607.76 188.125 1607.53 188.131L1607.43 188.124L1602.52 187.261C1602.25 187.213 1602.07 186.954 1602.11 186.683C1599.81 186.283 1597.51 185.892 1595.21 185.509C1595.17 185.747 1594.97 185.917 1594.74 185.926L1594.64 185.919C1593 185.645 1591.36 185.376 1589.72 185.111C1589.45 185.067 1589.26 184.811 1589.31 184.538C1587 184.165 1584.69 183.802 1582.4 183.448C1582.36 183.687 1582.16 183.86 1581.93 183.871L1581.83 183.866L1576.9 183.122C1576.63 183.082 1576.44 182.827 1576.48 182.554C1574.16 182.211 1571.85 181.88 1569.56 181.56C1569.52 181.799 1569.32 181.975 1569.09 181.99L1568.99 181.986C1568.16 181.871 1567.34 181.757 1566.52 181.646L1564.05 181.315C1563.78 181.279 1563.58 181.028 1563.62 180.754L1563.62 180.753C1561.29 180.445 1558.98 180.152 1556.68 179.871C1556.66 180.111 1556.46 180.29 1556.23 180.309L1556.13 180.307C1555.3 180.206 1554.47 180.105 1553.65 180.008L1551.18 179.721C1550.9 179.689 1550.71 179.442 1550.74 179.168C1548.4 178.902 1546.08 178.652 1543.78 178.416C1543.75 178.69 1543.51 178.889 1543.23 178.861C1541.57 178.692 1539.92 178.531 1538.28 178.379C1538.01 178.353 1537.81 178.111 1537.83 177.837C1535.48 177.62 1533.15 177.422 1530.85 177.241C1530.83 177.515 1530.59 177.72 1530.31 177.699C1528.65 177.571 1527 177.451 1525.37 177.342C1525.1 177.323 1524.89 177.086 1524.91 176.812C1522.54 176.656 1520.2 176.521 1517.89 176.409C1517.88 176.685 1517.65 176.897 1517.37 176.884C1516.54 176.845 1515.72 176.809 1514.9 176.775L1512.46 176.684C1512.18 176.674 1511.97 176.444 1511.98 176.169C1509.59 176.092 1507.24 176.039 1504.94 176.016C1504.94 176.291 1504.71 176.513 1504.43 176.511C1503.62 176.504 1502.81 176.5 1502 176.5C1501.2 176.5 1500.4 176.508 1499.58 176.525C1499.31 176.531 1499.08 176.313 1499.07 176.037C1496.76 176.095 1494.37 176.219 1491.91 176.407C1491.93 176.682 1491.72 176.922 1491.45 176.944C1489.85 177.071 1488.21 177.225 1486.55 177.405C1486.28 177.435 1486.03 177.237 1486 176.963C1483.68 177.22 1481.31 177.526 1478.87 177.88C1478.91 178.152 1478.72 178.406 1478.45 178.446C1476.85 178.683 1475.22 178.94 1473.57 179.217C1473.29 179.262 1473.04 179.079 1472.99 178.807C1470.68 179.199 1468.32 179.629 1465.92 180.097C1465.97 180.367 1465.79 180.629 1465.52 180.683C1463.92 180.996 1462.31 181.326 1460.67 181.671C1460.4 181.728 1460.14 181.555 1460.08 181.285C1457.77 181.775 1455.42 182.297 1453.04 182.848C1453.1 183.116 1452.93 183.385 1452.66 183.447C1451.08 183.816 1449.47 184.198 1447.85 184.593C1447.59 184.658 1447.32 184.495 1447.25 184.229C1444.98 184.786 1442.67 185.367 1440.33 185.973C1440.4 186.239 1440.24 186.51 1439.97 186.579C1438.36 186.998 1436.74 187.428 1435.1 187.869C1434.83 187.941 1434.56 187.783 1434.49 187.518C1432.25 188.123 1429.98 188.75 1427.69 189.395C1427.76 189.659 1427.6 189.934 1427.34 190.009C1425.7 190.471 1424.05 190.943 1422.39 191.424C1422.12 191.5 1421.85 191.348 1421.77 191.084C1419.56 191.725 1417.33 192.385 1415.07 193.059C1415.15 193.322 1415 193.6 1414.74 193.679C1413.13 194.161 1411.51 194.653 1409.87 195.151C1409.61 195.232 1409.33 195.083 1409.25 194.82C1407.01 195.506 1404.75 196.205 1402.48 196.919C1402.56 197.182 1402.41 197.462 1402.15 197.545C1400.56 198.043 1398.96 198.549 1397.36 199.061C1397.09 199.144 1396.81 198.999 1396.73 198.736C1394.47 199.457 1392.2 200.192 1389.9 200.938C1389.99 201.2 1389.84 201.481 1389.58 201.566C1388.01 202.079 1386.42 202.599 1384.83 203.123C1384.57 203.209 1384.29 203.067 1384.2 202.805C1381.98 203.538 1379.74 204.282 1377.49 205.036C1377.57 205.298 1377.43 205.58 1377.17 205.668C1375.56 206.207 1373.95 206.751 1372.33 207.3C1372.06 207.388 1371.78 207.247 1371.69 206.986C1369.49 207.733 1367.27 208.488 1365.04 209.252C1365.13 209.513 1364.99 209.797 1364.73 209.887C1363.14 210.43 1361.55 210.977 1359.95 211.529C1359.69 211.619 1359.4 211.481 1359.31 211.221C1357.07 211.994 1354.82 212.775 1352.56 213.563C1352.65 213.824 1352.51 214.109 1352.25 214.2C1350.68 214.747 1349.11 215.298 1347.53 215.853C1347.27 215.944 1346.98 215.807 1346.89 215.547C1344.67 216.325 1342.44 217.112 1340.2 217.903C1340.29 218.163 1340.16 218.446 1339.9 218.538C1338.3 219.103 1336.7 219.67 1335.09 220.241C1334.83 220.334 1334.54 220.198 1334.45 219.938C1332.25 220.719 1330.04 221.508 1327.82 222.301C1327.91 222.56 1327.77 222.846 1327.51 222.938C1325.93 223.503 1324.35 224.069 1322.76 224.639C1322.5 224.732 1322.21 224.597 1322.12 224.338C1319.89 225.138 1317.64 225.942 1315.39 226.751C1315.49 227.011 1315.35 227.297 1315.09 227.391C1313.52 227.955 1311.95 228.521 1310.37 229.089C1310.11 229.182 1309.83 229.048 1309.73 228.789C1307.52 229.586 1305.3 230.386 1303.08 231.189C1303.17 231.449 1303.04 231.736 1302.78 231.83C1301.19 232.404 1299.6 232.98 1298 233.557C1297.74 233.651 1297.45 233.516 1297.36 233.256C1295.15 234.056 1292.93 234.859 1290.71 235.664C1290.8 235.924 1290.66 236.211 1290.4 236.305C1288.83 236.876 1287.25 237.448 1285.66 238.021C1285.4 238.115 1285.12 237.981 1285.02 237.722V237.721C1282.8 238.525 1280.57 239.332 1278.34 240.141V240.142C1278.43 240.401 1278.3 240.688 1278.04 240.782C1276.45 241.355 1274.87 241.929 1273.28 242.504C1273.02 242.598 1272.73 242.463 1272.64 242.203C1270.43 243.002 1268.21 243.803 1265.99 244.604V244.605C1266.09 244.865 1265.95 245.151 1265.69 245.245C1264.11 245.817 1262.52 246.391 1260.93 246.964C1260.67 247.057 1260.38 246.923 1260.29 246.663V246.661C1258.07 247.463 1255.84 248.267 1253.61 249.07V249.071C1253.7 249.331 1253.56 249.618 1253.3 249.711C1251.72 250.279 1250.14 250.847 1248.56 251.415C1248.3 251.508 1248.01 251.373 1247.92 251.113V251.111C1245.7 251.908 1243.48 252.704 1241.25 253.501V253.503C1241.34 253.763 1241.21 254.05 1240.95 254.143C1239.36 254.711 1237.77 255.278 1236.17 255.846C1235.91 255.938 1235.63 255.803 1235.53 255.543V255.541C1233.31 256.332 1231.09 257.121 1228.86 257.911C1228.86 257.912 1228.86 257.914 1228.86 257.915C1228.95 258.175 1228.82 258.46 1228.56 258.553C1226.97 259.115 1225.38 259.678 1223.79 260.239C1223.53 260.331 1223.25 260.194 1223.16 259.934V259.933C1220.93 260.72 1218.7 261.505 1216.46 262.289V262.291C1216.56 262.552 1216.42 262.837 1216.16 262.929C1214.57 263.487 1212.98 264.044 1211.38 264.601C1211.12 264.691 1210.84 264.553 1210.75 264.293V264.291C1208.52 265.069 1206.29 265.847 1204.06 266.621V266.622C1204.15 266.883 1204.01 267.168 1203.75 267.259C1202.16 267.811 1200.56 268.362 1198.97 268.912C1198.71 269.002 1198.43 268.863 1198.33 268.603V268.601C1196.1 269.371 1193.86 270.14 1191.63 270.905V270.906C1191.72 271.167 1191.58 271.452 1191.32 271.541C1189.72 272.086 1188.13 272.63 1186.53 273.172C1186.27 273.261 1185.98 273.121 1185.9 272.859V272.858C1183.66 273.618 1181.42 274.375 1179.18 275.128V275.13C1179.27 275.392 1179.13 275.676 1178.87 275.764C1177.27 276.301 1175.67 276.836 1174.08 277.369C1173.81 277.456 1173.53 277.315 1173.44 277.054V277.052C1171.2 277.801 1168.96 278.547 1166.71 279.288V279.289C1166.8 279.551 1166.65 279.834 1166.39 279.921C1164.79 280.45 1163.19 280.976 1161.59 281.5C1161.32 281.586 1161.04 281.443 1160.96 281.181Z" stroke="#939598" stroke-linecap="round" stroke-linejoin="round" stroke-dasharray="5 8"></path></svg>