<svg xmlns="http://www.w3.org/2000/svg" width="183" height="195" viewBox="0 0 183 195" fill="none"><path d="M110.521 3.59634C50.1472 -16.508 73.8143 53.3145 27.3552 73.7964C19.1054 77.4347 8.43804 82.1582 4.22313 90.2049C-4.18921 106.258 1.98818 121.462 5.43311 129.966C12.538 147.502 36.37 169.977 93.5039 173.898C167.082 178.949 178.247 114.97 176.17 87.4168C174.09 59.8609 170.897 23.7031 110.521 3.59634Z" fill="#E6EBF0"></path><path d="M4.22313 90.2049C-4.18921 106.258 1.98818 121.462 5.43311 129.966C12.538 147.502 36.37 169.977 93.5039 173.898C167.082 178.949 178.247 114.97 176.17 87.4168C174.09 59.8609 170.897 23.7031 110.521 3.59634C50.1472 -16.508 73.8143 53.3145 27.3552 73.7964C19.1054 77.4347 8.43804 82.1582 4.22313 90.2049Z" fill="#E6EBF0"></path><path d="M51.4997 20.615C39.1449 21.7703 18.7253 33.5028 11.328 45.7804C6.78307 53.322 7.42055 58.3481 8.59053 61.1037C9.29302 62.764 10.8255 63.8793 12.5779 64.0493C19.4803 64.727 29.4376 61.8013 39.7324 48.8586C51.2447 34.3855 63.8569 19.4598 51.4997 20.615Z" fill="#E6EBF0"></path><path d="M4.22313 90.2049C-4.18921 106.258 1.98818 121.462 5.43311 129.966C12.538 147.502 36.37 169.977 93.5039 173.898C167.082 178.949 178.247 114.97 176.17 87.4168C174.09 59.8609 170.897 23.7031 110.521 3.59634C50.1472 -16.508 73.8143 53.3145 27.3552 73.7964C19.1054 77.4347 8.43804 82.1582 4.22313 90.2049Z" fill="#E6EBF0"></path><path d="M6.31812 175.443H170.077V174.198H6.31812V175.443Z" fill="#3C2A39"></path><path d="M27.5677 111.017H41.1849V117.681H27.5677V111.017ZM26.6877 118.564H42.0649V110.134H26.6877V118.564Z" fill="#AAB6C2"></path><path d="M17.0355 118.563H30.6527V125.23H17.0355V118.563ZM16.1555 126.11H31.5327V117.681H16.1555V126.11Z" fill="#AAB6C2"></path><path d="M65.4946 38.5813H79.1092V45.2452H65.4946V38.5813ZM64.6121 46.1279H79.9917V37.6986H64.6121V46.1279Z" fill="#AAB6C2"></path><path d="M92.5241 131.631H106.139V138.295H92.5241V131.631ZM91.6416 139.178H107.021V130.749H91.6416V139.178Z" fill="#AAB6C2"></path><path d="M78.0092 131.631H91.624V138.295H78.0092V131.631ZM77.1267 139.178H92.5065V130.749H77.1267V139.178Z" fill="#AAB6C2"></path><path d="M85.274 139.178H98.8912V145.842H85.274V139.178ZM84.394 146.725H99.7712V138.295H84.394V146.725Z" fill="#AAB6C2"></path><path d="M79.9916 77.0374H93.6088V83.7038H79.9916V77.0374ZM79.1091 84.584H94.4888V76.1572H79.1091V84.584Z" fill="#AAB6C2"></path><path d="M90.524 84.5838H104.141V91.2502H90.524V84.5838ZM89.644 92.1304H105.021V83.7036H89.644V92.1304Z" fill="#AAB6C2"></path><path d="M140.525 48.481H154.14V55.1474H140.525V48.481ZM139.643 56.0276H155.023V47.5983H139.643V56.0276Z" fill="#AAB6C2"></path><path d="M126.011 48.481H139.625V55.1474H126.011V48.481ZM125.128 56.0276H140.508V47.5983H125.128V56.0276Z" fill="#AAB6C2"></path><path d="M133.275 56.0274H146.893V62.6938H133.275V56.0274ZM132.396 63.574H147.773V55.1472H132.396V63.574Z" fill="#AAB6C2"></path><path d="M52.4521 42.7124C52.0396 41.8397 51.5697 39.2266 48.8948 38.1189C46.7398 37.2262 43.3748 37.1187 41.5523 38.529C40.4974 39.3466 39.7674 40.4969 39.2899 41.7147C38.8099 42.9299 38.5674 44.2177 38.3474 45.498C38.1174 46.8307 37.9124 48.1685 37.7274 49.5063C37.6349 50.174 37.5625 50.9091 37.95 51.4692C38.8974 52.832 41.0199 52.9496 42.7249 53.0871C44.4298 53.2271 46.1448 53.0471 47.8373 52.8095C49.7097 52.547 51.5721 52.2119 53.4146 51.8068C54.0971 51.6568 54.8721 51.4192 55.1271 50.7966C55.2996 50.3815 55.1771 49.9139 55.0496 49.4838C54.3596 47.1708 53.4921 44.9053 52.4521 42.7124Z" fill="#3C2A39"></path><path d="M38.4924 62.9318L34.275 69.1731L31.7126 72.9664L29.7276 75.9046L21.0603 70.3134V70.3084L20.5603 69.9908L16.3904 67.2952L16.1529 67.1452L13.9979 71.3261L13.9829 71.3536L20.0803 76.7873L20.5953 77.2499H20.6003L27.9451 83.7988C29.2926 84.994 31.2651 85.2166 32.8126 84.3039C34.4475 83.3412 35.94 82.1459 37.2324 80.7506C37.8624 80.0755 38.4474 79.3503 38.9774 78.5876L39.2749 78.1575L44.5048 70.6359C41.0699 69.0506 42.0074 62.0941 38.4924 62.9318Z" fill="white"></path><path d="M38.8899 78.5249C38.3599 79.2876 37.775 80.0127 37.1525 80.6778C35.875 82.0581 34.3975 83.2459 32.7576 84.2111C31.2526 85.0988 29.3477 84.9012 28.0177 83.7185L14.1205 71.3283L16.1929 67.3L16.3304 67.3875L29.7576 76.0518L38.56 63.0266C40.3074 62.639 40.8875 64.3318 41.5575 66.2898C42.1349 67.9751 42.7874 69.883 44.3449 70.6782L38.8899 78.5249ZM41.7624 66.2198C41.0824 64.2343 40.4499 62.3539 38.4675 62.8265L38.4274 62.8365L29.6951 75.7568L16.1104 66.9899L16.0554 67.0949L13.8455 71.3734L27.8752 83.881C28.6902 84.6037 29.7127 84.9788 30.7377 84.9788C31.4726 84.9788 32.2076 84.7862 32.8676 84.3986C34.5251 83.4209 36.02 82.2182 37.3125 80.8254C37.94 80.1502 38.53 79.4201 39.0675 78.6499L44.6674 70.5932L44.5523 70.5382C42.9923 69.818 42.3399 67.9076 41.7624 66.2198Z" fill="#3C2A39"></path><path d="M13.593 64.1396C13.1555 63.782 11.643 62.1017 11.253 62.0042C5.27816 60.4863 9.43304 65.94 9.77304 66.9627C10.113 67.9954 10.333 69.1282 11.033 69.9209C11.733 70.7135 13.813 71.8288 14.8479 71.0836C16.1704 70.1259 17.2229 69.5233 16.7354 68.0755C16.3154 66.8327 15.1529 65.4299 13.593 64.1396Z" fill="#BB695B"></path><path d="M29.9875 75.6644C29.9075 75.6519 29.8275 75.7045 29.8125 75.787C29.7975 75.867 29.8525 75.947 29.935 75.962C30.93 76.1421 31.8375 76.7197 32.425 77.5448C32.455 77.5874 32.4999 77.6099 32.5474 77.6099C32.5774 77.6099 32.6074 77.5999 32.6349 77.5824C32.7024 77.5323 32.7174 77.4398 32.6699 77.3723C32.0375 76.4821 31.06 75.8595 29.9875 75.6644Z" fill="#3C2A39"></path><path d="M11.7203 64.252C10.9604 64.0145 10.1354 63.9945 9.36292 64.182C9.20792 64.2195 9.03791 64.2796 8.96541 64.4196C8.88042 64.5871 8.97291 64.7972 9.11541 64.9172C9.25791 65.0372 9.44039 65.0972 9.60539 65.1823C10.1954 65.4923 10.5379 66.1124 10.9279 66.6501C11.2529 67.0977 11.6379 67.5152 12.1178 67.7928C12.5328 68.0354 13.2303 68.2654 13.7078 68.0704C14.1253 67.9003 14.2703 67.2402 14.2353 66.8451C14.1953 66.375 13.9653 65.9374 13.6678 65.5698C13.1703 64.9497 12.4778 64.4896 11.7203 64.252Z" fill="#BB695B"></path><path d="M21.5053 58.1957L8.11554 52.4844C7.73055 52.3194 7.31555 52.6445 7.38055 53.0571L10.5555 73.1464C10.578 73.2839 10.653 73.4089 10.7655 73.4914L19.5953 80.0204C19.9353 80.2729 20.4153 80.0479 20.4428 79.6278L21.8278 58.7208C21.8453 58.4957 21.7153 58.2857 21.5053 58.1957Z" fill="white"></path><path d="M21.5051 58.1984L8.11293 52.4871C7.93543 52.4096 7.74791 52.4396 7.60791 52.5322C9.15788 53.1923 17.5727 56.7881 20.5452 58.1209C21.0451 58.3409 21.3477 58.851 21.3127 59.3961C20.9427 64.5522 20.1452 75.8596 19.9402 78.7553C19.9127 79.1103 19.8752 79.728 19.6527 80.0555C19.9852 80.2506 20.4152 80.0205 20.4427 79.6279L21.8276 58.721C21.8426 58.4959 21.7126 58.2859 21.5051 58.1984Z" fill="white"></path><path d="M20.5455 58.1207C17.5731 56.7879 9.15824 53.1922 7.60827 52.532C7.55077 52.572 7.50578 52.617 7.46828 52.6721C7.39078 52.7796 7.35578 52.9146 7.38078 53.0596L10.5582 73.1464C10.5782 73.2865 10.6557 73.4065 10.7657 73.494L18.7431 79.3903L19.593 80.0229C19.6105 80.0354 19.628 80.0454 19.653 80.0554C19.8755 79.7278 19.913 79.1102 19.9405 78.7551C20.1455 75.8595 20.943 64.5521 21.313 59.396C21.348 58.8509 21.0455 58.3408 20.5455 58.1207Z" fill="#3C2A39"></path><path d="M9.06555 55.0147C8.85805 55.0373 8.71553 55.3023 8.74803 55.6049C8.78053 55.9074 8.97553 56.135 9.18303 56.1125C9.39052 56.09 9.53304 55.8274 9.50304 55.5249C9.46804 55.2223 9.27555 54.9947 9.06555 55.0147Z" fill="white"></path><path d="M10.3305 64.7995C10.3605 64.577 10.3155 64.3494 10.1655 64.1919C10.0505 64.0694 9.87545 64.0018 9.68296 63.9843C9.69546 63.9193 9.71297 63.8543 9.71797 63.7868C9.72797 63.5717 9.67549 63.3492 9.53799 63.1867C9.47799 63.1141 9.40048 63.0616 9.31548 63.0216C9.37798 62.8791 9.42798 62.7316 9.44048 62.5815C9.45548 62.409 9.41798 62.229 9.30298 62.0989C9.13049 61.9014 8.808 61.8589 8.55051 61.9689C8.29301 62.0789 8.11048 62.3215 8.04798 62.579C7.98298 62.8366 8.033 63.1041 8.143 63.3367C8.158 63.3642 8.17801 63.4042 8.20301 63.4467C8.15551 63.5367 8.11549 63.6343 8.09549 63.7343C8.03049 64.0494 8.09549 64.3819 8.23299 64.6695C8.26299 64.737 8.32298 64.842 8.39548 64.9495C8.32548 65.2546 8.373 65.5597 8.503 65.8272C8.5355 65.8947 8.6055 66.0098 8.6905 66.1248C8.6805 66.1598 8.66548 66.1923 8.65798 66.2273C8.59298 66.5424 8.65798 66.8749 8.79547 67.165C8.89297 67.3701 9.25548 67.9602 9.54297 67.8952C9.78796 67.8402 10.0354 67.105 10.1204 66.8975C10.2004 66.6999 10.2705 66.4924 10.2805 66.2798C10.2905 66.0673 10.2405 65.8447 10.103 65.6797C10.078 65.6497 10.043 65.6297 10.013 65.6072C10.0455 65.5422 10.073 65.4871 10.093 65.4496C10.203 65.2371 10.3005 65.0195 10.3305 64.7995Z" fill="white"></path><path d="M9.94556 65.6895L9.98057 65.7145L10.0206 65.7495C10.1306 65.8795 10.183 66.0646 10.173 66.2746C10.163 66.4872 10.0856 66.6972 10.0206 66.8573L9.98306 66.9548C9.78056 67.4874 9.62556 67.7675 9.52057 67.79C9.33557 67.835 9.03559 67.4174 8.89309 67.1173C8.75559 66.8248 8.71061 66.5172 8.76311 66.2496L8.78059 66.1971L8.79309 66.1571C8.80559 66.1221 8.7981 66.0871 8.7781 66.0596C8.6931 65.9496 8.63061 65.842 8.60061 65.777C8.47312 65.5195 8.44062 65.2419 8.50062 64.9744C8.50812 64.9443 8.50308 64.9143 8.48558 64.8893C8.41308 64.7793 8.3581 64.6818 8.3306 64.6243C8.1906 64.3317 8.14562 64.0217 8.20062 63.7566C8.21812 63.6741 8.25058 63.5891 8.29808 63.4965C8.31558 63.464 8.31558 63.424 8.29808 63.3915C8.27558 63.3515 8.25311 63.3165 8.24061 63.289C8.13311 63.0614 8.10062 62.8164 8.15062 62.6038C8.21062 62.3638 8.3806 62.1588 8.5931 62.0662C8.67309 62.0337 8.75809 62.0162 8.84309 62.0162C8.99309 62.0162 9.13557 62.0687 9.22057 62.1688C9.30807 62.2663 9.34807 62.4113 9.33307 62.5738C9.32057 62.7189 9.26808 62.8589 9.21808 62.9764C9.19558 63.0314 9.21807 63.0915 9.27057 63.1165C9.35307 63.1565 9.41307 63.2015 9.45807 63.254C9.56807 63.384 9.62057 63.5716 9.60807 63.7816C9.60557 63.8291 9.59556 63.8741 9.58556 63.9216L9.57809 63.9616C9.57059 63.9916 9.57807 64.0241 9.59557 64.0492C9.61557 64.0717 9.64305 64.0892 9.67305 64.0917C9.84805 64.1067 9.99559 64.1692 10.0881 64.2667C10.2456 64.4292 10.2405 64.6618 10.223 64.7843C10.1955 65.0019 10.093 65.2169 9.99805 65.3994C9.98305 65.4244 9.96557 65.4645 9.94307 65.507L9.91807 65.557C9.89307 65.602 9.90556 65.657 9.94556 65.6895ZM10.4381 64.8118C10.4756 64.5343 10.4055 64.2867 10.2456 64.1167C10.1381 64.0066 9.99059 63.9291 9.81309 63.8941C9.81809 63.8591 9.82309 63.8266 9.82559 63.7916C9.83809 63.529 9.76805 63.289 9.62306 63.1165C9.57806 63.0614 9.52059 63.0139 9.45309 62.9714C9.49559 62.8614 9.53806 62.7289 9.54806 62.5913C9.56806 62.3688 9.50807 62.1688 9.38307 62.0262C9.18807 61.8012 8.81808 61.7337 8.50809 61.8687C8.23309 61.9862 8.01561 62.2488 7.94311 62.5513C7.87811 62.8139 7.9156 63.109 8.0456 63.384C8.0556 63.4015 8.06811 63.424 8.08061 63.449C8.03811 63.5415 8.00812 63.6266 7.99062 63.7116C7.92562 64.0241 7.97809 64.3817 8.13558 64.7168C8.16308 64.7743 8.21309 64.8668 8.28309 64.9719C8.22309 65.2719 8.2656 65.582 8.4056 65.8721C8.4381 65.9371 8.49559 66.0371 8.57059 66.1421L8.55311 66.2071C8.48811 66.5197 8.54058 66.8748 8.69807 67.2098C8.70307 67.2198 9.08807 68.01 9.49806 68.01C9.52056 68.01 9.54308 68.005 9.56808 68C9.81807 67.945 10.018 67.4724 10.1855 67.0323L10.2206 66.9373C10.2906 66.7647 10.3756 66.5322 10.3881 66.2846C10.4031 66.0221 10.3305 65.782 10.1855 65.6095L10.1506 65.5745C10.1656 65.5445 10.1781 65.5195 10.1881 65.4995C10.2931 65.2994 10.4031 65.0644 10.4381 64.8118Z" fill="#3C2A39"></path><path d="M38.025 72.1784C37.52 71.0282 36.885 69.7929 35.7251 69.3203C35.2651 69.1328 34.7601 69.0927 34.2751 69.1728L31.7126 72.9661C32.1776 73.1486 32.6326 73.2786 33.0651 73.5737C33.5551 73.9013 33.9926 74.3039 34.3726 74.7565C35.1875 75.7367 35.7351 76.9069 36.2025 78.0922C36.5525 78.9749 36.865 79.8801 37.2325 80.7502C37.8625 80.0751 38.4475 79.3499 38.9774 78.5873L39.275 78.1572C39.425 77.2645 39.365 76.3368 39.17 75.4441C38.9275 74.3139 38.4875 73.2336 38.025 72.1784Z" fill="#3C2A39"></path><path d="M42.0249 57.1251C41.2999 56.6425 38.8599 58.6804 38.3149 59.1806C35.48 61.7736 33.1 64.8618 31.3226 68.265C30.7901 69.2827 30.3076 70.498 30.7951 71.5382C31.2126 72.4334 32.2101 72.8785 33.1276 73.2461C34.265 73.6987 35.4475 74.1538 36.67 74.1112C38.4174 74.0487 40.0199 72.946 40.9799 71.4857C41.9399 70.0254 42.3249 68.25 42.3999 66.5046C42.4849 64.5642 42.2024 62.6113 41.5874 60.7684C41.3649 60.1083 42.6274 57.5277 42.0249 57.1251Z" fill="#FBB53B"></path><path d="M26.0326 160.1C25.7501 160.618 25.5801 161.2 25.4826 161.78C25.3326 162.688 25.3551 163.616 25.3776 164.536C25.3976 165.351 25.2851 167.241 25.3051 168.057C25.4576 168.029 25.5826 168.007 25.6676 167.882C25.7976 167.699 25.9876 166.301 26.0326 166.076C26.1951 165.206 26.3601 164.341 26.5251 163.473C26.7351 162.36 27.9601 160.287 27.0276 159.497C26.4376 158.997 26.3126 159.585 26.0326 160.1Z" fill="#3C2A39"></path><path d="M25.2077 158.977C24.2952 158.782 23.2027 159.04 22.4927 159.662C21.8328 160.245 21.9353 161.193 21.7428 161.993C21.2603 164.013 20.0328 165.861 18.3128 167.041C17.9979 167.256 17.6628 167.457 17.4178 167.749C17.1703 168.042 17.0304 168.459 17.1754 168.812C17.4129 169.389 18.1928 169.454 18.8178 169.427C19.6578 169.392 20.5003 169.354 21.3428 169.317C21.9753 169.289 22.6377 169.254 23.1927 168.944C23.9852 168.502 24.3877 167.602 24.7027 166.751C25.4252 164.803 25.9677 162.793 26.3226 160.745C26.3826 160.41 26.4327 160.052 26.3027 159.737C26.1252 159.31 25.6602 159.075 25.2077 158.977Z" fill="#3C2A39"></path><path d="M25.2127 145.677L21.9553 159.858C21.9403 160.34 21.9028 160.753 21.8878 161.093C21.8553 161.988 21.9953 162.421 23.2477 162.448C24.2177 162.466 24.9577 162.14 25.5202 161.585C25.6102 161.498 25.6927 161.405 25.7702 161.308C26.0077 161.02 26.2102 160.683 26.3802 160.308C26.5177 160.003 26.6377 159.672 26.7377 159.325C26.7952 159.117 26.8502 158.907 26.8952 158.692L30.1751 150.916C28.1027 149.445 27.6502 145.644 25.2127 145.677Z" fill="white"></path><path d="M26.7979 158.65C26.7504 158.86 26.7004 159.06 26.6354 159.295C26.5354 159.64 26.4154 159.965 26.2804 160.263C26.1154 160.633 25.9154 160.963 25.6879 161.24C25.5979 161.35 25.5229 161.433 25.4454 161.508C24.8779 162.068 24.1804 162.341 23.3204 162.341C23.2979 162.341 23.273 162.341 23.2505 162.341C22.703 162.328 22.3655 162.238 22.1905 162.05C22.0055 161.855 21.9804 161.54 21.9979 161.095C22.0029 160.963 22.0129 160.82 22.0229 160.665C22.0379 160.423 22.0555 160.155 22.063 159.863L25.3004 145.785C26.6079 145.82 27.3253 147.065 28.0853 148.38C28.6353 149.338 29.2053 150.325 30.0453 150.953L26.7979 158.65ZM28.2703 148.273C27.4703 146.882 26.7129 145.569 25.2429 145.569H25.2129H25.1279L25.1079 145.652L21.8505 159.835C21.838 160.145 21.823 160.41 21.8055 160.65C21.7955 160.808 21.788 160.953 21.7805 161.085C21.763 161.588 21.798 161.948 22.033 162.198C22.253 162.433 22.6279 162.543 23.2479 162.556C23.2704 162.556 23.2929 162.558 23.3154 162.558C24.2279 162.558 24.9954 162.256 25.5954 161.663C25.6779 161.583 25.7604 161.495 25.8554 161.378C26.0954 161.083 26.3029 160.738 26.4779 160.353C26.6154 160.045 26.7379 159.71 26.8429 159.355C26.9079 159.112 26.9604 158.91 27.0004 158.715L30.3103 150.878L30.2378 150.828C29.4003 150.233 28.8253 149.235 28.2703 148.273Z" fill="#3C2A39"></path><path d="M59.967 159.815C59.7395 160.36 59.6295 160.955 59.592 161.543C59.5345 162.463 59.652 163.383 59.7695 164.296C59.872 165.103 59.9569 166.996 60.0594 167.804C60.2094 167.761 60.3294 167.726 60.4019 167.594C60.5119 167.399 60.5594 165.989 60.5769 165.759C60.6519 164.878 60.7269 164.001 60.8019 163.12C60.8969 161.993 61.9045 159.805 60.8945 159.115C60.257 158.677 60.1919 159.275 59.967 159.815Z" fill="#3C2A39"></path><path d="M59.032 158.785C58.1021 158.685 57.042 159.05 56.402 159.745C55.8045 160.39 56.0046 161.323 55.8946 162.138C55.6221 164.198 54.5896 166.164 52.9996 167.512C52.7097 167.759 52.3946 167.992 52.1796 168.307C51.9671 168.624 51.8697 169.054 52.0497 169.389C52.3472 169.94 53.1272 169.925 53.7447 169.835C54.5796 169.712 55.4121 169.587 56.2446 169.464C56.8746 169.372 57.5296 169.269 58.0495 168.904C58.7895 168.382 59.0995 167.447 59.327 166.569C59.8445 164.558 60.1795 162.5 60.322 160.43C60.347 160.087 60.3595 159.725 60.197 159.425C59.977 159.02 59.4895 158.835 59.032 158.785Z" fill="#3C2A39"></path><path d="M53.8596 144.096L55.8871 159.992C55.9221 160.475 55.9271 160.887 55.9446 161.228C56.0046 162.123 56.1871 162.54 57.4395 162.435C58.4045 162.353 59.107 161.958 59.6095 161.345C59.6895 161.248 59.7621 161.15 59.8321 161.045C60.0371 160.732 60.2021 160.377 60.332 159.987C60.4395 159.67 60.5245 159.327 60.5895 158.97C60.6245 158.76 60.657 158.544 60.682 158.324L61.012 148.075C58.7996 146.822 56.2796 143.816 53.8596 144.096Z" fill="white"></path><path d="M60.5747 158.322C60.5547 158.509 60.5221 158.719 60.4846 158.952C60.4196 159.307 60.3347 159.642 60.2322 159.952C60.1022 160.34 59.9372 160.687 59.7422 160.985C59.6672 161.097 59.5996 161.193 59.5271 161.275C59.0071 161.908 58.3222 162.253 57.4297 162.33C56.8797 162.378 56.5373 162.318 56.3448 162.15C56.1423 161.975 56.0822 161.665 56.0547 161.22C56.0472 161.087 56.0422 160.945 56.0347 160.787C56.0247 160.547 56.0148 160.28 55.9948 159.985L53.9798 144.196C55.5522 144.076 57.1672 145.349 58.7347 146.579C59.4897 147.172 60.2021 147.732 60.9021 148.135L60.5747 158.322ZM58.8672 146.409C57.2297 145.124 55.5322 143.794 53.8473 143.991L53.7397 144.004L53.7522 144.111L55.7797 160.007C55.7997 160.292 55.8098 160.557 55.8198 160.797C55.8273 160.955 55.8322 161.097 55.8397 161.233C55.8697 161.733 55.9422 162.088 56.2047 162.313C56.3972 162.48 56.6797 162.56 57.0972 162.56C57.2047 162.56 57.3222 162.555 57.4472 162.545C58.3872 162.463 59.1422 162.083 59.6947 161.415C59.7697 161.323 59.8421 161.225 59.9221 161.102C60.1271 160.79 60.3021 160.425 60.4346 160.02C60.5421 159.702 60.6296 159.355 60.6971 158.992C60.7371 158.749 60.7671 158.537 60.7896 158.337L61.1221 148.012L61.0646 147.98C60.3621 147.582 59.6372 147.014 58.8672 146.409Z" fill="#3C2A39"></path><path d="M39.7 91.5754C34.0501 98.642 28.0927 124.08 28.0927 124.08C28.0927 124.08 22.9578 152.026 22.0378 154.894C23.7378 155.367 26.6727 156.207 28.2827 155.882C38 143.352 39.275 130.514 39.275 130.514C39.275 130.514 48.3348 113.54 54.9797 98.712C52.4872 98.0568 41.335 89.5325 39.7 91.5754Z" fill="#3C2A39"></path><path d="M57.587 91.553C54.9996 91.428 48.9371 93.0908 47.2522 95.0387C46.4897 95.9214 44.6298 99.2596 43.8423 100.117C46.3697 115.428 48.4072 131.014 48.5622 131.459C52.0696 141.686 54.1646 149.298 54.4921 155.359C57.942 155.082 58.067 155.179 61.5195 154.904C63.1419 149.145 64.7119 138.753 61.0245 128.566C64.4194 112.662 61.032 99.6997 57.587 91.553Z" fill="#3C2A39"></path><path d="M58.2823 87.102C60.6497 78.4627 57.5547 61.3565 57.5547 61.3565C57.4697 59.4561 53.9148 58.1283 50.7723 56.848C50.6824 56.813 50.5924 56.7705 50.5074 56.738C50.1949 56.6005 49.8899 56.478 49.5949 56.3579L49.5299 56.3304C47.1574 55.3927 44.4975 55.5028 42.2126 56.6305L42.1525 56.658C42.12 56.6755 42.0876 56.6905 42.0501 56.7055C41.6126 56.9231 41.1326 57.1831 40.6301 57.4732L40.5626 57.5082C40.5301 57.5307 40.4926 57.5507 40.4576 57.5732C37.2527 59.4511 36.3776 65.5974 35.7851 67.3503C35.5527 68.0479 35.2952 69.7758 35.0427 72.0513L35.0352 72.0763C35.0102 72.3339 34.9177 72.6064 34.9502 72.879C35.6227 78.3851 39.1226 81.9734 38.7101 85.2916C38.4276 87.5421 39.6826 89.0449 36.9976 93.3809C34.1902 97.9118 34.3177 101.007 39.5976 101.723C42.2275 102.078 60.4722 103.17 60.1622 98.1119C60.1622 98.1119 57.6723 89.3275 58.2823 87.102Z" fill="#FBB53B"></path><path d="M28.1503 154.344L22.5678 153.974C21.8779 153.926 21.2804 154.406 21.2304 155.047C21.1804 155.684 21.7004 156.239 22.3879 156.284L27.9727 156.657C28.6602 156.704 29.2602 156.222 29.3102 155.584C29.3577 154.944 28.8402 154.389 28.1503 154.344Z" fill="#3C2A39"></path><path d="M60.9497 154.129L55.3573 153.894C54.6673 153.864 54.0823 154.359 54.0498 154.999C54.0198 155.639 54.5523 156.182 55.2422 156.209L60.8346 156.447C61.5246 156.477 62.1096 155.979 62.1421 155.341C62.1721 154.701 61.6396 154.159 60.9497 154.129Z" fill="#3C2A39"></path><path d="M41.9274 71.7159C41.8874 71.7184 41.8425 71.7284 41.8075 71.7234C40.6501 71.5684 40.7125 69.9155 40.4725 69.6704C40.555 69.723 40.635 69.758 40.7 69.738C40.9175 69.6729 41.1725 68.9103 41.5975 69.6529C41.6775 69.793 41.805 70.0905 41.9575 70.4031C41.92 70.8157 41.8524 71.3408 41.9274 71.7159ZM63.2946 73.0112C62.6696 70.4281 62.0746 68.5327 62.0746 68.5327C59.9571 65.3995 58.0096 61.9163 53.2722 65.8121L55.7198 74.6515L55.9647 75.5442L56.4597 77.3321L46.1274 73.0887C46.1174 72.7636 46.1024 72.4335 46.0849 72.106C46.0849 72.0685 46.0849 72.0309 46.0799 71.9934C46.0574 71.5008 46.0324 71.0232 46.0224 70.5856C46.0324 70.4131 46.0349 70.2781 46.0374 70.2156C46.0474 69.878 46.1749 67.64 45.8324 67.52C45.505 67.44 45.1475 67.65 44.9825 67.9176C44.82 68.1876 44.8024 68.5002 44.7899 68.8003C44.7899 68.8553 44.7874 68.9103 44.7849 68.9653C44.7499 68.8953 44.715 68.8253 44.6825 68.7552C44.655 68.5802 44.6324 68.4427 44.6224 68.3802C44.5649 68.0476 44.2524 65.8296 43.8924 65.7771C43.5575 65.7646 43.245 66.0397 43.1375 66.3347C43.03 66.6298 43.0749 66.9399 43.1224 67.2374L43.1325 67.3024L43.075 67.3249C42.7425 66.6423 42.1025 65.3895 41.82 65.432C41.4925 65.5146 41.2725 65.8671 41.255 66.1797C41.2375 66.4948 41.37 66.7798 41.5 67.0499C41.595 67.2499 41.6925 67.45 41.7875 67.65C41.5075 67.6475 41.04 67.9351 40.7875 68.0526C40.375 68.2426 40.1276 68.8203 40.1326 69.1353C40.1351 69.3454 40.3 69.5554 40.465 69.6654C40.41 69.6179 40.34 69.6404 40.235 69.7705C39.985 70.083 39.705 71.3958 39.7125 71.9609C39.735 73.9864 41.1525 75.4717 42.1825 76.2844C42.51 76.5444 42.7749 76.7245 42.9974 76.847C44.3049 77.9872 57.4797 89.3147 62.922 87.1492C64.9945 86.3265 64.9445 82.2056 64.3095 78.0472C64.037 76.2919 63.6596 74.5365 63.2946 73.0112Z" fill="white"></path><path d="M41.8023 71.6134C41.0673 71.5009 40.8824 70.7132 40.7449 70.1356C40.7199 70.0281 40.6973 69.933 40.6723 69.8505L40.7324 69.8405C40.8224 69.813 40.8974 69.7305 40.9749 69.6405C41.0574 69.5455 41.1523 69.4379 41.2348 69.4379H41.2449C41.3174 69.4454 41.4099 69.5405 41.5048 69.7055C41.5498 69.783 41.6123 69.9205 41.6848 70.0781C41.7348 70.1831 41.7898 70.3031 41.8473 70.4231L41.8348 70.5532C41.8023 70.9007 41.7648 71.2908 41.8023 71.6134ZM62.882 87.0492C57.5221 89.1822 44.5323 78.0423 43.0673 76.7645L43.0449 76.7495C42.8299 76.632 42.5698 76.4519 42.2499 76.1994C41.1524 75.3342 39.8424 73.8964 39.8199 71.9585C39.8124 71.3984 40.0924 70.1231 40.3199 69.838C40.3624 69.783 40.3898 69.7605 40.4023 69.753C40.4473 69.813 40.4923 70.0031 40.5348 70.1831C40.6698 70.7557 40.8949 71.7109 41.7923 71.8309H41.7949C41.8324 71.8334 41.8674 71.8309 41.8999 71.8284L41.9348 71.8259C41.9648 71.8234 41.9949 71.8059 42.0124 71.7834C42.0324 71.7584 42.0398 71.7259 42.0348 71.6959C41.9723 71.3833 42.0124 70.9533 42.0499 70.5732L42.0648 70.4106L42.0548 70.3556C41.9923 70.2256 41.9323 70.1006 41.8798 69.988C41.8073 69.823 41.7423 69.6855 41.6923 69.598C41.5548 69.3604 41.4173 69.2379 41.2674 69.2229C41.0549 69.2004 40.9274 69.3679 40.8124 69.4979C40.7649 69.5505 40.6999 69.6255 40.6699 69.633C40.6674 69.6355 40.6324 69.643 40.5324 69.5805L40.4999 69.558C40.3699 69.4629 40.2423 69.2929 40.2398 69.1354C40.2373 68.8528 40.4698 68.3177 40.8348 68.1501C40.8948 68.1226 40.9649 68.0851 41.0424 68.0451C41.2749 67.9226 41.5949 67.7576 41.7824 67.7576H41.7874C41.8249 67.7576 41.8573 67.7401 41.8798 67.7076C41.8998 67.6776 41.9023 67.6375 41.8848 67.6025L41.5973 67.0024C41.4798 66.7574 41.3449 66.4798 41.3624 66.1872C41.3774 65.9247 41.5624 65.6071 41.8449 65.5371C41.8774 65.5396 42.1323 65.6371 42.9798 67.3725C43.0023 67.42 43.0573 67.4425 43.1098 67.4275L43.1423 67.4125C43.1998 67.4 43.2498 67.34 43.2398 67.2825L43.2298 67.22C43.1873 66.9499 43.1398 66.6473 43.2398 66.3723C43.3273 66.1297 43.5848 65.8847 43.8698 65.8847H43.8898C43.9373 65.9072 44.1623 66.1422 44.4948 68.2677L44.5147 68.4002C44.5272 68.4602 44.5498 68.5978 44.5748 68.7703L44.5848 68.8028L44.6873 69.0128C44.7098 69.0578 44.7598 69.0829 44.8073 69.0704C44.8573 69.0604 44.8898 69.0178 44.8923 68.9678L44.8998 68.8053C44.9098 68.5327 44.9223 68.2252 45.0748 67.9726C45.2123 67.7476 45.5198 67.5525 45.8073 67.625C45.8498 67.655 46.0222 67.9276 45.9347 70.0706L45.9298 70.2106C45.9273 70.2731 45.9247 70.4081 45.9147 70.5782C45.9247 71.0008 45.9473 71.4509 45.9698 71.911L45.9722 71.9985C45.9772 72.0385 45.9773 72.0735 45.9798 72.1085C45.9948 72.4386 46.0098 72.7661 46.0198 73.0937C46.0198 73.1337 46.0472 73.1737 46.0847 73.1887L56.4196 77.4321C56.4596 77.4471 56.4996 77.4396 56.5321 77.4121C56.5621 77.3846 56.5745 77.3421 56.5645 77.3021L53.3971 65.8522C54.9546 64.5819 56.2896 64.0493 57.467 64.2268C59.2345 64.4869 60.417 66.2523 61.6695 68.1227L61.9769 68.5802C62.0319 68.7628 62.6019 70.6082 63.1919 73.0387C63.6394 74.9166 63.9694 76.5594 64.2044 78.0648C64.9994 83.2834 64.5444 86.3916 62.882 87.0492ZM63.3994 72.9862C62.7819 70.4306 62.1819 68.5177 62.1769 68.5002L62.1644 68.4702L61.8495 68.0026C60.627 66.1747 59.3595 64.2868 57.4995 64.0118C56.2396 63.8292 54.8346 64.3893 53.2046 65.7296C53.1721 65.7571 53.1572 65.7997 53.1697 65.8422L56.297 77.1471L46.2323 73.0162C46.2223 72.7111 46.2098 72.4061 46.1948 72.101C46.1948 72.0635 46.1923 72.0235 46.1873 71.9835L46.1847 71.901C46.1622 71.4409 46.1398 70.9958 46.1298 70.5832C46.1398 70.4156 46.1448 70.2806 46.1448 70.2181L46.1498 70.0781C46.2423 67.8601 46.0698 67.4875 45.8673 67.4175C45.4648 67.32 45.0647 67.5725 44.8897 67.8626C44.7997 68.0101 44.7498 68.1727 44.7223 68.3327L44.7073 68.2327C44.3623 66.0322 44.1198 65.7021 43.9098 65.6721C43.4973 65.6446 43.1523 65.9797 43.0373 66.2973C42.9673 66.4873 42.9573 66.6798 42.9673 66.8649C42.2573 65.4721 41.9748 65.302 41.8048 65.3245C41.3999 65.4271 41.1673 65.8372 41.1473 66.1747C41.1273 66.5223 41.2723 66.8274 41.4023 67.0974L41.6249 67.5625C41.4074 67.61 41.1549 67.7426 40.9449 67.8526C40.8674 67.8926 40.7999 67.9276 40.7424 67.9551C40.2899 68.1652 40.0199 68.7853 40.0249 69.1379C40.0274 69.3154 40.1199 69.4829 40.2374 69.6105C40.2099 69.6355 40.1798 69.6655 40.1523 69.7005V69.703C39.8723 70.0531 39.5974 71.4058 39.6049 71.9635C39.6274 73.9839 40.9823 75.4742 42.1148 76.3694C42.4448 76.6295 42.7174 76.8145 42.9449 76.942C44.2723 78.1023 55.2671 87.5293 61.3495 87.5293C61.937 87.5293 62.4794 87.4418 62.9619 87.2492C64.7519 86.5391 65.2419 83.4384 64.4169 78.0323C64.1819 76.5219 63.8494 74.8716 63.3994 72.9862Z" fill="#3C2A39"></path><path d="M40.07 43.6327C39.2276 43.6927 38.6075 44.6229 38.685 45.7081C38.7625 46.7958 40.2 48.2262 41.0425 48.1661C41.885 48.1061 41.8124 46.5783 41.7349 45.4906C41.6599 44.4053 40.9125 43.5726 40.07 43.6327Z" fill="white"></path><path d="M41.6274 47.1981C41.5449 47.7533 41.3524 48.0358 41.0349 48.0583H40.9899C40.6324 48.0583 40.1149 47.7633 39.6524 47.2907C39.1549 46.7806 38.825 46.1704 38.7925 45.7003C38.72 44.6751 39.2974 43.7949 40.0774 43.7399C40.1049 43.7374 40.13 43.7374 40.155 43.7374C40.9049 43.7374 41.5574 44.5076 41.6274 45.4978C41.6724 46.0904 41.6999 46.708 41.6274 47.1981ZM40.0625 43.5249C39.1625 43.5899 38.495 44.5726 38.5775 45.7153C38.615 46.2429 38.96 46.8881 39.5 47.4407C40.005 47.9608 40.57 48.2759 40.9924 48.2759L41.05 48.2734C41.4775 48.2434 41.7424 47.8908 41.8399 47.2282C41.9174 46.718 41.8875 46.0879 41.845 45.4828C41.7625 44.3375 40.96 43.4548 40.0625 43.5249Z" fill="#3C2A39"></path><path d="M39.5274 44.1827C39.4424 44.1702 39.3575 44.2377 39.3475 44.3252C39.3375 44.4152 39.4024 44.4952 39.4899 44.5053C39.7924 44.5403 40.1224 44.6678 40.4274 45.1929C40.2174 45.1379 39.9599 45.1629 39.6274 45.2629C39.5424 45.2879 39.495 45.3779 39.52 45.463C39.545 45.5505 39.635 45.598 39.72 45.573C40.0525 45.473 40.2975 45.463 40.445 45.543C40.615 45.633 40.6824 45.858 40.7599 46.1181C40.8024 46.2681 40.8499 46.4207 40.9224 46.5682C40.9499 46.6257 41.0074 46.6582 41.0674 46.6582L41.1224 46.6507C41.1999 46.6207 41.2425 46.5407 41.225 46.4582C40.7775 44.5753 40.1149 44.2527 39.5274 44.1827Z" fill="#3C2A39"></path><path d="M40.355 47.5208C39.8525 47.5208 39.4475 47.9284 39.4475 48.4285C39.4475 48.9286 39.8525 49.3362 40.355 49.3362C40.855 49.3362 41.2625 48.9286 41.2625 48.4285C41.2625 47.9284 40.855 47.5208 40.355 47.5208Z" fill="#FBB53B"></path><path d="M48.6798 56.0052L48.4673 53.5797L48.2999 51.6743H43.8899L43.6599 53.6422L43.375 56.0727C42.99 56.2503 42.5824 56.4453 42.1524 56.6579C42.1199 56.6754 42.0875 56.6904 42.05 56.7054C41.9875 56.9329 43.5024 64.8696 43.5024 64.8696C43.5024 64.8696 50.5648 56.9554 50.5073 56.7379C50.1948 56.6004 49.8898 56.4778 49.5948 56.3578C49.2774 56.2328 48.9723 56.1153 48.6798 56.0052Z" fill="white"></path><path d="M43.5674 64.6345C42.9975 61.6413 42.2025 57.3454 42.16 56.7753L42.1774 56.7653L42.2 56.7553C42.63 56.5428 43.0374 56.3477 43.4224 56.1702C43.4549 56.1552 43.48 56.1227 43.4825 56.0851L43.9849 51.7817H48.2023L48.5723 56.0126C48.5748 56.0551 48.6023 56.0902 48.6423 56.1052C48.9348 56.2152 49.2373 56.3302 49.5548 56.4577L49.7673 56.5453C49.9598 56.6228 50.1598 56.7053 50.3598 56.7928C49.9023 57.4679 46.1724 61.7139 43.5674 64.6345ZM50.5523 56.6403C50.3123 56.5327 50.0773 56.4377 49.8473 56.3452L49.6348 56.2577C49.3398 56.1402 49.0573 56.0301 48.7798 55.9276L48.4074 51.6642C48.4024 51.6092 48.3549 51.5667 48.2999 51.5667H43.8899C43.8349 51.5667 43.79 51.6067 43.7825 51.6617L43.275 56.0001C42.9075 56.1727 42.515 56.3577 42.105 56.5602L42.0825 56.5728C42.06 56.5853 42.035 56.5953 42.0075 56.6078C41.98 56.6203 41.9575 56.6453 41.9475 56.6778C41.8825 56.9103 43.0399 63.0216 43.3974 64.8895C43.4049 64.9295 43.435 64.9621 43.475 64.9721L43.5024 64.9771C43.5324 64.9771 43.5625 64.9645 43.5825 64.9395C50.6848 56.9828 50.6323 56.7828 50.6123 56.7103C50.6048 56.6778 50.5798 56.6528 50.5523 56.6403Z" fill="#3C2A39"></path><path d="M43.8898 51.6742L43.7749 52.7369C44.5474 53.4345 45.8998 53.8896 46.7398 53.8896C47.6198 53.8896 48.2648 53.7021 48.4673 53.5796L48.2998 51.6742H43.8898Z" fill="#3C2A39"></path><path d="M45.9424 37.6913C42.7575 37.6913 40.175 40.1068 40.175 43.0849C40.175 46.0631 42.7575 48.4761 45.9424 48.4761C49.1274 48.4761 51.7073 46.0631 51.7073 43.0849C51.7073 40.1068 49.1274 37.6913 45.9424 37.6913Z" fill="#3C2A39"></path><path d="M46.0149 38.989C42.9399 38.989 40.4475 42.2022 40.4475 46.1655C40.4475 50.1289 42.9399 53.342 46.0149 53.342C49.0873 53.342 51.5823 50.1289 51.5823 46.1655C51.5823 42.2022 49.0873 38.989 46.0149 38.989Z" fill="white"></path><path d="M46.0147 53.2347C43.0023 53.2347 40.5549 50.064 40.5549 46.1657C40.5549 42.2673 43.0023 39.0966 46.0147 39.0966C49.0247 39.0966 51.4721 42.2673 51.4721 46.1657C51.4721 50.064 49.0247 53.2347 46.0147 53.2347ZM46.0147 38.8816C42.8848 38.8816 40.3398 42.1498 40.3398 46.1657C40.3398 50.1815 42.8848 53.4497 46.0147 53.4497C49.1447 53.4497 51.6896 50.1815 51.6896 46.1657C51.6896 42.1498 49.1447 38.8816 46.0147 38.8816Z" fill="#3C2A39"></path><path d="M52.4896 43.6327C51.6472 43.5726 50.9022 44.4053 50.8247 45.4906C50.7472 46.5783 50.6773 48.1061 51.5197 48.1661C52.3622 48.2262 53.7996 46.7958 53.8771 45.7081C53.9546 44.6229 53.3346 43.6927 52.4896 43.6327Z" fill="white"></path><path d="M52.9072 47.2907C52.4472 47.7633 51.9297 48.0583 51.5722 48.0583H51.5271C51.2097 48.0358 51.0172 47.7533 50.9347 47.1981C50.8622 46.708 50.8897 46.0904 50.9322 45.4978C51.0072 44.4726 51.6922 43.6899 52.4822 43.7399C53.2647 43.7949 53.8422 44.6751 53.7697 45.7003C53.7347 46.1704 53.4047 46.7806 52.9072 47.2907ZM52.4997 43.5249C51.6047 43.4523 50.7997 44.3375 50.7172 45.4828C50.6747 46.0879 50.6447 46.718 50.7197 47.2282C50.8197 47.8908 51.0847 48.2434 51.5122 48.2734L51.5697 48.2759C51.9897 48.2759 52.5547 47.9608 53.0622 47.4407C53.6022 46.8881 53.9471 46.2429 53.9846 45.7153C54.0646 44.5726 53.3997 43.5874 52.4997 43.5249Z" fill="#3C2A39"></path><path d="M53.0347 44.1827C52.4447 44.2527 51.7823 44.5753 51.3373 46.4582C51.3173 46.5407 51.3622 46.6207 51.4397 46.6507L51.4948 46.6582C51.5548 46.6582 51.6122 46.6257 51.6397 46.5682C51.7122 46.4207 51.7572 46.2656 51.8022 46.1181C51.8797 45.858 51.9447 45.633 52.1172 45.543C52.2647 45.463 52.5072 45.473 52.8397 45.573C52.9247 45.598 53.0172 45.5505 53.0422 45.463C53.0672 45.3779 53.0198 45.2879 52.9323 45.2629C52.6023 45.1629 52.3422 45.1404 52.1347 45.1904C52.4372 44.6678 52.7673 44.5403 53.0697 44.5053C53.1597 44.4952 53.2222 44.4152 53.2122 44.3252C53.2022 44.2377 53.1247 44.1702 53.0347 44.1827Z" fill="#3C2A39"></path><path d="M45.9023 45.9479C45.8948 45.8579 45.8149 45.7879 45.7299 45.8004C45.6399 45.8054 45.5724 45.8854 45.5799 45.9729L45.7299 47.9358C45.7399 48.0559 45.7423 48.2259 45.6648 48.2784C45.6223 48.3084 45.5499 48.3134 45.4899 48.3109C45.2049 48.3059 44.9249 48.2284 44.6799 48.0834C44.6024 48.0384 44.5049 48.0634 44.4599 48.1409C44.4124 48.2159 44.4374 48.3159 44.5149 48.3609C44.8099 48.536 45.1449 48.6285 45.4849 48.6335L45.5049 48.636C45.6124 48.636 45.7423 48.621 45.8523 48.5435C46.0873 48.3784 46.0623 48.0509 46.0523 47.9108L45.9023 45.9479Z" fill="#3C2A39"></path><path d="M47.8924 44.9526C47.6824 44.9526 47.5125 45.2352 47.5125 45.5828C47.5125 45.9303 47.6824 46.2129 47.8924 46.2129C48.1024 46.2129 48.2724 45.9303 48.2724 45.5828C48.2724 45.2352 48.1024 44.9526 47.8924 44.9526Z" fill="#3C2A39"></path><path d="M43.5326 44.9526C43.3251 44.9526 43.155 45.2352 43.155 45.5828C43.155 45.9303 43.3251 46.2129 43.5326 46.2129C43.7426 46.2129 43.915 45.9303 43.915 45.5828C43.915 45.2352 43.7426 44.9526 43.5326 44.9526Z" fill="#3C2A39"></path><path d="M43.5298 43.9525C43.4123 43.925 43.2948 43.9975 43.1923 44.065C42.9574 44.2251 42.7199 44.3876 42.4799 44.5476C42.3549 44.6326 42.2223 44.7277 42.1648 44.8677C42.1073 45.0077 42.1674 45.2078 42.3174 45.2353C42.3824 45.2478 42.7599 44.8977 42.8374 44.8477C43.0199 44.7327 43.2099 44.6326 43.4074 44.5426C43.5149 44.4951 43.6898 44.4626 43.7423 44.3401C43.8023 44.1976 43.6748 43.985 43.5298 43.9525Z" fill="#3C2A39"></path><path d="M48.9648 44.5476C48.7273 44.3876 48.4898 44.2251 48.2523 44.065C48.1523 43.9975 48.0349 43.925 47.9174 43.9525C47.7724 43.985 47.6449 44.1976 47.7049 44.3401C47.7549 44.4626 47.9298 44.4951 48.0398 44.5426C48.2373 44.6326 48.4273 44.7327 48.6098 44.8477C48.6873 44.8977 49.0648 45.2478 49.1273 45.2353C49.2773 45.2078 49.3373 45.0077 49.2799 44.8677C49.2249 44.7277 49.0923 44.6326 48.9648 44.5476Z" fill="#3C2A39"></path><path d="M49.2998 40.0942C48.9498 40.0942 49.7298 42.1247 49.7298 44.3176C49.7298 46.5131 50.8498 47.3633 50.8498 47.3633C50.8498 47.3633 51.0273 45.973 51.4948 43.83C51.9073 41.9321 49.6473 40.0942 49.2998 40.0942Z" fill="#3C2A39"></path><path d="M40.4648 44.3176C40.4648 46.5131 40.5699 47.3633 40.5699 47.3633C40.5699 47.3633 41.3749 46.5131 41.3749 44.3176C41.3749 42.1247 41.9373 40.0942 41.6848 40.0942C41.4323 40.0942 40.4648 42.1247 40.4648 44.3176Z" fill="#3C2A39"></path><path d="M45.2273 50.7441C45.9498 51.2017 46.9148 51.1216 47.5623 50.5615C48.2098 50.0039 48.4873 49.0987 48.1423 48.316C47.6598 49.5463 46.5223 50.494 45.2273 50.7441Z" fill="#3C2A39"></path><path d="M61.7571 72.8012C60.3396 72.7412 56.2647 72.7512 55.7447 74.5466C55.7347 74.5816 55.7247 74.6166 55.7197 74.6516L55.9646 75.5443C56.3096 75.9069 56.9146 76.0994 57.3846 76.222C58.7196 76.5745 60.0571 76.9271 61.3996 77.2822C62.3721 77.5373 63.342 77.7898 64.3095 78.0474C64.037 76.292 63.6596 74.5366 63.2946 73.0113C62.8021 72.8713 62.2721 72.8262 61.7571 72.8012Z" fill="#3C2A39"></path><path d="M49.0074 39.6718C48.4849 39.2742 47.8249 39.1167 47.1849 38.9667C46.4349 38.7941 45.675 38.6191 44.905 38.6466C44.1875 38.6716 42.885 38.8992 42.9525 39.8193C43.0225 40.7771 43.6375 41.5947 44.4475 42.0698C45.3324 42.5874 46.3649 42.765 47.3524 43.0375C48.3399 43.3101 49.3549 43.7277 49.9549 44.5579C50.3549 43.5176 50.3898 42.3374 50.0523 41.2747C49.8548 40.657 49.5224 40.0619 49.0074 39.6718Z" fill="#3C2A39"></path><path d="M43.2798 39.3843C42.5773 39.4393 41.9324 39.8544 41.5074 40.4195C41.0824 40.9846 40.8674 41.6823 40.7924 42.3849C40.7174 43.0876 40.7773 43.7977 40.8648 44.4979C40.9073 44.8405 40.9798 45.2206 41.2598 45.4231C41.3973 44.6804 41.9324 44.0753 42.5199 43.6002C43.1049 43.1251 43.7623 42.735 44.2948 42.2024C44.6798 41.8173 45.4373 40.8346 45.0923 40.2445C44.7473 39.6594 43.9298 39.3318 43.2798 39.3843Z" fill="#3C2A39"></path><path d="M64.5071 67.91C62.8496 64.9043 60.5471 62.2262 57.7096 60.2808C56.7697 59.6382 52.2373 56.9176 51.0323 57.1877C49.4974 57.5352 51.6722 61.5511 51.6397 62.7313C51.5722 65.2244 51.6273 67.7249 51.8073 70.2129C51.9048 71.5682 52.0848 73.0311 53.0173 74.0188C53.8997 74.949 55.2497 75.2365 56.5097 75.4791C58.6921 75.8967 60.8746 76.3143 63.0571 76.7318C64.2846 76.9669 65.7995 77.1019 66.5495 76.0992C67.127 75.3315 66.952 74.2538 66.6995 73.3286C66.1895 71.4432 65.4495 69.6203 64.5071 67.91Z" fill="#FBB53B"></path><path d="M44.8701 46.3056C44.7851 47.0782 44.0926 47.6434 43.3176 47.5583C42.5426 47.4758 41.9801 46.7807 42.0651 46.0055C42.1051 45.6304 42.2876 45.2953 42.5801 45.0578C42.8351 44.8528 43.1426 44.7452 43.4626 44.7452C43.5151 44.7452 43.5651 44.7477 43.6176 44.7527C43.9901 44.7952 44.3275 44.9778 44.565 45.2703C44.8 45.5654 44.9101 45.9305 44.8701 46.3056ZM43.6501 44.4527C43.1951 44.4027 42.7476 44.5352 42.3926 44.8227C42.0351 45.1103 41.8126 45.5179 41.7651 45.973C41.6626 46.9132 42.3451 47.7584 43.2851 47.8584C43.3451 47.8659 43.4076 47.8684 43.4676 47.8684C44.3301 47.8684 45.0751 47.2158 45.1701 46.3381C45.2176 45.8855 45.0876 45.4379 44.8001 45.0803C44.5126 44.7252 44.1026 44.5027 43.6501 44.4527Z" fill="#3C2A39"></path><path d="M49.0799 46.2834C48.9974 47.056 48.3023 47.6186 47.5274 47.5361C47.1524 47.4961 46.8149 47.3136 46.5799 47.0185C46.3424 46.726 46.2349 46.3584 46.2749 45.9833C46.3149 45.6082 46.4999 45.2706 46.7924 45.0356C47.0449 44.8305 47.3549 44.723 47.6749 44.723C47.7249 44.723 47.7748 44.7255 47.8273 44.7305C48.2023 44.7705 48.5399 44.9531 48.7749 45.2481C49.0124 45.5407 49.1199 45.9083 49.0799 46.2834ZM47.8599 44.4305C47.4049 44.378 46.9574 44.513 46.6024 44.8005C46.2474 45.0881 46.0224 45.4957 45.9749 45.9508C45.9249 46.4059 46.0575 46.8535 46.345 47.2086C46.6325 47.5636 47.0399 47.7862 47.4949 47.8362C47.5574 47.8437 47.6174 47.8462 47.6799 47.8462C48.5424 47.8462 49.2849 47.1936 49.3799 46.3159C49.4274 45.8608 49.2973 45.4157 49.0098 45.0581C48.7224 44.703 48.3149 44.478 47.8599 44.4305Z" fill="#3C2A39"></path><path d="M44.97 45.8454L45.1099 46.113C45.4249 45.9479 45.8349 45.9654 46.1349 46.158L46.2974 45.9029C45.9049 45.6529 45.3825 45.6303 44.97 45.8454Z" fill="#3C2A39"></path><path d="M51.7346 47.3457C51.2322 47.3457 50.8271 47.7533 50.8271 48.2534C50.8271 48.7561 51.2322 49.1611 51.7346 49.1611C52.2346 49.1611 52.6422 48.7561 52.6422 48.2534C52.6422 47.7533 52.2346 47.3457 51.7346 47.3457Z" fill="#FBB53B"></path><path d="M177.74 85.5162H65.4296C62.0872 85.5162 58.9997 88.2243 58.5298 91.5675L48.575 168.129C48.105 171.472 50.4324 174.18 53.7723 174.18H166.085C169.425 174.18 172.512 171.472 172.982 168.129L182.94 91.5675C183.41 88.2243 181.082 85.5162 177.74 85.5162Z" fill="#3C2A39"></path><path d="M173.23 85.5164H60.9195C57.577 85.5164 54.4896 88.2244 54.0196 91.5676L44.0623 162.425C43.5923 165.766 45.9197 168.474 49.2622 168.474H161.572C164.915 168.474 168.002 165.766 168.472 162.425L178.427 91.5676C178.897 88.2244 176.57 85.5164 173.23 85.5164Z" fill="#AAB6C2"></path><path d="M168.382 88.9774H64.8546C61.8821 88.9774 59.1272 91.3954 58.7097 94.3685L49.5674 159.44H163.808L172.96 94.3085C173.162 92.8707 172.792 91.5229 171.915 90.5152C171.052 89.5225 169.797 88.9774 168.382 88.9774Z" fill="white"></path><path d="M172.747 94.2783L163.623 159.222H49.8147L58.9221 94.3983C59.3271 91.5277 61.987 89.1922 64.8545 89.1922H168.382C169.732 89.1922 170.932 89.7123 171.752 90.6575C172.587 91.6177 172.94 92.903 172.747 94.2783ZM168.382 88.7596H64.8545C61.7745 88.7596 58.9271 91.2577 58.4946 94.3383L49.3198 159.655H163.998L173.175 94.3383C173.607 91.2577 171.462 88.7596 168.382 88.7596Z" fill="#3C2A39"></path><path d="M1.34814 166.659C1.34814 170.812 4.7156 174.18 8.86801 174.18H161.46C165.612 174.18 168.98 170.812 168.98 166.659V161.232H1.34814V166.659Z" fill="#3C2A39"></path><path d="M1.16577 166.001H168.112L168.64 161.225H1.16577V166.001Z" fill="#AAB6C2"></path><path d="M157.883 117.796L118.973 117.506C117.766 117.496 116.636 118.391 116.461 119.491C116.286 120.594 117.133 121.499 118.338 121.509L157.24 121.802C158.45 121.812 159.58 120.917 159.757 119.816C159.935 118.714 159.092 117.806 157.883 117.796Z" fill="#AAB6C2"></path><path d="M156.653 125.463L117.761 125.17C116.554 125.163 115.423 126.055 115.251 127.156C115.076 128.256 115.921 129.163 117.128 129.173L156.01 129.464C157.218 129.474 158.35 128.581 158.528 127.481C158.703 126.38 157.86 125.473 156.653 125.463Z" fill="#AAB6C2"></path><path d="M155.425 133.122L116.548 132.829C115.344 132.822 114.214 133.712 114.041 134.812C113.866 135.912 114.711 136.818 115.919 136.828L154.783 137.118C155.988 137.128 157.12 136.235 157.295 135.137C157.473 134.037 156.63 133.132 155.425 133.122Z" fill="#AAB6C2"></path><path d="M154.198 140.773L115.338 140.481C114.133 140.473 113.006 141.363 112.831 142.461C112.658 143.561 113.503 144.466 114.708 144.474L153.555 144.767C154.76 144.774 155.89 143.884 156.068 142.786C156.245 141.688 155.403 140.781 154.198 140.773Z" fill="#AAB6C2"></path><path d="M152.968 148.417L114.131 148.127C112.926 148.117 111.799 149.007 111.624 150.105C111.451 151.203 112.296 152.108 113.501 152.116L152.328 152.406C153.535 152.416 154.665 151.525 154.84 150.428C155.015 149.33 154.175 148.425 152.968 148.417Z" fill="#AAB6C2"></path><path d="M87.8716 114.16C75.5693 114.16 64.272 123.245 62.6396 134.437C61.0096 145.614 69.6395 154.664 81.9117 154.664C94.1815 154.664 105.474 145.614 107.134 134.437C108.796 123.245 100.174 114.16 87.8716 114.16Z" fill="#AAB6C2"></path><path d="M87.6115 115.928C76.3993 115.928 66.067 124.235 64.5795 134.437C63.092 144.624 70.9844 152.903 82.1692 152.903C93.354 152.903 103.684 144.624 105.196 134.437C106.709 124.235 98.8213 115.928 87.6115 115.928Z" fill="white"></path><path d="M104.959 134.437C103.464 144.522 93.274 152.688 82.2017 152.688C71.1269 152.688 63.3446 144.522 64.8146 134.437C66.2895 124.337 76.4794 116.143 87.5791 116.143C98.6764 116.143 106.456 124.337 104.959 134.437ZM87.6416 115.71C76.2994 115.71 65.8471 124.117 64.3421 134.437C62.8371 144.742 70.822 153.118 82.1368 153.118C93.4541 153.118 103.904 144.742 105.434 134.437C106.964 124.117 98.9839 115.71 87.6416 115.71Z" fill="#3C2A39"></path><mask id="mask0_5640_419" style="mask-type:luminance" maskUnits="userSpaceOnUse" x="64" y="116" width="42" height="37"><path d="M64.8145 134.437C63.3445 144.522 71.1269 152.688 82.2017 152.688C93.2739 152.688 103.464 144.522 104.959 134.437C106.456 124.337 98.6764 116.143 87.5791 116.143C76.4793 116.143 66.287 124.337 64.8145 134.437Z" fill="white"></path></mask><g mask="url(#mask0_5640_419)"><path d="M73.7592 144.754L69.9119 152.801C73.0468 153.509 76.2342 153.316 79.2216 153.844L80.5317 151.193C77.0592 150.178 76.9642 143.467 73.7592 144.754Z" fill="#3C2A39"></path></g><mask id="mask1_5640_419" style="mask-type:luminance" maskUnits="userSpaceOnUse" x="64" y="116" width="42" height="37"><path d="M64.8145 134.437C63.3445 144.522 71.1269 152.688 82.2017 152.688C93.2739 152.688 103.464 144.522 104.959 134.437C106.456 124.337 98.6764 116.143 87.5791 116.143C76.4793 116.143 66.287 124.337 64.8145 134.437Z" fill="white"></path></mask><g mask="url(#mask1_5640_419)"><path d="M73.7591 144.754L67.2993 158.262L53.802 152.156C53.7345 151.478 53.8446 150.766 53.4821 150.183C53.0121 149.428 52.5021 148.693 52.0121 147.945C51.9271 147.815 51.8371 147.68 51.7021 147.597C51.5671 147.515 51.3771 147.507 51.2671 147.62C51.1471 147.74 51.1721 147.937 51.2021 148.105C51.3171 148.755 51.3671 149.413 51.3746 150.073C51.0596 149.848 50.7271 149.628 50.3746 149.415C49.9122 149.138 48.2422 147.762 47.8622 147.722C41.9948 147.132 46.6972 151.706 47.1597 152.623C47.6297 153.551 47.9972 154.594 48.7721 155.244C49.3671 155.747 50.7671 156.307 51.7771 156.147L51.7646 156.182L66.7293 165.981C68.1693 166.924 70.0668 166.854 71.4067 165.771C73.5042 164.073 75.2191 161.935 76.4266 159.492L80.5316 151.193C77.0591 150.178 76.9641 143.464 73.7591 144.754Z" fill="white"></path></g><mask id="mask2_5640_419" style="mask-type:luminance" maskUnits="userSpaceOnUse" x="64" y="116" width="42" height="37"><path d="M64.8145 134.437C63.3445 144.522 71.1269 152.688 82.2017 152.688C93.2739 152.688 103.464 144.522 104.959 134.437C106.456 124.337 98.6764 116.143 87.5791 116.143C76.4793 116.143 66.287 124.337 64.8145 134.437Z" fill="white"></path></mask><g mask="url(#mask2_5640_419)"><path d="M76.3317 159.448C75.1417 161.846 73.4168 164.006 71.3368 165.689C70.0393 166.742 68.2094 166.822 66.7869 165.891L51.8947 156.137L51.9322 156.012L51.7597 156.039C50.7797 156.194 49.4022 155.632 48.8397 155.162C48.2447 154.662 47.8873 153.901 47.5423 153.166C47.4473 152.966 47.3548 152.769 47.2573 152.576C47.1698 152.404 46.9573 152.129 46.6873 151.781C45.9373 150.813 44.6874 149.2 45.1448 148.37C45.4273 147.86 46.3423 147.685 47.8498 147.833C48.0723 147.853 48.9372 148.5 49.5097 148.928C49.8572 149.185 50.1572 149.408 50.3197 149.508C50.6497 149.706 50.9772 149.921 51.3122 150.161L51.4847 150.283L51.4822 150.071C51.4747 149.353 51.4172 148.705 51.3097 148.088C51.2822 147.943 51.2622 147.778 51.3447 147.695C51.4172 147.623 51.5522 147.633 51.6472 147.69C51.7647 147.76 51.8497 147.89 51.9222 148.005C52.0921 148.263 52.2647 148.52 52.4372 148.778C52.7547 149.255 53.0846 149.748 53.3896 150.241C53.6371 150.641 53.6521 151.108 53.6646 151.601C53.6696 151.786 53.6747 151.979 53.6947 152.169L53.6997 152.231L67.2544 158.362L67.3518 158.405L73.8392 144.839C75.4267 144.227 76.2167 145.742 77.1242 147.498C77.9092 149.013 78.7941 150.723 80.3791 151.258L76.3317 159.448ZM77.3167 147.4C76.3942 145.615 75.5242 143.929 73.7193 144.654L73.6818 144.669L67.2468 158.122L53.9021 152.084C53.8896 151.923 53.8846 151.756 53.8796 151.593C53.8671 151.093 53.8522 150.576 53.5747 150.128C53.2672 149.631 52.9372 149.138 52.6172 148.658C52.4447 148.403 52.2722 148.145 52.1047 147.885C52.0222 147.76 51.9172 147.603 51.7597 147.505C51.5922 147.405 51.3446 147.385 51.1896 147.543C51.0222 147.715 51.0697 147.983 51.0972 148.125C51.1922 148.67 51.2472 149.24 51.2622 149.863C50.9847 149.668 50.7097 149.49 50.4297 149.323C50.2772 149.23 49.9797 149.01 49.6397 148.755C48.7697 148.105 48.1322 147.643 47.8722 147.618C46.2373 147.46 45.2898 147.665 44.9573 148.265C44.4274 149.218 45.6848 150.838 46.5173 151.911C46.7698 152.239 46.9872 152.519 47.0647 152.674C47.1597 152.866 47.2547 153.061 47.3472 153.259C47.7022 154.014 48.0697 154.794 48.7022 155.327C49.2647 155.799 50.6272 156.389 51.6997 156.267L66.6694 166.072C67.2769 166.469 67.9544 166.692 68.6369 166.742C69.6418 166.817 70.6568 166.517 71.4743 165.854C73.5768 164.154 75.3242 161.971 76.5242 159.543L80.6291 151.241L80.6866 151.126L80.5641 151.091C78.9891 150.631 78.0991 148.913 77.3167 147.4Z" fill="#3C2A39"></path></g><mask id="mask3_5640_419" style="mask-type:luminance" maskUnits="userSpaceOnUse" x="64" y="116" width="42" height="37"><path d="M64.8145 134.437C63.3445 144.522 71.1269 152.688 82.2017 152.688C93.2739 152.688 103.464 144.522 104.959 134.437C106.456 124.337 98.6764 116.143 87.5791 116.143C76.4793 116.143 66.287 124.337 64.8145 134.437Z" fill="white"></path></mask><g mask="url(#mask3_5640_419)"><path d="M89.4616 138.283C89.3791 138.24 89.2967 138.193 89.2192 138.158C88.9317 138.005 88.6467 137.868 88.3742 137.73C86.4442 136.793 84.8592 136.18 84.8592 136.18C84.8592 136.18 83.2468 136.685 81.2543 137.493C81.2218 137.505 81.1918 137.52 81.1568 137.533C80.7218 137.708 80.2468 137.92 79.7468 138.163L79.6793 138.193C79.6468 138.21 79.6093 138.228 79.5743 138.245C76.3869 139.813 75.1169 145.612 74.4294 147.245C74.1594 147.892 73.7919 149.52 73.3894 151.673L73.382 151.698C73.3395 151.943 73.2895 152.198 73.2445 152.458C73.067 153.449 72.8795 154.521 72.692 155.652L72.6894 155.687C72.6419 155.979 72.6019 156.259 72.5519 156.524C72.5444 156.564 72.5319 156.644 72.5144 156.759C72.3944 157.479 72.2794 158.21 72.1644 158.95L72.157 158.985C71.037 166.129 68.6746 179.977 68.6746 179.977C68.6746 179.977 78.2719 181.445 81.4743 181.177C90.5091 180.424 95.114 182.455 95.114 182.455L95.6165 143.059C95.669 141.239 92.3716 139.723 89.4616 138.283Z" fill="#678ACA"></path></g><mask id="mask4_5640_419" style="mask-type:luminance" maskUnits="userSpaceOnUse" x="64" y="116" width="42" height="37"><path d="M64.8145 134.437C63.3445 144.522 71.1269 152.688 82.2017 152.688C93.2739 152.688 103.464 144.522 104.959 134.437C106.456 124.337 98.6764 116.143 87.5791 116.143C76.4793 116.143 66.287 124.337 64.8145 134.437Z" fill="white"></path></mask><g mask="url(#mask4_5640_419)"><path d="M79.739 138.188C75.7266 139.601 68.6768 152.016 68.6768 152.016L77.9116 153.906L79.9241 138.175C79.9241 138.175 79.869 138.16 79.739 138.188Z" fill="#678ACA"></path></g><mask id="mask5_5640_419" style="mask-type:luminance" maskUnits="userSpaceOnUse" x="64" y="116" width="42" height="37"><path d="M64.8145 134.437C63.3445 144.522 71.1269 152.688 82.2017 152.688C93.2739 152.688 103.464 144.522 104.959 134.437C106.456 124.337 98.6764 116.143 87.5791 116.143C76.4793 116.143 66.287 124.337 64.8145 134.437Z" fill="white"></path></mask><g mask="url(#mask5_5640_419)"><path d="M91.219 147.007L92.819 155.057C95.2539 154.569 97.7988 154.749 100.216 154.642C99.1588 150.173 97.7613 146.125 97.7613 146.125C95.9614 142.987 94.4214 148.3 91.219 147.007Z" fill="#3C2A39"></path></g><mask id="mask6_5640_419" style="mask-type:luminance" maskUnits="userSpaceOnUse" x="64" y="116" width="42" height="37"><path d="M64.8145 134.437C63.3445 144.522 71.1269 152.688 82.2017 152.688C93.2739 152.688 103.464 144.522 104.959 134.437C106.456 124.337 98.6764 116.143 87.5791 116.143C76.4793 116.143 66.287 124.337 64.8145 134.437Z" fill="white"></path></mask><g mask="url(#mask6_5640_419)"><path d="M93.8113 140.626C90.7314 138.743 90.1638 146.152 90.1638 146.152L91.6588 154.441L101.249 154.349C101.249 154.349 98.4362 143.454 93.8113 140.626Z" fill="#678ACA"></path></g><mask id="mask7_5640_419" style="mask-type:luminance" maskUnits="userSpaceOnUse" x="64" y="116" width="42" height="37"><path d="M64.8145 134.437C63.3445 144.522 71.1269 152.688 82.2017 152.688C93.2739 152.688 103.464 144.522 104.959 134.437C106.456 124.337 98.6764 116.143 87.5791 116.143C76.4793 116.143 66.287 124.337 64.8145 134.437Z" fill="white"></path></mask><g mask="url(#mask7_5640_419)"><path d="M80.184 124.923C79.3765 124.92 78.7191 125.763 78.7166 126.805C78.7141 127.846 79.9841 129.313 80.7941 129.313C81.6015 129.316 81.6415 127.853 81.644 126.813C81.6465 125.77 80.9915 124.925 80.184 124.923Z" fill="white"></path></g><mask id="mask8_5640_419" style="mask-type:luminance" maskUnits="userSpaceOnUse" x="64" y="116" width="42" height="37"><path d="M64.8145 134.437C63.3445 144.522 71.1269 152.688 82.2017 152.688C93.2739 152.688 103.464 144.522 104.959 134.437C106.456 124.337 98.6764 116.143 87.5791 116.143C76.4793 116.143 66.287 124.337 64.8145 134.437Z" fill="white"></path></mask><g mask="url(#mask8_5640_419)"><path d="M81.4141 128.431C81.2966 128.953 81.0941 129.209 80.7942 129.206H80.7516C80.0316 129.151 78.8216 127.796 78.8266 126.806C78.8266 126.325 78.9716 125.875 79.2341 125.54C79.4891 125.21 79.8291 125.03 80.1841 125.03C80.2091 125.033 80.2341 125.033 80.2616 125.033C80.5891 125.058 80.8966 125.238 81.1316 125.543C81.3941 125.88 81.5366 126.333 81.5366 126.813C81.5341 127.381 81.5191 127.971 81.4141 128.431ZM80.1866 124.815C79.7617 124.815 79.3616 125.025 79.0641 125.408C78.7716 125.78 78.6116 126.278 78.6091 126.803C78.6066 127.856 79.8391 129.354 80.7341 129.421L80.7942 129.424C81.2041 129.424 81.4841 129.106 81.6266 128.478C81.7391 127.973 81.7491 127.353 81.7516 126.813C81.7516 126.283 81.5916 125.788 81.3016 125.41C81.0066 125.028 80.6091 124.823 80.1866 124.815Z" fill="#3C2A39"></path></g><mask id="mask9_5640_419" style="mask-type:luminance" maskUnits="userSpaceOnUse" x="64" y="116" width="42" height="37"><path d="M64.8145 134.437C63.3445 144.522 71.1269 152.688 82.2017 152.688C93.2739 152.688 103.464 144.522 104.959 134.437C106.456 124.337 98.6764 116.143 87.5791 116.143C76.4793 116.143 66.287 124.337 64.8145 134.437Z" fill="white"></path></mask><g mask="url(#mask9_5640_419)"><path d="M79.6293 125.41C79.5443 125.395 79.4643 125.448 79.4493 125.533C79.4318 125.618 79.4868 125.698 79.5718 125.713C79.8567 125.77 80.1617 125.915 80.4142 126.436C80.2192 126.371 79.9718 126.376 79.6493 126.446C79.5643 126.466 79.5143 126.548 79.5318 126.631C79.5493 126.713 79.6318 126.768 79.7168 126.748C80.0393 126.676 80.2718 126.686 80.4068 126.771C80.5643 126.871 80.6118 127.088 80.6667 127.341C80.6992 127.486 80.7317 127.638 80.7917 127.783C80.8142 127.838 80.8667 127.876 80.9217 127.881L80.9767 127.873C81.0517 127.853 81.0993 127.778 81.0868 127.701C80.7943 125.873 80.1868 125.515 79.6293 125.41Z" fill="#3C2A39"></path></g><mask id="mask10_5640_419" style="mask-type:luminance" maskUnits="userSpaceOnUse" x="64" y="116" width="42" height="37"><path d="M64.8145 134.437C63.3445 144.522 71.1269 152.688 82.2017 152.688C93.2739 152.688 103.464 144.522 104.959 134.437C106.456 124.337 98.6764 116.143 87.5791 116.143C76.4793 116.143 66.287 124.337 64.8145 134.437Z" fill="white"></path></mask><g mask="url(#mask10_5640_419)"><path d="M87.5265 137.328L87.494 135.002L87.469 133.172L83.2616 132.862L82.9066 134.722L82.4641 137.02C82.0841 137.165 81.6816 137.32 81.2541 137.493C81.2216 137.505 81.1917 137.52 81.1567 137.533C81.0792 137.745 81.9641 145.419 81.9641 145.419C81.9641 145.419 89.259 138.368 89.219 138.158C88.9315 138.005 88.6465 137.868 88.374 137.73C88.0815 137.588 87.799 137.455 87.5265 137.328Z" fill="white"></path></g><mask id="mask11_5640_419" style="mask-type:luminance" maskUnits="userSpaceOnUse" x="64" y="116" width="42" height="37"><path d="M64.8145 134.437C63.3445 144.522 71.1269 152.688 82.2017 152.688C93.2739 152.688 103.464 144.522 104.959 134.437C106.456 124.337 98.6764 116.143 87.5791 116.143C76.4793 116.143 66.287 124.337 64.8145 134.437Z" fill="white"></path></mask><g mask="url(#mask11_5640_419)"><path d="M82.0465 145.189C81.7141 142.286 81.2566 138.123 81.2566 137.61L81.2941 137.595C81.7216 137.42 82.1215 137.265 82.5015 137.12L82.559 137.1L83.3515 132.977L87.3639 133.272L87.419 137.33V137.398L87.4815 137.428C87.754 137.553 88.0339 137.685 88.3264 137.828L88.5164 137.92C88.6964 138.01 88.8814 138.103 89.0664 138.2C88.5714 138.825 84.729 142.596 82.0465 145.189ZM89.3164 138.088L89.2714 138.063C89.0464 137.943 88.8265 137.835 88.6115 137.728L88.4214 137.633C88.1489 137.5 87.8865 137.378 87.6315 137.26L87.604 135L87.5764 133.072L83.1741 132.747L82.3691 136.94C82.0041 137.08 81.6215 137.23 81.214 137.395C81.184 137.405 81.1541 137.418 81.1216 137.43L81.0716 137.448L81.0541 137.495C80.9766 137.708 81.5891 143.116 81.8566 145.432L81.8816 145.649L82.039 145.497C89.3764 138.405 89.3389 138.21 89.3239 138.138L89.3164 138.088Z" fill="#3C2A39"></path></g><mask id="mask12_5640_419" style="mask-type:luminance" maskUnits="userSpaceOnUse" x="64" y="116" width="42" height="37"><path d="M64.8145 134.437C63.3445 144.522 71.1269 152.688 82.2017 152.688C93.2739 152.688 103.464 144.522 104.959 134.437C106.456 124.337 98.6764 116.143 87.5791 116.143C76.4793 116.143 66.287 124.337 64.8145 134.437Z" fill="white"></path></mask><g mask="url(#mask12_5640_419)"><path d="M83.2616 132.862L83.0791 133.867C83.7666 134.587 85.024 135.117 85.8265 135.177C86.664 135.24 87.2916 135.102 87.4941 135.002L87.4691 133.172L83.2616 132.862Z" fill="#3C2A39"></path></g><mask id="mask13_5640_419" style="mask-type:luminance" maskUnits="userSpaceOnUse" x="64" y="116" width="42" height="37"><path d="M64.8145 134.437C63.3445 144.522 71.1269 152.688 82.2017 152.688C93.2739 152.688 103.464 144.522 104.959 134.437C106.456 124.337 98.6764 116.143 87.5791 116.143C76.4793 116.143 66.287 124.337 64.8145 134.437Z" fill="white"></path></mask><g mask="url(#mask13_5640_419)"><path d="M86.204 119.669C83.1666 119.444 80.5341 121.567 80.3241 124.407C80.1141 127.248 82.4066 129.731 85.4441 129.956C88.4815 130.181 91.1139 128.058 91.3239 125.22C91.5339 122.377 89.2414 119.894 86.204 119.669Z" fill="#3C2A39"></path></g><mask id="mask14_5640_419" style="mask-type:luminance" maskUnits="userSpaceOnUse" x="64" y="116" width="42" height="37"><path d="M64.8145 134.437C63.3445 144.522 71.1269 152.688 82.2017 152.688C93.2739 152.688 103.464 144.522 104.959 134.437C106.456 124.337 98.6764 116.143 87.5791 116.143C76.4793 116.143 66.287 124.337 64.8145 134.437Z" fill="white"></path></mask><g mask="url(#mask14_5640_419)"><path d="M86.1815 120.912C83.249 120.697 80.644 123.585 80.3665 127.365C80.0865 131.146 82.239 134.384 85.1714 134.602C88.1039 134.817 90.7064 131.929 90.9863 128.148C91.2638 124.367 89.1139 121.129 86.1815 120.912Z" fill="white"></path></g><mask id="mask15_5640_419" style="mask-type:luminance" maskUnits="userSpaceOnUse" x="64" y="116" width="42" height="37"><path d="M64.8145 134.437C63.3445 144.522 71.1269 152.688 82.2017 152.688C93.2739 152.688 103.464 144.522 104.959 134.437C106.456 124.337 98.6764 116.143 87.5791 116.143C76.4793 116.143 66.287 124.337 64.8145 134.437Z" fill="white"></path></mask><g mask="url(#mask15_5640_419)"><path d="M90.8791 128.141C90.6041 131.856 88.0492 134.707 85.1792 134.495C82.3118 134.282 80.1993 131.089 80.4743 127.373C80.7493 123.657 83.3043 120.807 86.1742 121.019C89.0417 121.232 91.1516 124.425 90.8791 128.141ZM86.1892 120.804C83.2017 120.584 80.5418 123.525 80.2593 127.358C79.9768 131.191 82.1767 134.49 85.1642 134.71C88.1516 134.93 90.8116 131.992 91.0941 128.156C91.3766 124.322 89.1766 121.024 86.1892 120.804Z" fill="#3C2A39"></path></g><mask id="mask16_5640_419" style="mask-type:luminance" maskUnits="userSpaceOnUse" x="64" y="116" width="42" height="37"><path d="M64.8145 134.437C63.3445 144.522 71.1269 152.688 82.2017 152.688C93.2739 152.688 103.464 144.522 104.959 134.437C106.456 124.337 98.6764 116.143 87.5791 116.143C76.4793 116.143 66.287 124.337 64.8145 134.437Z" fill="white"></path></mask><g mask="url(#mask16_5640_419)"><path d="M92.0315 125.798C91.2315 125.68 90.4615 126.42 90.3115 127.451C90.1615 128.481 89.9866 129.936 90.7865 130.051C91.5865 130.169 93.0565 128.903 93.2089 127.876C93.3564 126.843 92.8315 125.913 92.0315 125.798Z" fill="white"></path></g><mask id="mask17_5640_419" style="mask-type:luminance" maskUnits="userSpaceOnUse" x="64" y="116" width="42" height="37"><path d="M64.8145 134.437C63.3445 144.522 71.1269 152.688 82.2017 152.688C93.2739 152.688 103.464 144.522 104.959 134.437C106.456 124.337 98.6764 116.143 87.5791 116.143C76.4793 116.143 66.287 124.337 64.8145 134.437Z" fill="white"></path></mask><g mask="url(#mask17_5640_419)"><path d="M93.1012 127.858C93.0362 128.306 92.6788 128.863 92.1688 129.313C91.6764 129.746 91.1363 129.993 90.8013 129.946C90.5038 129.901 90.3413 129.621 90.3013 129.086C90.2663 128.616 90.3389 128.031 90.4189 127.468C90.4889 126.993 90.6963 126.568 91.0038 126.273C91.2838 126.003 91.6113 125.87 91.9413 125.895C91.9663 125.898 91.9913 125.9 92.0163 125.905C92.3688 125.955 92.6763 126.183 92.8813 126.545C93.0913 126.918 93.1687 127.383 93.1012 127.858ZM92.0488 125.69C91.6388 125.637 91.2038 125.78 90.8538 126.115C90.5113 126.445 90.2814 126.913 90.2064 127.435C90.1289 127.971 90.0464 128.586 90.0864 129.103C90.1339 129.743 90.3638 130.098 90.7713 130.158L90.8263 130.166C91.2288 130.193 91.7913 129.936 92.3113 129.473C92.8663 128.983 93.2412 128.391 93.3137 127.89C93.3912 127.368 93.3038 126.853 93.0688 126.44C92.8313 126.018 92.4688 125.75 92.0488 125.69Z" fill="#3C2A39"></path></g><mask id="mask18_5640_419" style="mask-type:luminance" maskUnits="userSpaceOnUse" x="64" y="116" width="42" height="37"><path d="M64.8145 134.437C63.3445 144.522 71.1269 152.688 82.2017 152.688C93.2739 152.688 103.464 144.522 104.959 134.437C106.456 124.337 98.6764 116.143 87.5791 116.143C76.4793 116.143 66.287 124.337 64.8145 134.437Z" fill="white"></path></mask><g mask="url(#mask18_5640_419)"><path d="M92.5116 126.36C91.9441 126.385 91.2916 126.645 90.7341 128.413C90.7091 128.488 90.7466 128.568 90.8166 128.601L90.8691 128.613C90.9266 128.618 90.9841 128.588 91.0141 128.536C91.094 128.401 91.1465 128.258 91.2015 128.118C91.2915 127.876 91.3716 127.668 91.5416 127.593C91.6866 127.525 91.9191 127.553 92.2291 127.671C92.3091 127.703 92.3991 127.661 92.4291 127.583C92.4591 127.5 92.419 127.413 92.339 127.383C92.029 127.263 91.7866 127.223 91.5841 127.258C91.9091 126.78 92.2316 126.683 92.5241 126.67C92.6091 126.665 92.6765 126.595 92.6715 126.508C92.669 126.423 92.5991 126.358 92.5116 126.36Z" fill="#3C2A39"></path></g><mask id="mask19_5640_419" style="mask-type:luminance" maskUnits="userSpaceOnUse" x="64" y="116" width="42" height="37"><path d="M64.8145 134.437C63.3445 144.522 71.1269 152.688 82.2017 152.688C93.2739 152.688 103.464 144.522 104.959 134.437C106.456 124.337 98.6764 116.143 87.5791 116.143C76.4793 116.143 66.287 124.337 64.8145 134.437Z" fill="white"></path></mask><g mask="url(#mask19_5640_419)"><path d="M85.4641 126.905C85.3791 126.908 85.3092 126.975 85.3117 127.063L85.3167 128.943C85.3167 129.061 85.3067 129.221 85.2292 129.268C85.1892 129.293 85.1167 129.293 85.0592 129.286C84.7892 129.261 84.5292 129.166 84.3042 129.011C84.2342 128.961 84.1392 128.981 84.0892 129.051C84.0417 129.121 84.0592 129.216 84.1292 129.266C84.3942 129.451 84.7067 129.563 85.0342 129.593L85.0542 129.596C85.1542 129.604 85.2791 129.599 85.3891 129.533C85.6266 129.391 85.6267 129.076 85.6242 128.943L85.6192 127.06C85.6192 126.975 85.5466 126.905 85.4641 126.905Z" fill="#3C2A39"></path></g><mask id="mask20_5640_419" style="mask-type:luminance" maskUnits="userSpaceOnUse" x="64" y="116" width="42" height="37"><path d="M64.8145 134.437C63.3445 144.522 71.1269 152.688 82.2017 152.688C93.2739 152.688 103.464 144.522 104.959 134.437C106.456 124.337 98.6764 116.143 87.5791 116.143C76.4793 116.143 66.287 124.337 64.8145 134.437Z" fill="white"></path></mask><g mask="url(#mask20_5640_419)"><path d="M85.9965 131.476C84.8515 131.656 83.614 131.161 82.914 130.239C82.864 130.171 82.7666 130.159 82.6991 130.209C82.6291 130.259 82.6166 130.356 82.6666 130.424C83.279 131.229 84.2615 131.739 85.2715 131.814C85.529 131.834 85.789 131.824 86.044 131.784C86.129 131.769 86.1865 131.691 86.174 131.606C86.159 131.521 86.079 131.464 85.9965 131.476Z" fill="#3C2A39"></path></g><mask id="mask21_5640_419" style="mask-type:luminance" maskUnits="userSpaceOnUse" x="64" y="116" width="42" height="37"><path d="M64.8145 134.437C63.3445 144.522 71.1269 152.688 82.2017 152.688C93.2739 152.688 103.464 144.522 104.959 134.437C106.456 124.337 98.6764 116.143 87.5791 116.143C76.4793 116.143 66.287 124.337 64.8145 134.437Z" fill="white"></path></mask><g mask="url(#mask21_5640_419)"><path d="M85.5192 132.252C85.0267 132.537 84.3341 132.462 83.9141 132.079C83.8491 132.022 83.7517 132.027 83.6942 132.089C83.6367 132.154 83.6417 132.252 83.7067 132.309C83.9842 132.559 84.3467 132.704 84.7167 132.732C85.0467 132.757 85.3842 132.687 85.6742 132.522C85.7467 132.479 85.7742 132.384 85.7317 132.312C85.6892 132.237 85.5942 132.212 85.5192 132.252Z" fill="#3C2A39"></path></g><mask id="mask22_5640_419" style="mask-type:luminance" maskUnits="userSpaceOnUse" x="64" y="116" width="42" height="37"><path d="M64.8145 134.437C63.3445 144.522 71.1269 152.688 82.2017 152.688C93.2739 152.688 103.464 144.522 104.959 134.437C106.456 124.337 98.6764 116.143 87.5791 116.143C76.4793 116.143 66.287 124.337 64.8145 134.437Z" fill="white"></path></mask><g mask="url(#mask22_5640_419)"><path d="M87.5865 126.253C87.389 126.238 87.2041 126.495 87.1816 126.825C87.1566 127.158 87.299 127.438 87.499 127.453C87.699 127.468 87.8815 127.21 87.9065 126.88C87.9315 126.548 87.789 126.268 87.5865 126.253Z" fill="#3C2A39"></path></g><mask id="mask23_5640_419" style="mask-type:luminance" maskUnits="userSpaceOnUse" x="64" y="116" width="42" height="37"><path d="M64.8145 134.437C63.3445 144.522 71.1269 152.688 82.2017 152.688C93.2739 152.688 103.464 144.522 104.959 134.437C106.456 124.337 98.6764 116.143 87.5791 116.143C76.4793 116.143 66.287 124.337 64.8145 134.437Z" fill="white"></path></mask><g mask="url(#mask23_5640_419)"><path d="M83.4316 125.945C83.2316 125.93 83.0491 126.188 83.0241 126.52C82.9991 126.851 83.1416 127.133 83.3416 127.146C83.5416 127.161 83.7241 126.906 83.7491 126.573C83.7741 126.24 83.6316 125.96 83.4316 125.945Z" fill="#3C2A39"></path></g><mask id="mask24_5640_419" style="mask-type:luminance" maskUnits="userSpaceOnUse" x="64" y="116" width="42" height="37"><path d="M64.8145 134.437C63.3445 144.522 71.1269 152.688 82.2017 152.688C93.2739 152.688 103.464 144.522 104.959 134.437C106.456 124.337 98.6764 116.143 87.5791 116.143C76.4793 116.143 66.287 124.337 64.8145 134.437Z" fill="white"></path></mask><g mask="url(#mask24_5640_419)"><path d="M87.0389 125.215C86.9864 125.22 86.9315 125.283 86.9115 125.365C86.889 125.468 86.8639 125.573 86.8389 125.675C86.8115 125.785 86.859 125.87 86.9315 125.843C87.2865 125.713 87.634 125.753 87.9065 125.958C88.0765 126.085 88.2139 126.273 88.3139 126.505C88.3739 126.64 88.5465 126.475 88.5165 126.31C88.4615 126.003 88.3364 125.748 88.1639 125.568C87.8639 125.26 87.4564 125.185 87.0389 125.215Z" fill="#3C2A39"></path></g><mask id="mask25_5640_419" style="mask-type:luminance" maskUnits="userSpaceOnUse" x="64" y="116" width="42" height="37"><path d="M64.8145 134.437C63.3445 144.522 71.1269 152.688 82.2017 152.688C93.2739 152.688 103.464 144.522 104.959 134.437C106.456 124.337 98.6764 116.143 87.5791 116.143C76.4793 116.143 66.287 124.337 64.8145 134.437Z" fill="white"></path></mask><g mask="url(#mask25_5640_419)"><path d="M83.894 124.983C83.484 124.89 83.0714 124.905 82.729 125.168C82.5315 125.318 82.3714 125.555 82.2714 125.848C82.2189 126.008 82.364 126.198 82.4415 126.07C82.5765 125.855 82.739 125.69 82.924 125.59C83.224 125.428 83.574 125.438 83.9065 125.62C83.974 125.658 84.0339 125.58 84.0239 125.468C84.0139 125.363 84.0064 125.255 83.9964 125.15C83.9889 125.065 83.944 124.995 83.894 124.983Z" fill="#3C2A39"></path></g><mask id="mask26_5640_419" style="mask-type:luminance" maskUnits="userSpaceOnUse" x="64" y="116" width="42" height="37"><path d="M64.8145 134.437C63.3445 144.522 71.1269 152.688 82.2017 152.688C93.2739 152.688 103.464 144.522 104.959 134.437C106.456 124.337 98.6764 116.143 87.5791 116.143C76.4793 116.143 66.287 124.337 64.8145 134.437Z" fill="white"></path></mask><g mask="url(#mask26_5640_419)"><path d="M89.2365 122.197C88.904 122.172 89.504 124.165 89.3515 126.255C89.1965 128.348 90.204 129.241 90.204 129.241C90.204 129.241 90.4715 127.926 91.069 125.915C91.5965 124.135 89.569 122.222 89.2365 122.197Z" fill="#3C2A39"></path></g><mask id="mask27_5640_419" style="mask-type:luminance" maskUnits="userSpaceOnUse" x="64" y="116" width="42" height="37"><path d="M64.8145 134.437C63.3445 144.522 71.1269 152.688 82.2017 152.688C93.2739 152.688 103.464 144.522 104.959 134.437C106.456 124.337 98.6764 116.143 87.5791 116.143C76.4793 116.143 66.287 124.337 64.8145 134.437Z" fill="white"></path></mask><g mask="url(#mask27_5640_419)"><path d="M80.5118 125.605C80.3593 127.698 80.3993 128.516 80.3993 128.516C80.3993 128.516 81.2268 127.76 81.3818 125.668C81.5368 123.575 82.2142 121.679 81.9742 121.662C81.7342 121.644 80.6668 123.512 80.5118 125.605Z" fill="#3C2A39"></path></g><mask id="mask28_5640_419" style="mask-type:luminance" maskUnits="userSpaceOnUse" x="64" y="116" width="42" height="37"><path d="M64.8145 134.437C63.3445 144.522 71.1269 152.688 82.2017 152.688C93.2739 152.688 103.464 144.522 104.959 134.437C106.456 124.337 98.6764 116.143 87.5791 116.143C76.4793 116.143 66.287 124.337 64.8145 134.437Z" fill="white"></path></mask><g mask="url(#mask28_5640_419)"><path d="M89.2091 121.277C88.3741 120.579 87.2442 120.331 86.1567 120.301C84.4093 120.254 82.4868 120.829 81.5718 122.319C81.3718 122.644 81.2243 123.027 81.2843 123.405C81.3468 123.78 81.6743 124.132 82.0543 124.11C82.7868 124.067 82.9718 122.887 83.6943 122.754C83.6893 123.095 83.6867 123.435 83.6842 123.775C83.9642 123.975 84.3667 123.78 84.5767 123.51C84.7892 123.237 84.9067 122.894 85.1517 122.654C85.3992 122.414 85.8717 122.344 86.0492 122.637C85.7317 122.814 85.6142 123.275 85.8092 123.582C86.0017 123.89 86.4692 123.98 86.7617 123.767C86.9617 123.627 87.0666 123.39 87.2516 123.232C87.4341 123.072 87.7816 123.045 87.8716 123.27C87.7116 123.462 87.6891 123.76 87.8216 123.975C87.9541 124.187 88.2317 124.302 88.4742 124.245C88.6867 124.195 88.8517 124.037 89.0192 123.902C89.6642 123.38 90.3491 124.262 90.2016 123.062C90.1191 122.374 89.7391 121.719 89.2091 121.277Z" fill="#3C2A39"></path></g><mask id="mask29_5640_419" style="mask-type:luminance" maskUnits="userSpaceOnUse" x="64" y="116" width="42" height="37"><path d="M64.8145 134.437C63.3445 144.522 71.1269 152.688 82.2017 152.688C93.2739 152.688 103.464 144.522 104.959 134.437C106.456 124.337 98.6764 116.143 87.5791 116.143C76.4793 116.143 66.287 124.337 64.8145 134.437Z" fill="white"></path></mask><g mask="url(#mask29_5640_419)"><path d="M90.2763 141.624C87.8289 142.711 85.479 144.049 83.2941 145.599C83.2266 145.649 83.2091 145.745 83.2566 145.812C83.2866 145.85 83.3265 145.872 83.3715 145.875C83.404 145.877 83.439 145.87 83.469 145.847C85.639 144.309 87.9714 142.981 90.4013 141.901C90.4788 141.866 90.5114 141.776 90.4789 141.701C90.4439 141.624 90.3538 141.589 90.2763 141.624Z" fill="#3C2A39"></path></g><mask id="mask30_5640_419" style="mask-type:luminance" maskUnits="userSpaceOnUse" x="64" y="116" width="42" height="37"><path d="M64.8145 134.437C63.3445 144.522 71.1269 152.688 82.2017 152.688C93.2739 152.688 103.464 144.522 104.959 134.437C106.456 124.337 98.6764 116.143 87.5791 116.143C76.4793 116.143 66.287 124.337 64.8145 134.437Z" fill="white"></path></mask><g mask="url(#mask30_5640_419)"><path d="M78.1216 140.161C78.0566 140.216 78.0441 140.311 78.0966 140.376C79.1641 141.694 79.9692 143.252 80.4317 144.882C80.4492 144.944 80.5041 144.987 80.5666 144.992L80.6192 144.984C80.6991 144.962 80.7466 144.879 80.7241 144.797C80.2516 143.129 79.4241 141.534 78.3341 140.186C78.2816 140.118 78.1841 140.111 78.1216 140.161Z" fill="#3C2A39"></path></g><path d="M84.2366 102.115C84.0241 102.353 83.7541 102.518 83.4291 102.615C83.1016 102.713 82.3117 102.76 81.0567 102.76H79.1193L79.5592 99.7595H81.6016C82.6616 99.7595 83.2991 99.7745 83.5041 99.7995C83.9191 99.8645 84.2266 100.02 84.4241 100.265C84.6191 100.51 84.6892 100.83 84.6317 101.227C84.5792 101.582 84.4466 101.88 84.2366 102.115ZM85.7166 98.0791C85.1191 97.8666 84.1292 97.7616 82.7442 97.7616H77.2342L75.5068 109.579H78.1217L78.8443 104.646H79.3742C79.9742 104.646 80.4067 104.691 80.6717 104.781C80.9367 104.868 81.1742 105.031 81.3867 105.271C81.5967 105.511 81.9716 106.091 82.5091 107.009L84.0241 109.579H87.1491L85.9091 107.274C85.4191 106.356 85.0166 105.716 84.7016 105.356C84.3841 104.996 83.9666 104.666 83.4466 104.365C84.6041 104.215 85.5116 103.85 86.1691 103.273C86.8266 102.695 87.2191 101.962 87.3491 101.075C87.4516 100.377 87.3541 99.7545 87.0566 99.2119C86.7616 98.6693 86.3141 98.2917 85.7166 98.0791Z" fill="#AAB6C2"></path><path d="M88.564 109.579H98.4163L98.7088 107.589H91.474L91.9464 104.373H98.4538L98.7463 102.383H92.2414L92.6264 99.7595H99.6188L99.9137 97.7616H90.304L88.564 109.579Z" fill="#AAB6C2"></path><path d="M106.949 97.559C105.951 97.559 105.081 97.6965 104.336 97.9691C103.591 98.2442 102.991 98.6442 102.541 99.1668C102.089 99.692 101.819 100.255 101.729 100.857C101.591 101.792 101.871 102.585 102.571 103.238C103.069 103.698 103.994 104.088 105.349 104.405C106.404 104.653 107.076 104.826 107.369 104.921C107.794 105.066 108.084 105.236 108.234 105.433C108.384 105.628 108.439 105.866 108.396 106.146C108.334 106.581 108.061 106.961 107.586 107.286C107.111 107.611 106.454 107.774 105.611 107.774C104.814 107.774 104.211 107.591 103.796 107.226C103.381 106.861 103.156 106.288 103.119 105.511L100.539 105.736C100.514 107.056 100.891 108.061 101.666 108.751C102.441 109.444 103.649 109.787 105.286 109.787C106.411 109.787 107.371 109.644 108.169 109.357C108.964 109.071 109.614 108.631 110.114 108.039C110.614 107.449 110.914 106.816 111.014 106.138C111.126 105.391 111.046 104.763 110.776 104.255C110.509 103.748 110.089 103.348 109.524 103.055C108.956 102.763 108.056 102.478 106.824 102.205C105.594 101.93 104.831 101.667 104.539 101.415C104.309 101.215 104.214 100.977 104.254 100.697C104.301 100.39 104.474 100.145 104.779 99.962C105.251 99.677 105.869 99.5344 106.629 99.5344C107.364 99.5344 107.896 99.6695 108.226 99.9345C108.556 100.2 108.731 100.637 108.751 101.245L111.386 101.14C111.506 100.055 111.204 99.1844 110.476 98.5342C109.751 97.8841 108.574 97.559 106.949 97.559Z" fill="#AAB6C2"></path><path d="M121.186 104.301C121.046 105.236 120.908 105.903 120.771 106.306C120.636 106.711 120.356 107.049 119.938 107.326C119.521 107.604 118.941 107.741 118.198 107.741C117.469 107.741 116.914 107.596 116.536 107.301C116.159 107.009 115.951 106.621 115.911 106.139C115.889 105.838 115.956 105.178 116.106 104.163L117.058 97.7617H114.441L113.504 104.066C113.309 105.388 113.246 106.386 113.316 107.064C113.366 107.521 113.544 107.959 113.854 108.374C114.164 108.792 114.619 109.129 115.219 109.389C115.819 109.649 116.738 109.779 117.976 109.779C118.998 109.779 119.848 109.662 120.521 109.422C121.191 109.182 121.748 108.862 122.186 108.459C122.628 108.056 122.963 107.561 123.191 106.976C123.418 106.391 123.641 105.388 123.853 103.971L124.778 97.7617H122.161L121.186 104.301Z" fill="#AAB6C2"></path><path d="M132.56 105.823L131.418 97.7616H127.501L125.736 109.579H128.166L129.556 100.277L130.728 109.579H133.245L137.213 100.277L135.815 109.579H138.248L140.02 97.7616H136.095L132.56 105.823Z" fill="#AAB6C2"></path><path d="M140.843 109.579H150.695L150.995 107.589H143.76L144.243 104.373H150.75L151.05 102.383H144.543L144.938 99.7595H151.93L152.233 97.7616H142.62L140.843 109.579Z" fill="#AAB6C2"></path><path d="M85.909 67.4876L83.9691 61.5163L82.0291 67.4876H75.7517L80.8317 71.1784L78.8917 77.1497L83.9691 73.4589L89.0465 77.1497L87.109 71.1784L92.1864 67.4876H85.909Z" fill="#D82532"></path><path d="M105.101 67.4876L103.161 61.5163L101.221 67.4876H94.9438L100.021 71.1784L98.0837 77.1497L103.161 73.4589L108.239 77.1497L106.299 71.1784L111.378 67.4876H105.101Z" fill="#D82532"></path><path d="M124.291 67.4876L122.351 61.5163L120.413 67.4876H114.136L119.213 71.1784L117.273 77.1497L122.351 73.4589L127.431 77.1497L125.491 71.1784L130.568 67.4876H124.291Z" fill="#D82532"></path><path d="M143.483 67.4876L141.543 61.5163L139.603 67.4876H133.325L138.403 71.1784L136.465 77.1497L141.543 73.4589L146.62 77.1497L144.68 71.1784L149.76 67.4876H143.483Z" fill="#D82532"></path><path d="M162.675 67.4876L160.735 61.5163L158.795 67.4876H152.52L157.597 71.1784L155.657 77.1497L160.735 73.4589L165.815 77.1497L163.875 71.1784L168.952 67.4876H162.675Z" fill="#D82532"></path><path d="M60.5 142.789V177.21L30.5 194.423L0.5 177.21V142.789L30.5 125.576L60.5 142.789Z" fill="white" stroke="#939598"></path><path d="M40.7109 148.836L30.1641 175.008H25.3984L35.6523 150.867H22V147H40.7109V148.836Z" fill="#D82532"></path></svg>