<svg xmlns="http://www.w3.org/2000/svg" width="183" height="219" viewBox="0 0 183 219" fill="none"><path d="M127.175 5.43254C126.687 5.45126 126.195 5.47932 125.704 5.51442C121.282 5.84895 116.906 6.87357 112.724 8.68655C81.9198 22.0418 79.4547 30.4214 50.7367 29.3874C-23.3633 26.7158 -3.33616 118.193 29.3742 149.576C62.0845 180.958 126.172 166.269 158.936 149.576C191.7 132.882 167.559 92.8208 176.229 58.7671C183.585 29.8505 154.869 4.30264 127.175 5.43254Z" fill="#E6EBF0"></path><path d="M29.3742 149.576C62.0845 180.958 126.172 166.269 158.936 149.576C191.7 132.882 167.559 92.8208 176.229 58.7671C183.585 29.8505 154.869 4.30264 127.175 5.43254C126.687 5.45126 126.195 5.47932 125.704 5.51442C121.282 5.84895 116.906 6.87357 112.724 8.68655C81.9198 22.0418 79.4547 30.4214 50.7367 29.3874C-23.3633 26.7158 -3.33616 118.193 29.3742 149.576Z" fill="#E6EBF0"></path><path d="M52.3643 17.0451C52.1819 18.4721 53.1011 19.8079 54.4997 20.1307C60.1478 21.4337 76.5755 23.5765 90.3159 9.07031C106.362 -7.87118 54.3827 1.31305 52.3643 17.0451Z" fill="#E6EBF0"></path><path d="M11.1526 169.184H164.355V168.021H11.1526V169.184Z" fill="#3C2A39"></path><path d="M119.591 11.4516H132.328V17.6859H119.591V11.4516ZM118.765 18.5117H133.153V10.6258H118.765V18.5117Z" fill="#AAB6C2"></path><path d="M109.737 18.5117H122.474V24.746H109.737V18.5117ZM108.912 25.5718H123.3V17.6859H108.912V25.5718Z" fill="#AAB6C2"></path><path d="M123.592 84.7409H136.332V90.9776H123.592V84.7409ZM122.769 91.801H137.155V83.9151H122.769V91.801Z" fill="#AAB6C2"></path><path d="M161.801 106.246H174.541V112.481H161.801V106.246ZM160.978 113.306H175.364V105.42H160.978V113.306Z" fill="#AAB6C2"></path><path d="M68.7103 146.345H81.4474V152.579H68.7103V146.345ZM67.8848 153.405H82.273V145.519H67.8848V153.405Z" fill="#AAB6C2"></path><path d="M55.1313 146.345H67.8707V152.579H55.1313V146.345ZM54.3081 153.405H68.694V145.519H54.3081V153.405Z" fill="#AAB6C2"></path><path d="M61.9277 153.405H74.6672V159.639H61.9277V153.405ZM61.1045 160.465H75.4904V152.579H61.1045V160.465Z" fill="#AAB6C2"></path><path d="M2.60429 67.6986H15.3437V73.933H2.60429V67.6986ZM1.78101 74.7588H16.1669V66.8729H1.78101V74.7588Z" fill="#AAB6C2"></path><path d="M12.4599 74.7587H25.1969V80.9931H12.4599V74.7587ZM11.6343 81.8188H26.0225V73.9329H11.6343V81.8188Z" fill="#AAB6C2"></path><path d="M26.6496 35.2614H39.3866V41.4958H26.6496V35.2614ZM25.824 42.3215H40.2122V34.4356H25.824V42.3215Z" fill="#AAB6C2"></path><path d="M13.0705 35.2614H25.8075V41.4958H13.0705V35.2614ZM12.2449 42.3215H26.6331V34.4356H12.2449V42.3215Z" fill="#AAB6C2"></path><path d="M19.8669 42.3215H32.6063V48.5558H19.8669V42.3215ZM19.0437 49.3816H33.4296V41.4957H19.0437V49.3816Z" fill="#AAB6C2"></path><path d="M131.425 64.0305H23.8639C20.9895 64.0305 18.6998 66.4354 18.8425 69.3081L23.4757 162.362H131.811L136.444 69.3081C136.587 66.4354 134.297 64.0305 131.425 64.0305Z" fill="#AAB6C2"></path><path d="M28.6281 156.947H126.661L131.016 69.4438H24.271L28.6281 156.947Z" fill="white"></path><path d="M126.502 156.781H28.7847L24.4439 69.6098H130.843L126.502 156.781ZM28.469 157.113H126.817L131.191 69.2777H24.0955L28.469 157.113Z" fill="#3C2A39"></path><path d="M36.7365 160.014H26.3289C25.674 160.014 25.1431 160.545 25.1431 161.202V162.107C25.1431 162.762 25.674 163.293 26.3289 163.293H36.7365C37.3913 163.293 37.9222 162.762 37.9222 162.107V161.202C37.9222 160.545 37.3913 160.014 36.7365 160.014Z" fill="#3C2A39"></path><path d="M49.282 160.014H43.2924C42.6375 160.014 42.1042 160.545 42.1042 161.202V162.107C42.1042 162.762 42.6375 163.293 43.2924 163.293H49.282C49.9392 163.293 50.4701 162.762 50.4701 162.107V161.202C50.4701 160.545 49.9392 160.014 49.282 160.014Z" fill="#3C2A39"></path><path d="M67.8707 160.014H54.135C53.4801 160.014 52.9492 160.545 52.9492 161.202V162.107C52.9492 162.762 53.4801 163.293 54.135 163.293H67.8707C68.5256 163.293 69.0588 162.762 69.0588 162.107V161.202C69.0588 160.545 68.5256 160.014 67.8707 160.014Z" fill="#3C2A39"></path><path d="M86.6909 160.014H74.7304C74.0732 160.014 73.5422 160.545 73.5422 161.202V162.107C73.5422 162.762 74.0732 163.293 74.7304 163.293H86.6909C87.3481 163.293 87.879 162.762 87.879 162.107V161.202C87.879 160.545 87.3481 160.014 86.6909 160.014Z" fill="#3C2A39"></path><path d="M98.4597 160.014H92.4701C91.8129 160.014 91.282 160.545 91.282 161.202V162.107C91.282 162.762 91.8129 163.293 92.4701 163.293H98.4597C99.1169 163.293 99.6478 162.762 99.6478 162.107V161.202C99.6478 160.545 99.1169 160.014 98.4597 160.014Z" fill="#3C2A39"></path><path d="M128.957 160.014H122.966C122.311 160.014 121.78 160.545 121.78 161.202V162.107C121.78 162.762 122.311 163.293 122.966 163.293H128.957C129.612 163.293 130.143 162.762 130.143 162.107V161.202C130.143 160.545 129.612 160.014 128.957 160.014Z" fill="#3C2A39"></path><path d="M117.048 160.014H103.313C102.658 160.014 102.127 160.545 102.127 161.202V162.107C102.127 162.762 102.658 163.293 103.313 163.293H117.048C117.703 163.293 118.237 162.762 118.237 162.107V161.202C118.237 160.545 117.703 160.014 117.048 160.014Z" fill="#3C2A39"></path><path d="M138.647 162.363H16.6394C15.891 162.363 15.2876 162.966 15.2876 163.712V166.655C15.2876 167.401 15.891 168.007 16.6394 168.007H138.647C139.393 168.007 139.999 167.401 139.999 166.655V163.712C139.999 162.966 139.393 162.363 138.647 162.363Z" fill="#AAB6C2"></path><path d="M32.3538 140.356H78.311V77.952H32.3538V140.356Z" fill="white"></path><path d="M32.5478 78.1439H78.1192V140.164H32.5478V78.1439ZM32.1643 140.548H78.5051V77.7602H32.1643V140.548Z" fill="#3C2A39"></path><path d="M54.8904 83.0895C49.8713 83.3351 46.0006 87.6021 46.2462 92.6223C46.3631 95.0225 47.4039 97.1653 49.0083 98.7163C50.7484 100.405 53.1573 101.395 55.7767 101.268C58.3868 101.14 60.6859 99.9257 62.2576 98.0823C63.7076 96.377 64.5379 94.1405 64.421 91.7357C64.1754 86.7155 59.9071 82.8462 54.8904 83.0895Z" fill="#D82532"></path><path d="M55.2086 85.8662C53.4357 85.9271 52.0488 87.4172 52.1119 89.1904C52.1751 90.9636 53.6626 92.3509 55.4354 92.2877C57.2082 92.2269 58.5951 90.7367 58.5319 88.9635C58.4688 87.1903 56.9814 85.8031 55.2086 85.8662Z" fill="#3C2A39"></path><path d="M55.4704 93.289C52.1727 93.4036 49.5041 95.7336 49.0083 98.7163C50.7484 100.405 53.1573 101.395 55.7767 101.268C58.3868 101.14 60.6859 99.9257 62.2576 98.0823C61.4904 95.2283 58.7073 93.1721 55.4704 93.289Z" fill="#3C2A39"></path><path d="M37.2744 114.567H54.3265L54.3452 113.559H37.2744V114.567Z" fill="#3C2A39"></path><path d="M37.2744 126.643H66.2988L66.3315 125.635H37.2744V126.643Z" fill="#3C2A39"></path><path d="M37.2744 117.604H73.4578L73.4765 116.596H37.2744V117.604Z" fill="#3C2A39"></path><path d="M37.2744 123.569H73.4578L73.4765 122.561H37.2744V123.569Z" fill="#3C2A39"></path><path d="M37.2744 120.64H65.8801L65.9012 119.632H37.2744V120.64Z" fill="#3C2A39"></path><path d="M56.1113 114.567H61.376L61.397 113.559H56.1301L56.1113 114.567Z" fill="#3C2A39"></path><path d="M37.2744 129.677H54.3265L54.3452 128.669H37.2744V129.677Z" fill="#3C2A39"></path><path d="M37.2744 132.714H73.4578L73.4765 131.703H37.2744V132.714Z" fill="#3C2A39"></path><path d="M37.2744 135.75H65.8801L65.9012 134.74H37.2744V135.75Z" fill="#3C2A39"></path><path d="M56.1113 129.677H61.376L61.397 128.669H56.1301L56.1113 129.677Z" fill="#3C2A39"></path><path d="M40.9606 105.802L40.1958 103.448L39.431 105.802H36.9565L38.9586 107.257L38.1938 109.61L40.1958 108.155L42.1978 109.61L41.433 107.257L43.435 105.802H40.9606Z" fill="#D82532"></path><path d="M48.5243 105.802L47.7595 103.448L46.9946 105.802H44.5203L46.5222 107.257L45.7574 109.61L47.7595 108.155L49.7614 109.61L48.9967 107.257L50.9963 105.802H48.5243Z" fill="#D82532"></path><path d="M56.0854 105.802L55.323 103.448L54.5582 105.802H52.0837L54.0858 107.257L53.3209 109.61L55.323 108.155L57.3226 109.61L56.5579 107.257L58.5598 105.802H56.0854Z" fill="#D82532"></path><path d="M63.6492 105.802L62.8844 103.448L62.1219 105.802H59.6475L61.6471 107.257L60.8824 109.61L62.8844 108.155L64.8864 109.61L64.1216 107.257L66.1236 105.802H63.6492Z" fill="#D82532"></path><path d="M71.2128 105.802L70.448 103.448L69.6833 105.802H67.2112L69.2108 107.257L68.4461 109.61L70.448 108.155L72.4501 109.61L71.6853 107.257L73.6873 105.802H71.2128Z" fill="#D82532"></path><path d="M71.6853 154.269H121.923V86.0511H71.6853V154.269Z" fill="white"></path><path d="M71.8956 86.2592H121.714V154.058H71.8956V86.2592ZM71.4746 154.479H122.133V85.8405H71.4746V154.479Z" fill="#3C2A39"></path><path d="M96.3197 91.6652C90.8329 91.9342 86.6021 96.5989 86.871 102.087C86.9997 104.712 88.134 107.053 89.8881 108.749C91.7918 110.595 94.4254 111.678 97.2881 111.538C100.144 111.4 102.653 110.069 104.372 108.055C105.96 106.193 106.865 103.748 106.737 101.118C106.47 95.6304 101.804 91.3985 96.3197 91.6652Z" fill="#D82532"></path><path d="M96.6681 94.7016C94.7292 94.7694 93.2137 96.3976 93.2815 98.3346C93.3493 100.274 94.9771 101.79 96.9159 101.722C98.8548 101.654 100.37 100.026 100.3 98.0889C100.232 96.1496 98.6069 94.6337 96.6681 94.7016Z" fill="#3C2A39"></path><path d="M96.9535 102.815C93.3494 102.943 90.4305 105.488 89.8879 108.749C91.7917 110.595 94.4252 111.678 97.2879 111.538C100.144 111.4 102.653 110.069 104.372 108.055C103.535 104.936 100.492 102.688 96.9535 102.815Z" fill="#3C2A39"></path><path d="M77.062 126.077H95.7045L95.7256 124.975H77.062V126.077Z" fill="#3C2A39"></path><path d="M77.062 139.278H108.79L108.827 138.174H77.062V139.278Z" fill="#3C2A39"></path><path d="M77.062 129.396H116.618L116.639 128.292H77.062V129.396Z" fill="#3C2A39"></path><path d="M77.062 135.918H116.618L116.639 134.814H77.062V135.918Z" fill="#3C2A39"></path><path d="M77.062 132.716H108.334L108.355 131.612H77.062V132.716Z" fill="#3C2A39"></path><path d="M97.655 126.077H103.411L103.432 124.975H97.676L97.655 126.077Z" fill="#3C2A39"></path><path d="M77.062 142.595H95.7045L95.7256 141.491H77.062V142.595Z" fill="#3C2A39"></path><path d="M77.062 145.912H116.618L116.639 144.81H77.062V145.912Z" fill="#3C2A39"></path><path d="M77.062 149.232H108.334L108.355 148.13H77.062V149.232Z" fill="#3C2A39"></path><path d="M97.655 142.595H103.411L103.432 141.491H97.676L97.655 142.595Z" fill="#3C2A39"></path><path d="M81.092 116.495L80.257 113.922L79.422 116.495H76.7161L78.9052 118.083L78.0703 120.657L80.257 119.066L82.4438 120.657L81.6088 118.083L83.7956 116.495H81.092Z" fill="#D82532"></path><path d="M89.3596 116.495L88.5246 113.922L87.6873 116.495H84.9836L87.1728 118.083L86.3355 120.657L88.5246 119.066L90.7114 120.657L89.8764 118.083L92.0631 116.495H89.3596Z" fill="#D82532"></path><path d="M97.6271 116.495L96.7922 113.922L95.9572 116.495H93.2512L95.4404 118.083L94.6054 120.657L96.7922 119.066L98.979 120.657L98.144 118.083L100.331 116.495H97.6271Z" fill="#D82532"></path><path d="M105.895 116.495L105.06 113.922L104.222 116.495H101.519L103.708 118.083L102.871 120.657L105.06 119.066L107.247 120.657L106.412 118.083L108.598 116.495H105.895Z" fill="#D82532"></path><path d="M115.315 120.383L113.327 118.937L111.339 120.383L112.074 118.116L112.097 118.044L110.112 116.6H112.567L113.327 114.263L114.085 116.6H116.543L114.555 118.044L115.315 120.383ZM114.237 116.39L113.327 113.583L112.415 116.39H109.464L111.852 118.126L110.939 120.93L113.327 119.197L115.713 120.93L114.801 118.126L117.189 116.39H114.237Z" fill="#D82532"></path><path d="M172.433 103.21C171.43 109.526 165.499 113.833 159.184 112.829C152.869 111.826 148.566 105.891 149.567 99.5769C150.57 93.2607 156.504 88.954 162.816 89.9575C169.131 90.9611 173.437 96.8937 172.433 103.21ZM175.986 94.9076L179.054 92.2477L175.289 87.0591L171.811 89.1551C170.413 87.9153 168.803 86.9141 167.017 86.2099L167.304 82.1582L160.969 81.1523L159.989 85.0917C158.075 85.2087 156.228 85.6625 154.516 86.4041L151.859 83.3372L146.671 87.1012L148.765 90.5798C147.527 91.9811 146.524 93.5882 145.82 95.3778L141.769 95.09L140.764 101.425L144.705 102.407C144.821 104.319 145.273 106.167 146.017 107.879L142.948 110.539L146.711 115.725L150.191 113.634C151.59 114.869 153.206 115.875 154.986 116.577L154.698 120.629L161.034 121.635L162.014 117.695C163.932 117.578 165.772 117.124 167.484 116.38L170.144 119.452L175.331 115.686L173.238 112.207C174.475 110.808 175.478 109.189 176.18 107.409L180.231 107.697L181.239 101.362L177.298 100.379C177.183 98.461 176.727 96.62 175.986 94.9076Z" fill="#FBB53B"></path><path d="M141.643 96.7978L141.363 96.7533L140.605 101.53L143.409 102.23L143.477 101.956L140.925 101.32L141.643 96.7978Z" fill="#361E4D"></path><path d="M151.295 114.352L151.115 114.57C151.132 114.584 152.808 115.98 154.836 116.677L154.556 120.619L154.839 120.638L155.136 116.479L155.03 116.444C153.01 115.777 151.314 114.366 151.295 114.352Z" fill="#361E4D"></path><path d="M171.163 96.152C171.205 96.2268 175.27 103.708 168.616 109.926L168.808 110.132C175.623 103.766 171.456 96.0911 171.411 96.0139L171.163 96.152Z" fill="#3C2A39"></path><path d="M176.943 93.89L175.813 94.8678L175.855 94.9637C175.86 94.9754 176.414 96.2925 176.854 97.9207L177.127 97.8458C176.751 96.4515 176.29 95.2819 176.154 94.9474L177.127 94.1052L176.943 93.89Z" fill="#361E4D"></path><path d="M181.716 106.859L177.681 106.574L177.649 106.679C177.639 106.702 176.809 109.224 174.735 111.423L174.662 111.5L176.744 114.963L171.762 118.579L169.11 115.517L169.009 115.576C168.988 115.587 166.792 116.839 163.607 116.869L163.497 116.872L162.521 120.795L156.436 119.828L156.721 115.798L156.623 115.763C156.595 115.753 153.819 114.733 151.875 112.848L151.798 112.771L148.334 114.855L144.721 109.875L147.773 107.226L147.726 107.131C147.714 107.107 146.587 104.735 146.428 101.708L146.423 101.605L142.506 100.627L143.472 94.5426L147.499 94.8303L147.537 94.7321C147.548 94.7017 148.802 91.4944 150.446 89.9879L150.53 89.9083L148.442 86.4414L153.424 82.8248L156.073 85.8847L156.174 85.8285C156.195 85.8168 158.276 84.6589 161.586 84.5326L161.689 84.5279L162.666 80.6095L168.75 81.5756L168.464 85.6063L168.565 85.6414C168.593 85.6531 171.439 86.6847 173.31 88.5539L173.387 88.6311L176.851 86.5467L180.467 91.5295L177.408 94.18L177.459 94.2782C177.471 94.2993 178.659 96.5848 178.757 99.6915L178.762 99.7991L182.682 100.775L181.716 106.859ZM177.759 94.2478L180.846 91.574L176.926 86.1748L173.429 88.2778C171.72 86.6122 169.28 85.6157 168.759 85.4145L169.049 81.3394L162.456 80.2913L161.469 84.2565C158.527 84.3875 156.595 85.2928 156.139 85.5291L153.466 82.4459L148.07 86.3643L150.173 89.8592C148.666 91.3003 147.534 93.9835 147.312 94.5356L143.233 94.2431L142.188 100.84L146.152 101.827C146.314 104.515 147.216 106.677 147.429 107.154L144.342 109.83L148.259 115.229L151.758 113.124C153.529 114.804 155.914 115.788 156.426 115.987L156.137 120.065L162.732 121.113L163.719 117.15C166.53 117.098 168.577 116.121 169.049 115.875L171.72 118.958L177.118 115.04L175.011 111.538C176.839 109.566 177.698 107.369 177.878 106.869L181.952 107.159L183 100.564L179.033 99.5768C178.926 96.8281 177.988 94.7227 177.759 94.2478Z" fill="#3C2A39"></path><path d="M164.18 112.039C157.93 112.914 152.132 108.539 151.258 102.288C150.383 96.0376 154.757 90.2384 161.006 89.3658C167.257 88.4909 173.053 92.8631 173.928 99.1138C174.802 105.365 170.429 111.164 164.18 112.039ZM160.968 89.0874C154.565 89.9834 150.084 95.923 150.979 102.328C151.878 108.733 157.816 113.213 164.219 112.317C170.623 111.421 175.102 105.482 174.206 99.0764C173.31 92.6713 167.37 88.1891 160.968 89.0874Z" fill="#3C2A39"></path><path d="M129.683 80.6634C128.389 80.1745 127.054 79.8072 125.76 79.3183C125.625 79.4353 125.496 79.5616 125.379 79.695L124.696 81.8191C126.001 81.9594 127.309 82.1396 128.537 82.5817C129.764 83.0308 130.915 83.7841 131.631 84.8625L132.452 83.4543C132.468 82.8577 132.183 82.2097 131.776 81.8027C131.205 81.2389 130.431 80.9418 129.683 80.6634Z" fill="#3C2A39"></path><path d="M136.018 68.2744C136.018 68.2744 143.804 56.5122 141.304 53.6161L136.018 68.2744Z" fill="#FD4E4E"></path><path d="M122.994 154.537C122.423 156.196 121.532 163.106 119.663 163.759C117.795 164.414 116.359 166.007 114.345 166.108C113.388 166.157 112.591 166.19 112.275 166.288L112.247 166.297C111.33 166.594 111.59 167.972 112.553 167.963C116.936 167.925 120.051 167.822 125.438 167.956C126.137 167.972 127.437 167.724 127.433 166.424C127.428 163.567 122.655 163.16 128.831 156.809C129.517 156.105 125.69 154.446 122.994 154.537Z" fill="white"></path><path d="M128.756 156.736C124.376 161.24 125.445 162.819 126.478 164.344C126.916 164.99 127.327 165.598 127.33 166.424C127.33 166.81 127.208 167.125 126.967 167.362C126.478 167.839 125.674 167.867 125.44 167.853C121.321 167.75 118.484 167.787 115.484 167.825C114.546 167.837 113.585 167.851 112.553 167.86H112.544C112.1 167.86 111.847 167.532 111.793 167.205C111.749 166.92 111.847 166.536 112.28 166.398L112.247 166.297L112.305 166.388C112.584 166.302 113.299 166.264 114.13 166.225L114.349 166.213C115.594 166.15 116.637 165.521 117.645 164.912C118.297 164.519 118.971 164.115 119.698 163.86C121.139 163.354 121.969 159.508 122.577 156.701C122.764 155.833 122.928 155.075 123.069 154.638C123.118 154.638 123.167 154.638 123.213 154.638C125.555 154.638 128.478 155.836 128.784 156.531C128.824 156.615 128.815 156.676 128.756 156.736ZM122.989 154.432L122.919 154.434L122.893 154.502C122.746 154.937 122.573 155.735 122.374 156.657C121.81 159.261 120.959 163.195 119.628 163.661C118.882 163.923 118.199 164.335 117.537 164.735C116.506 165.357 115.533 165.944 114.338 166.005L114.118 166.017C113.241 166.059 112.549 166.094 112.228 166.194L112.214 166.199C111.693 166.367 111.524 166.842 111.587 167.238C111.653 167.64 111.98 168.068 112.544 168.068H112.556C113.587 168.059 114.548 168.047 115.486 168.035C118.487 167.996 121.319 167.958 125.435 168.061C125.69 168.073 126.567 168.045 127.112 167.511C127.395 167.233 127.538 166.868 127.538 166.424C127.536 165.535 127.087 164.87 126.652 164.227C125.665 162.77 124.645 161.263 128.908 156.881C129.023 156.762 129.049 156.608 128.976 156.446C128.597 155.585 125.316 154.36 122.989 154.432Z" fill="#3C2A39"></path><path d="M126.956 164.416C126.876 164.299 126.731 164.255 126.6 164.304C125.686 164.65 122.105 165.925 120.341 165.462C119.2 165.16 118.737 164.73 118.55 164.412C118.433 164.213 118.19 164.129 117.989 164.243C117.247 164.664 115.753 165.46 114.953 165.483C113.863 165.52 112.803 165.708 111.922 166.192C111.519 166.414 111.421 166.952 111.417 167.406C111.414 167.808 111.737 168.134 112.137 168.134L126.965 168.127C127.21 168.127 127.428 167.974 127.519 167.748C127.673 167.357 127.861 166.725 127.762 166.157C127.65 165.488 127.192 164.756 126.956 164.416Z" fill="#3C2A39"></path><path d="M159.575 157.188C159.752 156.105 157.074 155.662 155.068 155.751C154.64 157.637 155.72 163.572 153.716 164.524C149.618 166.468 152.069 167.993 153.381 167.984C154.991 167.972 156.684 167.881 158.864 168.084C160.98 168.283 160.973 166.814 160.155 165.584C158.824 163.579 158.494 163.864 159.575 157.188Z" fill="white"></path><path d="M160.433 167.511C160.204 167.89 159.666 168.052 158.873 167.982C157.755 167.876 156.78 167.851 155.865 167.851C155.362 167.851 154.878 167.858 154.401 167.865C154.055 167.872 153.718 167.876 153.381 167.879H153.372C152.717 167.879 151.723 167.476 151.571 166.81C151.419 166.138 152.196 165.359 153.76 164.618C155.175 163.944 155.119 160.952 155.075 158.547C155.054 157.476 155.035 156.46 155.154 155.852C156.759 155.794 158.749 156.074 159.324 156.722C159.451 156.863 159.5 157.01 159.474 157.172C158.475 163.322 158.672 163.605 159.752 165.177C159.851 165.319 159.956 165.471 160.068 165.642C160.55 166.367 160.688 167.083 160.433 167.511ZM159.925 165.06C158.882 163.546 158.695 163.273 159.677 157.204C159.715 156.98 159.649 156.771 159.481 156.584C158.845 155.868 156.782 155.571 155.063 155.646L154.983 155.651L154.965 155.728C154.824 156.35 154.843 157.37 154.864 158.552C154.911 160.896 154.965 163.815 153.669 164.428C151.541 165.441 151.244 166.307 151.368 166.856C151.55 167.652 152.663 168.089 153.372 168.089H153.384C153.718 168.087 154.057 168.08 154.403 168.075C155.748 168.052 157.135 168.028 158.852 168.187C158.988 168.201 159.111 168.208 159.226 168.208C160.068 168.208 160.445 167.897 160.613 167.617C160.915 167.111 160.777 166.33 160.243 165.528C160.129 165.357 160.024 165.202 159.925 165.06Z" fill="#3C2A39"></path><path d="M138.661 88.5303C137.698 89.2953 135.871 96.9683 134.886 97.7006C130.955 113.187 122.907 152.647 120.762 159.857C122.479 160.371 125.44 161.286 127.065 160.933C130.927 153.122 151.992 120.38 151.363 87.6016C148.849 86.8858 140.79 86.8413 138.661 88.5303Z" fill="#3C2A39"></path><path d="M148.253 89.1762C147.483 90.1377 141.522 97.8037 140.724 98.7371C143.276 115.414 146.697 117.433 148.437 130.33C148.505 130.835 148.625 131.336 148.779 131.822C152.32 142.958 153.192 153.763 153.522 160.362C157.004 160.063 157.133 160.168 160.616 159.869C164.395 145.398 162.182 98.4307 158.684 85.3795C156.071 85.2438 149.951 87.0521 148.253 89.1762Z" fill="#3C2A39"></path><path d="M156.436 80.2795C156.34 78.5882 156.6 75.2101 156.972 71.5912C157.633 65.1416 158.651 57.9061 158.651 57.9061C158.564 55.9855 154.974 54.645 151.803 53.356C151.712 53.3163 151.625 53.2765 151.539 53.2461C151.223 53.1034 150.912 52.9818 150.617 52.8578C150.437 52.7876 150.259 52.7151 150.086 52.6496L150.025 52.6285C148.199 51.9267 146.793 51.4986 146.793 51.4986C146.793 51.4986 145.809 51.8916 144.431 52.5326C143.991 52.7314 143.514 52.9607 143.014 53.2087H143C142.581 53.2765 142.188 53.356 141.823 53.4543C134.236 55.3445 137.244 62.2713 136.676 63.9556C136.533 64.3837 135.642 73.1398 134.868 81.0491C134.363 86.1348 133.904 90.8767 133.726 92.8184C133.427 96.0209 136.222 98.6456 139.4 98.1567C141.898 97.7684 144.487 97.2069 145.759 96.4396C149.139 94.3927 152.352 93.6371 154.93 93.4429C158.113 93.209 160.503 90.4509 160.321 87.2671C160.321 87.2671 156.588 82.923 156.436 80.2795Z" fill="#678ACA"></path><path d="M144.047 113.725C143.977 113.749 143.937 113.828 143.963 113.901L146.234 120.533C146.253 120.589 146.307 120.626 146.365 120.626L146.41 120.617C146.482 120.594 146.519 120.514 146.494 120.444L144.223 113.812C144.199 113.739 144.12 113.702 144.047 113.725Z" fill="white"></path><path d="M159.427 164.547C158.88 164.786 158.227 164.739 157.64 164.587C156.976 164.416 156.345 164.126 155.669 164.012C155.11 163.918 154.49 163.967 154.022 164.262C153.821 164.391 153.604 164.484 153.37 164.536C152.654 164.695 151.976 165.174 151.499 165.719C151.029 166.257 150.774 167.111 150.743 167.874C150.734 168.11 150.928 168.307 151.167 168.307L160.597 168.304C160.852 168.304 161.057 168.103 161.069 167.85C161.127 166.655 160.66 165.441 159.808 164.601C159.708 164.501 159.556 164.491 159.427 164.547Z" fill="#3C2A39"></path><path d="M157.126 100.286C156.682 100.096 155.716 101.245 155.395 101.511C154.733 102.063 154.069 102.618 153.405 103.17C153.173 103.364 152.933 103.57 152.818 103.865C152.701 104.162 152.755 104.576 153.021 104.791C153.326 104.99 155.042 103.516 155.306 103.301C155.634 103.032 158.37 100.814 157.126 100.286Z" fill="#BD695B"></path><path d="M155.154 100.482C154.71 100.295 153.744 101.444 153.426 101.71C152.762 102.262 152.097 102.815 151.436 103.369C151.202 103.563 150.961 103.769 150.846 104.064C150.732 104.361 150.783 104.775 151.05 104.99C151.356 105.189 153.07 103.715 153.335 103.5C153.664 103.231 156.399 101.013 155.154 100.482Z" fill="#BD695B"></path><path d="M154.317 99.4693C153.875 99.2821 152.907 100.431 152.589 100.697C151.925 101.25 151.263 101.804 150.598 102.356C150.365 102.55 150.126 102.754 150.009 103.051C149.894 103.348 149.948 103.762 150.213 103.977C150.519 104.176 152.236 102.702 152.498 102.487C152.827 102.218 155.561 100 154.317 99.4693Z" fill="#BD695B"></path><path d="M169.133 72.7073C165.534 66.9923 159.872 60.6012 159.872 60.6012C156.052 60.6667 160.293 67.8134 157.467 70.1153L162.454 77.9778L162.819 78.5603L163.628 79.8306L156.974 95.5299L156.972 95.5346C155.748 95.972 154.425 97.2423 153.122 98.6903C152.743 99.1161 152.067 99.4693 151.922 99.846C151.705 100.419 152.434 100.288 153.281 100.028C152.907 100.513 152.565 101.025 152.329 101.591C152.149 102.026 152.041 102.571 152.345 102.932C152.544 103.168 152.879 103.254 153.187 103.231C153.496 103.208 153.788 103.086 154.074 102.967C154.621 102.737 155.171 102.508 155.72 102.281C155.641 102.347 155.561 102.415 155.482 102.48C155.248 102.674 155.007 102.88 154.892 103.175C154.778 103.472 154.829 103.886 155.096 104.101C155.4 104.3 157.117 102.826 157.381 102.611C157.549 102.473 158.351 101.82 158.924 101.147C159.511 100.585 160.201 99.474 160.3 98.5079L160.304 98.5032V98.4985C162.631 95.682 170.929 85.328 171.989 80.0809C172.199 79.0539 171.741 77.5497 170.901 75.828C170.422 74.8455 169.812 73.7857 169.133 72.7073Z" fill="white"></path><path d="M171.888 80.0621C170.805 85.4191 161.981 96.3041 160.222 98.4306L160.194 98.4984C160.103 99.4248 159.434 100.515 158.845 101.081C158.59 101.38 158.117 101.874 157.315 102.529L157.205 102.62C155.535 104.012 155.215 104.038 155.161 104.019C154.93 103.834 154.892 103.462 154.988 103.214C155.096 102.936 155.337 102.737 155.547 102.562L156.314 101.919L154.032 102.871C153.758 102.985 153.473 103.105 153.18 103.126C152.864 103.156 152.584 103.053 152.425 102.864C152.125 102.508 152.296 101.94 152.425 101.631C152.626 101.149 152.925 100.66 153.363 100.094L153.564 99.8342L153.248 99.9301C152.357 100.201 152.081 100.169 152.011 100.091C151.966 100.047 151.997 99.9418 152.02 99.8833C152.097 99.6868 152.357 99.4809 152.633 99.261C152.834 99.1043 153.04 98.9405 153.199 98.7604C154.289 97.5486 155.704 96.1006 157.006 95.635L157.051 95.6116L163.726 79.8726L163.747 79.8211L157.605 70.1363C158.908 68.9923 158.658 66.791 158.44 64.8447C158.265 63.303 158.101 61.848 158.711 61.1509C158.959 60.8701 159.324 60.7228 159.827 60.7064C160.29 61.2351 165.63 67.3431 169.047 72.7633C169.786 73.9447 170.361 74.9623 170.805 75.8746C171.71 77.7297 172.075 79.138 171.888 80.0621ZM169.222 72.651C165.658 66.9945 160.005 60.5964 159.949 60.5309L159.918 60.4958H159.871C159.282 60.5075 158.852 60.676 158.555 61.0128C157.883 61.7778 158.052 63.2797 158.232 64.8681C158.45 66.7957 158.695 68.9806 157.402 70.0333L157.329 70.0918L162.365 78.0339L163.513 79.8422L156.892 95.4526C155.559 95.9485 154.137 97.4036 153.045 98.6201C152.895 98.7885 152.696 98.9452 152.504 99.0973C152.205 99.3335 151.922 99.5581 151.826 99.8084C151.756 99.9932 151.765 100.138 151.856 100.234C152.011 100.4 152.352 100.396 153.007 100.218C152.661 100.695 152.411 101.123 152.233 101.551C151.978 102.159 151.99 102.672 152.266 102.997C152.467 103.24 152.813 103.357 153.194 103.336C153.522 103.31 153.823 103.184 154.111 103.062L155.152 102.63C155.007 102.77 154.874 102.934 154.794 103.137C154.67 103.453 154.712 103.928 155.037 104.188C155.072 104.211 155.112 104.225 155.168 104.225C155.411 104.225 155.938 103.947 157.339 102.779L157.453 102.686C158.262 102.026 158.742 101.521 158.994 101.224C159.6 100.646 160.292 99.516 160.4 98.5452C162.896 95.5228 171.03 85.363 172.092 80.1018C172.288 79.1334 171.919 77.6783 170.995 75.7834C170.546 74.8641 169.968 73.8394 169.222 72.651Z" fill="#3C2A39"></path><path d="M155.302 101.228C153.933 99.7125 153.098 97.7662 152.949 95.7567C151.368 95.2046 149.476 96.5661 148.854 98.0797C148.234 99.5932 148.549 101.292 149.087 102.812C149.705 104.555 150.64 106.244 152.118 107.416C153.597 108.59 155.69 109.17 157.542 108.574C159.394 107.98 161.041 106.057 160.615 104.26C158.557 103.82 156.667 102.742 155.302 101.228Z" fill="#3C2A39"></path><path d="M160.646 104.111C158.618 103.678 156.759 102.618 155.414 101.126C154.069 99.6331 153.246 97.7242 153.099 95.7474C153.094 95.6632 153.014 95.6047 152.937 95.6071C152.853 95.6118 152.79 95.6843 152.797 95.7685C152.949 97.8131 153.798 99.7875 155.187 101.329C156.576 102.868 158.492 103.963 160.583 104.41L160.616 104.412C160.686 104.412 160.749 104.363 160.763 104.291C160.782 104.209 160.728 104.129 160.646 104.111Z" fill="white"></path><path d="M167.454 72.9765C166.235 73.3485 165.141 74.0526 164.205 74.9112C163.665 75.4165 163.172 75.9756 162.84 76.6376C162.631 77.0563 162.489 77.5149 162.454 77.978L162.818 78.5605C163.955 77.7441 165.279 77.2107 166.593 76.7359C167.697 76.3288 168.839 75.9522 170.02 75.8492C170.31 75.8235 170.604 75.8141 170.901 75.8282C170.422 74.8457 169.811 73.786 169.133 72.7075C168.567 72.7169 167.996 72.8151 167.454 72.9765Z" fill="#3C2A39"></path><path d="M145.886 52.547C145.586 52.395 145.067 52.4113 144.431 52.533C143.666 52.671 142.724 52.9704 141.767 53.3284C139.739 54.0863 137.627 55.1156 136.944 55.4969C135.244 56.4444 132.26 64.618 129.128 70.6535C126.944 74.855 124.21 76.6726 123.798 79.9243C123.564 81.7864 130.564 81.639 131.975 84.4509C132.964 84.1094 133.93 82.8064 134.868 81.0495C137.326 76.4457 139.622 68.7282 141.776 67.0275C143.044 66.0333 144.272 64.8987 144.92 63.4226C145.738 61.5371 145.474 59.275 144.424 57.5134C144.108 56.9777 144.511 56.18 145.016 55.3706C145.752 54.1729 146.707 52.9564 145.886 52.547Z" fill="#678ACA"></path><path d="M167.344 68.7936C166.479 67.4649 165.611 66.1361 164.741 64.8074C162.872 61.9487 160.978 59.062 158.478 56.7343C156.162 54.5751 153.23 52.9188 150.086 52.6334L150.025 52.6288C149.808 52.603 149.583 52.5937 149.359 52.589C149.541 52.8136 149.719 53.0358 149.899 53.2651C151.129 54.8909 152.119 56.622 152.76 58.5777C153.433 60.6363 153.754 62.7909 154.303 64.8822C154.918 67.2145 155.821 69.472 156.972 71.5914C158.326 74.0758 160.031 76.3731 162.028 78.3802C162.302 78.6609 162.744 78.6656 163.05 78.4153C165.174 76.6935 167.634 75.6993 170.357 75.4911C170.703 75.4677 170.892 75.0747 170.707 74.7729C169.529 72.8173 168.6 70.7142 167.344 68.7936Z" fill="#678ACA"></path><path d="M148.428 52.0439L148.264 50.4368L148.082 48.6682L143.989 48.7291L143.802 50.5584L143.582 52.734C143.011 52.8884 142.396 53.0919 141.767 53.3282V53.3329C141.781 53.3727 141.802 53.4124 141.823 53.4545C142.083 53.9739 142.546 54.3856 143.044 54.6874C143.645 55.0476 144.323 55.2769 145.016 55.3704C145.778 55.4757 146.559 55.4149 147.291 55.1856C147.944 54.9774 149.385 54.1727 149.899 53.265C150.016 53.0615 150.081 52.858 150.086 52.6498V52.6334L150.025 52.6288C149.436 52.4018 148.898 52.2077 148.428 52.0439Z" fill="white"></path><path d="M149.808 53.216C149.321 54.0722 147.911 54.8769 147.261 55.0851C146.55 55.3073 145.778 55.3728 145.03 55.2652C144.34 55.1763 143.673 54.9424 143.098 54.5962C142.717 54.3669 142.2 53.9716 141.917 53.4054L141.905 53.3867C142.525 53.1598 143.098 52.9727 143.61 52.8347L143.678 52.816L144.083 48.832L147.988 48.7759L148.332 52.1212L148.395 52.1422C148.961 52.341 149.48 52.5306 149.976 52.7224C149.96 52.8838 149.906 53.0452 149.808 53.216ZM150.044 52.5259C149.567 52.3411 149.069 52.1586 148.526 51.9668L148.175 48.563L143.893 48.6262L143.484 52.6522C142.958 52.7972 142.368 52.9914 141.73 53.23L141.662 53.2604V53.3329L141.669 53.368C141.685 53.4148 141.706 53.4593 141.73 53.5014C142.034 54.1119 142.583 54.5307 142.99 54.7763C143.589 55.1389 144.286 55.3775 145.002 55.4734C145.247 55.5062 145.495 55.5249 145.743 55.5249C146.281 55.5249 146.814 55.443 147.324 55.2863C147.963 55.0804 149.45 54.2663 149.988 53.3189C150.119 53.0897 150.187 52.8721 150.191 52.6335V52.5516L150.112 52.5329C150.086 52.5259 150.065 52.5259 150.044 52.5259Z" fill="#3C2A39"></path><path d="M156.408 88.451C154.008 88.9306 151.693 89.7493 149.53 90.8909C149.181 91.0734 148.837 91.2652 148.491 91.4571C147.38 92.077 146.232 92.7156 144.995 93.0384C143.633 93.3917 141.622 93.3472 140.446 92.0466C140.387 91.9834 140.294 91.9787 140.23 92.0349C140.167 92.091 140.163 92.1893 140.219 92.2501C141.075 93.1975 142.3 93.5391 143.47 93.5391C144.031 93.5391 144.581 93.4595 145.072 93.3309C146.344 92.9987 147.511 92.3507 148.638 91.7237C148.982 91.5319 149.324 91.3424 149.67 91.16C151.81 90.0324 154.095 89.223 156.466 88.7481C156.548 88.7341 156.602 88.6522 156.586 88.5703C156.569 88.4884 156.487 88.4346 156.408 88.451Z" fill="#3C2A39"></path><path d="M159.369 37.6289C158.412 36.9435 156.941 36.9856 156.151 37.8581C156.829 36.9715 157.205 35.8253 157.035 34.7234C156.864 33.6193 156.092 32.5946 155.03 32.2531C153.966 31.9139 152.666 32.37 152.158 33.3619C151.969 31.6916 150.107 30.5337 148.444 30.791C146.784 31.0507 145.453 32.4426 144.901 34.0333C144.45 33.3596 143.804 32.7911 143.028 32.5619C142.251 32.335 141.341 32.487 140.766 33.0578C140.193 33.6286 140.05 34.6252 140.539 35.2708C139.583 34.8381 138.343 35.1796 137.744 36.0405C137.146 36.9013 137.255 38.1833 137.99 38.9296C137.068 39.2079 136.374 40.1203 136.353 41.0864C136.329 42.0502 136.982 42.993 137.892 43.3135C137.22 43.8796 136.942 44.8668 137.213 45.6996C137.485 46.5347 138.291 47.1664 139.169 47.2295C138.698 47.8822 139.056 48.8624 139.711 49.3279C140.368 49.7934 141.215 49.873 142.017 49.9198C143.147 49.9853 144.279 50.0157 145.408 50.0063C146.157 50.0016 146.702 49.8075 147.235 49.3326C148.072 50.4017 149.069 51.2298 150.495 51.3187C151.036 51.3538 151.613 51.2626 152.025 50.9093C152.434 50.5561 152.6 49.887 152.273 49.4542C153.987 49.6975 155.835 49.9174 157.362 49.101C157.963 48.7782 158.499 48.2822 158.74 47.6413C158.978 47.0026 158.875 46.2119 158.379 45.7394C158.092 45.4633 157.668 45.3417 157.275 45.3861C157.039 45.5218 156.796 45.6411 156.546 45.744C156.733 45.5335 156.997 45.4189 157.275 45.3861C157.977 44.9884 158.609 44.4691 159.149 43.8702C159.937 42.9953 160.543 41.9146 160.655 40.7449C160.77 39.5729 160.325 38.312 159.369 37.6289Z" fill="#3C2A39"></path><path d="M157.276 45.386C156.997 45.4187 156.733 45.5334 156.546 45.7439C156.796 45.641 157.039 45.5217 157.276 45.386Z" fill="#3C2A39"></path><path d="M140.333 41.3182C139.55 41.386 138.989 42.2562 139.075 43.2645C139.162 44.2704 140.516 45.5804 141.297 45.5126C142.078 45.4448 141.992 44.0271 141.905 43.0189C141.819 42.0129 141.115 41.2503 140.333 41.3182Z" fill="white"></path><path d="M141.823 44.6046C141.753 45.1193 141.58 45.3836 141.288 45.407C140.96 45.4421 140.45 45.1661 139.999 44.7169C139.531 44.2514 139.215 43.6899 139.18 43.2548C139.138 42.7916 139.241 42.3425 139.466 41.9939C139.685 41.6547 139.997 41.4512 140.34 41.4231C140.371 41.4184 140.399 41.4184 140.429 41.4184C140.745 41.4184 141.051 41.5635 141.302 41.8372C141.585 42.1413 141.76 42.5647 141.8 43.0279C141.847 43.5776 141.884 44.1484 141.823 44.6046ZM141.456 41.6945C141.136 41.3482 140.733 41.1822 140.324 41.2126C139.912 41.25 139.545 41.4863 139.29 41.8816C139.04 42.2676 138.925 42.7635 138.97 43.2735C139.014 43.7624 139.342 44.3566 139.852 44.8643C140.326 45.3368 140.848 45.6199 141.241 45.6199C141.262 45.6199 141.285 45.6175 141.306 45.6175C141.704 45.5825 141.947 45.2503 142.029 44.6327C142.092 44.1554 142.057 43.573 142.008 43.0115C141.963 42.5015 141.767 42.0337 141.456 41.6945Z" fill="#3C2A39"></path><path d="M139.835 41.8376C139.76 41.8306 139.681 41.889 139.671 41.9709C139.664 42.0528 139.723 42.1277 139.807 42.1347C140.088 42.1651 140.397 42.2774 140.684 42.7593C140.49 42.7148 140.251 42.7406 139.945 42.8365C139.866 42.8622 139.821 42.9464 139.847 43.026C139.873 43.1055 139.954 43.1476 140.036 43.1242C140.343 43.026 140.567 43.0143 140.705 43.0845C140.867 43.1687 140.93 43.3745 141.005 43.6155C141.049 43.7535 141.093 43.8962 141.164 44.0319C141.189 44.0834 141.241 44.1138 141.297 44.1138L141.348 44.1044C141.421 44.0763 141.461 44.0015 141.442 43.9266C141.002 42.1838 140.382 41.8914 139.835 41.8376Z" fill="#3C2A39"></path><path d="M143.989 48.729L143.896 49.7185C144.623 50.3548 145.883 50.7595 146.665 50.7478C147.483 50.7361 148.077 50.5513 148.264 50.4367L148.082 48.6681L143.989 48.729Z" fill="#3C2A39"></path><path d="M145.701 35.7224C142.745 35.7668 140.383 38.043 140.422 40.8081C140.464 43.5732 142.892 45.7769 145.848 45.7348C148.805 45.6903 151.169 43.4118 151.127 40.649C151.087 37.8839 148.657 35.6779 145.701 35.7224Z" fill="#3C2A39"></path><path d="M151.861 41.1474C151.078 41.103 150.397 41.8843 150.341 42.8949C150.283 43.9032 150.238 45.3231 151.022 45.3676C151.805 45.412 153.119 44.0646 153.176 43.054C153.234 42.0457 152.645 41.1919 151.861 41.1474Z" fill="white"></path><path d="M151.059 45.2644H151.029C150.736 45.2481 150.554 44.9884 150.47 44.4761C150.395 44.0223 150.414 43.4515 150.446 42.8994C150.498 41.9753 151.099 41.2502 151.798 41.2502H151.854C152.579 41.2923 153.124 42.0993 153.073 43.0491C153.017 44.0153 151.758 45.2644 151.059 45.2644ZM151.868 41.0419C151.845 41.0419 151.822 41.0419 151.798 41.0419C150.989 41.0419 150.294 41.8514 150.236 42.8877C150.205 43.4515 150.187 44.0363 150.264 44.5088C150.364 45.1264 150.617 45.4493 151.017 45.4727H151.059C151.934 45.4727 153.222 44.0831 153.281 43.0608C153.342 41.9964 152.708 41.0911 151.868 41.0419Z" fill="#3C2A39"></path><path d="M152.374 41.6503C151.826 41.7228 151.218 42.0316 150.83 43.7885C150.814 43.861 150.856 43.9382 150.928 43.9616L150.975 43.9709C151.033 43.9709 151.087 43.9382 151.111 43.8844C151.176 43.7464 151.218 43.6013 151.256 43.4633C151.323 43.2224 151.384 43.0118 151.541 42.9253C151.677 42.8481 151.903 42.8551 152.212 42.9416C152.294 42.965 152.376 42.9183 152.397 42.8387C152.42 42.7592 152.373 42.675 152.294 42.6539C151.985 42.565 151.744 42.5486 151.553 42.5978C151.826 42.1088 152.13 41.9849 152.411 41.9498C152.495 41.9381 152.551 41.8632 152.542 41.7813C152.53 41.6971 152.453 41.6433 152.374 41.6503Z" fill="#3C2A39"></path><path d="M145.785 36.9273C142.932 36.9694 140.663 39.9848 140.717 43.6646C140.771 47.342 143.128 50.2919 145.984 50.2498C148.837 50.2054 151.106 47.1899 151.052 43.5102C150.996 39.8327 148.638 36.8852 145.785 36.9273Z" fill="white"></path><path d="M145.982 50.1444H145.923C143.159 50.1444 140.874 47.253 140.822 43.6621C140.768 40.0478 142.995 37.0722 145.788 37.0301H145.846C147.172 37.0301 148.428 37.6875 149.387 38.8875C150.367 40.1134 150.921 41.7556 150.947 43.5124C151.001 47.1267 148.774 50.1023 145.982 50.1444ZM145.846 36.8219H145.785C142.878 36.8664 140.558 39.9356 140.612 43.6668C140.668 47.37 143.044 50.355 145.923 50.355L145.984 50.3526C148.891 50.3105 151.211 47.239 151.155 43.5101C151.129 41.7064 150.559 40.0198 149.551 38.7589C148.55 37.5073 147.238 36.8219 145.846 36.8219Z" fill="#3C2A39"></path><path d="M145.771 42.9182C145.764 42.8363 145.689 42.7778 145.607 42.7825C145.526 42.7919 145.465 42.8644 145.472 42.9463L145.638 44.7663C145.65 44.8785 145.654 45.0353 145.582 45.0868C145.544 45.1148 145.476 45.1172 145.42 45.1172C145.156 45.1172 144.894 45.0493 144.665 44.9183C144.595 44.8762 144.501 44.902 144.461 44.9745C144.419 45.0447 144.445 45.1382 144.518 45.178C144.791 45.3347 145.102 45.4189 145.42 45.4189C145.521 45.4189 145.652 45.4073 145.759 45.3301C145.977 45.171 145.949 44.8668 145.937 44.7382L145.771 42.9182Z" fill="#3C2A39"></path><path d="M147.603 41.9685C147.408 41.9708 147.254 42.2352 147.259 42.558C147.263 42.8808 147.427 43.1405 147.621 43.1382C147.815 43.1335 147.97 42.8715 147.965 42.5487C147.96 42.2258 147.799 41.9662 147.603 41.9685Z" fill="#3C2A39"></path><path d="M143.558 42.0292C143.364 42.0315 143.21 42.2959 143.215 42.6187C143.219 42.9415 143.381 43.1989 143.575 43.1965C143.771 43.1942 143.926 42.9298 143.921 42.607C143.916 42.2842 143.753 42.0268 143.558 42.0292Z" fill="#3C2A39"></path><path d="M148.1 41.2572C147.785 40.9859 147.385 40.9461 146.985 41.0139C146.933 41.021 146.887 41.0888 146.875 41.1683C146.858 41.2689 146.844 41.3742 146.83 41.4748C146.814 41.5824 146.866 41.6619 146.933 41.6292C147.265 41.4725 147.607 41.4818 147.888 41.6573C148.061 41.7649 148.21 41.9333 148.327 42.1509C148.397 42.2772 148.549 42.1017 148.505 41.945C148.425 41.6526 148.283 41.4163 148.1 41.2572Z" fill="#3C2A39"></path><path d="M143.924 41.0584C143.521 41.0046 143.121 41.0537 142.813 41.3368C142.637 41.4982 142.502 41.7415 142.429 42.0339C142.392 42.1929 142.548 42.3637 142.614 42.235C142.724 42.0152 142.869 41.842 143.037 41.7298C143.315 41.545 143.655 41.5262 143.991 41.6736C144.059 41.704 144.108 41.6222 144.09 41.5169C144.073 41.414 144.055 41.311 144.036 41.2104C144.022 41.1309 143.973 41.0654 143.924 41.0584Z" fill="#3C2A39"></path><path d="M148.849 37.9073C148.526 37.912 149.277 39.7858 149.307 41.821C149.338 43.8586 150.998 44.4949 150.998 44.4949C150.998 44.4949 151.221 43.8866 150.94 41.3438C150.741 39.5518 149.174 37.9026 148.849 37.9073Z" fill="#3C2A39"></path><path d="M140.532 41.9448C140.56 43.9801 140.778 44.7146 140.778 44.7146C140.778 44.7146 141.582 43.973 141.552 41.9355C141.524 39.9002 142.017 38.0077 141.783 38.0124C141.55 38.0147 140.502 39.9073 140.532 41.9448Z" fill="#3C2A39"></path><path d="M149.251 37.4581C148.344 36.4826 146.985 36.2604 145.71 36.3376C144.015 36.4405 142.209 37.161 141.449 38.6816C141.283 39.0138 141.173 39.3951 141.264 39.7554C141.356 40.1133 141.704 40.4244 142.071 40.3706C142.775 40.2677 142.855 39.1121 143.538 38.9226C143.566 39.2501 143.589 39.5799 143.617 39.9098C143.905 40.0782 144.277 39.856 144.457 39.5753C144.639 39.2945 144.723 38.953 144.941 38.698C145.158 38.4454 145.61 38.3354 145.806 38.6068C145.514 38.8033 145.439 39.2571 145.654 39.5378C145.867 39.8185 146.325 39.8676 146.592 39.6384C146.772 39.484 146.856 39.2454 147.02 39.077C147.184 38.9062 147.516 38.8501 147.624 39.0606C147.483 39.2594 147.488 39.5495 147.635 39.746C147.78 39.9425 148.059 40.0291 148.29 39.9519C148.489 39.884 148.634 39.7179 148.786 39.5729C149.361 39.0138 150.096 39.7998 149.862 38.6769C149.766 38.2231 149.567 37.7974 149.251 37.4581Z" fill="#3C2A39"></path><path d="M144.663 47.4706C145.027 47.6531 145.238 47.8309 145.629 47.9455C146.232 48.1256 146.936 47.8776 147.294 47.3607C147.556 46.9817 147.656 46.4319 147.74 45.9804C147.083 46.9817 145.855 47.5759 144.663 47.4706Z" fill="#3C2A39"></path><path d="M147.488 44.813C146.7 44.9066 145.998 44.3404 145.904 43.5685C145.811 42.7895 146.367 42.0783 147.149 41.9847C147.205 41.9777 147.263 41.9754 147.319 41.9754C148.04 41.9754 148.645 42.5134 148.732 43.2292C148.825 44.0082 148.267 44.7194 147.488 44.813ZM147.111 41.683C146.166 41.7952 145.488 42.6585 145.603 43.6059C145.708 44.4738 146.442 45.1265 147.317 45.1265C147.385 45.1265 147.455 45.1241 147.525 45.1148C148.47 45.0001 149.148 44.1393 149.034 43.1918C148.921 42.2561 148.068 41.566 147.111 41.683Z" fill="#3C2A39"></path><path d="M143.238 44.8434C142.448 44.9369 141.746 44.3708 141.655 43.5989C141.608 43.2222 141.713 42.8503 141.947 42.5508C142.183 42.2514 142.52 42.0619 142.897 42.0175C142.955 42.0104 143.014 42.0058 143.07 42.0058C143.788 42.0058 144.396 42.5462 144.482 43.2597C144.576 44.0387 144.017 44.7498 143.238 44.8434ZM142.862 41.7133C142.403 41.7695 141.994 41.9987 141.709 42.3637C141.423 42.7263 141.297 43.1778 141.353 43.6363C141.456 44.5042 142.193 45.1592 143.065 45.1592C143.135 45.1592 143.205 45.1545 143.273 45.1452C144.221 45.0329 144.896 44.1697 144.784 43.2246C144.672 42.2865 143.816 41.5987 142.862 41.7133Z" fill="#3C2A39"></path><path d="M144.459 43.1801L144.625 43.4351C144.924 43.2386 145.341 43.2151 145.659 43.3742L145.797 43.1029C145.376 42.89 144.852 42.9204 144.459 43.1801Z" fill="#3C2A39"></path><path d="M133.252 81.0353L132.445 80.3031L130.943 78.9346L119.09 68.1315C118.84 67.8508 118.555 67.5747 118.232 67.301C118.199 67.2215 118.176 67.1373 118.127 67.0624C117.678 66.3723 117.189 65.7033 116.721 65.0225C116.637 64.9032 116.55 64.7792 116.424 64.7067C116.3 64.6342 116.122 64.6295 116.022 64.7371C115.914 64.8517 115.942 65.0342 115.973 65.1886C116.01 65.3687 116.029 65.5512 116.057 65.7337C115.559 65.3547 114.908 64.8494 114.53 64.6412C114.347 64.5079 114.127 64.3885 113.835 64.2692C112.892 63.8832 111.88 63.6657 110.862 63.6376C110.654 63.6306 110.409 63.654 110.301 63.8294C110.21 63.9721 110.254 64.1663 110.36 64.2996C110.462 64.4306 110.614 64.5149 110.764 64.5944L110.809 64.6178C110.682 64.6389 110.568 64.6856 110.502 64.7909C110.413 64.9359 110.458 65.1301 110.561 65.2611C110.664 65.3945 110.818 65.4763 110.965 65.5582C111.19 65.6798 111.417 65.8015 111.644 65.9232C111.662 65.9957 111.683 66.0682 111.711 66.1407C111.548 66.1524 111.386 66.1968 111.302 66.3302C111.213 66.4729 111.258 66.6671 111.361 66.8004C111.466 66.9314 111.618 67.0156 111.765 67.0952C111.992 67.2168 112.217 67.3384 112.443 67.4624C112.93 68.1689 113.465 68.7959 113.601 69.0719C114.024 69.9351 114.357 70.9013 115.068 71.5118C115.456 71.8463 116.223 72.2066 116.971 72.3423L116.969 72.3517L124.186 82.474L125.061 83.6974L125.428 84.2121C125.814 84.687 126.221 85.1338 126.656 85.5619C127.426 86.3292 128.27 87.0099 129.168 87.6182C131.619 86.7292 133.757 83.8331 133.572 81.3277L133.252 81.0353Z" fill="white"></path><path d="M129.182 87.5014C128.275 86.8815 127.449 86.2054 126.731 85.4896C126.305 85.0708 125.905 84.6311 125.508 84.1468L117.083 72.3355L117.109 72.27L116.99 72.2396C116.195 72.0969 115.472 71.7203 115.135 71.4325C114.588 70.9646 114.265 70.2582 113.952 69.5751C113.868 69.3903 113.783 69.2055 113.695 69.0253C113.615 68.8663 113.419 68.6066 113.168 68.2767C112.97 68.0147 112.745 67.7176 112.527 67.4018L112.492 67.3714C112.268 67.2474 112.041 67.1258 111.814 67.0042C111.683 66.934 111.536 66.8521 111.442 66.7351C111.367 66.6416 111.325 66.4895 111.391 66.3866C111.442 66.3023 111.548 66.2579 111.721 66.2462L111.859 66.2368L111.809 66.1058C111.784 66.0357 111.76 65.9655 111.744 65.8976L111.732 65.8532L111.014 65.4648C110.883 65.3947 110.736 65.3151 110.642 65.1982C110.568 65.1023 110.526 64.9502 110.591 64.8473C110.631 64.7818 110.706 64.742 110.825 64.7209L111.115 64.6695L110.811 64.5011C110.682 64.4332 110.535 64.3537 110.441 64.2344C110.366 64.1385 110.324 63.9887 110.39 63.8858C110.451 63.7875 110.584 63.7408 110.808 63.7408L110.858 63.7431C111.863 63.7688 112.853 63.9794 113.797 64.3654C114.08 64.4823 114.293 64.597 114.469 64.7256C114.81 64.9151 115.376 65.3455 115.83 65.6918L116.197 65.9725L116.16 65.7175C116.15 65.6567 116.141 65.5982 116.134 65.5374C116.118 65.4134 116.099 65.2918 116.075 65.1678C116.05 65.0344 116.026 64.8847 116.099 64.8075C116.162 64.7397 116.288 64.749 116.372 64.7981C116.48 64.859 116.56 64.9736 116.634 65.0835C116.793 65.3128 116.955 65.5421 117.114 65.7713C117.425 66.2111 117.743 66.6649 118.04 67.1211C118.068 67.1632 118.087 67.2147 118.108 67.2685C118.117 67.2942 118.127 67.3176 118.136 67.341L118.164 67.3808C118.48 67.6475 118.763 67.9235 119.011 68.1995L133.469 81.377C133.621 83.7468 131.631 86.5844 129.182 87.5014ZM133.673 81.2811L131.013 78.8576L119.16 68.0545C118.917 67.7831 118.632 67.5048 118.321 67.2381L118.302 67.1936C118.279 67.1328 118.255 67.0696 118.213 67.0065C117.916 66.548 117.596 66.0918 117.287 65.652C117.126 65.4227 116.964 65.1935 116.805 64.9642C116.721 64.8403 116.625 64.7022 116.475 64.618C116.319 64.5268 116.087 64.5151 115.947 64.6648C115.795 64.8286 115.844 65.0765 115.87 65.2099C115.891 65.3034 115.905 65.4017 115.916 65.4976C115.444 65.135 114.915 64.735 114.579 64.5502C114.403 64.4192 114.176 64.2952 113.875 64.1736C112.909 63.7782 111.894 63.5606 110.865 63.5326C110.64 63.5232 110.352 63.5466 110.21 63.7759C110.09 63.9677 110.156 64.211 110.278 64.363C110.355 64.4613 110.455 64.5361 110.556 64.597C110.495 64.6344 110.448 64.6812 110.413 64.7373C110.292 64.9315 110.359 65.1724 110.479 65.3268C110.598 65.4789 110.766 65.5701 110.914 65.6497L111.555 65.9936L111.571 66.0544C111.403 66.0871 111.286 66.1596 111.213 66.2743C111.091 66.4708 111.159 66.7117 111.281 66.8661C111.398 67.0158 111.566 67.1071 111.716 67.1889C111.933 67.3059 112.153 67.4229 112.371 67.5422C112.586 67.8533 112.808 68.1457 113.002 68.4031C113.236 68.7095 113.437 68.9762 113.507 69.1189C113.594 69.2967 113.678 69.4792 113.762 69.6616C114.085 70.3658 114.417 71.0933 115 71.5893C115.425 71.9542 116.199 72.2981 116.899 72.4361L125.344 84.2731C125.749 84.7714 126.153 85.2159 126.584 85.637C127.323 86.3739 128.174 87.0686 129.107 87.7049L129.152 87.7354L129.203 87.7166C131.769 86.7856 133.86 83.7983 133.675 81.3209L133.673 81.2811Z" fill="#3C2A39"></path><path d="M115.549 60.1172C115.212 58.8305 113.898 58.0609 112.612 58.3978C111.328 58.7323 110.558 60.047 110.893 61.3336L114.789 77.0072C115.126 78.2938 116.438 79.0635 117.724 78.7289C119.011 78.3921 119.78 77.0774 119.443 75.7931L115.549 60.1172Z" fill="#3C2A39"></path><path d="M111.274 53.3305C106.542 54.5657 101.689 51.7211 100.454 46.9909C99.2196 42.2584 102.064 37.4043 106.793 36.1691C111.524 34.9339 116.377 37.7786 117.612 42.5087C118.847 47.2412 116.003 52.0953 111.274 53.3305ZM119.064 42.1297C117.619 36.5996 111.945 33.273 106.416 34.7164C100.885 36.1621 97.559 41.8373 99.0044 47.3699C100.333 52.4579 105.24 55.6769 110.322 55.0359L116.262 78.5649L117.757 76.8643L112.155 54.6382C117.383 52.989 120.463 47.4939 119.064 42.1297Z" fill="#3C2A39"></path><path d="M112.139 54.5844L112.09 54.5984L117.694 76.8502L116.291 78.448L110.378 55.0218L110.364 54.975L110.315 54.9797C105.2 55.6254 100.361 52.348 99.0585 47.3558C97.6224 41.8537 100.929 36.2089 106.43 34.7725C111.931 33.3361 117.575 36.6416 119.011 42.1438C120.4 47.4681 117.381 52.9305 112.139 54.5844ZM119.118 42.1157C117.666 36.5551 111.962 33.2122 106.402 34.6626C100.841 36.1153 97.4985 41.8209 98.9508 47.3839C100.263 52.4135 105.128 55.7213 110.282 55.0967L116.235 78.6819L117.818 76.8806L112.223 54.6756C117.49 52.9843 120.519 47.4798 119.118 42.1157Z" fill="#3C2A39"></path><path d="M116.632 49.2042C115.442 51.2371 113.533 52.6828 111.26 53.277C106.559 54.5051 101.736 51.6769 100.509 46.9772C99.9169 44.7033 100.244 42.3312 101.437 40.296C102.628 38.2631 104.536 36.8174 106.809 36.2232C109.083 35.629 111.454 35.9589 113.487 37.1496C113.884 37.3835 114.258 37.6432 114.609 37.9286C116.052 39.1029 117.081 40.696 117.558 42.5231C118.152 44.7992 117.823 47.169 116.632 49.2042ZM113.543 37.0537C111.485 35.8466 109.083 35.5144 106.779 36.1156C104.478 36.7168 102.546 38.1812 101.339 40.2399C100.134 42.3008 99.7999 44.701 100.401 47.0052C100.899 48.9095 101.977 50.5096 103.397 51.6652C105.53 53.3986 108.432 54.1309 111.288 53.3846C113.589 52.7834 115.524 51.319 116.728 49.2604C117.935 47.2017 118.267 44.7992 117.668 42.495C117.065 40.1931 115.601 38.2608 113.543 37.0537Z" fill="#3C2A39"></path><path d="M115.76 77.1217L115.161 78.2258L116.284 78.6562L117.872 78.4972L118.372 76.7684L117.526 76.8854L115.76 77.1217Z" fill="#3C2A39"></path><path d="M110.615 52.9049C105.883 54.1401 101.03 51.2978 99.7953 46.5653C98.5604 41.8352 101.404 36.981 106.133 35.7435C110.865 34.5084 115.718 37.353 116.953 42.0855C118.188 46.8156 115.344 51.6698 110.615 52.9049ZM118.403 41.7065C116.96 36.174 111.286 32.8474 105.755 34.2931C100.226 35.7365 96.8998 41.4118 98.3428 46.9443C99.6783 52.0581 104.627 55.2817 109.735 54.601L115.687 78.1721L117.5 77.6996L111.566 54.1892C116.749 52.5143 119.797 47.0449 118.403 41.7065Z" fill="#E3E6EB"></path><path d="M111.538 54.1025L111.456 54.1283L117.39 77.6339L115.753 78.0597L109.826 54.5798L109.805 54.5002L109.723 54.5096C104.594 55.195 99.7414 51.9316 98.434 46.9208C97.0004 41.4397 100.298 35.8136 105.778 34.3819C111.26 32.9502 116.882 36.2464 118.316 41.7298C119.689 46.9956 116.712 52.4299 111.538 54.1025ZM118.491 41.683C117.037 36.1013 111.311 32.7467 105.731 34.2041C100.153 35.6615 96.7969 41.3859 98.254 46.9676C99.5777 52.0416 104.475 55.3541 109.667 54.7037L115.596 78.1954L115.619 78.2866L117.612 77.765L111.676 54.2499C116.894 52.5165 119.885 47.0143 118.491 41.683Z" fill="#3C2A39"></path><path d="M110.591 52.8159C108.327 53.4077 105.965 53.0802 103.939 51.8942C101.916 50.7081 100.476 48.8062 99.8838 46.5418C99.2921 44.2773 99.6195 41.9146 100.805 39.891C101.993 37.8652 103.893 36.4241 106.156 35.8346C110.839 34.6111 115.64 37.4254 116.863 42.1087C118.084 46.7897 115.271 51.5947 110.591 52.8159ZM106.11 35.6545C103.799 36.258 101.86 37.7295 100.649 39.7975C99.4371 41.8654 99.1027 44.2773 99.7061 46.5886C100.19 48.4483 101.238 50.0672 102.704 51.2602C103.062 51.5503 103.443 51.8146 103.848 52.0532C105.913 53.265 108.325 53.5995 110.635 52.9937C115.416 51.7468 118.29 46.8412 117.041 42.0619C115.792 37.2803 110.89 34.4076 106.11 35.6545Z" fill="#3C2A39"></path><path d="M115.973 48.778C114.78 50.8109 112.874 52.2566 110.6 52.8508C105.899 54.0789 101.077 51.253 99.849 46.5509C99.2549 44.2771 99.5846 41.905 100.775 39.8721C101.966 37.8392 103.874 36.3935 106.147 35.7993C108.421 35.2052 110.792 35.535 112.825 36.7257C113.222 36.9573 113.599 37.2193 113.95 37.5047C115.393 38.6767 116.422 40.2698 116.899 42.0992C117.493 44.373 117.163 46.7451 115.973 48.778ZM112.883 36.6275C110.823 35.4227 108.421 35.0882 106.119 35.6894C101.36 36.9339 98.4971 41.8185 99.7414 46.579C100.237 48.4832 101.318 50.0833 102.737 51.239C104.87 52.9724 107.77 53.7046 110.628 52.9607C112.93 52.3595 114.862 50.8928 116.068 48.8341C117.275 46.7755 117.607 44.373 117.006 42.0711C116.405 39.7669 114.941 37.8346 112.883 36.6275Z" fill="#3C2A39"></path><path d="M111.548 54.1353L111.498 54.1517L117.432 77.6597L115.727 78.1042L109.791 54.5868L109.777 54.54L109.728 54.547C104.58 55.2325 99.711 51.9574 98.3966 46.9301C96.9605 41.428 100.27 35.7832 105.768 34.3469C111.269 32.9105 116.913 36.2183 118.349 41.7204C119.729 47.005 116.742 52.458 111.548 54.1353ZM118.459 41.6924C117.006 36.1294 111.302 32.7865 105.74 34.2392C100.181 35.692 96.839 41.3976 98.289 46.9582C99.6128 52.0252 104.51 55.3284 109.693 54.664L115.633 78.1861L115.645 78.2422L117.568 77.7392L111.632 54.2265C116.852 52.5118 119.848 47.0167 118.459 41.6924Z" fill="#3C2A39"></path><path d="M114.52 59.855C114.186 58.5707 112.871 57.801 111.587 58.1356C110.301 58.4724 109.532 59.7848 109.866 61.0714L113.762 76.614C114.097 77.8983 115.411 78.6679 116.698 78.3334C117.982 77.9989 118.753 76.6842 118.417 75.3976L114.52 59.855Z" fill="#E3E6EB"></path><path d="M118.085 77.1754C117.774 77.7087 117.271 78.0877 116.674 78.2444C116.076 78.3988 115.453 78.3146 114.92 78.0011C114.387 77.69 114.008 77.187 113.851 76.5905L109.955 61.0479C109.632 59.8128 110.376 58.5472 111.608 58.2244C112.35 58.0302 113.103 58.222 113.655 58.6712C114.022 58.9706 114.303 59.3847 114.431 59.8783L118.328 75.4208C118.484 76.0197 118.398 76.642 118.085 77.1754ZM114.611 59.8315C114.263 58.5004 112.895 57.698 111.564 58.0466C110.231 58.3951 109.431 59.7613 109.777 61.0924L113.674 76.6373C113.812 77.1707 114.116 77.6175 114.513 77.9403C115.11 78.4269 115.921 78.6328 116.721 78.4222C118.052 78.0737 118.854 76.7075 118.506 75.3764L114.611 59.8315Z" fill="#3C2A39"></path><path d="M118.115 77.1918C117.797 77.7345 117.289 78.1181 116.684 78.2772C116.076 78.4363 115.444 78.3474 114.904 78.0316C114.364 77.7134 113.978 77.2058 113.819 76.5999L109.922 61.0574C109.763 60.4491 109.852 59.8175 110.168 59.2771C110.486 58.7367 110.996 58.3507 111.601 58.1917C112.207 58.0326 112.839 58.1215 113.381 58.4373C113.486 58.5005 113.585 58.5683 113.678 58.6455C114.064 58.9566 114.338 59.3824 114.464 59.869L118.361 75.4115C118.52 76.0198 118.433 76.6514 118.115 77.1918ZM114.576 59.8409C114.41 59.2046 114.006 58.6689 113.44 58.3367C112.871 58.0045 112.207 57.9133 111.571 58.0794C110.935 58.2455 110.402 58.6502 110.07 59.2186C109.735 59.7847 109.644 60.4491 109.81 61.0854L113.706 76.628C113.84 77.1403 114.127 77.5871 114.532 77.9146C114.63 77.9942 114.733 78.0667 114.845 78.1322C115.411 78.4644 116.076 78.5556 116.712 78.3895C117.348 78.2234 117.883 77.8187 118.216 77.2503C118.548 76.6841 118.639 76.0197 118.473 75.3834L114.576 59.8409Z" fill="#3C2A39"></path><path d="M108.264 53.1035C106.758 53.0848 105.275 52.6778 103.939 51.8941C103.83 51.8286 103.722 51.7631 103.617 51.6952C103.563 51.6531 103.512 51.611 103.458 51.5689C104.012 51.9455 104.618 52.2637 105.268 52.514C106.255 52.893 107.265 53.0825 108.264 53.1035Z" fill="#F5F7F9"></path><path d="M102.609 50.9399C101.285 49.7913 100.335 48.2731 99.8839 46.542C99.8699 46.4858 99.8558 46.4297 99.8418 46.3759C100.258 48.0485 101.159 49.5855 102.45 50.7692C102.501 50.8277 102.555 50.8838 102.609 50.9399Z" fill="#B1AAB0"></path><path d="M103.617 51.6953C103.261 51.4661 102.924 51.2134 102.609 50.9397C102.555 50.8836 102.501 50.8274 102.45 50.7689C102.763 51.059 103.1 51.3257 103.458 51.569C103.512 51.6111 103.563 51.6532 103.617 51.6953Z" fill="#B1AAB0"></path><path d="M108.376 53.1389C104.463 53.1389 100.883 50.5095 99.8489 46.5513C99.5004 45.2156 99.4699 43.8471 99.7459 42.5323C99.4886 43.8307 99.5355 45.1407 99.8418 46.3759C99.8559 46.4297 99.8699 46.4858 99.884 46.542C100.335 48.2731 101.285 49.7913 102.609 50.9399C102.924 51.2136 103.261 51.4663 103.617 51.6955C103.722 51.7634 103.829 51.8289 103.939 51.8944C105.275 52.6781 106.758 53.0851 108.264 53.1038C108.322 53.1062 108.383 53.1062 108.444 53.1062C109.665 53.1062 110.862 52.8512 111.964 52.3739C111.526 52.5681 111.07 52.7295 110.6 52.8512C109.857 53.0453 109.11 53.1389 108.376 53.1389Z" fill="#B1AAB0"></path><path d="M108.372 53.1924C107.317 53.1924 106.243 53.0029 105.198 52.6005C100.628 50.846 98.3452 45.7182 100.099 41.1471C100.45 40.2324 100.937 39.409 101.526 38.6908C100.969 39.3879 100.506 40.1833 100.169 41.0606C99.9847 41.5472 99.842 42.0384 99.7461 42.532C99.4701 43.8467 99.5006 45.2152 99.8491 46.551C100.883 50.5092 104.463 53.1386 108.376 53.1386C109.111 53.1386 109.857 53.045 110.6 52.8508C111.071 52.7292 111.527 52.5678 111.964 52.3736C113.241 51.8215 114.387 50.9723 115.29 49.8729C113.606 51.9736 111.047 53.1924 108.372 53.1924Z" fill="#B1AAB0"></path><path d="M116.861 41.4585C115.708 38.036 112.63 35.7154 109.174 35.3996C109.992 35.4674 110.815 35.6523 111.62 35.9611C114.202 36.9529 116.054 39.0209 116.861 41.4585Z" fill="#F4F5F7"></path><path d="M117.243 45.3208C117.364 44.247 117.287 43.1475 117.006 42.0715C116.405 39.7672 114.941 37.8349 112.883 36.6278C111.494 35.8137 109.948 35.3973 108.381 35.3973C107.628 35.3973 106.868 35.4956 106.119 35.6897C105.899 35.7482 105.684 35.8137 105.474 35.8863C106.421 35.547 107.424 35.3692 108.446 35.3692C108.687 35.3692 108.931 35.381 109.174 35.3997C112.631 35.7155 115.708 38.0361 116.861 41.4586C117.266 42.682 117.406 44.0014 117.243 45.3208Z" fill="#B1AAB0"></path><path d="M115.29 49.873C115.849 49.1759 116.312 48.3829 116.649 47.5033C118.403 42.9322 116.12 37.8044 111.55 36.0499C110.505 35.6475 109.431 35.4581 108.376 35.4581C105.738 35.4581 103.21 36.6441 101.526 38.691C102.567 37.3927 103.942 36.4312 105.474 35.8862C105.684 35.8136 105.899 35.7481 106.119 35.6896C106.868 35.4955 107.628 35.3972 108.381 35.3972C109.948 35.3972 111.494 35.8136 112.883 36.6277C114.941 37.8348 116.405 39.7671 117.006 42.0714C117.287 43.1474 117.364 44.2469 117.243 45.3207C117.156 46.0225 116.983 46.7243 116.719 47.4144C116.368 48.3314 115.881 49.1549 115.29 49.873Z" fill="#B1AAB0"></path><path d="M108.364 53.1035C108.332 53.1035 108.297 53.1035 108.264 53.1035C107.265 53.0825 106.255 52.893 105.268 52.514C104.618 52.2637 104.012 51.9455 103.458 51.5689C102.061 50.4296 101 48.8529 100.508 46.9768C99.9168 44.7029 100.244 42.3309 101.437 40.2956C102.627 38.2628 104.536 36.817 106.809 36.2228C107.548 36.031 108.297 35.9351 109.043 35.9351C110.448 35.9351 111.835 36.2743 113.108 36.941C114.901 38.0896 116.284 39.8886 116.864 42.1086C118.084 46.7896 115.271 51.5946 110.591 52.8158C109.854 53.0099 109.108 53.1035 108.364 53.1035Z" fill="#FBFCFD"></path><path d="M102.45 50.7688C101.158 49.5851 100.258 48.0481 99.8418 46.3755C99.3085 44.1625 99.65 41.8653 100.805 39.8909C101.993 37.865 103.893 36.424 106.156 35.8345C106.898 35.6403 107.642 35.5467 108.371 35.5467C109.63 35.5467 110.855 35.8204 111.971 36.3234C111.026 35.9912 110.037 35.8228 109.04 35.8228C108.287 35.8228 107.527 35.9187 106.779 36.1152C104.477 36.7164 102.545 38.1808 101.339 40.2394C100.134 42.3004 99.7996 44.7005 100.401 47.0048C100.78 48.4575 101.498 49.7325 102.45 50.7688Z" fill="#E0DDDF"></path><path d="M103.458 51.5691C103.1 51.3258 102.763 51.0591 102.45 50.7691C101.498 49.7327 100.78 48.4578 100.401 47.0051C99.7999 44.7008 100.134 42.3006 101.339 40.2397C102.546 38.1811 104.478 36.7166 106.779 36.1154C107.527 35.9189 108.287 35.823 109.041 35.823C110.037 35.823 111.026 35.9915 111.971 36.3236C112.364 36.5014 112.745 36.7073 113.108 36.9412C111.835 36.2745 110.448 35.9353 109.043 35.9353C108.297 35.9353 107.548 36.0312 106.809 36.223C104.536 36.8172 102.628 38.2629 101.437 40.2958C100.244 42.3311 99.9169 44.7031 100.509 46.977C101 48.8531 102.062 50.4298 103.458 51.5691Z" fill="#E0DDDF"></path><path d="M108.444 53.1062C108.383 53.1062 108.322 53.1062 108.264 53.1039C108.297 53.1039 108.332 53.1039 108.364 53.1039C109.108 53.1039 109.854 53.0103 110.591 52.8161C115.271 51.595 118.084 46.79 116.864 42.109C116.284 39.8889 114.901 38.09 113.107 36.9414C112.745 36.7074 112.364 36.5016 111.971 36.3238C110.855 35.8208 109.63 35.5471 108.371 35.5471C107.642 35.5471 106.898 35.6407 106.157 35.8349C103.893 36.4244 101.993 37.8654 100.805 39.8913C99.65 41.8657 99.3086 44.1629 99.8418 46.3759C99.5354 45.1407 99.4886 43.8307 99.7459 42.5324C99.94 41.6084 100.284 40.7124 100.775 39.8726C101.965 37.8397 103.874 36.394 106.147 35.7998C106.886 35.6056 107.637 35.5097 108.381 35.5097C109.927 35.5097 111.454 35.9214 112.824 36.7262C113.222 36.9577 113.599 37.2198 113.949 37.5052C115.392 38.6772 116.422 40.2703 116.899 42.0996C117.493 44.3735 117.163 46.7455 115.972 48.7784C115.028 50.3902 113.634 51.6324 111.964 52.374C110.862 52.8512 109.665 53.1062 108.444 53.1062Z" fill="#E0DDDF"></path><path d="M111.964 52.3738C113.634 51.6322 115.028 50.39 115.973 48.7782C117.163 46.7453 117.493 44.3732 116.899 42.0994C116.422 40.27 115.393 38.677 113.95 37.505C113.599 37.2196 113.222 36.9575 112.825 36.7259C111.454 35.9212 109.927 35.5095 108.381 35.5095C107.637 35.5095 106.886 35.6054 106.147 35.7996C103.874 36.3938 101.966 37.8395 100.775 39.8723C100.284 40.7122 99.9402 41.6081 99.7461 42.5322C99.842 42.0386 99.9847 41.5473 100.169 41.0607C100.506 40.1835 100.969 39.3881 101.526 38.691C103.21 36.6441 105.738 35.458 108.376 35.458C109.431 35.458 110.505 35.6475 111.55 36.0499C116.12 37.8044 118.403 42.9322 116.649 47.5033C116.312 48.3829 115.849 49.1759 115.29 49.873C114.387 50.9725 113.241 51.8217 111.964 52.3738Z" fill="#E0DDDF"></path><path d="M115.601 64.1641C115.241 64.4472 115.531 65.3151 115.811 65.9514C116.099 66.6017 116.667 67.1117 117.367 67.224L117.39 67.2263L117.048 65.4414C117.048 65.4414 116.211 63.6846 115.601 64.1641Z" fill="white"></path><path d="M115.89 64.2132C116.29 64.3068 116.959 65.446 117.114 65.7712L117.434 65.8624C117.371 65.7314 116.536 64.1103 115.947 63.9722C115.792 63.9348 115.65 63.9699 115.523 64.0658C115.189 64.3302 115.247 64.9805 115.699 66.0005C116.019 66.728 116.637 67.2309 117.366 67.3479L117.39 67.2263L117.387 67.1023C116.758 66.9993 116.211 66.5525 115.923 65.8999C115.542 65.0366 115.451 64.4378 115.678 64.2623C115.743 64.2085 115.813 64.1945 115.89 64.2132Z" fill="#3C2A39"></path><path d="M112.034 66.5433C112.055 66.4848 112.076 66.4333 112.088 66.4006C112.165 66.2087 112.23 66.0146 112.237 65.8204C112.244 65.6262 112.186 65.4367 112.046 65.3128C111.933 65.2168 111.777 65.1724 111.611 65.1748C111.618 65.1163 111.627 65.0601 111.625 65.0016C111.615 64.8168 111.552 64.6273 111.419 64.4987C111.36 64.4425 111.29 64.4028 111.213 64.3747C111.253 64.2484 111.286 64.1174 111.283 63.9887C111.283 63.8366 111.234 63.6846 111.124 63.5817C110.96 63.4296 110.677 63.4179 110.465 63.5349C110.254 63.6518 110.116 63.8764 110.083 64.1033C110.051 64.3303 110.116 64.5572 110.231 64.7467C110.245 64.7701 110.266 64.8028 110.292 64.8356C110.259 64.9198 110.233 65.0063 110.224 65.0952C110.193 65.3712 110.278 65.6496 110.42 65.8883C110.453 65.9421 110.514 66.0263 110.586 66.1152C110.551 66.3819 110.617 66.6415 110.752 66.8591C110.787 66.9176 110.855 67.0088 110.939 67.1024C110.932 67.1328 110.923 67.1608 110.921 67.1936C110.89 67.4696 110.975 67.7504 111.117 67.9866C111.22 68.1574 111.58 68.6346 111.823 68.5551C112.027 68.4849 112.181 67.8322 112.235 67.6451C112.289 67.4673 112.329 67.2848 112.319 67.1C112.312 66.9152 112.249 66.7281 112.116 66.5971C112.092 66.5737 112.062 66.5596 112.034 66.5433Z" fill="white"></path><path d="M112.135 67.6169L112.111 67.7058C111.95 68.2906 111.847 68.4357 111.791 68.4544C111.66 68.5012 111.346 68.1666 111.208 67.9327C111.063 67.6941 111 67.4368 111.024 67.2028L111.033 67.1607L111.052 67.0695L111.017 67.0297C110.93 66.9385 110.869 66.8519 110.841 66.8051C110.713 66.5946 110.659 66.3606 110.689 66.1291L110.694 66.0846L110.666 66.0495C110.591 65.9583 110.537 65.8788 110.511 65.8343C110.366 65.5957 110.303 65.336 110.327 65.1044C110.334 65.0342 110.355 64.9594 110.39 64.8752L110.411 64.8214L110.376 64.7746C110.355 64.7442 110.334 64.7161 110.32 64.6927C110.207 64.5079 110.161 64.302 110.186 64.1172C110.217 63.909 110.343 63.7219 110.516 63.626C110.593 63.5839 110.685 63.5605 110.776 63.5605C110.886 63.5605 110.986 63.5956 111.052 63.6587C111.134 63.7336 111.178 63.8505 111.18 63.9909C111.18 64.1125 111.148 64.2365 111.115 64.3441L111.084 64.44L111.178 64.4728C111.25 64.5009 111.304 64.5313 111.346 64.5734C111.449 64.6716 111.51 64.8307 111.519 65.0062C111.522 65.0459 111.517 65.0834 111.512 65.1208L111.505 65.2799H111.62C111.767 65.2799 111.894 65.3197 111.976 65.3898C112.121 65.5185 112.137 65.7127 112.135 65.8179C112.128 66.0027 112.06 66.1969 111.992 66.363L111.905 66.5829L112.011 66.6507L112.043 66.6718C112.146 66.7747 112.207 66.9268 112.216 67.1046C112.226 67.287 112.177 67.4742 112.135 67.6169ZM112.163 66.4987L112.186 66.4402C112.259 66.2577 112.336 66.0425 112.343 65.8249C112.352 65.5793 112.27 65.3688 112.113 65.2331C112.013 65.1465 111.884 65.0927 111.728 65.0764C111.728 65.0506 111.73 65.0225 111.728 64.9968C111.718 64.7652 111.634 64.5617 111.494 64.4237C111.449 64.3816 111.4 64.3465 111.339 64.3161C111.367 64.2155 111.391 64.1032 111.388 63.9862C111.386 63.7921 111.318 63.6213 111.194 63.5067C111.007 63.3312 110.666 63.3055 110.416 63.4435C110.186 63.5698 110.018 63.8154 109.981 64.0891C109.948 64.3207 110.004 64.5757 110.142 64.8003L110.175 64.8518C110.144 64.9337 110.125 65.0108 110.118 65.0834C110.09 65.3594 110.165 65.6635 110.331 65.9419C110.364 65.9981 110.418 66.0729 110.476 66.1478C110.453 66.4121 110.516 66.6765 110.663 66.9151C110.699 66.9735 110.759 67.0531 110.825 67.1303L110.815 67.1818C110.787 67.4601 110.862 67.7643 111.028 68.0403C111.031 68.0473 111.414 68.6672 111.765 68.6672C111.798 68.6672 111.826 68.6626 111.856 68.6532C112.05 68.5877 112.174 68.2625 112.312 67.7596L112.336 67.6753C112.382 67.5186 112.434 67.3104 112.425 67.0952C112.413 66.8636 112.331 66.6601 112.191 66.5244L112.163 66.4987Z" fill="black"></path><path d="M126.787 1.68744C119.972 1.68744 114.427 7.234 114.427 14.0485C114.427 20.8653 119.972 26.4119 126.787 26.4119C126.998 26.4119 127.206 26.3979 127.414 26.3838L127.664 26.3674L127.713 26.4283C129.757 28.9758 132.113 29.2495 133.032 29.2495C133.102 29.2495 133.163 29.2495 133.217 29.2472C132.637 28.019 133.114 25.9464 133.638 24.379L133.656 24.3299L133.698 24.2995C137.111 21.9929 139.145 18.1611 139.145 14.0485C139.145 7.234 133.603 1.68744 126.787 1.68744Z" fill="white"></path><path d="M133.612 24.1731L133.525 24.2315L133.492 24.3298C132.779 26.4609 132.611 28.061 132.987 29.0974C132.061 29.088 129.804 28.7886 127.835 26.3323L127.734 26.2083L127.575 26.2176L127.402 26.2293C127.199 26.2434 126.995 26.2574 126.787 26.2574C120.056 26.2574 114.581 20.781 114.581 14.0484C114.581 7.31813 120.056 1.84174 126.787 1.84174C133.518 1.84174 138.993 7.31813 138.993 14.0484C138.993 18.1118 136.982 21.8945 133.612 24.1731ZM126.787 1.53292C119.876 1.53292 114.275 7.138 114.275 14.0484C114.275 20.9612 119.876 26.5662 126.787 26.5662C127.058 26.5662 127.327 26.5428 127.594 26.5241C129.673 29.1161 132.068 29.4038 133.032 29.4038C133.308 29.4038 133.467 29.3804 133.467 29.3804C132.739 28.2458 133.235 26.0679 133.785 24.4281C137.113 22.1776 139.3 18.3692 139.3 14.0484C139.3 7.138 133.698 1.53292 126.787 1.53292Z" fill="#3C2A39"></path><path d="M126.726 19.6464C125.793 19.6347 125.028 20.4207 125.019 21.4009C125.007 22.3811 125.753 23.1858 126.684 23.1952C127.615 23.2069 128.377 22.4209 128.391 21.4407C128.401 20.4605 127.655 19.6558 126.726 19.6464Z" fill="#3C2A39"></path><path d="M126.827 4.48288C124.986 4.46183 123.494 4.97178 122.35 6.01044C121.204 7.04911 120.58 8.32407 120.472 9.8306L123.564 10.2704C123.793 9.22003 124.2 8.44103 124.78 7.93573C125.363 7.4281 126.081 7.18012 126.939 7.18948C127.826 7.20117 128.53 7.4538 129.049 7.95442C129.566 8.4527 129.821 9.04692 129.814 9.73703C129.806 10.2353 129.654 10.6868 129.353 11.0962C129.156 11.3558 128.562 11.9009 127.568 12.7314C126.574 13.5618 125.91 14.3128 125.573 14.9818C125.236 15.6509 125.063 16.5094 125.052 17.5527C125.049 17.6557 125.052 17.9364 125.054 18.3996L128.113 18.437C128.109 17.4592 128.195 16.7808 128.373 16.4041C128.548 16.0275 128.995 15.5316 129.715 14.9163C131.105 13.7303 132.014 12.7875 132.442 12.0951C132.873 11.4003 133.09 10.6611 133.1 9.87739C133.116 8.46209 132.559 7.21521 131.427 6.13677C130.295 5.056 128.761 4.50627 126.827 4.48288Z" fill="#3C2A39"></path><path d="M66.8251 33.9047C65.8218 40.2209 59.8883 44.5277 53.5759 43.5241C47.2611 42.5205 42.9578 36.5856 43.9588 30.2694C44.9621 23.9555 50.8933 19.6488 57.208 20.6524C63.5228 21.656 67.8285 27.5885 66.8251 33.9047ZM70.3754 25.6001L73.4439 22.9426L69.6807 17.7539L66.203 19.8476C64.8044 18.6101 63.193 17.6089 61.4062 16.9048L61.6961 12.853L55.3604 11.8471L54.3781 15.7866C52.4673 15.9035 50.6196 16.3573 48.9076 17.0989L46.2484 14.0297L41.061 17.7961L43.1566 21.2746C41.917 22.6736 40.916 24.283 40.212 26.0726L36.1612 25.7825L35.1555 32.1198L39.0941 33.1023C39.211 35.0112 39.6647 36.8593 40.4061 38.574L37.3376 41.2339L41.1031 46.4202L44.5808 44.3265C45.9794 45.564 47.5955 46.5676 49.3754 47.2717L49.0877 51.3234L55.4235 52.3293L56.4058 48.3876C58.3236 48.2729 60.1642 47.8191 61.8762 47.0752L64.5354 50.1444L69.7206 46.3804L67.6273 42.8995C68.8646 41.5006 69.8702 39.8841 70.5719 38.1038L74.6226 38.3916L75.6283 32.0566L71.6898 31.0741C71.5729 29.1559 71.1192 27.3148 70.3754 25.6001Z" fill="#FBB53B"></path><path d="M36.0328 27.4926L35.7545 27.4482L34.9944 32.2251L37.7986 32.9246L37.8687 32.6485L35.3171 32.0122L36.0328 27.4926Z" fill="#361E4D"></path><path d="M45.6873 45.0446L45.5049 45.2622C45.5236 45.2762 47.2005 46.6751 49.2282 47.3723L48.9476 51.3141L49.2306 51.3328L49.5253 47.1711L49.4224 47.1383C47.3993 46.4716 45.706 45.061 45.6873 45.0446Z" fill="#361E4D"></path><path d="M65.5551 26.8468C65.5972 26.9216 69.6621 34.4028 63.0059 40.6184L63.2 40.8267C70.0152 34.4613 65.8452 26.7836 65.8031 26.7064L65.5551 26.8468Z" fill="#3C2A39"></path><path d="M71.3321 24.5849L70.2048 25.5628L70.2446 25.6564C70.2493 25.6704 70.8035 26.9874 71.2432 28.6133L71.5168 28.5408C71.1403 27.1465 70.6819 25.9768 70.5462 25.6423L71.5168 24.8002L71.3321 24.5849Z" fill="#361E4D"></path><path d="M76.1056 37.554L72.0712 37.2663L72.0384 37.3716C72.0314 37.3973 71.2011 39.9191 69.1266 42.1181L69.0518 42.1953L71.1357 45.6575L66.154 49.2741L63.5018 46.2119L63.4012 46.2704C63.3801 46.2821 61.1841 47.5337 57.9963 47.5641L57.8887 47.5664L56.911 51.4895L50.8279 50.5233L51.1132 46.4926L51.0126 46.4552C50.9869 46.4459 48.2108 45.4283 46.2673 43.5404L46.1877 43.4655L42.7263 45.5499L39.1106 40.5694L42.165 37.9213L42.1182 37.8254C42.1065 37.7997 40.9769 35.4299 40.8202 32.4028L40.8132 32.2999L36.8957 31.322L37.8616 25.2374L41.8891 25.5252L41.9264 25.4269C41.9381 25.3965 43.1941 22.1893 44.8359 20.6804L44.9201 20.6032L42.8339 17.1339L47.8155 13.5197L50.4654 16.5795L50.566 16.5211C50.5847 16.5094 52.6685 15.3537 55.9755 15.2274L56.0808 15.2227L57.0584 11.302L63.1416 12.2705L62.854 16.3011L62.9545 16.3362C62.9826 16.3456 65.8289 17.3796 67.6999 19.2487L67.7771 19.3283L71.2409 17.2416L74.8566 22.2244L71.7998 24.8725L71.8513 24.9731C71.863 24.9941 73.0511 27.2773 73.1493 30.3863L73.1517 30.4916L77.0738 31.4694L76.1056 37.554ZM72.1507 24.9403L75.2355 22.2688L71.318 16.8696L67.8192 18.9727C66.1096 17.3071 63.6702 16.3105 63.1487 16.1093L63.4387 12.0319L56.8479 10.9862L55.861 14.9513C52.9188 15.0823 50.9869 15.9877 50.5285 16.2239L47.8576 13.1407L42.4597 17.0591L44.5622 20.5541C43.0561 21.9951 41.9264 24.676 41.7042 25.2304L37.6254 24.938L36.5776 31.5326L40.5442 32.5221C40.7056 35.2077 41.6084 37.3716 41.8212 37.8488L38.7317 40.525L42.6492 45.9242L46.148 43.8188C47.9184 45.4984 50.304 46.4833 50.8185 46.6821L50.5285 50.7596L57.1215 51.8076L58.1086 47.8448C60.9221 47.791 62.9686 46.8131 63.4387 46.5699L66.1095 49.6531L71.5075 45.7324L69.4026 42.2327C71.2315 40.2606 72.0899 38.064 72.27 37.5634L76.3441 37.8535L77.3895 31.2589L73.4253 30.2717C73.3154 27.523 72.3775 25.4152 72.1507 24.9403Z" fill="#3C2A39"></path><path d="M58.5717 42.7333C52.3225 43.6082 46.5246 39.2336 45.6499 32.9829C44.7752 26.7322 49.1464 20.933 55.398 20.0581C61.6472 19.1832 67.4451 23.5577 68.3198 29.8084C69.1945 36.0592 64.821 41.8584 58.5717 42.7333ZM55.3583 19.7797C48.9546 20.678 44.4759 26.6176 45.3716 33.0204C46.2674 39.4278 52.2079 43.9076 58.6092 43.0117C65.0128 42.1157 69.4939 36.1738 68.5982 29.7687C67.7001 23.3636 61.7619 18.8837 55.3583 19.7797Z" fill="#3C2A39"></path><path d="M111.5 166.789V201.21L81.5 218.423L51.5 201.21V166.789L81.5 149.576L111.5 166.789Z" fill="white" stroke="#939598"></path><path d="M88.8359 170.801V174.727C87.4427 173.984 85.9779 173.613 84.4414 173.613C82.0586 173.613 80.151 174.577 78.7188 176.504C77.2865 178.431 76.5703 181.016 76.5703 184.258H76.6484C77.9115 181.914 79.9948 180.742 82.8984 180.742C85.2812 180.742 87.1758 181.536 88.582 183.125C89.9883 184.714 90.6914 186.836 90.6914 189.492C90.6914 192.279 89.819 194.551 88.0742 196.309C86.3424 198.066 84.1419 198.945 81.4727 198.945C78.5169 198.945 76.1992 197.826 74.5195 195.586C72.8398 193.346 72 190.202 72 186.152C72 181.243 73.0938 177.324 75.2812 174.395C77.4818 171.465 80.3919 170 84.0117 170C86.043 170 87.651 170.267 88.8359 170.801ZM81.5312 184.297C80.125 184.297 78.9792 184.792 78.0938 185.781C77.2214 186.758 76.7852 187.917 76.7852 189.258C76.7852 190.938 77.2214 192.376 78.0938 193.574C78.9661 194.759 80.125 195.352 81.5703 195.352C82.9375 195.352 84.0443 194.837 84.8906 193.809C85.737 192.767 86.1602 191.452 86.1602 189.863C86.1602 188.118 85.7565 186.758 84.9492 185.781C84.1419 184.792 83.0026 184.297 81.5312 184.297Z" fill="#D82532"></path></svg>