<svg xmlns="http://www.w3.org/2000/svg" width="184" height="234" viewBox="0 0 184 234" fill="none"><path d="M9.17505 184.435H171.695V183.202H9.17505V184.435Z" fill="#3C2A39"></path><path d="M152.066 79.4109C114.48 66.1144 145.935 33.8037 100.224 7.17101C46.9787 -23.8517 10.6811 53.3018 4.24036 95.1021C-1.74887 133.982 4.81344 164.746 82.6386 181.279C160.464 197.811 216.228 102.108 152.066 79.4109Z" fill="#E6EBF0"></path><path d="M165.346 41.5933C145.912 22.5643 137.846 -2.04592 133.299 20.9115C130.279 36.1487 135.571 64.5483 165.346 74.2688C195.121 83.9893 184.783 60.6199 165.346 41.5933Z" fill="#E6EBF0"></path><path d="M133.954 129.358H147.466V135.972H133.954V129.358ZM133.078 136.848H148.341V128.482H133.078V136.848Z" fill="#AAB6C2"></path><path d="M144.406 136.848H157.918V143.461H144.406V136.848ZM143.531 144.337H158.794V135.972H143.531V144.337Z" fill="#AAB6C2"></path><path d="M96.3141 57.4682H109.826V64.0842H96.3141V57.4682ZM95.4382 64.9602H110.702V56.5947H95.4382V64.9602Z" fill="#AAB6C2"></path><path d="M69.4915 149.814H83.0033V156.43H69.4915V149.814ZM68.6157 157.306H83.879V148.941H68.6157V157.306Z" fill="#AAB6C2"></path><path d="M83.8939 149.814H97.4056V156.43H83.8939V149.814ZM83.0181 157.306H98.2814V148.941H83.0181V157.306Z" fill="#AAB6C2"></path><path d="M76.6841 157.306H90.1959V163.92H76.6841V157.306ZM75.8083 164.796H91.0717V156.43H75.8083V164.796Z" fill="#AAB6C2"></path><path d="M44.9168 97.9609H58.431V104.574H44.9168V97.9609ZM44.041 105.45H59.3043V97.0849H44.041V105.45Z" fill="#AAB6C2"></path><path d="M34.4642 105.45H47.9759V112.064H34.4642V105.45ZM33.5884 112.94H48.8518V104.574H33.5884V112.94Z" fill="#AAB6C2"></path><path d="M41.9693 27.602H55.4811V34.2155H41.9693V27.602ZM41.0935 35.0916H56.3569V26.726H41.0935V35.0916Z" fill="#AAB6C2"></path><path d="M34.7594 35.0915H48.2711V41.705H34.7594V35.0915ZM33.8835 42.5811H49.1469V34.2155H33.8835V42.5811Z" fill="#AAB6C2"></path><path d="M116.649 35.553L22.4237 35.4935C18.7369 35.4935 15.7448 38.4813 15.7423 42.169L15.6604 176.459C15.6579 180.147 18.6451 183.14 22.3344 183.142L116.557 183.202C120.244 183.204 123.236 180.214 123.238 176.526L123.32 42.2361C123.323 38.5484 120.335 35.5555 116.649 35.553Z" fill="#AAB6C2"></path><path d="M114.14 39.0125L24.927 38.9579C22.25 38.9579 20.0716 41.1342 20.0716 43.8094L19.9897 174.824C19.9897 176.122 20.4934 177.34 21.4089 178.259C22.3269 179.177 23.5451 179.683 24.8402 179.683L114.056 179.738C116.73 179.738 118.909 177.561 118.911 174.886L118.991 43.8715C118.993 42.5736 118.487 41.3551 117.571 40.4369C116.656 39.5187 115.435 39.0125 114.14 39.0125Z" fill="white"></path><path d="M118.695 174.886C118.695 177.442 116.611 179.524 114.051 179.524L24.8402 179.47C22.2822 179.467 20.2031 177.385 20.2031 174.824L20.285 43.8096C20.2875 41.2535 22.3666 39.1714 24.927 39.1714L114.14 39.226C116.698 39.2285 118.78 41.3131 118.777 43.8716L118.695 174.886ZM114.14 38.7992L24.927 38.7446C22.1284 38.7446 19.8582 41.0103 19.8557 43.8096L19.7764 174.824C19.7739 177.623 22.0415 179.897 24.8402 179.897L114.051 179.954H114.056C116.854 179.954 119.122 177.683 119.125 174.886L119.206 43.8716C119.206 41.0723 116.939 38.7992 114.14 38.7992Z" fill="#3C2A39"></path><path d="M118.911 174.886C118.911 177.564 116.731 179.743 114.051 179.74L24.8404 179.686C22.1633 179.683 19.9875 177.502 19.9875 174.824L20.0694 43.8096C20.0719 41.1319 22.2502 38.9555 24.9272 38.9555L114.14 39.0126C116.817 39.0126 118.993 41.1939 118.993 43.8716L118.911 174.886ZM114.14 38.5858L24.9297 38.5311C22.017 38.5287 19.6451 40.8961 19.6426 43.8096L19.5632 174.824C19.5608 177.737 21.9301 180.107 24.8404 180.11L114.051 180.165C116.964 180.167 119.336 177.8 119.338 174.886L119.418 43.8716C119.42 40.9582 117.053 38.5882 114.14 38.5858Z" fill="#3C2A39"></path><path d="M74.0665 26.7806C73.3966 28.7212 71.5507 30.1159 69.3823 30.1159C67.2163 30.1134 65.3705 28.7163 64.7031 26.7756C64.5492 26.3364 64.4574 25.8723 64.4376 25.3909C64.316 22.7157 66.4274 20.3656 69.097 20.2118C71.9626 20.048 74.3419 22.3311 74.3419 25.1626C74.3394 25.7284 74.2476 26.2743 74.0665 26.7806ZM87.5608 29.3168C87.1093 27.8154 85.7298 26.788 84.1643 26.7856L79.9614 26.783C79.4156 26.783 78.9665 26.3289 79.0037 25.783C79.0161 25.5944 79.0211 25.4033 79.0236 25.2122C79.0484 20.589 75.7337 16.5116 71.1885 15.6853C65.0851 14.5735 59.7534 19.2514 59.7484 25.1526C59.7484 25.3487 59.7559 25.5398 59.7658 25.7309C59.8005 26.2917 59.3713 26.7706 58.8106 26.7706L54.6027 26.7682C53.0347 26.7682 51.6528 27.7931 51.2037 29.2945L47.6409 41.1516C47.177 42.7001 48.3331 44.2586 49.9508 44.2586L88.7939 44.2834C90.4091 44.2834 91.5702 42.7275 91.1062 41.179L87.5608 29.3168Z" fill="#D82532"></path><path d="M90.5902 43.2065C90.1634 43.7798 89.5085 44.1073 88.7939 44.1073L49.9508 44.085C49.2362 44.0825 48.5837 43.7549 48.157 43.1817C47.7303 42.6084 47.6037 41.8863 47.8097 41.2013L51.3724 29.3442C51.8041 27.9073 53.1017 26.942 54.6002 26.9444L58.8106 26.947C59.1232 26.947 59.4134 26.8204 59.6268 26.5945C59.8451 26.3613 59.9618 26.0436 59.9419 25.721C59.9295 25.5324 59.9245 25.3438 59.9245 25.1527C59.927 22.3435 61.17 19.6957 63.336 17.889C65.4969 16.0874 68.3477 15.3454 71.1562 15.8566C75.565 16.6606 78.8723 20.6809 78.8474 25.2098C78.845 25.4009 78.84 25.587 78.8276 25.7731C78.8077 26.0784 78.9144 26.3712 79.1253 26.597C79.3411 26.8278 79.6463 26.9594 79.9614 26.9594L84.1643 26.9618C85.6653 26.9618 86.9629 27.9297 87.3896 29.3665L90.9375 41.2287C91.1434 41.9136 91.0144 42.6332 90.5902 43.2065ZM87.7271 29.2647C87.2532 27.679 85.8216 26.6119 84.1643 26.6094L79.9614 26.6069C79.7431 26.6069 79.5322 26.5176 79.3833 26.3563C79.237 26.2024 79.165 26.0039 79.1774 25.7955C79.1898 25.6019 79.1972 25.4083 79.1997 25.2123C79.2245 20.5146 75.7933 16.3455 71.2182 15.5116C68.3055 14.9806 65.3506 15.7499 63.1102 17.6185C60.8649 19.4922 59.5747 22.2393 59.5747 25.1527C59.5747 25.3513 59.5797 25.5473 59.5896 25.7408C59.6045 25.9667 59.5251 26.1901 59.3713 26.3514C59.2249 26.5102 59.024 26.5945 58.8106 26.5945L54.6027 26.5921C52.9454 26.5921 51.5114 27.6567 51.035 29.2425L47.4722 41.0996C47.2365 41.8912 47.3804 42.7276 47.8742 43.3901C48.3679 44.0552 49.1246 44.4349 49.9508 44.4349L88.7939 44.4597C89.6201 44.4597 90.3768 44.08 90.8705 43.4174C91.3643 42.7548 91.5131 41.921 91.275 41.1269L87.7271 29.2647Z" fill="#3C2A39"></path><path d="M73.9029 26.7209L73.9004 26.7235C73.238 28.6467 71.4219 29.9396 69.3824 29.9396C67.3455 29.9371 65.5319 28.6442 64.8694 26.716C64.7206 26.2916 64.6337 25.8424 64.6114 25.3809C64.4973 22.8198 66.5565 20.5318 69.1071 20.3879C69.2038 20.3804 69.2981 20.3779 69.3924 20.3779C70.6155 20.3804 71.7692 20.8371 72.6673 21.6858C73.6349 22.599 74.1659 23.8348 74.1659 25.1625C74.1659 25.7035 74.0765 26.2271 73.9029 26.7209ZM69.0872 20.0355C66.3481 20.1918 64.1375 22.6486 64.2616 25.3983C64.2839 25.8921 64.3757 26.376 64.537 26.8301C65.2465 28.8998 67.1942 30.2895 69.3824 30.292C71.5707 30.292 73.5208 28.9048 74.2329 26.8376C74.4214 26.309 74.5157 25.7432 74.5157 25.1625C74.5182 23.7579 73.9302 22.398 72.908 21.4301C71.8709 20.4499 70.5113 19.9561 69.0872 20.0355Z" fill="#3C2A39"></path><path d="M110.597 115.24L28.4949 114.565C27.4033 114.555 26.5026 115.444 26.4927 116.536C26.4853 117.628 27.371 118.528 28.4627 118.536L110.565 119.211C111.657 119.221 112.557 118.335 112.567 117.243C112.575 116.151 111.689 115.25 110.597 115.24Z" fill="#AAB6C2"></path><path d="M110.508 126.04L28.4056 125.363C27.3139 125.355 26.4133 126.241 26.4058 127.333C26.3959 128.425 27.2817 129.326 28.3733 129.336L110.476 130.011C111.567 130.018 112.468 129.132 112.478 128.041C112.488 126.949 111.6 126.048 110.508 126.04Z" fill="#AAB6C2"></path><path d="M110.419 136.838L28.3187 136.163C27.2271 136.153 26.3239 137.041 26.3165 138.133C26.3066 139.225 27.1923 140.126 28.284 140.134L110.386 140.809C111.478 140.818 112.379 139.932 112.389 138.841C112.396 137.749 111.513 136.848 110.419 136.838Z" fill="#AAB6C2"></path><path d="M110.332 147.636L28.2293 146.961C27.1376 146.953 26.237 147.839 26.2271 148.931C26.2197 150.023 27.1029 150.924 28.1971 150.934L110.3 151.609C111.391 151.616 112.292 150.733 112.299 149.638C112.309 148.546 111.423 147.645 110.332 147.636Z" fill="#AAB6C2"></path><path d="M110.242 158.436L28.1399 157.761C27.0483 157.753 26.1477 158.637 26.1377 159.731C26.1303 160.823 27.016 161.724 28.1077 161.731L110.21 162.406C111.302 162.416 112.202 161.53 112.21 160.438C112.22 159.346 111.334 158.446 110.242 158.436Z" fill="#AAB6C2"></path><path d="M110.521 169.238L28.418 168.563C27.3264 168.553 26.4257 169.439 26.4158 170.531C26.4084 171.623 27.2941 172.524 28.3858 172.533L110.488 173.208C111.577 173.218 112.478 172.332 112.488 171.241C112.498 170.146 111.612 169.245 110.521 169.238Z" fill="#AAB6C2"></path><path d="M111.081 70.5813L75.8975 70.291C74.8058 70.2836 73.9052 71.1695 73.8953 72.2614C73.8879 73.3533 74.7736 74.2541 75.8652 74.2641L111.049 74.5519C112.141 74.5618 113.041 73.6759 113.051 72.584C113.061 71.4921 112.175 70.5913 111.081 70.5813Z" fill="#AAB6C2"></path><path d="M111.019 78.1849L75.8355 77.897C74.7439 77.8871 73.8433 78.773 73.8333 79.8649C73.8234 80.9568 74.7116 81.8577 75.8032 81.8676L110.987 82.1579C112.079 82.1654 112.979 81.2794 112.989 80.1875C112.996 79.0956 112.111 78.1948 111.019 78.1849Z" fill="#AAB6C2"></path><path d="M110.957 85.7886L75.7735 85.5007C74.6818 85.4908 73.7788 86.3767 73.7713 87.4686C73.7614 88.5606 74.6471 89.4614 75.7388 89.4713L110.925 89.7592C112.017 89.7691 112.917 88.8832 112.925 87.7913C112.934 86.6993 112.049 85.7985 110.957 85.7886Z" fill="#AAB6C2"></path><path d="M110.895 93.3921L75.709 93.1017C74.6198 93.0943 73.7168 93.9802 73.7093 95.0722C73.6994 96.1641 74.5851 97.0649 75.6767 97.0748L110.863 97.3627C111.955 97.3726 112.855 96.4867 112.865 95.3948C112.872 94.3029 111.987 93.402 110.895 93.3921Z" fill="#AAB6C2"></path><path d="M110.833 100.996L75.647 100.708C74.5553 100.698 73.6547 101.584 73.6473 102.676C73.6374 103.768 74.5231 104.669 75.6147 104.679L110.798 104.966C111.892 104.976 112.793 104.09 112.801 102.999C112.81 101.907 111.925 101.006 110.833 100.996Z" fill="#AAB6C2"></path><path d="M47.3606 66.9754C36.253 66.9754 27.2468 75.9837 27.2468 87.0963C27.2468 98.2065 36.253 107.215 47.3606 107.215C58.4707 107.215 67.4769 98.2065 67.4769 87.0963C67.4769 75.9837 58.4707 66.9754 47.3606 66.9754Z" fill="#AAB6C2"></path><path d="M47.3607 68.7275C37.238 68.7275 29.001 76.969 29.001 87.0964C29.001 97.2239 37.238 105.463 47.3607 105.463C57.4858 105.463 65.7228 97.2239 65.7228 87.0964C65.7228 76.969 57.4858 68.7275 47.3607 68.7275Z" fill="white"></path><path d="M47.3607 105.249C37.3373 105.249 29.2144 97.1221 29.2144 87.0964C29.2144 77.0706 37.3373 68.9433 47.3607 68.9433C57.3841 68.9433 65.5095 77.0706 65.5095 87.0964C65.5095 97.1221 57.3841 105.249 47.3607 105.249ZM47.3607 68.514C37.119 68.514 28.7852 76.8498 28.7852 87.0964C28.7852 97.3405 37.119 105.676 47.3607 105.676C57.6049 105.676 65.9387 97.3405 65.9387 87.0964C65.9387 76.8498 57.6049 68.514 47.3607 68.514Z" fill="#3C2A39"></path><mask id="mask0_5640_167" style="mask-type:luminance" maskUnits="userSpaceOnUse" x="29" y="68" width="37" height="38"><path d="M29.2144 87.0962C29.2144 97.122 37.3373 105.249 47.3631 105.249C57.3841 105.249 65.5095 97.122 65.5095 87.0962C65.5095 77.0705 57.3841 68.9432 47.3631 68.9432C37.3373 68.9432 29.2144 77.0705 29.2144 87.0962Z" fill="white"></path></mask><g mask="url(#mask0_5640_167)"><path d="M37.4714 99.4771L34.2485 107.724C37.4044 108.198 40.5454 107.773 43.54 108.076L44.6441 105.356C41.1334 104.607 40.5479 97.9683 37.4714 99.4771Z" fill="#3C2A39"></path></g><mask id="mask1_5640_167" style="mask-type:luminance" maskUnits="userSpaceOnUse" x="29" y="68" width="37" height="38"><path d="M29.2144 87.0962C29.2144 97.122 37.3373 105.249 47.3631 105.249C57.3841 105.249 65.5095 97.122 65.5095 87.0962C65.5095 77.0705 57.3841 68.9432 47.3631 68.9432C37.3373 68.9432 29.2144 77.0705 29.2144 87.0962Z" fill="white"></path></mask><g mask="url(#mask1_5640_167)"><path d="M37.4713 99.4771L32.0627 113.322L18.2582 108.262C18.1416 107.597 18.1987 106.885 17.7992 106.334C17.2782 105.619 16.72 104.927 16.1816 104.224C16.0873 104.103 15.988 103.974 15.8491 103.904C15.7102 103.832 15.5192 103.837 15.4174 103.956C15.3108 104.086 15.3479 104.279 15.3901 104.443C15.5514 105.078 15.6482 105.726 15.7052 106.376C15.3753 106.178 15.0304 105.984 14.6657 105.8C14.1893 105.557 12.4352 104.319 12.0556 104.309C6.20535 104.152 11.1922 108.334 11.7207 109.21C12.2516 110.096 12.6907 111.099 13.5045 111.684C14.1322 112.138 15.5589 112.59 16.5463 112.359L16.5364 112.394L32.0627 121C33.5563 121.829 35.4294 121.623 36.6774 120.452C38.6275 118.618 40.1707 116.377 41.188 113.873L44.6441 105.356C41.1334 104.607 40.5478 97.9683 37.4713 99.4771Z" fill="white"></path></g><mask id="mask2_5640_167" style="mask-type:luminance" maskUnits="userSpaceOnUse" x="29" y="68" width="37" height="38"><path d="M29.2144 87.0962C29.2144 97.122 37.3373 105.249 47.3631 105.249C57.3841 105.249 65.5095 97.122 65.5095 87.0962C65.5095 77.0705 57.3841 68.9432 47.3631 68.9432C37.3373 68.9432 29.2144 77.0705 29.2144 87.0962Z" fill="white"></path></mask><g mask="url(#mask2_5640_167)"><path d="M41.0888 113.831C40.0889 116.295 38.5358 118.556 36.6006 120.375C35.3923 121.511 33.5886 121.725 32.1149 120.908L16.6605 112.342L16.6902 112.215L16.5216 112.255C15.5639 112.481 14.1571 112.024 13.5666 111.6C12.9414 111.148 12.532 110.421 12.1375 109.719C12.0284 109.528 11.9217 109.339 11.8101 109.156C11.7133 108.992 11.4801 108.734 11.1873 108.409C10.376 107.508 9.02138 106.001 9.41338 105.145C9.65652 104.622 10.5497 104.381 12.0532 104.416C12.2715 104.421 13.1771 104.999 13.775 105.379C14.1372 105.609 14.4499 105.81 14.6186 105.895C14.961 106.068 15.2984 106.257 15.6482 106.468L15.8293 106.577L15.8119 106.369C15.7524 105.659 15.6457 105.019 15.4944 104.418C15.4572 104.274 15.4249 104.115 15.4993 104.026C15.5663 103.949 15.7028 103.949 15.7995 103.999C15.9211 104.061 16.0129 104.182 16.0948 104.292C16.2833 104.535 16.4719 104.775 16.6605 105.019C17.0103 105.468 17.3726 105.932 17.7125 106.396C17.9854 106.773 18.0325 107.235 18.0821 107.724C18.1019 107.907 18.1193 108.096 18.154 108.282L18.164 108.342L32.0255 113.421L32.1248 113.456L37.5558 99.5566C39.0841 98.8345 39.9748 100.276 41.0019 101.949C41.8877 103.391 42.89 105.019 44.4977 105.433L41.0888 113.831ZM41.1831 101.837C40.141 100.137 39.1561 98.5317 37.4243 99.3804L37.3871 99.4003L32.0007 113.186L18.3525 108.183C18.3277 108.024 18.3104 107.86 18.2955 107.701C18.2459 107.205 18.1938 106.694 17.8861 106.272C17.5437 105.803 17.1815 105.336 16.8292 104.887C16.6406 104.644 16.4521 104.403 16.266 104.16C16.1742 104.041 16.0625 103.892 15.8963 103.808C15.7251 103.721 15.477 103.721 15.3356 103.887C15.1843 104.068 15.2512 104.329 15.286 104.47C15.4224 105.001 15.5192 105.562 15.5788 106.178C15.286 106.006 15.0031 105.85 14.7153 105.704C14.5566 105.624 14.2464 105.426 13.8891 105.2C12.9811 104.619 12.3187 104.207 12.0582 104.202C10.4306 104.165 9.50516 104.438 9.21984 105.056C8.76581 106.039 10.1279 107.552 11.0285 108.552C11.3039 108.858 11.5396 109.121 11.6264 109.265C11.7381 109.448 11.8448 109.637 11.949 109.823C12.3559 110.548 12.7776 111.292 13.4425 111.774C14.033 112.2 15.4249 112.682 16.4769 112.483L32.0106 121.095C32.6408 121.444 33.3256 121.616 34.0054 121.616C35.0053 121.616 35.9877 121.246 36.7494 120.529C38.707 118.692 40.275 116.404 41.2873 113.913L44.7434 105.398L44.7905 105.279L44.6664 105.252C43.0761 104.912 42.0713 103.277 41.1831 101.837Z" fill="#3C2A39"></path></g><mask id="mask3_5640_167" style="mask-type:luminance" maskUnits="userSpaceOnUse" x="29" y="68" width="37" height="38"><path d="M29.2144 87.0962C29.2144 97.122 37.3373 105.249 47.3631 105.249C57.3841 105.249 65.5095 97.122 65.5095 87.0962C65.5095 77.0705 57.3841 68.9432 47.3631 68.9432C37.3373 68.9432 29.2144 77.0705 29.2144 87.0962Z" fill="white"></path></mask><g mask="url(#mask3_5640_167)"><path d="M52.541 91.9256C52.4567 91.8909 52.3699 91.8512 52.2905 91.8214C51.9952 91.6899 51.7049 91.5758 51.4221 91.4591C49.4447 90.6724 47.8321 90.1811 47.8321 90.1811C47.8321 90.1811 46.274 90.799 44.3586 91.7445C44.3288 91.7594 44.299 91.7743 44.2643 91.7917C43.8475 91.9952 43.3935 92.2408 42.9146 92.5163L42.8501 92.551C42.8203 92.5709 42.7856 92.5932 42.7509 92.6131C39.7091 94.3974 38.878 100.232 38.3173 101.894C38.0965 102.554 37.8508 104.195 37.6102 106.354L37.6052 106.379C37.5804 106.624 37.5506 106.88 37.5258 107.14C37.4191 108.133 37.3149 109.21 37.2082 110.344V110.379C37.1834 110.669 37.1636 110.95 37.1338 111.215C37.1288 111.255 37.1239 111.337 37.114 111.451C37.0495 112.173 36.9899 112.905 36.9279 113.645L36.9229 113.682C36.3374 120.832 35.0076 134.711 35.0076 134.711C35.0076 134.711 44.6141 135.463 47.765 134.964C56.6521 133.562 61.3562 135.235 61.3562 135.235L58.9793 96.2039C58.8999 94.3998 55.5232 93.1391 52.541 91.9256Z" fill="#678ACA"></path></g><mask id="mask4_5640_167" style="mask-type:luminance" maskUnits="userSpaceOnUse" x="29" y="68" width="37" height="38"><path d="M29.2144 87.0962C29.2144 97.122 37.3373 105.249 47.3631 105.249C57.3841 105.249 65.5095 97.122 65.5095 87.0962C65.5095 77.0705 57.3841 68.9432 47.3631 68.9432C37.3373 68.9432 29.2144 77.0705 29.2144 87.0962Z" fill="white"></path></mask><g mask="url(#mask4_5640_167)"><path d="M42.9097 92.5411C39.0418 94.2361 32.9707 107.039 32.9707 107.039L42.2498 108.232L43.0908 92.5163C43.0908 92.5163 43.0363 92.5064 42.9097 92.5411Z" fill="#678ACA"></path></g><mask id="mask5_5640_167" style="mask-type:luminance" maskUnits="userSpaceOnUse" x="29" y="68" width="37" height="38"><path d="M29.2144 87.0962C29.2144 97.122 37.3373 105.249 47.3631 105.249C57.3841 105.249 65.5095 97.122 65.5095 87.0962C65.5095 77.0705 57.3841 68.9432 47.3631 68.9432C37.3373 68.9432 29.2144 77.0705 29.2144 87.0962Z" fill="white"></path></mask><g mask="url(#mask5_5640_167)"><path d="M54.9155 100.435L57.0864 108.282C59.4608 107.624 61.9914 107.614 64.3782 107.332C63.0062 102.986 61.3265 99.0826 61.3265 99.0826C59.3144 96.1071 58.1806 101.48 54.9155 100.435Z" fill="#3C2A39"></path></g><mask id="mask6_5640_167" style="mask-type:luminance" maskUnits="userSpaceOnUse" x="29" y="68" width="37" height="38"><path d="M29.2144 87.0962C29.2144 97.122 37.3373 105.249 47.3631 105.249C57.3841 105.249 65.5095 97.122 65.5095 87.0962C65.5095 77.0705 57.3841 68.9432 47.3631 68.9432C37.3373 68.9432 29.2144 77.0705 29.2144 87.0962Z" fill="white"></path></mask><g mask="url(#mask6_5640_167)"><path d="M57.0144 93.9283C53.8312 92.2904 53.8088 99.6633 53.8088 99.6633L55.8929 107.758L65.3804 106.967C65.3804 106.967 61.8003 96.39 57.0144 93.9283Z" fill="#678ACA"></path></g><mask id="mask7_5640_167" style="mask-type:luminance" maskUnits="userSpaceOnUse" x="29" y="68" width="37" height="38"><path d="M29.2144 87.0962C29.2144 97.122 37.3373 105.249 47.3631 105.249C57.3841 105.249 65.5095 97.122 65.5095 87.0962C65.5095 77.0705 57.3841 68.9432 47.3631 68.9432C37.3373 68.9432 29.2144 77.0705 29.2144 87.0962Z" fill="white"></path></mask><g mask="url(#mask7_5640_167)"><path d="M42.3838 79.3809C41.5849 79.438 40.9944 80.3215 41.0688 81.3513C41.1408 82.3812 42.5054 83.7411 43.3068 83.6841C44.1057 83.627 44.0387 82.1753 43.9642 81.1454C43.8898 80.113 43.1827 79.3238 42.3838 79.3809Z" fill="white"></path></g><mask id="mask8_5640_167" style="mask-type:luminance" maskUnits="userSpaceOnUse" x="29" y="68" width="37" height="38"><path d="M29.2144 87.0962C29.2144 97.122 37.3373 105.249 47.3631 105.249C57.3841 105.249 65.5095 97.122 65.5095 87.0962C65.5095 77.0705 57.3841 68.9432 47.3631 68.9432C37.3373 68.9432 29.2144 77.0705 29.2144 87.0962Z" fill="white"></path></mask><g mask="url(#mask8_5640_167)"><path d="M43.8574 82.7633C43.778 83.2894 43.5969 83.555 43.2967 83.5773L43.257 83.5798C42.54 83.5798 41.2449 82.3266 41.1754 81.3439C41.1407 80.8699 41.2523 80.4132 41.488 80.0608C41.7163 79.7159 42.0388 79.5149 42.3911 79.4901C42.4159 79.4876 42.4407 79.4851 42.4656 79.4851C42.7931 79.4851 43.1106 79.639 43.3662 79.9268C43.649 80.242 43.8252 80.6763 43.8574 81.1528C43.8971 81.7161 43.9244 82.2993 43.8574 82.7633ZM43.5249 79.7829C43.2049 79.4256 42.7955 79.2519 42.3762 79.2742C41.9545 79.304 41.5774 79.5422 41.3094 79.9418C41.0489 80.3339 40.9249 80.8376 40.9596 81.3588C41.034 82.3986 42.3639 83.7932 43.2545 83.7932L43.3141 83.7907C43.7209 83.761 43.9765 83.4284 44.0683 82.7956C44.1452 82.2869 44.108 81.6714 44.0708 81.1379C44.0336 80.6143 43.84 80.1353 43.5249 79.7829Z" fill="#3C2A39"></path></g><mask id="mask9_5640_167" style="mask-type:luminance" maskUnits="userSpaceOnUse" x="29" y="68" width="37" height="38"><path d="M29.2144 87.0962C29.2144 97.122 37.3373 105.249 47.3631 105.249C57.3841 105.249 65.5095 97.122 65.5095 87.0962C65.5095 77.0705 57.3841 68.9432 47.3631 68.9432C37.3373 68.9432 29.2144 77.0705 29.2144 87.0962Z" fill="white"></path></mask><g mask="url(#mask9_5640_167)"><path d="M41.8676 79.9046C41.7832 79.8947 41.7063 79.9542 41.6988 80.0386C41.6889 80.1229 41.7485 80.1999 41.8328 80.2098C42.1206 80.2421 42.4333 80.3637 42.7211 80.86C42.5226 80.8104 42.2769 80.8327 41.9643 80.9295C41.8825 80.9518 41.8353 81.0387 41.8601 81.1181C41.8849 81.2 41.9718 81.2471 42.0512 81.2223C42.3663 81.128 42.597 81.1181 42.7384 81.1925C42.8997 81.2819 42.9642 81.4928 43.0361 81.7385C43.0783 81.8824 43.1229 82.0288 43.1899 82.1678C43.2172 82.2224 43.2718 82.2522 43.3289 82.2522L43.381 82.2447C43.4529 82.2174 43.4951 82.1405 43.4778 82.0661C43.0535 80.2768 42.4258 79.9691 41.8676 79.9046Z" fill="#3C2A39"></path></g><mask id="mask10_5640_167" style="mask-type:luminance" maskUnits="userSpaceOnUse" x="29" y="68" width="37" height="38"><path d="M29.2144 87.0962C29.2144 97.122 37.3373 105.249 47.3631 105.249C57.3841 105.249 65.5095 97.122 65.5095 87.0962C65.5095 77.0705 57.3841 68.9432 47.3631 68.9432C37.3373 68.9432 29.2144 77.0705 29.2144 87.0962Z" fill="white"></path></mask><g mask="url(#mask10_5640_167)"><path d="M50.5539 91.1242L50.353 88.8237L50.1942 87.0146H46.0087L45.7903 88.8808L45.5224 91.1887C45.1552 91.3599 44.7682 91.5435 44.3588 91.7446C44.329 91.7594 44.2992 91.7743 44.2645 91.7917C44.205 92.0051 45.6415 99.5393 45.6415 99.5393C45.6415 99.5393 52.3452 92.025 52.2907 91.8215C51.9954 91.6899 51.7051 91.5758 51.4223 91.4592C51.1221 91.3401 50.8343 91.2309 50.5539 91.1242Z" fill="white"></path></g><mask id="mask11_5640_167" style="mask-type:luminance" maskUnits="userSpaceOnUse" x="29" y="68" width="37" height="38"><path d="M29.2144 87.0962C29.2144 97.122 37.3373 105.249 47.3631 105.249C57.3841 105.249 65.5095 97.122 65.5095 87.0962C65.5095 77.0705 57.3841 68.9432 47.3631 68.9432C37.3373 68.9432 29.2144 77.0705 29.2144 87.0962Z" fill="white"></path></mask><g mask="url(#mask11_5640_167)"><path d="M45.7057 99.3059C45.1623 96.457 44.4056 92.3673 44.3684 91.861L44.4056 91.8412C44.815 91.6402 45.202 91.4566 45.5667 91.2853L45.6213 91.2605L46.1051 87.1212H50.0971L50.4469 91.134L50.4544 91.2009L50.5164 91.2258C50.7968 91.33 51.0821 91.4392 51.3848 91.5583L51.5783 91.6377C51.7619 91.7146 51.9504 91.7916 52.144 91.8735C51.6974 92.5311 48.1693 96.5414 45.7057 99.3059ZM52.3797 91.7444L52.3325 91.7221C52.1043 91.6203 51.8785 91.5285 51.6577 91.4392L51.4642 91.3598H51.4617C51.1838 91.2481 50.9159 91.1464 50.6553 91.0496L50.4593 88.8136L50.2931 86.9077H45.9141L45.4228 91.1166C45.0705 91.2803 44.7009 91.4565 44.3114 91.6501C44.2841 91.6625 44.2543 91.6774 44.222 91.6923L44.1749 91.7121L44.16 91.7618C44.1005 91.9777 45.1003 97.2859 45.5345 99.5591L45.5767 99.7725L45.7206 99.6087C52.464 92.0546 52.4144 91.8635 52.3945 91.7941L52.3797 91.7444Z" fill="#3C2A39"></path></g><mask id="mask12_5640_167" style="mask-type:luminance" maskUnits="userSpaceOnUse" x="29" y="68" width="37" height="38"><path d="M29.2144 87.0962C29.2144 97.122 37.3373 105.249 47.3631 105.249C57.3841 105.249 65.5095 97.122 65.5095 87.0962C65.5095 77.0705 57.3841 68.9432 47.3631 68.9432C37.3373 68.9432 29.2144 77.0705 29.2144 87.0962Z" fill="white"></path></mask><g mask="url(#mask12_5640_167)"><path d="M46.0086 87.0145L45.8994 88.0245C46.6338 88.6846 47.9165 89.1189 48.7129 89.1189C49.549 89.1189 50.1618 88.9377 50.3529 88.8236L50.1941 87.0145H46.0086Z" fill="#3C2A39"></path></g><mask id="mask13_5640_167" style="mask-type:luminance" maskUnits="userSpaceOnUse" x="29" y="68" width="37" height="38"><path d="M29.2144 87.0962C29.2144 97.122 37.3373 105.249 47.3631 105.249C57.3841 105.249 65.5095 97.122 65.5095 87.0962C65.5095 77.0705 57.3841 68.9432 47.3631 68.9432C37.3373 68.9432 29.2144 77.0705 29.2144 87.0962Z" fill="white"></path></mask><g mask="url(#mask13_5640_167)"><path d="M47.9561 73.7428C44.9342 73.7428 42.4829 76.0333 42.4829 78.8599C42.4829 81.6865 44.9342 83.9795 47.9561 83.9795C50.978 83.9795 53.4293 81.6865 53.4293 78.8599C53.4293 76.0333 50.978 73.7428 47.9561 73.7428Z" fill="#3C2A39"></path></g><mask id="mask14_5640_167" style="mask-type:luminance" maskUnits="userSpaceOnUse" x="29" y="68" width="37" height="38"><path d="M29.2144 87.0962C29.2144 97.122 37.3373 105.249 47.3631 105.249C57.3841 105.249 65.5095 97.122 65.5095 87.0962C65.5095 77.0705 57.3841 68.9432 47.3631 68.9432C37.3373 68.9432 29.2144 77.0705 29.2144 87.0962Z" fill="white"></path></mask><g mask="url(#mask14_5640_167)"><path d="M48.0256 74.9736C45.1054 74.9736 42.741 78.0235 42.741 81.7856C42.741 85.5477 45.1054 88.5977 48.0256 88.5977C50.9433 88.5977 53.3077 85.5477 53.3077 81.7856C53.3077 78.0235 50.9433 74.9736 48.0256 74.9736Z" fill="white"></path></g><mask id="mask15_5640_167" style="mask-type:luminance" maskUnits="userSpaceOnUse" x="29" y="68" width="37" height="38"><path d="M29.2144 87.0962C29.2144 97.122 37.3373 105.249 47.3631 105.249C57.3841 105.249 65.5095 97.122 65.5095 87.0962C65.5095 77.0705 57.3841 68.9432 47.3631 68.9432C37.3373 68.9432 29.2144 77.0705 29.2144 87.0962Z" fill="white"></path></mask><g mask="url(#mask15_5640_167)"><path d="M48.0255 88.4909C45.1699 88.4909 42.8476 85.4832 42.8476 81.7856C42.8476 78.088 45.1699 75.0803 48.0255 75.0803C50.8787 75.0803 53.201 78.088 53.201 81.7856C53.201 85.4832 50.8787 88.4909 48.0255 88.4909ZM48.0255 74.8669C45.0533 74.8669 42.6343 77.9713 42.6343 81.7856C42.6343 85.5998 45.0533 88.7043 48.0255 88.7043C50.9978 88.7043 53.4169 85.5998 53.4169 81.7856C53.4169 77.9713 50.9978 74.8669 48.0255 74.8669Z" fill="#3C2A39"></path></g><mask id="mask16_5640_167" style="mask-type:luminance" maskUnits="userSpaceOnUse" x="29" y="68" width="37" height="38"><path d="M29.2144 87.0962C29.2144 97.122 37.3373 105.249 47.3631 105.249C57.3841 105.249 65.5095 97.122 65.5095 87.0962C65.5095 77.0705 57.3841 68.9432 47.3631 68.9432C37.3373 68.9432 29.2144 77.0705 29.2144 87.0962Z" fill="white"></path></mask><g mask="url(#mask16_5640_167)"><path d="M54.1735 79.3809C53.3722 79.3238 52.665 80.113 52.5906 81.1454C52.5187 82.1753 52.4492 83.627 53.2506 83.6841C54.0495 83.7411 55.4141 82.3812 55.4885 81.3513C55.5604 80.3215 54.9724 79.438 54.1735 79.3809Z" fill="white"></path></g><mask id="mask17_5640_167" style="mask-type:luminance" maskUnits="userSpaceOnUse" x="29" y="68" width="37" height="38"><path d="M29.2144 87.0962C29.2144 97.122 37.3373 105.249 47.3631 105.249C57.3841 105.249 65.5095 97.122 65.5095 87.0962C65.5095 77.0705 57.3841 68.9432 47.3631 68.9432C37.3373 68.9432 29.2144 77.0705 29.2144 87.0962Z" fill="white"></path></mask><g mask="url(#mask17_5640_167)"><path d="M54.5656 82.8502C54.1091 83.3167 53.5906 83.5997 53.2582 83.5773C52.9604 83.555 52.7768 83.2894 52.6999 82.7633C52.6305 82.2993 52.6578 81.7161 52.6975 81.1528C52.7322 80.6763 52.9058 80.242 53.1887 79.9268C53.4467 79.639 53.7618 79.4851 54.0893 79.4851C54.1141 79.4851 54.1414 79.4876 54.1662 79.4901C54.5185 79.5149 54.8386 79.7159 55.0693 80.0608C55.3025 80.4132 55.4142 80.8699 55.3794 81.3439C55.3497 81.7906 55.037 82.3688 54.5656 82.8502ZM54.1811 79.2742C53.7717 79.2519 53.3525 79.4231 53.0299 79.7829C52.7148 80.1328 52.5213 80.6143 52.4841 81.1379C52.4469 81.6714 52.4121 82.2869 52.4866 82.7956C52.5808 83.4284 52.8339 83.761 53.2433 83.7907L53.2978 83.7932C53.6998 83.7932 54.2357 83.4929 54.717 83.0016C55.2306 82.4755 55.5581 81.86 55.5953 81.3588C55.63 80.8376 55.5085 80.3339 55.2455 79.9418C54.98 79.5422 54.6004 79.304 54.1811 79.2742Z" fill="#3C2A39"></path></g><mask id="mask18_5640_167" style="mask-type:luminance" maskUnits="userSpaceOnUse" x="29" y="68" width="37" height="38"><path d="M29.2144 87.0962C29.2144 97.122 37.3373 105.249 47.3631 105.249C57.3841 105.249 65.5095 97.122 65.5095 87.0962C65.5095 77.0705 57.3841 68.9432 47.3631 68.9432C37.3373 68.9432 29.2144 77.0705 29.2144 87.0962Z" fill="white"></path></mask><g mask="url(#mask18_5640_167)"><path d="M54.6871 79.9046C54.1289 79.9691 53.5011 80.2768 53.0769 82.0661C53.0595 82.1405 53.1017 82.2174 53.1761 82.2447L53.2257 82.2522C53.2828 82.2522 53.3374 82.2224 53.3647 82.1678C53.4317 82.0288 53.4764 81.8824 53.5185 81.7385C53.593 81.4928 53.655 81.2819 53.8187 81.1925C53.9577 81.1181 54.1884 81.128 54.5035 81.2223C54.5854 81.2471 54.6697 81.2 54.6946 81.1181C54.7194 81.0387 54.6747 80.9518 54.5928 80.9295C54.2777 80.8327 54.0321 80.8129 53.8336 80.86C54.1214 80.3637 54.434 80.2421 54.7218 80.2098C54.8062 80.1999 54.8682 80.1229 54.8583 80.0386C54.8484 79.9542 54.7739 79.8972 54.6871 79.9046Z" fill="#3C2A39"></path></g><mask id="mask19_5640_167" style="mask-type:luminance" maskUnits="userSpaceOnUse" x="29" y="68" width="37" height="38"><path d="M29.2144 87.0962C29.2144 97.122 37.3373 105.249 47.3631 105.249C57.3841 105.249 65.5095 97.122 65.5095 87.0962C65.5095 77.0705 57.3841 68.9432 47.3631 68.9432C37.3373 68.9432 29.2144 77.0705 29.2144 87.0962Z" fill="white"></path></mask><g mask="url(#mask19_5640_167)"><path d="M47.919 81.1008C47.914 81.0164 47.8346 80.9519 47.7552 80.9594C47.6709 80.9668 47.6064 81.0388 47.6138 81.1232L47.7552 82.9868C47.7651 83.101 47.7676 83.2623 47.6932 83.3144C47.6535 83.3417 47.584 83.3467 47.527 83.3442C47.2565 83.3392 46.9911 83.2648 46.7603 83.1258C46.6859 83.0836 46.5916 83.1085 46.5494 83.1804C46.5048 83.2549 46.5296 83.3492 46.6015 83.3914C46.8819 83.5552 47.1995 83.6445 47.522 83.6494H47.5443C47.6436 83.6494 47.7676 83.637 47.8719 83.5651C48.0951 83.4063 48.0728 83.096 48.0629 82.962L47.919 81.1008Z" fill="#3C2A39"></path></g><mask id="mask20_5640_167" style="mask-type:luminance" maskUnits="userSpaceOnUse" x="29" y="68" width="37" height="38"><path d="M29.2144 87.0962C29.2144 97.122 37.3373 105.249 47.3631 105.249C57.3841 105.249 65.5095 97.122 65.5095 87.0962C65.5095 77.0705 57.3841 68.9432 47.3631 68.9432C37.3373 68.9432 29.2144 77.0705 29.2144 87.0962Z" fill="white"></path></mask><g mask="url(#mask20_5640_167)"><path d="M48.6136 85.4437C47.4922 85.7067 46.2318 85.3047 45.4726 84.4436C45.418 84.3791 45.3188 84.3741 45.2568 84.4287C45.1922 84.4858 45.1873 84.5826 45.2419 84.6471C45.9043 85.399 46.9166 85.8308 47.9189 85.8308C48.177 85.8308 48.4325 85.8035 48.6831 85.744C48.7649 85.7241 48.817 85.6422 48.7972 85.5578C48.7773 85.4759 48.693 85.4263 48.6136 85.4437Z" fill="#3C2A39"></path></g><mask id="mask21_5640_167" style="mask-type:luminance" maskUnits="userSpaceOnUse" x="29" y="68" width="37" height="38"><path d="M29.2144 87.0962C29.2144 97.122 37.3373 105.249 47.3631 105.249C57.3841 105.249 65.5095 97.122 65.5095 87.0962C65.5095 77.0705 57.3841 68.9432 47.3631 68.9432C37.3373 68.9432 29.2144 77.0705 29.2144 87.0962Z" fill="white"></path></mask><g mask="url(#mask21_5640_167)"><path d="M48.1967 86.2475C47.7303 86.5627 47.0406 86.5378 46.5965 86.1929C46.5295 86.1407 46.4327 86.1532 46.3806 86.2177C46.3285 86.2847 46.3409 86.3815 46.4079 86.4336C46.7007 86.6619 47.0703 86.7786 47.44 86.7786C47.7675 86.7786 48.095 86.6867 48.3704 86.5006C48.4399 86.4534 48.4597 86.3592 48.4101 86.2872C48.363 86.2177 48.2687 86.1979 48.1967 86.2475Z" fill="#3C2A39"></path></g><mask id="mask22_5640_167" style="mask-type:luminance" maskUnits="userSpaceOnUse" x="29" y="68" width="37" height="38"><path d="M29.2144 87.0962C29.2144 97.122 37.3373 105.249 47.3631 105.249C57.3841 105.249 65.5095 97.122 65.5095 87.0962C65.5095 77.0705 57.3841 68.9432 47.3631 68.9432C37.3373 68.9432 29.2144 77.0705 29.2144 87.0962Z" fill="white"></path></mask><g mask="url(#mask22_5640_167)"><path d="M49.807 80.1577C49.6085 80.1577 49.4473 80.4232 49.4473 80.7533C49.4473 81.0833 49.6085 81.3513 49.807 81.3513C50.0055 81.3513 50.1668 81.0833 50.1668 80.7533C50.1668 80.4232 50.0055 80.1577 49.807 80.1577Z" fill="#3C2A39"></path></g><mask id="mask23_5640_167" style="mask-type:luminance" maskUnits="userSpaceOnUse" x="29" y="68" width="37" height="38"><path d="M29.2144 87.0962C29.2144 97.122 37.3373 105.249 47.3631 105.249C57.3841 105.249 65.5095 97.122 65.5095 87.0962C65.5095 77.0705 57.3841 68.9432 47.3631 68.9432C37.3373 68.9432 29.2144 77.0705 29.2144 87.0962Z" fill="white"></path></mask><g mask="url(#mask23_5640_167)"><path d="M45.6711 80.1577C45.4701 80.1577 45.3088 80.4232 45.3088 80.7533C45.3088 81.0833 45.4701 81.3513 45.6711 81.3513C45.8695 81.3513 46.0308 81.0833 46.0308 80.7533C46.0308 80.4232 45.8695 80.1577 45.6711 80.1577Z" fill="#3C2A39"></path></g><mask id="mask24_5640_167" style="mask-type:luminance" maskUnits="userSpaceOnUse" x="29" y="68" width="37" height="38"><path d="M29.2144 87.0962C29.2144 97.122 37.3373 105.249 47.3631 105.249C57.3841 105.249 65.5095 97.122 65.5095 87.0962C65.5095 77.0705 57.3841 68.9432 47.3631 68.9432C37.3373 68.9432 29.2144 77.0705 29.2144 87.0962Z" fill="white"></path></mask><g mask="url(#mask24_5640_167)"><path d="M49.1891 79.1701C49.137 79.1775 49.0874 79.247 49.075 79.3289C49.0576 79.4307 49.0403 79.5374 49.0229 79.6416C49.0055 79.7508 49.0576 79.8327 49.1271 79.8004C49.4695 79.6441 49.8168 79.659 50.1021 79.8426C50.2783 79.9543 50.4271 80.1305 50.5462 80.3538C50.6132 80.4829 50.772 80.3067 50.7298 80.1454C50.6529 79.8451 50.509 79.6019 50.3254 79.4381C50.0079 79.1527 49.5985 79.108 49.1891 79.1701Z" fill="#3C2A39"></path></g><mask id="mask25_5640_167" style="mask-type:luminance" maskUnits="userSpaceOnUse" x="29" y="68" width="37" height="38"><path d="M29.2144 87.0962C29.2144 97.122 37.3373 105.249 47.3631 105.249C57.3841 105.249 65.5095 97.122 65.5095 87.0962C65.5095 77.0705 57.3841 68.9432 47.3631 68.9432C37.3373 68.9432 29.2144 77.0705 29.2144 87.0962Z" fill="white"></path></mask><g mask="url(#mask25_5640_167)"><path d="M46.0581 79.1701C45.6463 79.108 45.2369 79.1527 44.9193 79.4381C44.7357 79.6019 44.5943 79.8451 44.5174 80.1454C44.4752 80.3067 44.6315 80.4829 44.701 80.3538C44.8176 80.1305 44.9689 79.9543 45.1426 79.8426C45.4279 79.659 45.7777 79.6441 46.1176 79.8004C46.1871 79.8327 46.2417 79.7508 46.2219 79.6416C46.2045 79.5374 46.1896 79.4307 46.1722 79.3289C46.1598 79.247 46.1102 79.1775 46.0581 79.1701Z" fill="#3C2A39"></path></g><mask id="mask26_5640_167" style="mask-type:luminance" maskUnits="userSpaceOnUse" x="29" y="68" width="37" height="38"><path d="M29.2144 87.0962C29.2144 97.122 37.3373 105.249 47.3631 105.249C57.3841 105.249 65.5095 97.122 65.5095 87.0962C65.5095 77.0705 57.3841 68.9432 47.3631 68.9432C37.3373 68.9432 29.2144 77.0705 29.2144 87.0962Z" fill="white"></path></mask><g mask="url(#mask26_5640_167)"><path d="M51.1443 76.0232C50.8118 76.0232 51.5511 77.949 51.5511 80.031C51.5511 82.1156 52.613 82.9221 52.613 82.9221C52.613 82.9221 52.7842 81.6019 53.2258 79.5669C53.6203 77.7678 51.4743 76.0232 51.1443 76.0232Z" fill="#3C2A39"></path></g><mask id="mask27_5640_167" style="mask-type:luminance" maskUnits="userSpaceOnUse" x="29" y="68" width="37" height="38"><path d="M29.2144 87.0962C29.2144 97.122 37.3373 105.249 47.3631 105.249C57.3841 105.249 65.5095 97.122 65.5095 87.0962C65.5095 77.0705 57.3841 68.9432 47.3631 68.9432C37.3373 68.9432 29.2144 77.0705 29.2144 87.0962Z" fill="white"></path></mask><g mask="url(#mask27_5640_167)"><path d="M42.7559 80.031C42.7559 82.1156 42.8576 82.9221 42.8576 82.9221C42.8576 82.9221 43.6218 82.1156 43.6218 80.031C43.6218 77.949 44.1552 76.0232 43.917 76.0232C43.6788 76.0232 42.7559 77.949 42.7559 80.031Z" fill="#3C2A39"></path></g><mask id="mask28_5640_167" style="mask-type:luminance" maskUnits="userSpaceOnUse" x="29" y="68" width="37" height="38"><path d="M29.2144 87.0962C29.2144 97.122 37.3373 105.249 47.3631 105.249C57.3841 105.249 65.5095 97.122 65.5095 87.0962C65.5095 77.0705 57.3841 68.9432 47.3631 68.9432C37.3373 68.9432 29.2144 77.0705 29.2144 87.0962Z" fill="white"></path></mask><g mask="url(#mask28_5640_167)"><path d="M51.0475 75.1126C50.1717 74.4848 49.0354 74.3235 47.9562 74.3731C46.2219 74.4526 44.3636 75.1598 43.5647 76.7034C43.391 77.0409 43.2719 77.428 43.3612 77.7978C43.4481 78.1651 43.7979 78.4902 44.175 78.4405C44.897 78.3462 44.9938 77.165 45.6984 76.9788C45.7183 77.3163 45.7406 77.6538 45.7604 77.9913C46.0532 78.1675 46.4378 77.9442 46.6288 77.6613C46.8174 77.3784 46.9066 77.0285 47.1349 76.7728C47.3607 76.5197 47.8246 76.413 48.0207 76.691C47.718 76.8895 47.6361 77.3535 47.8495 77.6439C48.0653 77.9342 48.5317 77.9889 48.8096 77.7581C48.9957 77.6042 49.0825 77.361 49.2537 77.1923C49.4249 77.021 49.7648 76.9664 49.8715 77.1823C49.7251 77.3858 49.7251 77.6811 49.8715 77.8846C50.0179 78.0881 50.3007 78.18 50.5389 78.1055C50.7423 78.0385 50.8962 77.8722 51.0525 77.7258C51.6504 77.16 52.3947 77.9839 52.1615 76.8101C52.03 76.1326 51.6058 75.5122 51.0475 75.1126Z" fill="#3C2A39"></path></g><mask id="mask29_5640_167" style="mask-type:luminance" maskUnits="userSpaceOnUse" x="29" y="68" width="37" height="38"><path d="M29.2144 87.0962C29.2144 97.122 37.3373 105.249 47.3631 105.249C57.3841 105.249 65.5095 97.122 65.5095 87.0962C65.5095 77.0705 57.3841 68.9432 47.3631 68.9432C37.3373 68.9432 29.2144 77.0705 29.2144 87.0962Z" fill="white"></path></mask><g mask="url(#mask29_5640_167)"><path d="M53.5905 95.1741C51.2459 96.4298 49.0204 97.9263 46.9686 99.6212C46.9041 99.6733 46.8966 99.7676 46.9487 99.8321C46.9785 99.8669 47.0232 99.8867 47.0653 99.8867C47.1001 99.8867 47.1323 99.8743 47.1621 99.852C49.1966 98.1719 51.4071 96.6855 53.7319 95.4397C53.8063 95.4 53.8336 95.3081 53.7939 95.2362C53.7542 95.1617 53.6649 95.1344 53.5905 95.1741Z" fill="#3C2A39"></path></g><mask id="mask30_5640_167" style="mask-type:luminance" maskUnits="userSpaceOnUse" x="29" y="68" width="37" height="38"><path d="M29.2144 87.0962C29.2144 97.122 37.3373 105.249 47.3631 105.249C57.3841 105.249 65.5095 97.122 65.5095 87.0962C65.5095 77.0705 57.3841 68.9432 47.3631 68.9432C37.3373 68.9432 29.2144 77.0705 29.2144 87.0962Z" fill="white"></path></mask><g mask="url(#mask30_5640_167)"><path d="M41.4532 94.6156C41.3912 94.6727 41.3887 94.767 41.4458 94.829C42.597 96.055 43.5075 97.5365 44.0831 99.1173C44.1055 99.1768 44.1625 99.2166 44.2246 99.2166L44.2767 99.2066C44.3536 99.1768 44.3957 99.0925 44.366 99.0131C43.778 97.3951 42.8426 95.8763 41.6641 94.6206C41.6071 94.5611 41.5128 94.5585 41.4532 94.6156Z" fill="#3C2A39"></path></g><path d="M39.6992 55.689H37.9525V52.721H39.7935C40.7511 52.721 41.3267 52.7334 41.5153 52.7607C41.8998 52.8252 42.1976 52.9766 42.406 53.2198C42.6169 53.4605 42.7211 53.7781 42.7211 54.1727C42.7211 54.5226 42.6417 54.8155 42.4829 55.0512C42.3216 55.2845 42.1008 55.4482 41.8205 55.545C41.5376 55.6418 40.8305 55.689 39.6992 55.689ZM43.3314 58.2574C42.999 57.9026 42.5772 57.575 42.0686 57.2747C43.0932 57.1258 43.8648 56.766 44.3809 56.1952C44.8969 55.622 45.155 54.8998 45.155 54.0213C45.155 53.329 44.9838 52.716 44.6439 52.1775C44.304 51.6414 43.8499 51.2667 43.2843 51.0558C42.7186 50.8473 41.808 50.7406 40.5601 50.7406H35.5906V62.439H37.9525V57.5551H38.4314C38.9722 57.5551 39.3692 57.5998 39.6173 57.6867C39.8679 57.776 40.1036 57.9373 40.3294 58.1731C40.5527 58.4088 40.9645 58.9846 41.5723 59.8928L43.2793 62.439H46.1027L44.6761 60.1559C44.1129 59.2451 43.6639 58.6148 43.3314 58.2574Z" fill="#AAB6C2"></path><path d="M49.7398 57.2847H55.6125V55.3142H49.7398V52.721H56.0491V50.7406H47.3804V62.439H56.2724V60.4686H49.7398V57.2847Z" fill="#AAB6C2"></path><path d="M65.4251 55.9794C64.8767 55.6915 64.0257 55.4086 62.877 55.1381C61.7283 54.8651 61.0063 54.6071 60.7086 54.3564C60.4754 54.1604 60.3563 53.9221 60.3563 53.6466C60.3563 53.3414 60.4828 53.1007 60.7309 52.9195C61.1204 52.6391 61.6563 52.4977 62.3411 52.4977C63.006 52.4977 63.5072 52.6292 63.8372 52.8923C64.1697 53.1553 64.388 53.5871 64.4872 54.1876L66.8492 54.0859C66.812 53.0114 66.4224 52.1502 65.6806 51.5075C64.9387 50.8648 63.8347 50.5421 62.3684 50.5421C61.4678 50.5421 60.7012 50.6786 60.066 50.9491C59.4309 51.2196 58.9446 51.6142 58.6071 52.1328C58.2672 52.6515 58.0985 53.2099 58.0985 53.8055C58.0985 54.7311 58.4583 55.5153 59.1753 56.1581C59.6864 56.6172 60.5746 57.0018 61.84 57.317C62.8249 57.5602 63.4526 57.7314 63.7305 57.8257C64.1349 57.9696 64.4178 58.1384 64.5815 58.3344C64.7428 58.528 64.8221 58.7637 64.8221 59.0392C64.8221 59.4685 64.6311 59.8457 64.2466 60.1683C63.8595 60.491 63.2864 60.6498 62.5272 60.6498C61.8077 60.6498 61.237 60.4711 60.8153 60.1088C60.3935 59.7465 60.1106 59.1807 59.9742 58.4089L57.6768 58.6322C57.8306 59.94 58.3045 60.9376 59.0959 61.6201C59.8899 62.3025 61.0237 62.645 62.5024 62.645C63.5171 62.645 64.3656 62.5035 65.0479 62.2182C65.7277 61.9352 66.2537 61.501 66.6259 60.9153C66.998 60.3296 67.1866 59.7018 67.1866 59.0317C67.1866 58.2922 67.0303 57.6718 66.7177 57.1681C66.4075 56.6643 65.9758 56.2697 65.4251 55.9794Z" fill="#AAB6C2"></path><path d="M76.1184 57.2126C76.1184 58.1383 76.0836 58.8009 76.0141 59.1979C75.9447 59.5975 75.7412 59.935 75.4013 60.2079C75.0589 60.4809 74.5553 60.6199 73.8854 60.6199C73.2255 60.6199 72.7069 60.4735 72.3248 60.1831C71.9452 59.8953 71.7046 59.5106 71.6029 59.0316C71.5458 58.7338 71.516 58.0812 71.516 57.0762V50.7406H69.1541V56.9818C69.1541 58.2896 69.231 59.2773 69.3873 59.9498C69.4915 60.4015 69.7123 60.8333 70.0497 61.2453C70.3822 61.6572 70.8387 61.9922 71.4168 62.2503C71.9949 62.5084 72.8409 62.6375 73.9574 62.6375C74.8803 62.6375 75.6321 62.5183 76.2077 62.2826C76.7808 62.0468 77.2398 61.7292 77.5822 61.3297C77.927 60.9301 78.1603 60.4412 78.2868 59.8605C78.4158 59.2823 78.4803 58.2896 78.4803 56.885V50.7406H76.1184V57.2126Z" fill="#AAB6C2"></path><path d="M86.5908 58.719L84.4695 50.7406H80.9365V62.439H83.1298V53.2322L85.4421 62.439H87.7172L90.037 53.2322V62.439H92.2327V50.7406H88.6898L86.5908 58.719Z" fill="#AAB6C2"></path><path d="M96.9369 57.2847H102.807V55.3142H96.9369V52.721H103.246V50.7406H94.575V62.439H103.469V60.4686H96.9369V57.2847Z" fill="#AAB6C2"></path><path d="M111.783 45.1794L100.385 32.0938L95.4382 36.4044L107.432 50.1749L111.783 55.1704L116.133 50.1749L138.549 24.314L133.602 20.0059L111.783 45.1794Z" fill="#3C2A39"></path><path d="M102.777 34.8311L103.149 32.0963H100.385L102.777 34.8311Z" fill="#3C2A39"></path><path d="M135.986 22.738L136.358 20.0058H133.594L135.986 22.738Z" fill="#3C2A39"></path><path d="M114.53 45.1794L103.132 32.0938L98.1873 36.4044L110.181 50.1749L114.53 55.1704L118.882 50.1749L141.295 24.314L136.348 20.0059L114.53 45.1794Z" fill="#D82532"></path><path d="M111.798 55.4534H114.52L112.736 53.4036L111.798 55.4534Z" fill="#3C2A39"></path><path d="M1.80384 121.1C-5.87993 129.401 13.1869 145.362 17.7743 148L22.4982 148.013C23.7238 137.503 11.2938 110.85 1.80384 121.1Z" fill="#75C19C"></path><path d="M1.65991 121.243C1.77404 121.358 13.0677 132.84 20.0394 148.065L20.4066 147.896C13.4051 132.602 2.06183 121.072 1.9477 120.958L1.65991 121.243Z" fill="#3C2A39"></path><path d="M3.8457 135.495C4.07892 135.6 4.36423 135.701 4.69173 135.806C7.71859 136.756 14.1991 137.58 14.5018 137.617L14.5539 137.218C14.472 137.208 6.36394 136.18 4.01191 135.126L3.8457 135.495Z" fill="#3C2A39"></path><path d="M8.38599 128.544L8.77055 128.673C9.9019 125.36 10.1376 120.06 10.1401 120.005L9.73815 119.99C9.73567 120.042 9.50245 125.286 8.38599 128.544Z" fill="#3C2A39"></path><path d="M22.4981 148.013C22.9943 143.754 21.2451 136.845 18.3622 130.813C17.3127 131.934 15.9109 141.166 22.4981 148.013Z" fill="#3C2A39"></path><path d="M26.0832 114.007C19.2777 117.335 19.3398 144.677 21.0467 148.008L24.4855 148.018C31.8963 134.724 34.4915 109.895 26.0832 114.007Z" fill="#75C19C"></path><path d="M22.2996 147.975L22.6965 148.047C24.0388 140.674 27.6859 116.901 27.7231 116.66L27.3212 116.6C27.2865 116.839 23.6393 140.608 22.2996 147.975Z" fill="#3C2A39"></path><path d="M23.9321 139.662L24.2398 139.923L27.9241 135.565L27.6165 135.304L23.9321 139.662Z" fill="#3C2A39"></path><path d="M21.0469 126.681L25.2175 130.17L25.4755 129.86L21.3049 126.371L21.0469 126.681Z" fill="#3C2A39"></path><path d="M8.4407 150.033C8.43574 152.343 9.11557 154.619 10.4181 156.639L10.9341 157.44L15.0427 183.438L24.9272 183.465L27.9813 157.487L28.5049 156.688C29.8174 154.676 30.5096 152.405 30.517 150.092L30.5219 148.057L8.44816 147.995L8.4407 150.033Z" fill="white"></path><path d="M8.59449 148.144L30.373 148.206L30.3681 150.092C30.3606 152.368 29.6734 154.621 28.3782 156.607L27.8399 157.435L24.7957 183.316L15.1692 183.291L11.0805 157.418L10.5421 156.559C9.25941 154.567 8.58206 152.311 8.5895 150.033L8.59449 148.144ZM8.29425 150.033C8.28681 152.365 8.97653 154.678 10.2915 156.718L10.7927 157.495L14.9161 183.587L25.0586 183.614L28.1252 157.54L28.6289 156.77C29.9537 154.735 30.6584 152.427 30.6633 150.092L30.6707 147.908L8.29924 147.846L8.29425 150.033Z" fill="#361E4D"></path><path d="M8.56714 153.321L25.009 153.365V152.961L8.56714 152.916V153.321Z" fill="#3C2A39"></path><path d="M22.1931 157.651L28.0781 157.669L28.0806 157.264L22.1956 157.247L22.1931 157.651Z" fill="#3C2A39"></path><path d="M8.23977 150.03C8.23481 152.378 8.92703 154.701 10.2469 156.748L10.7407 157.515L14.8691 183.639L15.4075 183.641L15.41 183.237H15.2164L11.1252 157.368L10.5868 156.529C9.30909 154.547 8.63676 152.301 8.6442 150.033L8.64914 148.199L30.522 148.258V147.854L8.24724 147.794L8.23977 150.03Z" fill="#3C2A39"></path><path d="M132.862 79.8897L115.16 76.3832L115.153 76.4154C113.733 75.5345 114.232 75.2962 112.716 74.3656C112.691 74.3507 112.672 74.3408 112.649 74.3284C112.602 74.3011 112.55 74.2738 112.5 74.249L112.493 74.244C112.441 74.2167 112.391 74.1894 112.332 74.1646C111.468 73.7849 110.009 73.5566 109.153 73.636C108.93 73.6584 108.704 73.6882 108.523 73.7899C108.345 73.8892 108.218 74.0703 108.253 74.2812C108.297 74.5716 108.62 74.8148 108.933 74.9364C109.248 75.0605 109.578 75.1052 109.888 75.2392C109.987 75.2839 110.081 75.336 110.171 75.393C109.637 75.3087 108.98 75.1747 108.486 75.13C107.685 75.0208 106.372 75.1573 104.377 74.852C104.07 74.8049 103.742 74.7081 103.514 74.8371C103.219 75.0059 103.236 75.4675 103.452 75.8224C103.668 76.1772 104.534 76.418 104.943 76.5321C105.422 76.6661 107.387 76.7927 108.35 76.9043C108.33 77.6315 108.355 78.4529 108.394 79.108C108.451 79.9865 107.714 81.2645 108.285 81.9346C108.848 82.5972 111.235 82.3316 112.103 82.344C112.838 82.3564 113.384 82.4111 113.825 82.3664L113.808 82.4433L132.612 88.3768C134.587 88.8186 136.494 89.6301 138.953 87.4636L151.165 70.9534L143.454 65.3549L132.862 79.8897Z" fill="white"></path><path d="M138.908 87.4116C137.812 88.3794 136.74 88.831 135.542 88.831C134.767 88.831 134.013 88.6449 133.284 88.4663C133.065 88.4141 132.845 88.3595 132.631 88.3124L113.89 82.3962L113.912 82.2895L113.818 82.2969C113.569 82.3217 113.23 82.3143 112.813 82.2969C112.597 82.2895 112.364 82.2796 112.106 82.2746H112.039C111.867 82.2746 111.652 82.282 111.404 82.292C111.088 82.3044 110.731 82.3193 110.369 82.3193C109.248 82.3193 108.583 82.1778 108.337 81.89C108.002 81.4979 108.153 80.8527 108.3 80.2273C108.392 79.8426 108.486 79.4431 108.463 79.1056C108.416 78.3685 108.399 77.567 108.419 76.9044L108.421 76.8424L108.357 76.8374C108.022 76.7977 107.573 76.758 107.096 76.7158C106.24 76.6389 105.268 76.552 104.96 76.4676C104.586 76.3634 103.71 76.1177 103.509 75.7877C103.38 75.5718 103.328 75.3211 103.377 75.1325C103.405 75.0233 103.462 74.9464 103.549 74.8968C103.613 74.8595 103.697 74.8397 103.804 74.8397C103.926 74.8397 104.067 74.8645 104.201 74.8893C104.256 74.8992 104.313 74.9117 104.367 74.9191C105.623 75.1127 106.588 75.13 107.364 75.1424C107.821 75.1499 108.181 75.1573 108.478 75.197C108.813 75.2268 109.228 75.2988 109.627 75.3683C109.811 75.4005 109.992 75.4328 110.161 75.4601L110.491 75.5122L110.208 75.3335C110.101 75.2665 110.007 75.2169 109.915 75.1772C109.744 75.1027 109.568 75.0556 109.396 75.0109C109.252 74.9687 109.101 74.929 108.96 74.8744C108.669 74.7603 108.362 74.5295 108.32 74.2714C108.287 74.0754 108.421 73.924 108.558 73.8495C108.731 73.7527 108.96 73.7229 109.158 73.7056C109.27 73.6932 109.396 73.6882 109.53 73.6882C110.426 73.6882 111.595 73.914 112.304 74.2267C112.346 74.2441 112.381 74.264 112.418 74.2838L112.515 74.3334C112.55 74.3508 112.582 74.3682 112.617 74.388L112.647 74.4029L112.681 74.4228C113.443 74.8918 113.691 75.1846 113.932 75.47C114.167 75.7479 114.411 76.0358 115.118 76.4726L115.197 76.5222L115.212 76.4626L132.847 79.9568L132.892 79.9642L143.468 65.4517L151.07 70.9683L138.908 87.4116ZM143.439 65.2606L132.832 79.8153L115.172 76.3162L115.11 76.3038L115.108 76.3063C114.483 75.9093 114.264 75.6512 114.036 75.3807C113.788 75.0878 113.532 74.7875 112.753 74.3061L112.706 74.2813L112.684 74.2714C112.651 74.2491 112.614 74.2317 112.577 74.2118L112.483 74.1622C112.443 74.1424 112.403 74.12 112.361 74.1002C111.634 73.7825 110.443 73.5517 109.53 73.5517C109.391 73.5517 109.262 73.5592 109.146 73.5691C108.932 73.5889 108.687 73.6212 108.491 73.7304C108.267 73.8545 108.148 74.0704 108.186 74.2912C108.238 74.6262 108.607 74.8818 108.908 75.001C109.059 75.058 109.213 75.1003 109.362 75.1424C109.478 75.1722 109.6 75.2045 109.716 75.2467C109.694 75.2417 109.672 75.2392 109.649 75.2342C109.248 75.1648 108.831 75.0928 108.493 75.063C108.191 75.0208 107.828 75.0134 107.367 75.006C106.595 74.9935 105.633 74.9762 104.387 74.7851C104.333 74.7752 104.278 74.7652 104.226 74.7553C104.084 74.7305 103.938 74.7032 103.804 74.7032C103.673 74.7032 103.568 74.728 103.479 74.7776C103.362 74.8446 103.281 74.9563 103.246 75.0978C103.186 75.3211 103.243 75.6114 103.392 75.8571C103.623 76.2368 104.501 76.48 104.926 76.5991C105.243 76.686 106.181 76.7704 107.084 76.8498C107.531 76.8895 107.955 76.9292 108.28 76.964C108.265 77.6191 108.282 78.3983 108.327 79.113C108.347 79.4332 108.258 79.8203 108.168 80.195C108.014 80.8551 107.853 81.5326 108.233 81.9793C108.508 82.3044 109.188 82.4533 110.369 82.4533C110.734 82.4533 111.091 82.4409 111.409 82.4285C111.657 82.4185 111.867 82.4111 112.039 82.4111H112.103C112.359 82.4161 112.592 82.426 112.808 82.4334C113.165 82.4483 113.495 82.4582 113.738 82.4409L113.728 82.4905L132.597 88.4439C132.815 88.4935 133.033 88.5456 133.252 88.6002C133.988 88.7789 134.753 88.9675 135.542 88.9675C136.775 88.9675 137.876 88.5059 139.01 87.5034L151.222 70.9931L151.261 70.9386L143.493 65.3004L143.439 65.2606Z" fill="black"></path><path d="M110.9 78.3611C110.855 78.3388 110.808 78.3214 110.764 78.3015L110.798 78.2966C110.992 78.2916 111.203 78.2866 111.342 78.1626C111.518 78.0013 111.486 77.6985 111.334 77.4975C111.183 77.2965 110.947 77.1774 110.719 77.0706C110.305 76.8796 109.878 76.7059 109.431 76.6364C108.982 76.5669 108.513 76.6066 108.134 76.8225C107.752 77.0359 107.479 77.4404 107.496 77.8772C107.511 78.2345 107.64 78.4504 107.836 78.5795C107.732 78.7582 107.67 78.9567 107.677 79.1676C107.695 79.6069 107.881 79.8377 108.159 79.9444C108.022 80.1231 107.933 80.3315 107.935 80.5549C107.953 81.9371 109.928 80.88 110.662 80.8378C110.823 80.8303 110.999 80.8204 111.114 80.7112C111.265 80.5722 111.245 80.3141 111.123 80.1479C111.004 79.9791 110.811 79.8823 110.625 79.7955C110.543 79.7607 110.463 79.726 110.382 79.6912C110.612 79.6342 110.821 79.592 110.98 79.587C111.173 79.5821 111.384 79.5771 111.523 79.453C111.699 79.2917 111.667 78.989 111.515 78.788C111.367 78.5869 111.128 78.4678 110.9 78.3611Z" fill="white"></path><path d="M111.476 79.4033C111.359 79.5075 111.17 79.515 110.977 79.5199C110.833 79.5249 110.649 79.5547 110.364 79.6241L110.161 79.6738L110.354 79.7532C110.436 79.7879 110.515 79.8227 110.595 79.8574C110.773 79.9393 110.957 80.0336 111.069 80.1874C111.168 80.3215 111.195 80.5448 111.069 80.6615C110.972 80.7533 110.816 80.7607 110.659 80.7706C110.461 80.7806 110.19 80.86 109.875 80.9518C109.478 81.066 109.027 81.1975 108.667 81.1975C108.22 81.1975 108.01 80.9915 108.005 80.5523C108.002 80.3637 108.074 80.1676 108.213 79.9864L108.268 79.9145L108.183 79.8822C107.903 79.7706 107.759 79.5373 107.747 79.165C107.739 78.9814 107.789 78.7903 107.895 78.6141L107.928 78.5595L107.873 78.5223C107.677 78.3957 107.575 78.1823 107.563 77.8746C107.551 77.485 107.786 77.0954 108.166 76.8795C108.409 76.743 108.702 76.6735 109.034 76.6735C109.161 76.6735 109.29 76.6834 109.419 76.7033C109.878 76.7753 110.319 76.9614 110.692 77.1326C110.912 77.2343 111.138 77.351 111.28 77.5396C111.406 77.7058 111.448 77.9714 111.294 78.1128C111.178 78.2171 110.989 78.2245 110.798 78.2295L110.759 78.232L110.481 78.2518L110.776 78.3809C110.808 78.3933 110.84 78.4081 110.873 78.423C111.093 78.5248 111.322 78.6414 111.461 78.8275C111.587 78.9963 111.627 79.2643 111.476 79.4033ZM111.039 78.3511C111.165 78.3362 111.29 78.2989 111.386 78.2121C111.6 78.0185 111.555 77.676 111.389 77.4577C111.23 77.2442 110.984 77.1202 110.749 77.0085C110.369 76.8323 109.915 76.6437 109.441 76.5693C108.933 76.4899 108.461 76.5568 108.099 76.7603C107.675 77.0011 107.412 77.4378 107.429 77.8795C107.441 78.2071 107.546 78.4454 107.747 78.5992C107.65 78.7829 107.603 78.9789 107.61 79.17C107.625 79.5621 107.774 79.8301 108.054 79.9716C107.93 80.1602 107.866 80.3587 107.866 80.5547C107.873 81.0709 108.144 81.334 108.667 81.334C109.044 81.334 109.506 81.1999 109.913 81.0808C110.205 80.9965 110.483 80.917 110.674 80.9071C110.84 80.8972 111.029 80.8873 111.161 80.7607C111.344 80.5895 111.314 80.2942 111.18 80.1056C111.049 79.9269 110.848 79.8252 110.652 79.7333L110.6 79.711C110.734 79.6837 110.873 79.6589 110.989 79.6539C111.188 79.6489 111.414 79.644 111.567 79.5025C111.778 79.309 111.736 78.9665 111.57 78.7456C111.436 78.567 111.24 78.4503 111.039 78.3511Z" fill="black"></path><path d="M132.882 79.9172C132.837 79.8403 132.738 79.8105 132.659 79.8552C132.582 79.8973 132.552 79.9966 132.597 80.076L133.81 82.2772C133.854 82.3566 133.951 82.3864 134.031 82.3417C134.063 82.3243 134.088 82.2971 134.1 82.2673C134.12 82.2226 134.12 82.168 134.095 82.1208L132.882 79.9172Z" fill="#412137"></path><path d="M148.185 170.107C148.468 168.858 144.181 168.35 140.97 168.451C140.285 170.623 142.422 176.281 140.194 177.127C137.966 177.973 136.249 180.05 133.85 180.172C132.713 180.232 131.763 180.271 131.386 180.398C130.312 180.758 130.215 181.547 129.979 182.597C136.164 182.597 139.951 182.43 147.044 182.659C147.877 182.683 149.426 182.363 149.428 180.661C149.436 176.919 146.453 177.795 148.185 170.107Z" fill="white"></path><path d="M147.138 182.592C147.108 182.592 147.076 182.589 147.046 182.589C144.506 182.507 142.166 182.47 139.685 182.47C138.147 182.47 136.71 182.485 135.187 182.497C133.589 182.512 131.937 182.529 130.066 182.529L130.096 182.391C130.299 181.46 130.446 180.785 131.408 180.462C131.748 180.348 132.614 180.304 133.614 180.254L133.855 180.241C135.323 180.167 136.564 179.353 137.76 178.564C138.541 178.053 139.345 177.522 140.218 177.192C141.63 176.653 141.357 174.32 141.097 172.067C140.933 170.67 140.779 169.35 141.022 168.518C141.27 168.511 141.526 168.506 141.784 168.506C144.329 168.506 147.364 168.876 148.014 169.687C148.115 169.816 148.153 169.948 148.118 170.092C147.021 174.961 147.793 176.388 148.54 177.77C148.964 178.554 149.363 179.293 149.361 180.661C149.356 182.497 147.508 182.592 147.138 182.592ZM148.252 170.121C148.294 169.938 148.249 169.762 148.12 169.6C147.369 168.662 143.798 168.292 140.968 168.382L140.921 168.384L140.906 168.431C140.635 169.288 140.794 170.645 140.96 172.082C141.216 174.286 141.484 176.564 140.171 177.063C139.285 177.4 138.472 177.934 137.685 178.452C136.447 179.264 135.281 180.031 133.847 180.105L133.606 180.117C132.554 180.169 131.723 180.212 131.364 180.333C130.331 180.681 130.168 181.423 129.962 182.363L129.895 182.666H129.979C131.887 182.666 133.567 182.651 135.187 182.634C136.71 182.621 138.149 182.606 139.685 182.606C142.166 182.606 144.503 182.644 147.041 182.726C147.073 182.726 147.106 182.728 147.138 182.728C147.532 182.728 149.492 182.626 149.497 180.661C149.5 179.259 149.091 178.504 148.659 177.705C147.924 176.345 147.165 174.941 148.252 170.121Z" fill="black"></path><path d="M158.657 170.107C158.94 168.858 154.653 168.35 151.443 168.451C150.758 170.623 152.894 176.281 150.666 177.127C148.438 177.973 146.721 180.05 144.322 180.172C143.186 180.232 142.236 180.271 141.858 180.398C140.784 180.758 140.687 181.547 140.452 182.597C146.637 182.597 150.423 182.43 157.516 182.659C158.35 182.683 159.898 182.363 159.903 180.661C159.91 176.919 156.926 177.795 158.657 170.107Z" fill="white"></path><path d="M157.611 182.592C157.581 182.592 157.549 182.589 157.519 182.589C154.978 182.507 152.639 182.47 150.158 182.47C148.622 182.47 147.183 182.485 145.66 182.497C144.062 182.512 142.409 182.529 140.539 182.529L140.568 182.391C140.772 181.46 140.918 180.785 141.881 180.462C142.221 180.348 143.084 180.304 144.084 180.254L144.327 180.241C145.796 180.167 147.036 179.353 148.232 178.564C149.014 178.053 149.818 177.522 150.691 177.192C152.103 176.653 151.83 174.32 151.569 172.067C151.406 170.67 151.252 169.35 151.495 168.518C151.743 168.511 151.999 168.506 152.257 168.506C154.802 168.506 157.836 168.876 158.486 169.687C158.588 169.816 158.623 169.948 158.591 170.092C157.494 174.961 158.266 176.388 159.012 177.77C159.437 178.551 159.836 179.293 159.834 180.661C159.831 182.497 157.983 182.592 157.611 182.592ZM158.725 170.121C158.767 169.938 158.722 169.762 158.591 169.6C157.841 168.662 154.271 168.292 151.44 168.382L151.393 168.384L151.378 168.431C151.108 169.288 151.267 170.645 151.433 172.082C151.688 174.286 151.956 176.564 150.644 177.063C149.758 177.4 148.944 177.934 148.158 178.452C146.92 179.264 145.754 180.031 144.32 180.105L144.079 180.117C143.027 180.169 142.196 180.212 141.836 180.333C140.804 180.681 140.64 181.423 140.434 182.363L140.367 182.666H140.452C142.362 182.666 144.039 182.651 145.66 182.634C147.183 182.621 148.622 182.606 150.158 182.606C152.639 182.606 154.976 182.644 157.514 182.726C157.546 182.726 157.578 182.728 157.611 182.728C158.005 182.728 159.968 182.626 159.97 180.661C159.973 179.259 159.566 178.504 159.132 177.703C158.397 176.345 157.64 174.941 158.725 170.121Z" fill="black"></path><path d="M139.742 99.0925C138.76 99.8891 138.499 100.924 137.494 101.688C133.817 124.502 133.825 151.978 139.248 174.437C142.982 174.705 145.736 174.541 150.177 174.449C151.745 149.918 151.304 121.452 147.612 97.1469C144.875 96.6034 141.911 97.3355 139.742 99.0925Z" fill="#412137"></path><path d="M158.901 99.0926C156.732 97.3356 148.111 96.9087 145.374 97.4547C141.68 121.757 146.282 161.863 148.783 174.635C152.517 174.367 156.301 174.799 160.035 174.534C165.456 152.073 164.825 124.502 161.149 101.688C160.144 100.924 159.883 99.8892 158.901 99.0926Z" fill="#412137"></path><path d="M160.945 56.7337C161.801 56.3218 162.382 55.3912 162.372 54.4407C162.364 53.4903 161.697 52.5299 160.836 52.1303C161.607 51.3437 161.903 50.1202 161.57 49.068C161.238 48.0158 160.293 47.1845 159.208 46.986C159.769 46.3755 159.881 45.3927 159.469 44.6731C159.059 43.9534 158.159 43.5489 157.35 43.7201C157.457 43.065 157.484 42.38 157.278 41.7472C157.075 41.1144 156.611 40.5412 155.978 40.3352C155.345 40.1293 154.561 40.3724 154.256 40.9606C153.795 40.097 153.232 39.221 152.353 38.7867C151.475 38.3549 150.212 38.5683 149.808 39.4592C149.237 38.7544 148.284 38.3822 147.389 38.5112C146.493 38.6403 145.684 39.2656 145.334 40.1019C144.568 39.7942 143.635 39.9431 143.002 40.4767C142.367 41.0102 142.059 41.9011 142.231 42.7126C141.382 42.864 140.635 43.4918 140.343 44.3033C140.05 45.1148 140.221 46.0752 140.779 46.7353C139.71 46.5119 138.407 47.187 137.963 48.1846C137.517 49.1822 137.859 50.4677 138.737 51.1129C137.921 51.1948 137.318 52.0609 137.39 52.8798C137.462 53.6963 138.092 54.3961 138.851 54.7063C138.204 55.1753 137.539 55.6592 137.102 56.3317C136.666 57.0018 136.502 57.9125 136.906 58.6024C137.422 59.4908 138.598 59.6844 139.621 59.7787C138.668 59.8532 138.03 60.9575 138.229 61.893C138.425 62.8261 139.251 63.5284 140.152 63.846C141.05 64.1662 142.027 64.1687 142.982 64.1662C147.371 64.1662 151.795 64.124 156.184 64.1215C157.328 64.2878 158.501 64.253 159.633 64.0198C160.079 63.9279 160.551 63.784 160.823 63.4217C161.213 62.903 161.039 62.1586 160.752 61.5779C161.434 61.2925 162.047 60.8086 162.411 60.1634C162.779 59.5206 162.88 58.7141 162.612 58.0242C162.344 57.3318 161.684 56.7908 160.945 56.7337Z" fill="#412137"></path><path d="M155.092 62.4191C154.663 62.2131 154.246 62.0121 153.842 61.8309C151.626 60.8309 149.815 60.1906 149.815 60.1906C149.815 60.1906 148.011 60.8135 145.786 61.7888C145.215 62.0419 144.575 62.3447 143.908 62.697C140.357 64.5707 137.395 71.0898 136.676 72.9535C135.351 76.3782 138.78 78.8946 139.169 82.1381L136.988 102.028C136.988 102.028 140.065 102.423 142.263 102.217C145.764 101.892 149.833 103.758 152.061 103.758C153.624 103.758 162.645 104.882 162.645 104.882L161.908 68.2534C161.908 66.1986 158.347 63.9999 155.092 62.4191Z" fill="#FBB53B"></path><path d="M152.629 61.2998L152.291 58.4211L152.06 56.4408H147.624L147.456 58.3591L147.207 61.1881C146.763 61.3693 146.287 61.5703 145.786 61.7912C145.215 62.0418 144.575 62.3446 143.908 62.697C143.719 63.2529 143.622 63.846 143.622 64.4614C143.622 64.5607 143.62 64.6599 143.62 64.7592C143.61 68.0771 147.384 69.9855 150.048 68.0101C152.678 66.0596 155.092 63.8733 155.092 62.419C154.663 62.213 154.246 62.0121 153.842 61.8309C153.42 61.6398 153.013 61.4611 152.629 61.2998Z" fill="white"></path><path d="M150.006 67.9558C149.314 68.4719 148.503 68.7424 147.667 68.7424C146.612 68.7424 145.575 68.3106 144.826 67.5587C144.089 66.8192 143.685 65.824 143.689 64.7594V64.4616C143.689 63.866 143.781 63.2878 143.962 62.7468C144.553 62.4342 145.176 62.1339 145.813 61.8535C146.267 61.6524 146.746 61.4514 147.232 61.2504L147.272 61.2355L147.686 56.508H152.001L152.562 61.3075L152.567 61.3472L152.601 61.3621C153.008 61.5333 153.415 61.712 153.815 61.8932C154.197 62.0644 154.589 62.253 155.023 62.4615C154.983 63.6526 153.251 65.5511 150.006 67.9558ZM153.869 61.7666C153.482 61.5929 153.085 61.4191 152.693 61.2529L152.13 56.4336L152.123 56.374H147.56L147.143 61.1412C146.667 61.3348 146.2 61.5333 145.759 61.7269C145.109 62.0148 144.476 62.32 143.876 62.6376L143.851 62.65L143.843 62.6773C143.652 63.2407 143.553 63.8412 143.553 64.4616V64.7594C143.548 65.8613 143.967 66.8886 144.729 67.653C145.506 68.4322 146.575 68.8789 147.667 68.8789C148.535 68.8789 149.371 68.5985 150.088 68.0649C153.455 65.5709 155.162 63.67 155.162 62.4192V62.3746L155.122 62.3572C154.671 62.1388 154.264 61.9453 153.869 61.7666Z" fill="black"></path><path d="M147.624 56.4409L147.456 58.3592C147.659 58.4808 148.307 58.6719 149.192 58.6719C150.041 58.6719 151.398 58.2128 152.177 57.5105L152.06 56.4409H147.624Z" fill="#412137"></path><path d="M149.996 42.3676C146.791 42.3676 144.193 44.7971 144.193 47.7949C144.193 50.7927 146.791 53.2222 149.996 53.2222C153.202 53.2222 155.799 50.7927 155.799 47.7949C155.799 44.7971 153.202 42.3676 149.996 42.3676Z" fill="#412137"></path><path d="M149.924 43.6732C146.83 43.6732 144.322 46.9067 144.322 50.8971C144.322 54.8851 146.83 58.1187 149.924 58.1187C153.018 58.1187 155.526 54.8851 155.526 50.8971C155.526 46.9067 153.018 43.6732 149.924 43.6732Z" fill="white"></path><path d="M149.924 58.0515C146.873 58.0515 144.389 54.8403 144.389 50.897C144.389 46.9512 146.873 43.7425 149.924 43.7425C152.976 43.7425 155.46 46.9512 155.46 50.897C155.46 54.8403 152.976 58.0515 149.924 58.0515ZM149.924 43.606C146.798 43.606 144.253 46.8768 144.253 50.897C144.253 54.9172 146.798 58.188 149.924 58.188C153.05 58.188 155.596 54.9172 155.596 50.897C155.596 46.8768 153.05 43.606 149.924 43.606Z" fill="black"></path><path d="M156.477 48.3485C155.628 48.2864 154.879 49.1227 154.802 50.2171C154.723 51.3115 154.651 52.8501 155.499 52.9097C156.348 52.9717 157.794 51.5299 157.871 50.4355C157.95 49.3436 157.325 48.408 156.477 48.3485Z" fill="white"></path><path d="M155.551 52.8425H155.504C155.164 52.8177 154.956 52.5224 154.869 51.9417C154.797 51.4429 154.827 50.82 154.869 50.2219C154.941 49.2069 155.608 48.4128 156.39 48.4128C156.417 48.4128 156.445 48.4128 156.472 48.4153C156.861 48.4426 157.214 48.6659 157.464 49.0406C157.72 49.4253 157.839 49.9167 157.804 50.4304C157.727 51.495 156.343 52.8425 155.551 52.8425ZM156.482 48.2788C156.452 48.2763 156.422 48.2763 156.39 48.2763C155.539 48.2763 154.81 49.1275 154.733 50.212C154.688 50.8175 154.661 51.4503 154.735 51.9615C154.829 52.6068 155.087 52.9492 155.494 52.979H155.551C156.479 52.979 157.864 51.5099 157.941 50.4403C157.978 49.8968 157.849 49.3732 157.578 48.9662C157.303 48.5542 156.913 48.3111 156.482 48.2788Z" fill="black"></path><path d="M157.022 48.9018C156.432 48.9712 155.765 49.2964 155.315 51.1923C155.296 51.2742 155.34 51.3561 155.42 51.3834L155.474 51.3933C155.534 51.3933 155.591 51.3585 155.621 51.3015C155.693 51.155 155.74 50.9987 155.784 50.8474C155.861 50.5868 155.928 50.3609 156.099 50.2691C156.248 50.1897 156.494 50.1997 156.829 50.2989C156.916 50.3262 157.005 50.2766 157.032 50.1897C157.057 50.1029 157.008 50.0135 156.923 49.9862C156.588 49.8869 156.328 49.8646 156.119 49.9143C156.422 49.3882 156.755 49.2616 157.06 49.2268C157.149 49.2144 157.213 49.135 157.204 49.0457C157.194 48.9564 157.122 48.8918 157.022 48.9018Z" fill="#412137"></path><path d="M143.404 48.3485C142.555 48.408 141.933 49.3436 142.01 50.4355C142.089 51.5299 143.535 52.9717 144.382 52.9097C145.23 52.8501 145.158 51.3115 145.081 50.2171C145.004 49.1227 144.252 48.2864 143.404 48.3485Z" fill="white"></path><path d="M144.377 52.8425H144.33C143.541 52.8425 142.154 51.495 142.079 50.4304C142.042 49.9167 142.161 49.4253 142.417 49.0406C142.67 48.6659 143.02 48.4426 143.409 48.4153C143.436 48.4128 143.464 48.4128 143.491 48.4128C144.273 48.4128 144.94 49.2069 145.014 50.2219C145.076 51.1178 145.195 52.783 144.377 52.8425ZM143.491 48.2763C143.461 48.2763 143.431 48.2763 143.399 48.2788C142.967 48.3111 142.58 48.5542 142.305 48.9662C142.032 49.3732 141.903 49.8968 141.943 50.4403C142.017 51.5074 143.402 52.979 144.33 52.979H144.389C145.342 52.9095 145.215 51.155 145.148 50.212C145.071 49.1275 144.344 48.2763 143.491 48.2763Z" fill="black"></path><path d="M142.858 48.9018C142.761 48.8918 142.687 48.9564 142.677 49.0457C142.667 49.135 142.732 49.2144 142.821 49.2268C143.126 49.2616 143.459 49.3882 143.764 49.9143C143.553 49.8646 143.292 49.8869 142.96 49.9862C142.873 50.0135 142.826 50.1029 142.851 50.1897C142.876 50.2766 142.965 50.3262 143.054 50.2989C143.387 50.1997 143.632 50.1897 143.781 50.2691C143.952 50.3609 144.019 50.5868 144.099 50.8474C144.143 50.9987 144.19 51.155 144.262 51.3015C144.29 51.3585 144.347 51.3933 144.409 51.3933L144.463 51.3834C144.54 51.3561 144.585 51.2742 144.565 51.1923C144.116 49.2964 143.451 48.9712 142.858 48.9018Z" fill="#412137"></path><path d="M150.125 52.3189C149.877 52.4653 149.597 52.5422 149.311 52.5472C149.254 52.5497 149.175 52.5472 149.133 52.5174C149.053 52.4603 149.058 52.2916 149.068 52.17L149.219 50.1946C149.227 50.1053 149.157 50.0283 149.068 50.0209C148.969 50.0209 148.899 50.0805 148.894 50.1698L148.743 52.1452C148.733 52.2866 148.706 52.6142 148.944 52.783C149.056 52.8599 149.185 52.8748 149.291 52.8748H149.316C149.656 52.8673 149.994 52.773 150.289 52.5993C150.368 52.5546 150.393 52.4529 150.346 52.376C150.301 52.299 150.202 52.2742 150.125 52.3189Z" fill="#412137"></path><path d="M151.16 54.009C150.202 54.7634 148.81 54.9396 147.691 54.4532C147.612 54.4184 147.515 54.4557 147.478 54.5375C147.443 54.6194 147.48 54.7162 147.562 54.751C148.021 54.952 148.525 55.0513 149.028 55.0513C149.865 55.0513 150.706 54.7807 151.361 54.2646C151.433 54.21 151.445 54.1082 151.388 54.0363C151.333 53.9643 151.229 53.9544 151.16 54.009Z" fill="#412137"></path><path d="M150.239 55.2571C149.761 55.6144 149.031 55.6268 148.54 55.2819C148.468 55.2298 148.366 55.2471 148.314 55.3216C148.262 55.3935 148.279 55.4953 148.354 55.5474C148.649 55.7559 149.011 55.8601 149.371 55.8601C149.751 55.8601 150.13 55.7459 150.435 55.5176C150.507 55.463 150.522 55.3613 150.468 55.2893C150.416 55.2174 150.311 55.2025 150.239 55.2571Z" fill="#412137"></path><path d="M146.892 49.1699C146.681 49.1699 146.51 49.4528 146.51 49.8027C146.51 50.1526 146.681 50.438 146.892 50.438C147.103 50.438 147.274 50.1526 147.274 49.8027C147.274 49.4528 147.103 49.1699 146.892 49.1699Z" fill="#412137"></path><path d="M151.85 49.1699C151.639 49.1699 151.468 49.4528 151.468 49.8027C151.468 50.1526 151.639 50.438 151.85 50.438C152.061 50.438 152.232 50.1526 152.232 49.8027C152.232 49.4528 152.061 49.1699 151.85 49.1699Z" fill="#412137"></path><path d="M147.627 47.9787C147.235 47.7677 146.749 47.7453 146.337 47.9141C145.925 48.0828 145.597 48.4452 145.468 48.8695C145.439 48.9613 145.468 48.9762 145.55 49.0259C145.783 48.6313 146.188 48.3435 146.634 48.2516C147.081 48.1598 147.567 48.2665 147.934 48.537C147.987 48.3037 147.838 48.0928 147.627 47.9787Z" fill="#412137"></path><path d="M152.445 47.9141C152.033 47.7453 151.547 47.7677 151.155 47.9787C150.944 48.0928 150.795 48.3037 150.847 48.537C151.214 48.2665 151.698 48.1598 152.147 48.2516C152.596 48.3435 152.998 48.6313 153.231 49.0259C153.313 48.9762 153.343 48.9613 153.316 48.8695C153.184 48.4452 152.857 48.0828 152.445 47.9141Z" fill="#412137"></path><path d="M144.339 47.7008C144.339 49.2146 144.473 49.8027 144.473 49.8027C144.473 49.8027 145.503 49.2146 145.503 47.7008C145.503 46.187 146.222 44.7849 145.9 44.7849C145.577 44.7849 144.339 46.187 144.339 47.7008Z" fill="#412137"></path><path d="M152.988 44.7847C152.666 44.7847 153.383 46.1868 153.383 47.7006C153.383 49.2144 155.526 50.1475 155.526 50.1475C155.526 50.1475 155.526 48.9811 155.526 47.4673C155.526 45.951 153.308 44.7847 152.988 44.7847Z" fill="#412137"></path><path d="M145.922 44.5117C145.156 45.3729 144.774 46.4027 145.066 46.8147C145.359 47.2242 146.22 46.8569 146.984 45.9958C147.751 45.1322 148.133 44.0998 147.84 43.6928C147.547 43.2833 146.689 43.6481 145.922 44.5117Z" fill="#412137"></path><path d="M150.897 43.5066C150.604 43.9136 150.986 44.946 151.753 45.8071C152.517 46.6707 153.378 47.0355 153.671 46.626C153.966 46.2166 153.581 45.1867 152.815 44.3231C152.05 43.462 151.192 43.0947 150.897 43.5066Z" fill="#412137"></path><path d="M148.84 43.3429C148.069 43.3429 147.446 43.7276 147.446 44.204C147.446 44.6805 148.069 45.0652 148.84 45.0652C149.609 45.0652 150.232 44.6805 150.232 44.204C150.232 43.7276 149.609 43.3429 148.84 43.3429Z" fill="#412137"></path><path d="M150.909 43.0998C150.14 43.0998 149.515 43.6086 149.515 44.2364C149.515 44.8643 150.14 45.373 150.909 45.373C151.678 45.373 152.304 44.8643 152.304 44.2364C152.304 43.6086 151.678 43.0998 150.909 43.0998Z" fill="#412137"></path><path d="M144.448 54.9719C144.061 55.8901 143.292 56.451 142.734 56.2128C142.471 56.1011 142.295 55.8281 142.233 55.4459C142.166 55.0439 142.235 54.5699 142.426 54.1183C142.756 53.3415 143.357 52.8229 143.87 52.8229C143.965 52.8229 144.056 52.8402 144.143 52.8774C144.702 53.1132 144.838 54.0537 144.448 54.9719ZM144.233 52.669C143.563 52.3836 142.657 52.9941 142.221 54.0289C142.01 54.5228 141.935 55.0365 142.007 55.4807C142.084 55.9447 142.31 56.2798 142.645 56.4212C142.756 56.4684 142.876 56.4907 142.997 56.4907C143.605 56.4907 144.292 55.9224 144.657 55.0613C145.096 54.0264 144.905 52.9544 144.233 52.669Z" fill="white"></path><path d="M157.524 55.4459C157.462 55.8281 157.283 56.1011 157.023 56.2128C156.467 56.451 155.695 55.8901 155.306 54.9719C154.919 54.0537 155.055 53.1132 155.613 52.8774C155.698 52.8402 155.789 52.8229 155.884 52.8229C156.4 52.8229 157 53.3415 157.328 54.1183C157.521 54.5699 157.591 55.0439 157.524 55.4459ZM155.524 52.669C154.852 52.9544 154.661 54.0264 155.097 55.0613C155.462 55.9224 156.152 56.4907 156.759 56.4907C156.881 56.4907 157 56.4684 157.112 56.4212C157.447 56.2798 157.673 55.9447 157.747 55.4807C157.821 55.0365 157.744 54.5228 157.536 54.0289C157.099 52.9941 156.196 52.3886 155.524 52.669Z" fill="white"></path><path d="M151.815 79.1327C150.656 79.3461 149.309 79.5645 147.964 79.49C146.552 79.4106 145.317 79.0036 144.389 78.3088C143.327 77.5122 142.675 76.2838 142.69 75.1075C142.69 75.0182 142.618 74.9437 142.528 74.9437H142.526C142.436 74.9437 142.362 75.0132 142.362 75.1026C142.347 76.3831 143.049 77.7107 144.196 78.5694C145.173 79.3039 146.471 79.7332 147.947 79.8151C148.135 79.825 148.326 79.8325 148.515 79.8325C149.701 79.8325 150.86 79.6389 151.874 79.4553C151.961 79.4379 152.021 79.3535 152.006 79.2667C151.988 79.1774 151.907 79.1203 151.815 79.1327Z" fill="#412137"></path><path d="M144.843 121.038C144.846 120.951 144.776 120.879 144.689 120.876C144.59 120.866 144.528 120.946 144.525 121.033C144.114 142.608 146.751 164.898 148.51 173.881C148.525 173.956 148.592 174.01 148.666 174.01L148.696 174.005C148.783 173.99 148.837 173.906 148.82 173.819C147.064 164.851 144.431 142.588 144.843 121.038Z" fill="#EAF2FE"></path><path fill-rule="evenodd" clip-rule="evenodd" d="M174.065 107.818L153.723 98.2885C152.378 97.6582 150.78 98.2388 150.15 99.5814L143.987 112.741C143.359 114.084 143.937 115.682 145.28 116.313L165.624 125.842C166.966 126.47 168.564 125.892 169.194 124.549L175.357 111.389C175.985 110.046 175.407 108.446 174.065 107.818Z" fill="#AAB6C2"></path><path fill-rule="evenodd" clip-rule="evenodd" d="M149.021 107.073C148.515 108.153 147.232 108.617 146.155 108.111C145.079 107.607 144.615 106.324 145.118 105.247C145.625 104.167 146.907 103.706 147.982 104.209C149.061 104.713 149.525 105.996 149.021 107.073ZM148.483 103.142C146.815 102.361 144.833 103.078 144.052 104.746C143.27 106.413 143.987 108.398 145.654 109.18C147.324 109.959 149.306 109.242 150.088 107.575C150.869 105.907 150.15 103.922 148.483 103.142Z" fill="#3C2A39"></path><path fill-rule="evenodd" clip-rule="evenodd" d="M172.253 108.535L154.035 99.9984C153.065 99.5442 151.924 99.77 151.202 100.562C151.036 100.743 150.897 100.949 150.79 101.175L145.622 112.213C145.347 112.803 145.317 113.464 145.538 114.079C145.761 114.692 146.208 115.181 146.798 115.456L165.014 123.991C165.984 124.447 167.123 124.221 167.847 123.43C168.013 123.249 168.152 123.043 168.259 122.817L173.427 111.779C173.702 111.188 173.732 110.525 173.511 109.912C173.288 109.299 172.842 108.811 172.253 108.535Z" fill="white"></path><path d="M173.256 111.699L168.088 122.738C167.989 122.948 167.86 123.14 167.708 123.303C167.063 124.011 166.009 124.249 165.093 123.822L146.878 115.288C145.751 114.759 145.265 113.419 145.793 112.292L150.961 101.254C151.061 101.043 151.19 100.852 151.338 100.688C151.986 99.9811 153.04 99.7404 153.956 100.17L172.174 108.704C173.298 109.233 173.784 110.573 173.256 111.699ZM172.333 108.364L154.115 99.8297C153.068 99.3383 151.842 99.5815 151.063 100.435C150.884 100.629 150.736 100.852 150.621 101.095L145.453 112.134C145.156 112.769 145.123 113.481 145.362 114.141C145.6 114.801 146.081 115.33 146.716 115.628L164.934 124.162C165.979 124.651 167.207 124.408 167.986 123.556C168.165 123.36 168.314 123.14 168.428 122.896L173.596 111.858C173.894 111.223 173.926 110.511 173.688 109.848C173.447 109.19 172.966 108.662 172.333 108.364Z" fill="#3C2A39"></path><path fill-rule="evenodd" clip-rule="evenodd" d="M151.125 103.981L149.773 103.348L146.642 110.039L147.994 110.672C148.505 110.91 149.11 110.692 149.349 110.18L151.616 105.339C151.857 104.83 151.636 104.222 151.125 103.981Z" fill="#3C2A39"></path><path d="M155.293 101.778C154.913 101.596 154.457 101.763 154.278 102.145L148.731 113.99C148.552 114.374 148.718 114.828 149.1 115.007C149.483 115.186 149.937 115.022 150.115 114.64L155.663 102.793C155.742 102.626 155.755 102.443 155.71 102.279C155.655 102.065 155.509 101.879 155.293 101.778Z" fill="#AAB6C2"></path><path d="M157.338 102.733C156.956 102.554 156.501 102.721 156.32 103.103L150.775 114.95C150.594 115.332 150.76 115.786 151.142 115.965C151.525 116.144 151.981 115.98 152.16 115.598L157.707 103.751C157.787 103.582 157.797 103.401 157.754 103.234C157.697 103.023 157.553 102.835 157.338 102.733Z" fill="#AAB6C2"></path><path d="M161.424 104.649C161.042 104.47 160.588 104.637 160.407 105.019L154.862 116.863C154.683 117.248 154.847 117.702 155.231 117.881C155.613 118.06 156.067 117.896 156.246 117.511L161.794 105.666C161.873 105.498 161.883 105.316 161.841 105.15C161.786 104.937 161.64 104.751 161.424 104.649Z" fill="#AAB6C2"></path><path d="M163.468 105.607C163.086 105.428 162.632 105.594 162.451 105.977L156.903 117.821C156.725 118.204 156.891 118.658 157.273 118.839C157.655 119.017 158.109 118.851 158.29 118.469L163.835 106.624C163.915 106.456 163.927 106.274 163.885 106.108C163.828 105.895 163.682 105.709 163.468 105.607Z" fill="#AAB6C2"></path><path d="M165.51 106.565C165.131 106.386 164.674 106.55 164.495 106.932L158.948 118.779C158.767 119.161 158.935 119.615 159.318 119.794C159.7 119.973 160.154 119.809 160.332 119.427L165.88 107.58C165.959 107.413 165.972 107.23 165.927 107.063C165.872 106.853 165.726 106.664 165.51 106.565Z" fill="#AAB6C2"></path><path d="M171.641 109.436C171.259 109.257 170.805 109.421 170.626 109.806L165.078 121.65C164.9 122.032 165.066 122.487 165.448 122.668C165.83 122.846 166.284 122.683 166.465 122.298L172.01 110.451C172.09 110.284 172.102 110.101 172.058 109.937C172.003 109.724 171.857 109.538 171.641 109.436Z" fill="#AAB6C2"></path><path d="M151.217 163.781C151.219 163.694 151.152 163.619 151.063 163.617C150.976 163.617 150.902 163.682 150.899 163.768C150.775 167.079 151.329 170.464 152.5 173.561C152.524 173.623 152.587 173.663 152.649 173.663L152.706 173.653C152.787 173.62 152.83 173.529 152.797 173.447C151.641 170.389 151.095 167.047 151.217 163.781Z" fill="#EAF2FE"></path><path d="M161.659 69.0327C158.035 70.9312 154.72 68.9384 154.584 72.842C154.303 80.8452 161.789 94.5115 161.789 94.5115L155.447 112.915C155.06 112.756 154.665 112.6 154.261 112.451C153.688 112.238 153.07 111.707 152.636 111.714C151.542 111.726 153.432 113.595 154.139 114.518C154.857 115.449 152.544 119.953 153.542 120.514C153.673 120.586 153.837 120.631 154.023 120.653C154.015 120.725 154.013 120.797 154.02 120.871C154.053 121.209 154.303 121.581 154.66 121.658C154.762 121.67 154.901 121.524 155.055 121.298C155.11 121.618 155.343 121.948 155.678 122.018C155.782 122.03 155.928 121.874 156.085 121.636C156.157 121.938 156.38 122.241 156.697 122.308C156.789 122.321 156.913 122.199 157.05 122.005C157.161 122.209 157.338 122.383 157.566 122.432C157.955 122.477 158.888 120.238 159.037 119.906C159.116 119.735 159.429 119.035 159.665 118.288C161.24 115.66 172.311 96.8641 170.681 90.8784C169.323 85.8953 161.659 69.0327 161.659 69.0327Z" fill="white"></path><path d="M159.6 118.268C159.446 118.757 159.231 119.315 158.975 119.878C158.963 119.911 158.94 119.958 158.913 120.02C158.025 122.057 157.695 122.363 157.578 122.365C157.328 122.308 157.176 122.097 157.109 121.973L157.057 121.879L156.995 121.965C156.814 122.221 156.73 122.241 156.71 122.243C156.41 122.176 156.214 121.884 156.152 121.621L156.114 121.467L156.028 121.598C155.812 121.926 155.715 121.951 155.693 121.951C155.368 121.884 155.169 121.559 155.122 121.286L155.092 121.119L154.998 121.258C154.789 121.568 154.695 121.591 154.673 121.593C154.343 121.521 154.117 121.166 154.087 120.866C154.082 120.804 154.082 120.742 154.09 120.66L154.097 120.593L154.033 120.586C153.847 120.563 153.693 120.519 153.576 120.454C153.102 120.189 153.482 118.826 153.847 117.508C154.214 116.193 154.559 114.95 154.194 114.476C154.043 114.28 153.839 114.042 153.623 113.789C153.043 113.109 152.249 112.175 152.385 111.878C152.413 111.816 152.497 111.783 152.643 111.781C152.882 111.781 153.192 111.962 153.524 112.151C153.757 112.287 154.001 112.426 154.236 112.516C154.623 112.657 155.01 112.808 155.42 112.977L155.487 113.004L161.853 94.5337L161.863 94.5064L161.848 94.4791C161.774 94.3426 154.375 80.7384 154.653 72.8444C154.735 70.4843 155.963 70.3379 157.821 70.1171C158.965 69.9806 160.26 69.8242 161.625 69.1269C162.151 70.2833 169.318 86.1334 170.614 90.8981C172.249 96.8962 160.905 116.084 159.6 118.268ZM161.721 69.0028L161.692 68.9383L161.627 68.9705C160.258 69.6877 158.955 69.8441 157.806 69.9806C155.946 70.2014 154.603 70.3627 154.517 72.8394C154.244 80.6019 161.344 93.8339 161.714 94.5188L155.405 112.823C155.018 112.664 154.651 112.523 154.283 112.386C154.058 112.302 153.822 112.166 153.591 112.034C153.244 111.833 152.919 111.644 152.636 111.644C152.44 111.647 152.313 111.706 152.261 111.823C152.103 112.173 152.683 112.895 153.522 113.878C153.735 114.129 153.938 114.367 154.085 114.56C154.407 114.98 154.058 116.245 153.715 117.471C153.318 118.903 152.944 120.256 153.509 120.573C153.626 120.638 153.775 120.685 153.951 120.712C153.946 120.774 153.946 120.826 153.951 120.879C153.986 121.224 154.239 121.638 154.651 121.727H154.67C154.772 121.727 154.884 121.643 155.025 121.457C155.117 121.735 155.338 122.015 155.668 122.087H155.688C155.792 122.087 155.913 121.993 156.062 121.789C156.164 122.052 156.377 122.31 156.69 122.377H156.707C156.804 122.377 156.911 122.3 157.045 122.127C157.176 122.325 157.355 122.454 157.558 122.499H157.578C157.856 122.499 158.305 121.752 159.039 120.075L159.099 119.936C159.357 119.365 159.573 118.804 159.724 118.322C161.027 116.149 172.395 96.9136 170.748 90.8609C169.405 85.9299 161.798 69.1716 161.721 69.0028Z" fill="black"></path><path d="M157.824 163.62C157.737 163.629 157.678 163.709 157.687 163.798C158.109 167.029 157.965 170.283 157.258 173.464C157.238 173.551 157.293 173.635 157.377 173.655L157.412 173.658C157.486 173.658 157.551 173.608 157.568 173.534C158.283 170.315 158.429 167.024 158.003 163.756C157.993 163.669 157.926 163.612 157.824 163.62Z" fill="#EAF2FE"></path><path d="M140.628 164.468C140.635 164.381 140.571 164.304 140.484 164.297C140.395 164.285 140.318 164.357 140.313 164.443C140.07 167.523 140.677 170.608 142.074 173.362C142.102 173.419 142.156 173.449 142.216 173.449C142.241 173.449 142.263 173.444 142.288 173.432C142.365 173.395 142.397 173.298 142.357 173.218C140.988 170.516 140.39 167.491 140.628 164.468Z" fill="#EAF2FE"></path><path d="M156.41 63.2779L151.328 70.6384V70.6434L151.108 73.8645L155.886 80.6939L157.643 87.8608C158.375 87.6152 159.099 87.3297 159.814 86.9873C159.91 86.9426 160.012 86.8955 160.109 86.8458C162.965 84.9424 165.366 82.5055 166.304 79.2074L164.865 73.321C163.917 68.7648 160.739 64.9903 156.41 63.2779Z" fill="#FBB53B"></path><path d="M155.397 79.8748C155.311 79.8971 155.258 79.9864 155.281 80.0733L157.395 87.8879C157.415 87.9599 157.479 88.0095 157.551 88.0095L157.596 88.0021C157.682 87.9797 157.732 87.8904 157.71 87.8035L155.596 79.9889C155.574 79.902 155.484 79.8499 155.397 79.8748Z" fill="#412137"></path><path d="M140.965 175.549C140.965 175.549 137.254 178.814 132.917 178.896C128.582 178.978 129.419 181.924 129.419 181.924V183.606H150.364V182.696L150.393 182.658C151.587 180.4 147.984 175.549 147.984 175.549H140.965Z" fill="#412137"></path><path d="M151.356 175.549C151.356 175.549 147.629 178.814 143.293 178.896C138.958 178.978 139.794 181.924 139.794 181.924V183.606H159.829C160.332 183.606 160.739 183.199 160.739 182.696L160.771 182.658C161.198 179.981 158.618 175.549 158.618 175.549H151.356Z" fill="#412137"></path><path d="M125.5 181.789V216.21L95.5 233.423L65.5 216.21V181.789L95.5 164.576L125.5 181.789Z" fill="white" stroke="#939598"></path><path d="M92.8789 198.789V198.711C89.5846 197.148 87.9375 194.889 87.9375 191.934C87.9375 189.902 88.7643 188.242 90.418 186.953C92.0716 185.651 94.2005 185 96.8047 185C99.1615 185 101.095 185.605 102.605 186.816C104.116 188.027 104.871 189.583 104.871 191.484C104.871 194.583 103.139 196.992 99.6758 198.711V198.789C103.686 200.247 105.691 202.773 105.691 206.367C105.691 208.685 104.812 210.527 103.055 211.895C101.297 213.262 98.849 213.945 95.7109 213.945C93.1719 213.945 91.082 213.268 89.4414 211.914C87.8138 210.56 87 208.802 87 206.641C87 203.047 88.9596 200.43 92.8789 198.789ZM100.457 192.168C100.457 191.035 100.099 190.143 99.3828 189.492C98.6797 188.828 97.7161 188.496 96.4922 188.496C95.3464 188.496 94.3763 188.841 93.582 189.531C92.7878 190.208 92.3906 191.074 92.3906 192.129C92.3906 194.277 93.7253 195.898 96.3945 196.992C99.1029 195.872 100.457 194.264 100.457 192.168ZM96.1602 200.762C93.0091 202.025 91.4336 203.848 91.4336 206.23C91.4336 207.467 91.8893 208.483 92.8008 209.277C93.7253 210.072 94.9362 210.469 96.4336 210.469C97.8529 210.469 99.0117 210.078 99.9102 209.297C100.822 208.516 101.277 207.533 101.277 206.348C101.277 203.848 99.5716 201.986 96.1602 200.762Z" fill="#D82532"></path></svg>