<svg xmlns="http://www.w3.org/2000/svg" width="70" height="70" viewBox="0 0 70 70" fill="none"><path d="M69.918 48.3762L69.5416 46.9706C69.03 45.0602 67.34 43.7736 65.4625 43.6818L64.4904 41.998C63.2974 39.932 60.6844 39.1862 58.5893 40.279C57.9912 39.3373 57.0755 38.6638 55.991 38.3733C54.8446 38.066 53.6471 38.2237 52.6194 38.8172L49.5285 40.6018C49.0381 40.885 48.87 41.5121 49.1532 42.0025C49.4363 42.493 50.0637 42.6612 50.5539 42.3778L53.6448 40.5932C54.1981 40.2738 54.8427 40.1888 55.4603 40.3542C56.0138 40.5026 56.4859 40.8363 56.8079 41.3028L43.2353 49.1389C42.4105 49.0397 41.6259 48.6694 41.0221 48.0657L40.9049 47.9485L46.3645 44.7965C46.8549 44.5133 47.023 43.8862 46.7398 43.3958C46.4568 42.9053 45.8293 42.7372 45.3391 43.0205L39.4036 46.4474L35.3521 42.396H39.6691C40.7928 42.396 41.8502 41.9585 42.6481 41.1624C43.4576 40.3509 43.895 39.2732 43.8797 38.1276C43.849 35.8375 41.9281 33.9741 39.5975 33.9741H33.7655C33.1991 33.9741 32.7401 34.4332 32.7401 34.9995C32.7401 35.5658 33.1991 36.0249 33.7655 36.0249H39.5975C40.8124 36.0249 41.8134 36.9806 41.8292 38.1551C41.8371 38.7434 41.6122 39.297 41.1981 39.7122C40.789 40.1203 40.246 40.3451 39.6691 40.3451H28.9802C28.4138 40.3451 27.9548 40.8042 27.9548 41.3705C27.9548 41.9367 28.4138 42.3958 28.9802 42.3958H32.4518L39.5718 49.5157C41.0124 50.9566 43.1553 51.5634 45.1845 51.0196L64.6297 45.809C65.905 45.4679 67.2192 46.2263 67.5607 47.5009L67.9372 48.9066C67.9859 49.0886 67.8774 49.2765 67.6953 49.3251L43.1415 55.9047C42.5051 56.0752 41.8322 56.0753 41.1955 55.9047L27.7533 52.3029C24.6714 51.4771 21.4243 52.5792 19.4817 55.1107L18.0638 56.9584L16.6144 55.5091C16.214 55.1086 15.5649 55.1086 15.1643 55.5091C14.7638 55.9095 14.7638 56.5588 15.1643 56.9591L17.4368 59.2316L17.4458 59.2407L18.7753 60.5701L13.1129 67.9493L2.05091 67.9487V55.0151L7.63559 49.4303L11.6741 53.4687C12.0744 53.8693 12.7237 53.8691 13.1242 53.4687C13.5246 53.0682 13.5246 52.419 13.1242 52.0186L9.08563 47.9802L17.337 39.7289C19.7256 37.3403 22.9013 36.0249 26.2793 36.0249H28.9805C29.5469 36.0249 30.0059 35.5658 30.0059 34.9995C30.0059 34.4332 29.5469 33.9741 28.9805 33.9741H26.2793C22.3536 33.9741 18.6628 35.5029 15.8867 38.2788L6.9103 47.2552L0.500937 53.6647C0.178007 53.9875 0 54.4167 0 54.8735V68.2905C0 69.2329 0.766581 69.9994 1.70898 69.9994L13.2814 70.0001C13.8091 70.0001 14.3159 69.7502 14.6372 69.3316L20.5847 61.5807C21.1048 60.9029 21.0415 59.9361 20.4374 59.332L19.5265 58.4212L21.1088 56.3592C22.5446 54.488 24.944 53.6733 27.2226 54.2839L40.6647 57.8858C41.6484 58.1496 42.6886 58.1495 43.6725 57.8858L68.2264 51.3062C69.5004 50.9647 70.2594 49.6504 69.918 48.3762ZM62.7144 43.0235L63.3023 44.0418L49.9844 47.6106L59.446 42.1478C60.5882 41.4883 62.0547 41.881 62.7144 43.0235Z" fill="#D82532"></path><path d="M30.9975 12.3142L35.3896 16.4457C35.6898 16.7282 35.8268 17.1394 35.756 17.5456L34.6804 23.7012C34.5259 24.5849 34.8836 25.4574 35.6137 25.9784C36.3439 26.4995 37.2856 26.5539 38.0708 26.1206L43.4449 23.1553C43.8145 22.9515 44.2557 22.9515 44.6252 23.1553L49.9993 26.1206C50.7774 26.55 51.7192 26.5044 52.4564 25.9786C53.1866 25.4575 53.5443 24.5849 53.3898 23.7012L52.3142 17.5456C52.2433 17.1393 52.3801 16.7282 52.6807 16.4457L57.0727 12.3142C57.7204 11.705 57.9594 10.7988 57.6964 9.94942C57.4335 9.09998 56.7244 8.48735 55.8457 8.35049L49.7076 7.39483C49.3159 7.33385 48.9768 7.0853 48.801 6.72983L46.1045 1.28461C46.1044 1.28461 46.1044 1.28461 46.1044 1.28461C45.712 0.492187 44.919 0 44.0347 0C43.1506 0 42.3576 0.492323 41.9653 1.28461L39.2693 6.72983C39.0932 7.0853 38.7542 7.33385 38.3625 7.39483L32.2243 8.35049C31.3456 8.48721 30.6364 9.09998 30.3735 9.94955C30.1106 10.7991 30.3497 11.7052 30.9975 12.3142ZM32.3327 10.5558C32.3544 10.4854 32.408 10.3973 32.5398 10.3767L38.6779 9.421C39.7275 9.25762 40.6355 8.5918 41.1072 7.63969L43.8034 2.19433C43.8622 2.07552 43.9617 2.05064 44.0348 2.05064C44.108 2.05064 44.2077 2.07552 44.2664 2.19447L46.9627 7.63983C47.4339 8.5918 48.3422 9.25776 49.3919 9.42113L55.53 10.3768C55.6618 10.3973 55.7154 10.4855 55.7373 10.5559C55.759 10.6262 55.7645 10.7293 55.6674 10.8206L51.2755 14.9519C50.4706 15.7088 50.1038 16.8104 50.294 17.8988L51.3695 24.0544C51.3926 24.1869 51.3255 24.2662 51.2649 24.3092C51.2046 24.3524 51.1078 24.3903 50.9899 24.3251L45.6156 21.3598C44.6257 20.8136 43.4438 20.8136 42.454 21.3598L37.0798 24.3251C36.9619 24.3902 36.8651 24.3524 36.8048 24.3092C36.7443 24.266 36.6771 24.1869 36.7002 24.0543L37.7759 17.8985C37.9659 16.8102 37.599 15.7087 36.7944 14.9519L32.4023 10.8204C32.3054 10.7291 32.311 10.6262 32.3327 10.5558Z" fill="#D82532"></path><path d="M22.2595 16.9309H25.2702C25.8367 16.9309 26.2956 16.4718 26.2956 15.9055C26.2956 15.3392 25.8367 14.8801 25.2702 14.8801H22.2595C21.6931 14.8801 21.2342 15.3392 21.2342 15.9055C21.2342 16.4718 21.6931 16.9309 22.2595 16.9309Z" fill="#D82532"></path><path d="M26.3224 21.5301L24.1948 23.6577C23.7944 24.0581 23.7944 24.7074 24.1948 25.1077C24.5954 25.5082 25.2445 25.5082 25.645 25.1077L27.7726 22.9801C28.173 22.5797 28.173 21.9304 27.7726 21.5301C27.3721 21.1296 26.723 21.1296 26.3224 21.5301Z" fill="#D82532"></path><path d="M26.3087 10.2494C26.7089 10.6499 27.3583 10.6499 27.7588 10.2494C28.1592 9.84899 28.1592 9.19971 27.7588 8.7994L25.6298 6.67056C25.2292 6.26983 24.5799 6.27011 24.1798 6.67056C23.7793 7.071 23.7793 7.72028 24.1798 8.12059L26.3087 10.2494Z" fill="#D82532"></path><path d="M61.7742 15.9055C61.7742 16.4718 62.2332 16.9309 62.7996 16.9309H65.8103C66.3767 16.9309 66.8357 16.4718 66.8357 15.9055C66.8357 15.3392 66.3767 14.8801 65.8103 14.8801H62.7996C62.2332 14.8801 61.7742 15.3392 61.7742 15.9055Z" fill="#D82532"></path><path d="M62.4247 25.108C62.8253 25.5084 63.4744 25.5084 63.8749 25.108C64.2753 24.7075 64.2753 24.0582 63.8749 23.6579L61.7473 21.5303C61.3467 21.1299 60.6975 21.1299 60.2971 21.5303C59.8967 21.9308 59.8967 22.58 60.2971 22.9804L62.4247 25.108Z" fill="#D82532"></path><path d="M61.7609 10.2496L63.8899 8.12073C64.2904 7.72029 64.2904 7.07115 63.8899 6.6707C63.4895 6.27025 62.8402 6.27025 62.4399 6.6707L60.3109 8.79954C59.9104 9.19999 59.9104 9.84913 60.3109 10.2496C60.7112 10.6499 61.3605 10.6502 61.7609 10.2496Z" fill="#D82532"></path></svg>