<svg xmlns="http://www.w3.org/2000/svg" width="70" height="70" viewBox="0 0 70 70" fill="none"><path d="M62.6869 26.0654C62.1206 26.0654 61.6615 26.5244 61.6615 27.0908V60.4639H55.7402V56.1572C55.7402 55.5908 55.2811 55.1318 54.7148 55.1318C54.1486 55.1318 53.6894 55.5908 53.6894 56.1572V67.5582C53.6894 67.7738 53.514 67.9492 53.2984 67.9492H8.72949C8.51388 67.9492 8.33847 67.7738 8.33847 67.5582V52.2115C8.33847 51.6451 7.87937 51.1861 7.31308 51.1861C6.74679 51.1861 6.28769 51.6451 6.28769 52.2115V67.5582C6.28769 68.9048 7.38308 70 8.72949 70H53.2984C54.4776 70 55.4642 69.1597 55.691 68.0464H58.0428C59.3893 68.0464 60.4846 66.951 60.4846 65.6046V62.5146H61.9787C62.9346 62.5146 63.7123 61.737 63.7123 60.7811V27.0908C63.7123 26.5245 63.2532 26.0654 62.6869 26.0654ZM58.4339 65.6046C58.4339 65.8202 58.2584 65.9956 58.0428 65.9956H55.7402V62.5146H58.4339V65.6046Z" fill="#D82532"></path><path d="M61.9787 13.8223H60.4846V10.733C60.4846 9.38643 59.3893 8.29117 58.0428 8.29117H51.755C51.5285 7.1776 50.5418 6.33691 49.3623 6.33691H41.0799V5.40586C41.0799 4.45006 40.3022 3.67227 39.3463 3.67227H32.4078V3.11336C32.4078 1.39672 31.0111 0 29.2943 0C27.5775 0 26.1808 1.39672 26.1808 3.11336V3.67227H19.2432C18.2872 3.67227 17.5096 4.44992 17.5096 5.40586V6.33691H8.72949C7.38308 6.33691 6.28769 7.4323 6.28769 8.77871V47.4264C6.28769 47.9928 6.74679 48.4518 7.31308 48.4518C7.87937 48.4518 8.33847 47.9928 8.33847 47.4264V8.77871C8.33847 8.56311 8.51388 8.3877 8.72949 8.3877H17.5096V10.5875C17.5096 11.1539 17.9687 11.6129 18.535 11.6129C19.1012 11.6129 19.5603 11.1539 19.5603 10.5875V5.72305H26.1808V8.26492C26.1808 9.9817 27.5775 11.3783 29.2943 11.3783C31.0111 11.3783 32.4077 9.98156 32.4077 8.26492C32.4077 7.6985 31.9486 7.23953 31.3823 7.23953C30.816 7.23953 30.3569 7.6985 30.3569 8.26492C30.3569 8.8509 29.8801 9.3275 29.2943 9.3275C28.7083 9.3275 28.2316 8.8509 28.2316 8.26492V5.72305H39.0291V29.6365H37.1582C37.0087 27.0903 35.6355 24.7859 33.5028 23.4377C34.2076 22.4695 34.6091 21.2853 34.6091 20.0313V18.4795C34.6091 15.5489 32.225 13.1648 29.2944 13.1648C26.3639 13.1648 23.9798 15.5489 23.9798 18.4795V20.0313C23.9798 21.2853 24.3813 22.4696 25.0861 23.4378C22.951 24.7845 21.5791 27.0819 21.4304 29.6365H19.5603V15.3727C19.5603 14.8062 19.1012 14.3473 18.535 14.3473C17.9687 14.3473 17.5096 14.8062 17.5096 15.3727V29.9537C17.5096 30.9095 18.2872 31.6873 19.2432 31.6873H39.3463C40.3022 31.6873 41.0799 30.9096 41.0799 29.9537V8.3877H49.3623C49.5779 8.3877 49.7533 8.56311 49.7533 8.77871V43.3686C49.7533 44.1541 50.1349 44.8963 50.7738 45.3536L53.5273 47.3246C53.6289 47.397 53.6894 47.5154 53.6894 47.641V51.3721C53.6894 51.9385 54.1486 52.3975 54.7148 52.3975C55.2811 52.3975 55.7402 51.9385 55.7402 51.3721V47.641C55.7402 46.8541 55.3582 46.1115 54.7198 45.656L51.9675 43.6857C51.8652 43.6126 51.8042 43.4941 51.8042 43.3686V37.9716H57.9461C58.5123 37.9716 58.9714 37.5126 58.9714 36.9462C58.9714 36.3798 58.5123 35.9208 57.9461 35.9208H51.8041V32.3053H57.9459C58.5122 32.3053 58.9713 31.8463 58.9713 31.2799C58.9713 30.7135 58.5122 30.2545 57.9459 30.2545H51.8041V26.6391H57.9459C58.5122 26.6391 58.9713 26.1801 58.9713 25.6137C58.9713 25.0473 58.5122 24.5883 57.9459 24.5883H51.8041V15.873H61.6615V22.3058C61.6615 22.8722 62.1206 23.3312 62.6869 23.3312C63.2532 23.3312 63.7123 22.8722 63.7123 22.3058V15.556C63.7123 14.5999 62.9346 13.8223 61.9787 13.8223ZM28.2316 3.11336C28.2316 2.52738 28.7083 2.05078 29.2943 2.05078C29.8803 2.05078 30.3569 2.52738 30.3569 3.11336V3.67227H28.2316V3.11336ZM26.0304 18.4795C26.0304 16.6797 27.4945 15.2156 29.2943 15.2156C31.0941 15.2156 32.5582 16.6797 32.5582 18.4795V20.0313C32.5582 21.5388 31.6605 22.8907 30.271 23.4754C29.6503 23.7367 28.9383 23.7367 28.3175 23.4756C26.9281 22.8907 26.0303 21.5388 26.0303 20.0313L26.0304 18.4795ZM26.6473 24.9058C26.9222 25.0813 27.214 25.2361 27.522 25.3657C28.0852 25.6026 28.6897 25.7212 29.2943 25.7212C29.8989 25.7212 30.5035 25.6028 31.0666 25.3657C31.3742 25.2362 31.6657 25.0816 31.9405 24.9063C33.7464 25.8274 34.9433 27.622 35.1034 29.6364H23.4849C23.6444 27.6158 24.8391 25.8269 26.6473 24.9058ZM51.8041 10.342H58.0428C58.2584 10.342 58.4339 10.5174 58.4339 10.733V13.8223H51.8041V10.342Z" fill="#D82532"></path><path d="M44.7804 49.8196C44.7804 41.4368 37.9605 34.6167 29.5776 34.6167C21.1947 34.6167 14.3747 41.4368 14.3747 49.8196C14.3747 58.2023 21.1947 65.0223 29.5776 65.0223C37.9605 65.0223 44.7804 58.2023 44.7804 49.8196ZM16.4255 49.8196C16.4255 42.5674 22.3255 36.6675 29.5776 36.6675C36.8296 36.6675 42.7297 42.5674 42.7297 49.8196C42.7297 57.0715 36.8297 62.9715 29.5776 62.9715C22.3255 62.9715 16.4255 57.0715 16.4255 49.8196Z" fill="#D82532"></path><path d="M33.1956 57.4509V53.4372H37.2092C37.7755 53.4372 38.2346 52.9783 38.2346 52.4118V47.2268C38.2346 46.6604 37.7755 46.2014 37.2092 46.2014H33.1956V42.1877C33.1956 41.6213 32.7365 41.1624 32.1702 41.1624H26.9851C26.4188 41.1624 25.9597 41.6213 25.9597 42.1877V46.2014H21.946C21.3797 46.2014 20.9206 46.6604 20.9206 47.2268V52.4118C20.9206 52.9783 21.3797 53.4372 21.946 53.4372H25.9597V57.4509C25.9597 58.0173 26.4188 58.4763 26.9851 58.4763H32.1702C32.7365 58.4763 33.1956 58.0172 33.1956 57.4509ZM31.1448 52.4117V56.4254H28.0105V52.4117C28.0105 51.8453 27.5514 51.3863 26.9851 51.3863H22.9713V48.252H26.9851C27.5514 48.252 28.0105 47.7931 28.0105 47.2266V43.213H31.1448V47.2266C31.1448 47.7931 31.6039 48.252 32.1702 48.252H36.1838V51.3863H32.1702C31.6039 51.3863 31.1448 51.8454 31.1448 52.4117Z" fill="#D82532"></path></svg>