<svg xmlns="http://www.w3.org/2000/svg" width="70" height="70" viewBox="0 0 70 70" fill="none"><g clip-path="url(#clip0_5553_434)"><path d="M41.8913 19.3874C41.7945 20.2781 42.2848 21.1058 43.1108 21.4468C43.363 21.551 43.6246 21.6011 43.8828 21.6011C44.4773 21.6011 45.0529 21.3343 45.4464 20.8426C47.0258 18.8694 48.3789 16.0252 49.4683 12.3889C49.6307 11.8465 49.3228 11.275 48.7804 11.1126C48.2382 10.9506 47.6666 11.2581 47.504 11.8004C46.5165 15.0967 45.3227 17.6602 43.9492 19.4291C44.6913 12.4218 44.0738 8.07869 43.627 6.07972L49.0302 5.00716C48.9148 5.73834 48.7804 6.48865 48.6303 7.23855C48.5193 7.79377 48.8793 8.33394 49.4345 8.44509C49.9885 8.55515 50.5299 8.19627 50.641 7.64091C50.8017 6.83824 50.9451 6.03447 51.0675 5.25216C51.1682 4.60712 50.9473 3.95197 50.4764 3.50011C50.0061 3.04853 49.343 2.85439 48.7033 2.98168L43.1755 4.07884C42.6422 4.18439 42.1855 4.49365 41.8894 4.94933C41.5924 5.40625 41.4955 5.95107 41.6161 6.48332C42.6016 10.8359 42.2116 16.4364 41.8913 19.3874Z" fill="#D82532"></path><path d="M49.2793 26.8496C49.6315 27.5234 50.302 27.92 51.0321 27.92C51.4983 27.92 51.9544 27.8101 52.4047 27.7005C53.5618 27.4193 54.7281 27.2268 55.9164 27.0745C57.7366 26.8413 59.5905 26.7164 61.4224 26.8793C61.9636 26.9269 62.488 26.7605 62.9005 26.4092C63.3113 26.0595 63.5588 25.5703 63.5972 25.0319L63.9037 20.7499C63.9506 20.0968 63.6743 19.4615 63.1646 19.0505C62.6556 18.6399 61.9776 18.5043 61.3497 18.688C58.4022 19.5513 52.9701 21.4461 49.705 24.4372C49.0227 25.0624 48.8517 26.0318 49.2793 26.8496ZM61.8532 20.6774L61.5559 24.8329C58.0896 24.5341 54.0649 25.1961 51.2274 25.8257C54.2889 23.1135 59.6069 21.3398 61.8532 20.6774Z" fill="#D82532"></path><path d="M69.2714 8.95214C69.1644 8.80872 68.1492 7.44837 67.7487 6.91175C67.7078 6.85693 67.6219 6.77927 67.6007 6.71351C67.5347 6.50788 67.737 6.11878 67.8048 5.90878C68.0185 5.24651 68.2527 4.59136 68.4763 3.93237C68.7395 3.15636 68.543 2.31431 67.9636 1.73476C67.384 1.15521 66.5416 0.958741 65.766 1.22206C65.7642 1.22261 65.7624 1.22329 65.7606 1.22384C65.2537 1.39583 64.7466 1.56769 64.2396 1.73968C63.9428 1.8403 63.646 1.94093 63.3492 2.04169C62.9537 2.17581 62.8466 1.99466 62.5423 1.76743C62.2892 1.57862 62.036 1.38968 61.7829 1.20073C61.4373 0.942745 61.0917 0.684894 60.7459 0.426905C60.0891 -0.0630948 59.2275 -0.136786 58.4973 0.235636C57.7735 0.60464 57.3202 1.36151 57.3307 2.1672V4.9121C57.298 5.14398 57.0674 5.28028 56.876 5.41413C56.6215 5.59214 55.3829 6.44116 55.0233 6.69546C54.3542 7.16851 54.0181 7.9653 54.1464 8.77468C54.2746 9.58419 54.8404 10.2383 55.6228 10.4816C56.0502 10.6145 57.5159 11.07 57.8215 11.1651C57.9287 11.1984 58.0362 11.2306 58.1432 11.265C58.431 11.3581 58.4474 11.6007 58.5268 11.8563C58.6221 12.163 59.0819 13.6423 59.2166 14.0754C59.4599 14.858 60.114 15.4237 60.9235 15.5518C61.0375 15.57 61.1512 15.5788 61.2638 15.5788C61.9508 15.5788 62.5963 15.2497 63.0026 14.6748L64.6341 12.3681C64.6506 12.3445 64.6769 12.3317 64.706 12.3314L67.531 12.3675C68.3483 12.3819 69.0907 11.931 69.4627 11.2006C69.8348 10.4705 69.7614 9.6088 69.2714 8.95214ZM67.5305 10.2008C67.4801 10.3334 67.261 10.3253 67.1539 10.327C66.8361 10.3319 65.222 10.2873 64.7322 10.281C64.2682 10.2752 63.8087 10.4234 63.4352 10.699C63.0711 10.9678 62.8503 11.3383 62.5955 11.7031C62.4366 11.9306 62.2779 12.1581 62.1187 12.3853C61.8829 12.722 61.6584 13.0761 61.3968 13.394C61.1811 13.6564 61.0656 13.1152 61.0297 13.0001C60.935 12.6954 60.4726 11.2076 60.336 10.7684C60.1271 10.0966 59.6014 9.57079 58.9295 9.36189C58.6849 9.28587 56.5791 8.68075 56.3415 8.55757C56.0524 8.40773 56.4967 8.13401 56.6187 8.0431C56.8777 7.84978 57.1616 7.6946 57.4249 7.50839C57.7879 7.25177 58.1509 6.99501 58.5137 6.73839C59.0882 6.3322 59.4259 5.66966 59.4167 4.96597C59.4102 4.45204 59.3887 2.773 59.3846 2.44734C59.3812 2.1795 59.4325 2.01763 59.7056 2.20917C60.4123 2.70464 61.092 3.24345 61.7836 3.75984C62.3473 4.18066 63.0819 4.297 63.748 4.07128C64.1907 3.9213 65.6934 3.41161 66.0022 3.30689C66.1499 3.25685 66.5785 3.04466 66.5005 3.37292C66.4431 3.61478 66.3372 3.85472 66.2573 4.09001C66.0613 4.66819 65.6407 5.9081 65.6265 5.9498C65.4008 6.61616 65.5171 7.35062 65.9377 7.91403C66.2173 8.28864 67.2135 9.62083 67.4384 9.90794C67.5043 9.99134 67.5648 10.1106 67.5305 10.2008Z" fill="#D82532"></path><path d="M18.6923 10.4736C18.7376 10.4736 18.7834 10.4705 18.8295 10.4644L19.2767 10.4046L19.3364 10.8517C19.4052 11.3669 19.8454 11.7413 20.3513 11.7413C20.3965 11.7413 20.4423 11.7383 20.4884 11.7322C21.0496 11.6573 21.4438 11.1414 21.3689 10.5802L21.3091 10.1331L21.7563 10.0734C22.3176 9.99846 22.7117 9.48262 22.6368 8.92139C22.5619 8.36016 22.0454 7.96545 21.4848 8.04105L21.0376 8.1008L20.9779 7.65359C20.9029 7.09236 20.3864 6.69902 19.8259 6.77313C19.2646 6.84805 18.8705 7.36389 18.9454 7.92512L19.0051 8.37232L18.5579 8.43207C17.9967 8.50699 17.6025 9.02283 17.6775 9.58406C17.7462 10.0991 18.1865 10.4736 18.6923 10.4736Z" fill="#D82532"></path><path d="M26.7898 7.71286C29.0214 9.28225 29.4747 11.9909 29.5462 13.466C29.574 14.0403 29.9671 14.5238 30.5238 14.6691C30.6351 14.6982 30.7472 14.7122 30.8578 14.7122C31.3012 14.7122 31.7207 14.4869 31.9647 14.0967C32.7477 12.8445 34.4661 10.7019 37.1796 10.4224C37.7267 10.3659 38.1704 9.9843 38.3097 9.45042C38.449 8.91639 38.2483 8.36678 37.7982 8.05028C35.567 6.48116 35.1135 3.77221 35.0418 2.29716C35.014 1.7228 34.6209 1.23936 34.0642 1.09403C33.5066 0.948288 32.9282 1.1788 32.6233 1.66633C31.8404 2.91854 30.122 5.06134 27.4086 5.34079C26.8614 5.39725 26.4179 5.7787 26.2786 6.31258C26.139 6.84661 26.3396 7.39608 26.7898 7.71286ZM33.2332 4.28026C33.5282 5.69202 34.1502 7.33921 35.4319 8.69997C33.6488 9.26161 32.3017 10.3953 31.3549 11.483C31.0599 10.0713 30.4382 8.42434 29.1561 7.06344C30.9393 6.5018 32.2863 5.368 33.2332 4.28026Z" fill="#D82532"></path><path d="M51.8944 38.5427C47.0695 30.186 40.1021 23.2185 31.7454 18.3937C30.1517 17.4737 28.5061 16.5896 26.8542 15.766C25.5694 15.126 24.0811 15.0954 22.7698 15.6831C21.4567 16.2717 20.4866 17.4058 20.1089 18.7943C20.1089 18.7943 10.0194 55.8746 10.0189 55.8745C9.56349 55.8143 9.19804 55.5462 8.79622 55.2929C8.044 54.8187 7.10802 54.2281 6.05365 54.5051C4.97152 54.7891 4.44009 55.7796 4.01284 56.5759C3.61527 57.3169 3.27661 57.6673 2.52261 58.0531C1.70667 58.4706 0.691399 58.9903 0.384875 60.1069C0.0782152 61.2236 0.68593 62.1888 1.17415 62.9646C1.62491 63.6804 1.73798 64.154 1.7012 64.996C1.66183 65.8984 1.61302 67.0214 2.39861 67.8181C3.16382 68.5941 4.2707 68.5653 5.15909 68.5411C6.05816 68.5178 6.58398 68.6614 7.34564 69.1415C7.96456 69.5316 8.7079 70.0001 9.53888 70.0001C9.71798 70.0001 9.90132 69.9784 10.0882 69.9293C11.1702 69.6453 11.7016 68.655 12.1287 67.859C12.5163 67.1366 12.8886 66.7554 13.6194 66.3812C14.4353 65.9636 15.4506 65.444 15.7571 64.3275C16.0638 63.2107 15.4561 62.2454 14.9678 61.4697C14.7293 61.0907 14.4647 60.7219 14.4327 60.2634L15.8718 59.8719C16.4182 59.7231 16.7407 59.1597 16.5921 58.6134C16.4433 58.0668 15.8793 57.7452 15.3336 57.8931L14.4226 58.141C14.3555 57.5945 14.1767 57.0556 13.7433 56.6162C13.2881 56.1546 12.7121 55.9789 12.133 55.9166L13.8455 49.6225C16.2758 51.7262 18.5612 54.0114 20.6656 56.4424L19.9086 56.6485C19.3623 56.7972 19.0399 57.3606 19.1884 57.907C19.3371 58.4534 19.9008 58.7751 20.4468 58.6272L51.494 50.1793C52.8826 49.8014 54.0165 48.8316 54.6052 47.5182C55.1927 46.2074 55.1625 44.7186 54.5221 43.434C53.6981 41.781 52.8139 40.1353 51.8944 38.5427ZM12.2831 58.056C12.4414 58.2165 12.4116 58.8982 12.3922 59.3495C12.3379 60.6071 12.5546 61.4854 13.2325 62.5622C13.492 62.9744 13.8473 63.5389 13.7798 63.7848C13.7124 64.0304 13.1187 64.3342 12.6852 64.5563C12.1925 64.8084 11.683 65.0691 11.2815 65.465C10.8671 65.8737 10.5898 66.3902 10.3219 66.8896C10.1084 67.2875 9.78579 67.8888 9.56786 67.9459C9.37509 67.9984 8.78884 67.6274 8.43898 67.4069C7.97236 67.1129 7.44353 66.7796 6.86206 66.6199C6.29222 66.4634 5.68915 66.4758 5.10454 66.4915C4.69097 66.5026 3.9989 66.5208 3.85863 66.3786C3.70044 66.2181 3.73011 65.5364 3.74966 65.0854C3.80544 63.802 3.58491 62.9454 2.90939 61.8725C2.6499 61.4603 2.29456 60.8958 2.3621 60.6499C2.4295 60.4043 3.02314 60.1003 3.45654 59.8786C4.52691 59.3306 5.25698 58.5944 5.81986 57.5452C6.03327 57.1472 6.35593 56.5459 6.574 56.4888C6.76841 56.439 7.35302 56.8075 7.70288 57.0279C8.2045 57.3441 8.70325 57.6566 9.27966 57.8148C9.86085 57.9743 10.4857 57.9582 11.0372 57.9432C11.4512 57.9321 12.1428 57.9139 12.2831 58.056ZM22.8532 55.8473C20.3007 52.812 17.4753 49.9868 14.4408 47.435L16.2261 40.8741C20.7199 44.3613 25.9267 49.5681 29.4141 54.062L22.8532 55.8473ZM31.5494 53.4811C27.8066 48.4937 21.7942 42.4814 16.8071 38.7388L18.3638 33.0178C24.7353 38.2452 32.0433 45.553 37.2704 51.9244L31.5494 53.4811ZM39.4343 51.3352C33.9078 44.4706 25.8177 36.3804 18.9531 30.8537L20.9088 23.6657C28.4375 29.0311 41.2568 41.8506 46.6223 49.3793L39.4343 51.3352ZM52.7339 46.6796C52.3975 47.4302 51.7493 47.9849 50.9556 48.2006L48.7241 48.8078C43.302 40.8904 29.3976 26.9858 21.4803 21.5638L22.0875 19.3323C22.3034 18.5386 22.8577 17.8905 23.6085 17.554C24.357 17.2186 25.2063 17.236 25.9393 17.601C27.5539 18.406 29.1624 19.2701 30.72 20.1693C38.7654 24.8144 45.4732 31.5224 50.1184 39.5678C51.0172 41.1243 51.8812 42.7328 52.6866 44.3487C53.0522 45.0816 53.0694 45.9312 52.7339 46.6796Z" fill="#D82532"></path><path d="M63.4319 49.8263L62.9847 49.8861L62.9249 49.4389C62.85 48.8776 62.3336 48.4832 61.773 48.5585C61.2117 48.6335 60.8176 49.1493 60.8925 49.7105L60.9522 50.1577L60.505 50.2175C59.9438 50.2924 59.5496 50.8082 59.6246 51.3695C59.6933 51.8846 60.1336 52.2591 60.6394 52.2591C60.6847 52.2591 60.7305 52.2561 60.7765 52.2499L61.2238 52.1902L61.2835 52.6374C61.3523 53.1526 61.7925 53.527 62.2984 53.527C62.3436 53.527 62.3894 53.524 62.4355 53.5179C62.9967 53.443 63.3909 52.9271 63.316 52.3659L63.2562 51.9187L63.7034 51.8589C64.2647 51.784 64.6588 51.2682 64.5839 50.7069C64.5088 50.1453 63.9918 49.7511 63.4319 49.8263Z" fill="#D82532"></path><path d="M67.8718 33.9086C66.4066 33.7233 63.7407 33.0621 62.3487 30.7163C62.0677 30.243 61.5351 30.001 60.9922 30.0981C60.4488 30.1958 60.0342 30.6087 59.9359 31.1497C59.4475 33.8335 57.1788 35.3816 55.87 36.0653C55.3602 36.3316 55.086 36.8911 55.1878 37.4576C55.2895 38.0241 55.7412 38.4532 56.3119 38.5254C57.7769 38.7107 60.4428 39.3718 61.8352 41.7179C62.0748 42.1214 62.4973 42.3571 62.9535 42.3571C63.0321 42.3571 63.1117 42.3501 63.1915 42.3358C63.7346 42.2382 64.1493 41.8254 64.248 41.2841C64.7365 38.6001 67.005 37.0523 68.3141 36.3685C68.8237 36.1022 69.0978 35.5428 68.9959 34.9763C68.8939 34.4096 68.4422 33.9806 67.8718 33.9086ZM62.6653 39.4086C61.4075 38.0256 59.8135 37.2784 58.4287 36.8752C59.5864 36.0153 60.8206 34.7599 61.5182 33.0252C62.7761 34.4084 64.3701 35.1556 65.7549 35.5588C64.5972 36.4187 63.3629 37.6741 62.6653 39.4086Z" fill="#D82532"></path></g><defs><clipPath id="clip0_5553_434"><rect width="70" height="70" fill="white"></rect></clipPath></defs></svg>