<svg xmlns="http://www.w3.org/2000/svg" width="70" height="70" viewBox="0 0 70 70" fill="none"><g clip-path="url(#clip0_5553_401)"><path d="M33.2328 25.6125C33.7068 24.789 33.9795 23.8355 33.9795 22.819V19.6917C33.9795 16.5985 31.4629 14.082 28.3697 14.082C25.2764 14.082 22.7598 16.5986 22.7598 19.6917V22.8363C22.7598 23.8465 23.03 24.7941 23.4999 25.6133C20.2799 25.9947 17.7738 28.7396 17.7738 32.0604V39.7167C17.7738 41.3375 19.0925 42.6561 20.7133 42.6561H36.0261C37.6469 42.6561 38.9655 41.3375 38.9655 39.7167V32.0604C38.9657 28.7375 36.4561 25.9909 33.2328 25.6125ZM30.0796 34.0188C30.1018 34.195 30.0329 34.367 29.8952 34.479L28.3698 35.7201L26.8445 34.479C26.7068 34.367 26.6379 34.195 26.66 34.0189L27.3749 28.3489C27.6954 28.4061 28.0246 28.4376 28.3612 28.4376C28.7037 28.4376 29.0387 28.4051 29.3645 28.3462L30.0796 34.0188ZM24.8108 21.1743H31.9289V22.819C31.9289 24.7863 30.3285 26.3867 28.3612 26.3867C26.4035 26.3867 24.8108 24.7941 24.8108 22.8364V21.1743ZM28.3698 16.1328C30.1388 16.1328 31.6101 17.4304 31.8829 19.1235H24.8567C25.1296 17.4304 26.6007 16.1328 28.3698 16.1328ZM36.9149 39.7168C36.9149 40.2068 36.5162 40.6055 36.0262 40.6055H20.7133C20.2233 40.6055 19.8246 40.2068 19.8246 39.7168V32.0605C19.8246 29.6105 21.818 27.6172 24.2681 27.6172H25.4002L24.6254 33.7624C24.5141 34.6455 24.8598 35.5082 25.5501 36.0697L27.1949 37.4079C27.5353 37.6849 27.9526 37.8234 28.3698 37.8234C28.7871 37.8234 29.2045 37.6849 29.5448 37.4079L31.1894 36.0697C31.8798 35.508 32.2256 34.6455 32.1143 33.7623L31.3395 27.6172H32.4714C34.9215 27.6172 36.9149 29.6105 36.9149 32.0605V39.7168Z" fill="#D82532"></path><path d="M69.0464 60.5679L67.6093 59.131C67.6434 58.9936 67.6629 58.8518 67.6629 58.7066C67.6629 58.2379 67.4804 57.7974 67.1491 57.4662L60.4096 50.7268C60.0783 50.3954 59.6377 50.213 59.1691 50.213C59.0239 50.213 58.882 50.2325 58.7448 50.2666L57.394 48.9158C56.2044 47.7262 54.3173 47.65 53.0377 48.6864L50.4883 46.137C50.8162 45.7287 51.1339 45.3105 51.4408 44.8824C54.6787 40.3666 56.4944 35.0693 56.7156 29.5207H61.1898C63.2911 29.5207 65.0005 27.8113 65.0005 25.7102V9.40516C65.0005 7.30406 63.2911 5.59467 61.1898 5.59467H57.6055C57.0392 5.59467 56.5801 6.05377 56.5801 6.62006C56.5801 7.18635 57.0392 7.64545 57.6055 7.64545H61.1898C62.1601 7.64545 62.9496 8.43486 62.9496 9.40516V25.7101C62.9496 26.6804 62.1601 27.4698 61.1898 27.4698H44.8846C43.9143 27.4698 43.1249 26.6804 43.1249 25.7101V9.40516C43.1249 8.43486 43.9143 7.64545 44.8846 7.64545H52.638C53.2042 7.64545 53.6633 7.18635 53.6633 6.62006C53.6633 6.05377 53.2042 5.59467 52.638 5.59467H45.2877C40.3685 1.93471 34.52 0 28.3698 0C12.7266 0 0 12.7263 0 28.3691C0 35.1229 2.37932 41.5859 6.7241 46.7074C5.69434 47.3903 5.01361 48.5592 5.01361 49.8847V66.1897C5.01361 68.2907 6.72301 70.0001 8.8241 70.0001H25.1293C27.2304 70.0001 28.9399 68.2907 28.9399 66.1897V56.7319C30.4861 56.7011 32.0302 56.5462 33.5381 56.2685C34.0951 56.166 34.4634 55.6313 34.3608 55.0744C34.2583 54.5176 33.7243 54.1494 33.1667 54.2516C31.7811 54.5068 30.3606 54.6494 28.9399 54.68V52.6299C35.1271 52.4871 40.9471 50.0248 45.3834 45.6589C49.7753 41.3366 52.3239 35.6297 52.6096 29.5205H54.6623C54.2016 39.9695 47.4164 49.3556 37.5814 53.0307C37.0509 53.229 36.7816 53.8197 36.9798 54.3502C37.1338 54.7624 37.5248 55.0169 37.9405 55.0169C38.0598 55.0169 38.181 54.9959 38.2994 54.9516C41.1573 53.8837 43.7963 52.3763 46.1408 50.49L48.6872 53.0363C47.6509 54.3158 47.7271 56.2029 48.9167 57.3925L50.2675 58.7433C50.2335 58.8807 50.2139 59.0224 50.2139 59.1676C50.2139 59.6362 50.3964 60.0767 50.7277 60.4081L57.4674 67.1475C57.7987 67.4789 58.2392 67.6613 58.7079 67.6613C58.853 67.6613 58.9948 67.6417 59.1322 67.6077L60.5693 69.0447C61.205 69.6804 62.0401 69.9982 62.8752 69.9982C63.7103 69.9982 64.5453 69.6804 65.1811 69.0446L69.0467 65.1793C70.3179 63.9081 70.3179 61.8394 69.0464 60.5679ZM28.3698 2.05078C33.5161 2.05078 38.434 3.51107 42.6969 6.28824C42.1248 6.69088 41.668 7.24623 41.3868 7.8951C37.4955 5.40887 33.0259 4.10156 28.3698 4.10156C14.9883 4.10156 4.1017 14.9879 4.1017 28.3691C4.1017 32.22 4.98162 35.9049 6.71686 39.322C7.99436 41.8377 9.72795 44.1354 11.7942 46.0742H8.89875C4.48178 41.2203 2.05078 34.9435 2.05078 28.3691C2.05078 13.8571 13.8574 2.05078 28.3698 2.05078ZM26.8892 66.1895C26.8892 67.1598 26.0997 67.9492 25.1295 67.9492H8.82424C7.85395 67.9492 7.06453 67.1598 7.06453 66.1895V49.8847C7.06453 48.9144 7.85395 48.125 8.82424 48.125H25.1295C26.0997 48.125 26.8892 48.9144 26.8892 49.8847V66.1895ZM28.9401 50.5786V49.8847C28.9401 47.7836 27.2307 46.0742 25.1295 46.0742H14.9617C14.9558 46.0696 14.9506 46.0644 14.9447 46.0599C9.35703 41.809 6.15248 35.3609 6.15248 28.3691C6.15248 16.1187 16.1191 6.15234 28.3698 6.15234C32.9502 6.15234 37.3335 7.53416 41.074 10.1525V25.7101C41.074 27.8112 42.7834 29.5206 44.8846 29.5206H50.5559C49.9606 41.016 40.4708 50.2819 28.9401 50.5786ZM49.1438 47.6926L51.5746 50.1231L50.1244 51.5733L47.6949 49.1438C48.194 48.6786 48.6775 48.1947 49.1438 47.6926ZM50.3668 54.2311L54.2322 50.3658C54.704 49.894 55.4719 49.894 55.9437 50.3658L57.1166 51.5387L51.5397 57.1156L50.3668 55.9427C49.895 55.4708 49.895 54.7029 50.3668 54.2311ZM52.3876 59.1679L59.1691 52.3865L65.4894 58.7066L58.7079 65.488L52.3876 59.1679ZM67.5964 63.7294L63.7309 67.5947C63.2592 68.0665 62.4914 68.0667 62.0195 67.5947L60.7604 66.3357L66.3373 60.7589L67.5964 62.0179C68.068 62.4898 68.068 63.2576 67.5964 63.7294Z" fill="#D82532"></path><path d="M48.8742 16.5762C48.4281 16.2273 47.7836 16.3061 47.4347 16.7522C47.0858 17.1983 47.1645 17.8428 47.6107 18.1916L51.53 21.2569C51.7169 21.4031 51.9397 21.4746 52.1613 21.4746C52.4415 21.4746 52.72 21.3603 52.9215 21.1379L58.5918 14.8824C58.9721 14.4628 58.9403 13.8144 58.5207 13.434C58.1011 13.0538 57.4525 13.0857 57.0723 13.5051L52.0425 19.0541L48.8742 16.5762Z" fill="#D82532"></path><path d="M11.6447 54.9609H19.3073C19.8736 54.9609 20.3327 54.5018 20.3327 53.9355C20.3327 53.3693 19.8736 52.9102 19.3073 52.9102H11.6447C11.0785 52.9102 10.6194 53.3693 10.6194 53.9355C10.6194 54.5018 11.0785 54.9609 11.6447 54.9609Z" fill="#D82532"></path><path d="M23.6072 57.0117H11.6447C11.0785 57.0117 10.6194 57.4708 10.6194 58.0371C10.6194 58.6034 11.0785 59.0625 11.6447 59.0625H23.6074C24.1737 59.0625 24.6328 58.6034 24.6328 58.0371C24.6328 57.4708 24.1735 57.0117 23.6072 57.0117Z" fill="#D82532"></path><path d="M21.039 61.1133H11.6447C11.0785 61.1133 10.6194 61.5724 10.6194 62.1387C10.6194 62.705 11.0785 63.1641 11.6447 63.1641H21.039C21.6053 63.1641 22.0644 62.705 22.0644 62.1387C22.0644 61.5724 21.6053 61.1133 21.039 61.1133Z" fill="#D82532"></path></g><defs><clipPath id="clip0_5553_401"><rect width="70" height="70" fill="white"></rect></clipPath></defs></svg>