<svg xmlns="http://www.w3.org/2000/svg" width="70" height="70" viewBox="0 0 70 70" fill="none"><g clip-path="url(#clip0_5553_425)"><path d="M43.8853 14.2959H61.2611C61.8275 14.2959 62.2865 13.8369 62.2865 13.2705C62.2865 12.7041 61.8275 12.2451 61.2611 12.2451H43.8853C43.3189 12.2451 42.86 12.7041 42.86 13.2705C42.86 13.8369 43.3191 14.2959 43.8853 14.2959Z" fill="#D82532"></path><path d="M43.8853 18.7239H61.2611C61.8275 18.7239 62.2865 18.2649 62.2865 17.6985C62.2865 17.1321 61.8275 16.6731 61.2611 16.6731H43.8853C43.3189 16.6731 42.86 17.1321 42.86 17.6985C42.86 18.2649 43.3191 18.7239 43.8853 18.7239Z" fill="#D82532"></path><path d="M43.8853 23.1519H61.2611C61.8275 23.1519 62.2865 22.6929 62.2865 22.1265C62.2865 21.56 61.8275 21.1011 61.2611 21.1011H43.8853C43.3189 21.1011 42.86 21.56 42.86 22.1265C42.86 22.6929 43.3191 23.1519 43.8853 23.1519Z" fill="#D82532"></path><path d="M43.8853 27.5801H52.2654C52.8318 27.5801 53.2908 27.1211 53.2908 26.5547C53.2908 25.9883 52.8318 25.5293 52.2654 25.5293H43.8853C43.3189 25.5293 42.86 25.9883 42.86 26.5547C42.86 27.1211 43.3191 27.5801 43.8853 27.5801Z" fill="#D82532"></path><path d="M67.4559 0H2.54406C1.14242 0 0.00218201 1.14037 0.00218201 2.54201V3.81855C0.00218201 5.2202 1.14255 6.36057 2.54419 6.36057H2.64878V40.2891C2.64878 41.9068 3.96484 43.2228 5.58249 43.2228H7.85476C7.70806 43.553 7.62507 43.9173 7.62507 44.3013V46.1214C7.62507 47.5925 8.82191 48.7893 10.293 48.7893H11.2023C11.565 50.3504 12.3242 51.6605 13.4505 52.6375C13.6544 52.8143 13.8623 52.9804 14.0741 53.136L13.8177 54.7743C13.7722 54.7915 13.726 54.8063 13.6783 54.8155L11.6673 55.2025C5.91978 56.3086 1.74822 61.3595 1.74822 67.2126C1.74822 68.7496 2.99865 70 4.53564 70H33.7738C34.4418 70 35.0552 69.7635 35.5358 69.3703C36.0164 69.7635 36.6298 70 37.2978 70H65.4645C67.0015 70 68.2519 68.7496 68.2519 67.2126V67.0733C68.2519 64.9612 67.7024 62.8761 66.663 61.0436C66.3835 60.5508 65.7573 60.3779 65.2652 60.6576C64.7724 60.937 64.5997 61.5628 64.8792 62.0554C65.7439 63.58 66.2011 65.3152 66.2011 67.0733V67.2126C66.2011 67.6188 65.8707 67.9492 65.4645 67.9492H63.5802C63.0695 63.4752 59.2621 59.9878 54.6536 59.9878H48.1089C43.5003 59.9878 39.693 63.4752 39.1822 67.9492H37.298C36.8918 67.9492 36.5613 67.6188 36.5613 67.2126V67.0733C36.5613 62.2017 40.0334 57.9976 44.8171 57.0771C46.8312 56.6807 46.8907 56.6986 47.2216 56.585C49.395 59.1147 53.3649 59.1145 55.5382 56.5843C55.8722 56.6992 55.9668 56.6877 57.9454 57.0771C59.3701 57.3512 60.6916 57.9115 61.8732 58.7423C62.3364 59.0678 62.9759 58.9564 63.3017 58.4932C63.6274 58.03 63.5158 57.3904 63.0526 57.0648C61.6323 56.066 60.0444 55.3927 58.3328 55.0632C56.2223 54.6514 56.3262 54.6894 56.1825 54.6355L56.0667 53.8956C57.0037 53.6994 57.9298 53.4438 58.8384 53.1284C60.7895 52.4509 62.0997 50.6082 62.0992 48.5432C62.0985 46.1642 61.463 45.6081 61.1725 43.2228H64.4705C66.0882 43.2228 67.4043 41.9068 67.4043 40.2891V6.36043H67.4559C68.8576 6.36043 69.9979 5.22006 69.9979 3.81842V2.54187C69.9978 1.14037 68.8576 0 67.4559 0ZM48.1087 62.0386H54.6535C58.1295 62.0386 61.0161 64.6093 61.5132 67.9492H41.249C41.7461 64.6092 44.6325 62.0386 48.1087 62.0386ZM10.2927 46.7384C9.95244 46.7384 9.67558 46.4617 9.67558 46.1213V44.3011C9.67558 43.9608 9.9523 43.684 10.2927 43.684C10.36 43.684 10.4256 43.677 10.4893 43.6647C10.553 43.677 10.6187 43.684 10.6859 43.684C10.8326 43.684 10.952 43.8076 10.952 43.9616L10.9576 46.7384H10.2927ZM13.0084 46.76L13.0028 43.9599C13.0028 43.0464 12.4759 42.2543 11.7113 41.8738V38.1896C11.7113 35.7317 13.6927 33.7322 16.128 33.7322H22.1814C24.6166 33.7322 26.5981 35.7317 26.5981 38.1896V41.8737C25.8335 42.2542 25.3066 43.0462 25.3066 43.9593L25.3055 46.7716C25.3055 46.7793 25.3057 46.7868 25.3058 46.7945C25.2622 48.4385 24.7465 50.0192 23.514 51.0884C20.9508 53.312 17.42 53.3661 14.7945 51.0884C13.5439 50.0037 13.0449 48.3912 13.0084 46.76ZM22.4688 55.1119C20.7595 57.1892 17.5535 57.1933 15.8401 55.1152L15.9823 54.2064C18.0203 55.0327 20.2564 55.0457 22.327 54.206L22.4688 55.1119ZM9.02261 67.9492C9.51972 64.6092 12.4063 62.0386 15.8823 62.0386H22.4271C25.9031 62.0386 28.7897 64.6093 29.2868 67.9492H9.02261ZM33.7738 67.9492H31.3537C30.8429 63.4752 27.0356 59.9878 22.4271 59.9878H15.8823C11.2738 59.9878 7.46648 63.4752 6.9557 67.9492H4.53564C4.12945 67.9492 3.799 67.6188 3.799 67.2126C3.799 62.341 7.27111 58.1369 12.0549 57.2164L14.0651 56.8295C14.2163 56.8005 14.3646 56.7593 14.5089 56.707C17.0234 59.3958 21.2879 59.3909 23.7977 56.7063C23.9423 56.7589 24.0913 56.8002 24.2435 56.8295L26.2545 57.2164C31.0382 58.1369 34.5104 62.341 34.5104 67.2126C34.5104 67.6188 34.18 67.9492 33.7738 67.9492ZM46.5798 54.635C46.4336 54.6905 46.5303 54.653 44.4294 55.0632C40.3516 55.848 37.0692 58.6195 35.505 62.2534C33.9175 58.6883 30.6674 55.9773 26.642 55.2025L24.6312 54.8157C24.5834 54.8064 24.537 54.7918 24.4917 54.7749L24.2352 53.1352C24.4467 52.9799 24.6542 52.814 24.8576 52.6375C25.9678 51.6746 26.7352 50.3452 27.1054 48.7893H28.0167C29.4878 48.7893 30.6846 47.5925 30.6846 46.1214V44.3013C30.6846 43.9173 30.6015 43.553 30.4549 43.2228H41.5898C41.2996 45.605 40.6637 46.1651 40.6632 48.5432C40.6625 50.6082 41.9728 52.4509 43.9239 53.1284C44.8325 53.4438 45.7587 53.6994 46.6956 53.8956L46.5798 54.635ZM27.3563 46.726L27.3574 43.9599C27.3574 43.8078 27.4768 43.6841 27.6235 43.6841H28.0167C28.357 43.6841 28.6338 43.9608 28.6338 44.3013V46.1214C28.6338 46.4617 28.3571 46.7385 28.0167 46.7385H27.3565C27.3563 46.7343 27.3565 46.7301 27.3563 46.726ZM48.5961 55.0158L48.7199 54.2243C50.4675 54.4287 52.2309 54.4361 54.0422 54.2243L54.1654 55.0121C52.7985 56.901 49.9681 56.9064 48.5961 55.0158ZM58.1656 51.1911C53.7909 52.71 48.9717 52.7099 44.5964 51.1911C43.4701 50.7999 42.7135 49.736 42.7138 48.5438C42.7146 46.1828 43.746 45.2126 43.747 41.5032C43.7484 37.2952 47.173 33.8717 51.3811 33.8717C55.5892 33.8717 59.0137 37.2952 59.0151 41.507C59.0155 43.0895 59.2461 44.6605 59.7006 46.1766L59.7007 46.1768C59.9311 46.9451 60.048 47.7416 60.0482 48.5439C60.0486 49.736 59.292 50.7998 58.1656 51.1911ZM65.3535 40.2891C65.3535 40.776 64.9574 41.172 64.4705 41.172H61.0575C60.8807 35.9862 56.6088 31.8209 51.3811 31.8209C46.1546 31.8209 41.8835 35.9844 41.705 41.172H28.649V38.1896C28.649 38.0881 28.646 37.9873 28.6413 37.8868H36.5865C38.1779 37.8868 39.4723 36.5922 39.4723 35.001V12.5315C39.4723 10.9401 38.1777 9.64565 36.5865 9.64565H10.8705C9.2791 9.64565 7.98464 10.9402 7.98464 12.5315V21.3676C7.98464 21.9341 8.44361 22.393 9.01003 22.393C9.57646 22.393 10.0354 21.9341 10.0354 21.3676V12.5315C10.0354 12.071 10.41 11.6964 10.8705 11.6964H36.5863C37.0468 11.6964 37.4214 12.071 37.4214 12.5315V35.001C37.4214 35.4614 37.0468 35.836 36.5863 35.836H28.2094C27.2698 33.4078 24.923 31.6814 22.1815 31.6814H16.1282C13.503 31.6814 11.2399 33.2644 10.2274 35.5307C10.1077 35.3862 10.0356 35.2015 10.0356 35.0008V26.1647C10.0356 25.5983 9.5766 25.1393 9.01017 25.1393C8.44374 25.1393 7.98478 25.5983 7.98478 26.1647V35.0008C7.98478 36.1636 8.6856 37.1729 9.68652 37.6277C9.67066 37.8131 9.66082 38.0002 9.66082 38.1895V41.1718H5.58236C5.0955 41.1718 4.69943 40.7757 4.69943 40.2888V6.36043H65.3535V40.2891ZM67.947 3.81855C67.947 4.08939 67.7268 4.30979 67.4558 4.30979H2.54406C2.27322 4.30979 2.05283 4.08953 2.05283 3.81855V2.54201C2.05283 2.27117 2.27308 2.05078 2.54406 2.05078H67.4558C67.7266 2.05078 67.947 2.27104 67.947 2.54201V3.81855Z" fill="#D82532"></path><path d="M14.0723 22.4934L16.3669 23.2798V26.9722C16.3669 28.3976 17.5264 29.5572 18.9518 29.5572H28.5049C29.9303 29.5572 31.0898 28.3976 31.0898 26.9722V23.2798L32.1007 22.9334V24.2518C32.1007 24.8182 32.5597 25.2772 33.1261 25.2772C33.6926 25.2772 34.1515 24.8182 34.1515 24.2518C34.1221 21.6351 34.2035 21.4087 34.102 21.0936C33.9985 20.7493 33.7364 20.4664 33.3845 20.3461L24.9745 17.4637C24.1711 17.1881 23.2858 17.1883 22.4823 17.4637H22.4822L14.0725 20.346C13.6139 20.503 13.3056 20.9343 13.3053 21.4191C13.3051 21.904 13.6128 22.3357 14.0723 22.4934ZM29.0391 26.9722C29.0391 27.2667 28.7994 27.5064 28.5049 27.5064H18.9518C18.6573 27.5064 18.4177 27.2667 18.4177 26.9722V23.9827L22.4823 25.3757C23.2854 25.6512 24.1709 25.6511 24.9745 25.3757L29.0391 23.9827V26.9722ZM23.1472 19.4037C23.522 19.2754 23.9351 19.2754 24.3097 19.4037L30.1919 21.4198L24.3097 23.4358C23.9348 23.5642 23.522 23.5642 23.1472 23.4358L17.265 21.4198L23.1472 19.4037Z" fill="#D82532"></path></g><defs><clipPath id="clip0_5553_425"><rect width="70" height="70" fill="white"></rect></clipPath></defs></svg>