<svg xmlns="http://www.w3.org/2000/svg" width="52" height="60" viewBox="0 0 52 60" fill="none"><path d="M26 0L52 15V45L26 60L0 45V15L26 0Z" fill="#D82532"></path><g clip-path="url(#clip0_5574_18885)"><path d="M35.1797 29.789C35.1406 29.6679 35.0117 29.5117 34.8867 29.4413C34.8281 29.4062 32.7851 29.3906 26.8867 29.3749L18.9609 29.3554L22.1289 26.2734C25.5859 22.9101 25.4687 23.039 25.375 22.6952C25.3164 22.4765 25.125 22.2851 24.9062 22.2265C24.7578 22.1874 24.7109 22.1913 24.5625 22.2538C24.4336 22.3085 23.5156 23.1757 20.6406 25.9765C18.2969 28.2538 16.8672 29.6757 16.8359 29.7538C16.7656 29.914 16.7656 30.0859 16.8359 30.246C16.8867 30.3632 24.289 37.6132 24.457 37.707C24.7656 37.8788 25.1601 37.7617 25.3203 37.4531C25.3984 37.3046 25.3984 37.0351 25.3242 36.8906C25.293 36.8281 23.8476 35.3984 22.1133 33.7109L18.9648 30.6445L26.8945 30.6249C34.8203 30.6054 34.8242 30.6054 34.9336 30.5234C35.0625 30.4296 35.2187 30.1406 35.2148 29.9999C35.2148 29.9452 35.1953 29.8515 35.1797 29.789Z" fill="white"></path></g><defs><clipPath id="clip0_5574_18885"><rect width="20" height="20" fill="white" transform="translate(36 20) rotate(90)"></rect></clipPath></defs></svg>