<svg xmlns="http://www.w3.org/2000/svg" width="52" height="60" viewBox="0 0 52 60" fill="none"><path d="M26 0L-3.8147e-06 15V45L26 60L52 45V15L26 0Z" fill="#D82532"></path><g clip-path="url(#clip0_5574_18884)"><path d="M16.8203 29.789C16.8594 29.6679 16.9883 29.5117 17.1133 29.4413C17.1719 29.4062 19.2148 29.3906 25.1133 29.3749L33.0391 29.3554L29.8711 26.2734C26.4141 22.9101 26.5312 23.039 26.625 22.6952C26.6836 22.4765 26.875 22.2851 27.0937 22.2265C27.2422 22.1874 27.2891 22.1913 27.4375 22.2538C27.5664 22.3085 28.4844 23.1757 31.3594 25.9765C33.7031 28.2538 35.1328 29.6757 35.1641 29.7538C35.2344 29.914 35.2344 30.0859 35.1641 30.246C35.1133 30.3632 27.7109 37.6132 27.543 37.707C27.2344 37.8788 26.8398 37.7617 26.6797 37.4531C26.6016 37.3046 26.6016 37.0351 26.6758 36.8906C26.707 36.8281 28.1523 35.3984 29.8867 33.7109L33.0352 30.6445L25.1055 30.6249C17.1797 30.6054 17.1758 30.6054 17.0664 30.5234C16.9375 30.4296 16.7812 30.1406 16.7852 29.9999C16.7852 29.9452 16.8047 29.8515 16.8203 29.789Z" fill="white"></path></g><defs><clipPath id="clip0_5574_18884"><rect width="20" height="20" fill="white" transform="matrix(4.37114e-08 1 1 -4.37114e-08 16 20)"></rect></clipPath></defs></svg>